<svg width="252" height="249" viewBox="0 0 252 249" fill="none" xmlns="http://www.w3.org/2000/svg">
<path opacity="0.7" d="M24.0171 77.2656C24.0171 77.2656 8.40431 117.586 30.3451 158.186C52.2859 198.786 97.4779 220.234 133.648 238.574C169.819 256.914 207.378 247.982 225.225 217.943C243.072 187.905 218.595 166.462 218.561 123.628C218.528 80.7936 224.973 69.4536 201.761 33.2664C178.549 -2.92077 121.648 -10.9344 78.6171 15.9064C35.5867 42.7472 24.0171 77.2656 24.0171 77.2656Z" fill="#B5FFCA"/>
<path d="M113.796 12.4344C183.236 6.27441 183.376 45.4352 214.669 81.9472C245.962 118.459 252.665 135.007 240.866 177.097C229.067 219.186 189.312 252.176 140.128 233.483C90.9428 214.79 62.7692 232.738 31.7452 216.123C0.721174 199.508 -10.8148 167.448 11.9156 129.654C34.646 91.8592 28.15 20.0616 113.796 12.4344Z" fill="#09FF4F"/>
<path opacity="0.7" d="M113.796 12.4344C183.236 6.27441 183.376 45.4352 214.669 81.9472C245.962 118.459 252.665 135.007 240.866 177.097C229.067 219.186 189.312 252.176 140.128 233.483C90.9428 214.79 62.7692 232.738 31.7452 216.123C0.721174 199.508 -10.8148 167.448 11.9156 129.654C34.646 91.8592 28.15 20.0616 113.796 12.4344Z" fill="white"/>
<path d="M129.565 15.0093L118.139 17.4149C116.599 17.7393 115.613 19.251 115.937 20.7914L118.343 32.2169C118.667 33.7574 120.179 34.7432 121.719 34.4189L133.145 32.0133C134.685 31.6889 135.671 30.1772 135.347 28.6367L132.941 17.2112C132.617 15.6708 131.105 14.6849 129.565 15.0093Z" stroke="#263238" stroke-linecap="round" stroke-linejoin="round"/>
<path d="M124.918 21.2432L126.374 28.176" stroke="#263238" stroke-linecap="round" stroke-linejoin="round"/>
<path d="M129.112 23.9761L122.18 25.4377" stroke="#263238" stroke-linecap="round" stroke-linejoin="round"/>
<path d="M244.739 137.169L233.314 139.575C231.773 139.899 230.788 141.411 231.112 142.952L233.518 154.377C233.842 155.918 235.354 156.903 236.894 156.579L248.32 154.173C249.86 153.849 250.846 152.337 250.522 150.797L248.116 139.371C247.792 137.831 246.28 136.845 244.739 137.169Z" stroke="#263238" stroke-linecap="round" stroke-linejoin="round"/>
<path d="M242.759 143.894L238.889 149.83" stroke="#263238" stroke-linecap="round" stroke-linejoin="round"/>
<path d="M243.789 148.8L237.853 144.925" stroke="#263238" stroke-linecap="round" stroke-linejoin="round"/>
<path d="M90.4792 211.544L78.8032 210.843C77.2289 210.749 75.8762 211.949 75.7817 213.523L75.0812 225.199C74.9867 226.773 76.1863 228.126 77.7605 228.22L89.4366 228.921C91.0108 229.015 92.3635 227.816 92.458 226.241L93.1585 214.565C93.253 212.991 92.0534 211.638 90.4792 211.544Z" stroke="#263238" stroke-width="1.0018" stroke-linecap="round" stroke-linejoin="round"/>
<path d="M88.0531 219.461L80.9747 219.052" stroke="#263238" stroke-linecap="round" stroke-linejoin="round"/>
<path d="M20.812 130.271L9.72848 126.599C8.23412 126.104 6.62136 126.914 6.12628 128.408L2.4543 139.492C1.95922 140.986 2.7693 142.599 4.26366 143.094L15.3472 146.766C16.8416 147.261 18.4543 146.451 18.9494 144.956L22.6214 133.873C23.1165 132.379 22.3064 130.766 20.812 130.271Z" stroke="#263238" stroke-linecap="round" stroke-linejoin="round"/>
<path d="M16.9723 134.458L8.10754 138.91" stroke="#263238" stroke-linecap="round" stroke-linejoin="round"/>
<path d="M11.8875 132.655C11.9938 132.874 12.0332 133.12 12.0006 133.361C11.9679 133.603 11.8649 133.829 11.7042 134.012C11.5436 134.195 11.3325 134.327 11.0974 134.39C10.8624 134.454 10.6138 134.447 10.3827 134.37C10.1517 134.293 9.94854 134.149 9.79866 133.957C9.64878 133.765 9.55886 133.533 9.54016 133.291C9.52145 133.048 9.5748 132.805 9.69351 132.592C9.81222 132.38 9.99103 132.207 10.2075 132.095C10.3541 132.019 10.5145 131.973 10.6792 131.96C10.8438 131.947 11.0095 131.967 11.1662 132.019C11.323 132.071 11.4676 132.155 11.5915 132.264C11.7154 132.373 11.8161 132.506 11.8875 132.655Z" stroke="#263238" stroke-linecap="round" stroke-linejoin="round"/>
<path d="M15.4044 139.633C15.5107 139.852 15.55 140.097 15.5174 140.339C15.4848 140.58 15.3817 140.806 15.2211 140.99C15.0604 141.173 14.8494 141.304 14.6143 141.368C14.3792 141.431 14.1306 141.424 13.8996 141.347C13.6686 141.27 13.4654 141.127 13.3155 140.935C13.1656 140.743 13.0757 140.511 13.057 140.268C13.0383 140.025 13.0916 139.782 13.2104 139.57C13.3291 139.357 13.5079 139.184 13.7244 139.073C13.8709 138.996 14.0313 138.95 14.196 138.937C14.3607 138.924 14.5263 138.944 14.6831 138.997C14.8398 139.049 14.9844 139.132 15.1084 139.241C15.2323 139.351 15.3329 139.484 15.4044 139.633Z" stroke="#263238" stroke-linecap="round" stroke-linejoin="round"/>
<path d="M130.288 208.138C129.129 209.816 127.499 211.113 125.602 211.865C123.706 212.617 121.629 212.79 119.635 212.362C117.641 211.934 115.818 210.924 114.397 209.46C112.977 207.996 112.022 206.143 111.654 204.137C111.286 202.131 111.521 200.06 112.33 198.187C113.139 196.314 114.485 194.724 116.197 193.616C117.91 192.507 119.913 191.932 121.953 191.962C123.992 191.992 125.977 192.627 127.656 193.785C129.908 195.339 131.45 197.725 131.944 200.416C132.437 203.108 131.842 205.885 130.288 208.138Z" fill="#09FF4F"/>
<mask id="mask0_24_5" style="mask-type:luminance" maskUnits="userSpaceOnUse" x="111" y="191" width="22" height="22">
<path d="M130.288 208.138C129.129 209.816 127.499 211.113 125.602 211.865C123.706 212.617 121.629 212.79 119.635 212.362C117.641 211.934 115.818 210.924 114.397 209.46C112.977 207.996 112.022 206.143 111.654 204.137C111.286 202.131 111.521 200.06 112.33 198.187C113.139 196.314 114.485 194.724 116.197 193.616C117.91 192.507 119.913 191.932 121.953 191.962C123.992 191.992 125.977 192.627 127.656 193.785C129.908 195.339 131.45 197.725 131.944 200.416C132.437 203.108 131.842 205.885 130.288 208.138Z" fill="white"/>
</mask>
<g mask="url(#mask0_24_5)">
<path opacity="0.3" d="M128.944 207.208C127.968 208.62 126.595 209.71 124.999 210.342C123.403 210.974 121.655 211.118 119.977 210.756C118.299 210.395 116.766 209.544 115.572 208.311C114.377 207.078 113.575 205.519 113.267 203.831C112.958 202.142 113.157 200.4 113.839 198.825C114.52 197.249 115.654 195.911 117.096 194.98C118.537 194.048 120.223 193.565 121.939 193.592C123.656 193.619 125.326 194.153 126.738 195.129C128.632 196.439 129.928 198.447 130.342 200.712C130.755 202.977 130.253 205.313 128.944 207.208Z" fill="black" fill-opacity="0.7"/>
<path d="M128.944 207.208C127.968 208.62 126.595 209.71 124.999 210.342C123.403 210.974 121.655 211.118 119.977 210.756C118.299 210.395 116.766 209.544 115.572 208.311C114.377 207.078 113.575 205.519 113.267 203.831C112.958 202.142 113.157 200.4 113.839 198.825C114.52 197.249 115.654 195.911 117.096 194.98C118.537 194.048 120.223 193.565 121.939 193.592C123.656 193.619 125.326 194.153 126.738 195.129C128.632 196.439 129.928 198.447 130.342 200.712C130.755 202.977 130.253 205.313 128.944 207.208Z" stroke="#263238" stroke-linecap="round" stroke-linejoin="round"/>
<path d="M124.028 197.934L124.448 197.335L125.489 198.052L125.069 198.657C125.848 199.469 125.831 200.482 125.069 201.58L124.89 201.838L123.686 201.003L123.921 200.667C124.319 200.107 124.24 199.71 123.837 199.43C123.434 199.15 123.048 199.206 122.644 199.788C122.241 200.37 122.196 200.908 122.583 202.207C123.048 203.764 122.964 204.649 122.325 205.567C121.564 206.687 120.6 207.046 119.57 206.609L119.161 207.197L118.136 206.486L118.545 205.892C117.756 205.074 117.784 204.05 118.545 202.946L118.926 202.386L120.13 203.221L119.693 203.854C119.29 204.414 119.402 204.817 119.805 205.102C120.208 205.388 120.612 205.349 121.015 204.766C121.418 204.184 121.468 203.613 121.076 202.347C120.6 200.807 120.69 199.911 121.334 198.987C122.056 197.901 123.003 197.514 124.028 197.934Z" fill="#09FF4F" stroke="#263238" stroke-linecap="round" stroke-linejoin="round"/>
<path opacity="0.2" d="M118.926 193.908C118.927 196.319 118.301 198.69 117.109 200.786C115.917 202.882 114.201 204.632 112.128 205.864C111.636 204.541 111.421 203.131 111.496 201.721C111.571 200.312 111.935 198.933 112.565 197.67C113.195 196.406 114.078 195.286 115.158 194.378C116.239 193.47 117.495 192.793 118.848 192.39C118.902 192.894 118.928 193.401 118.926 193.908Z" fill="black" fill-opacity="0.7"/>
</g>
<path d="M130.288 208.138C129.129 209.816 127.499 211.113 125.602 211.865C123.706 212.617 121.629 212.79 119.635 212.362C117.641 211.934 115.818 210.924 114.397 209.46C112.977 207.996 112.022 206.143 111.654 204.137C111.286 202.131 111.521 200.06 112.33 198.187C113.139 196.314 114.485 194.724 116.197 193.616C117.91 192.507 119.913 191.932 121.953 191.962C123.992 191.992 125.977 192.627 127.656 193.785C129.908 195.339 131.45 197.725 131.944 200.416C132.437 203.108 131.842 205.885 130.288 208.138Z" stroke="#263238" stroke-linecap="round" stroke-linejoin="round"/>
<path d="M107.071 203.91C112.771 203.91 117.392 199.289 117.392 193.589C117.392 187.889 112.771 183.268 107.071 183.268C101.371 183.268 96.75 187.889 96.75 193.589C96.75 199.289 101.371 203.91 107.071 203.91Z" fill="#09FF4F" stroke="#263238" stroke-linecap="round" stroke-linejoin="round"/>
<path opacity="0.3" d="M107.071 202.269C111.865 202.269 115.751 198.383 115.751 193.589C115.751 188.795 111.865 184.909 107.071 184.909C102.277 184.909 98.3907 188.795 98.3907 193.589C98.3907 198.383 102.277 202.269 107.071 202.269Z" fill="black" fill-opacity="0.7"/>
<path d="M107.071 202.269C111.865 202.269 115.751 198.383 115.751 193.589C115.751 188.795 111.865 184.909 107.071 184.909C102.277 184.909 98.3907 188.795 98.3907 193.589C98.3907 198.383 102.277 202.269 107.071 202.269Z" stroke="#263238" stroke-linecap="round" stroke-linejoin="round"/>
<path d="M106.438 188.756V188.028H107.704V188.756C108.824 188.986 109.384 189.826 109.384 191.164V191.455H107.916V191.046C107.916 190.341 107.636 190.072 107.144 190.072C106.651 190.072 106.371 190.341 106.371 191.046C106.371 191.752 106.651 192.239 107.692 193.074C108.958 194.087 109.372 194.86 109.372 195.986C109.372 197.324 108.812 198.186 107.692 198.41V199.127H106.427V198.41C105.307 198.186 104.747 197.324 104.747 195.986V195.314H106.208V196.086C106.208 196.792 106.516 197.044 107.009 197.044C107.502 197.044 107.816 196.792 107.816 196.086C107.816 195.381 107.536 194.877 106.488 194.059C105.223 193.057 104.808 192.273 104.808 191.142C104.803 189.842 105.352 188.997 106.438 188.756Z" fill="#09FF4F" stroke="#263238" stroke-linecap="round" stroke-linejoin="round"/>
<path d="M164.994 202.258C168.069 197.459 166.672 191.075 161.872 188C157.073 184.925 150.69 186.322 147.614 191.122C144.539 195.921 145.937 202.305 150.736 205.38C155.536 208.455 161.919 207.057 164.994 202.258Z" fill="#09FF4F" stroke="#263238" stroke-linecap="round" stroke-linejoin="round"/>
<path opacity="0.3" d="M162.662 190.789C163.831 192.047 164.6 193.623 164.873 195.318C165.146 197.013 164.91 198.751 164.195 200.312C163.479 201.873 162.318 203.187 160.856 204.087C159.394 204.988 157.698 205.434 155.982 205.371C154.266 205.308 152.608 204.737 151.217 203.731C149.826 202.725 148.764 201.328 148.166 199.719C147.568 198.109 147.461 196.359 147.859 194.689C148.256 193.018 149.14 191.503 150.398 190.335C151.232 189.559 152.212 188.954 153.28 188.557C154.349 188.159 155.485 187.976 156.624 188.018C157.763 188.06 158.883 188.327 159.919 188.802C160.955 189.278 161.887 189.953 162.662 190.789Z" fill="black" fill-opacity="0.7"/>
<path d="M162.662 190.789C163.831 192.047 164.6 193.623 164.873 195.318C165.146 197.013 164.91 198.751 164.195 200.312C163.479 201.873 162.318 203.187 160.856 204.087C159.394 204.988 157.698 205.434 155.982 205.371C154.266 205.308 152.608 204.737 151.217 203.731C149.826 202.725 148.764 201.328 148.166 199.719C147.568 198.109 147.461 196.359 147.859 194.689C148.256 193.018 149.14 191.503 150.398 190.335C151.232 189.559 152.212 188.954 153.28 188.557C154.349 188.159 155.485 187.976 156.624 188.018C157.763 188.06 158.883 188.327 159.919 188.802C160.955 189.278 161.887 189.953 162.662 190.789Z" stroke="#263238" stroke-linecap="round" stroke-linejoin="round"/>
<path d="M152.554 193.589L152.056 193.029L152.98 192.166L153.478 192.726C154.441 192.166 155.427 192.379 156.334 193.359L156.547 193.583L155.477 194.58L155.197 194.283C154.716 193.768 154.329 193.762 153.971 194.098C153.612 194.434 153.584 194.821 154.06 195.336C154.536 195.851 155.085 196.019 156.412 195.924C158.031 195.801 158.876 196.07 159.644 196.898C160.551 197.878 160.713 198.898 160.064 199.81L160.551 200.337L159.621 201.199L159.134 200.673C158.165 201.266 157.168 201.02 156.261 200.04L155.796 199.547L156.872 198.55L157.398 199.11C157.88 199.626 158.277 199.603 158.641 199.267C159.005 198.931 159.056 198.534 158.574 198.018C158.092 197.503 157.544 197.324 156.228 197.458C154.615 197.587 153.758 197.307 152.996 196.478C152.095 195.493 151.921 194.502 152.554 193.589Z" fill="#09FF4F" stroke="#263238" stroke-linecap="round" stroke-linejoin="round"/>
<path opacity="0.2" d="M152.056 151.835C152.056 151.835 152.011 173.25 152.056 174.498C152.1 175.747 153.736 183.268 153.736 183.268L148.533 192.855L153.013 196.462L161.721 187.905C161.721 187.905 169.136 192.48 170.491 199.032C171.846 205.584 179.916 210.355 188.288 228.499C196.66 246.643 206.208 187.905 206.208 187.905L180.375 155.38L152.056 151.835Z" fill="black" fill-opacity="0.7"/>
<path d="M231.027 36.7888L223.114 114.002L218.248 161.501L150.241 154.534L137.008 153.179L128.536 152.311L136.045 79.0072L141.315 27.5992L231.027 36.7888Z" fill="white"/>
<mask id="mask1_24_5" style="mask-type:luminance" maskUnits="userSpaceOnUse" x="128" y="27" width="104" height="135">
<path d="M231.027 36.7888L223.114 114.002L218.248 161.501L150.241 154.534L137.008 153.179L128.536 152.311L136.045 79.0072L141.315 27.5992L231.027 36.7888Z" fill="white"/>
</mask>
<g mask="url(#mask1_24_5)">
<path d="M204.97 39.6953L166.246 35.7249C166.073 35.7072 165.899 35.7238 165.732 35.7736C165.566 35.8234 165.411 35.9056 165.276 36.0153C165.141 36.125 165.03 36.2602 164.947 36.4131C164.865 36.566 164.813 36.7336 164.796 36.9065C164.778 37.0793 164.795 37.2539 164.844 37.4203C164.894 37.5867 164.976 37.7417 165.086 37.8764C165.196 38.0111 165.331 38.1228 165.484 38.2053C165.637 38.2877 165.804 38.3392 165.977 38.3569L204.701 42.3273C205.05 42.3629 205.399 42.2584 205.671 42.0368C205.943 41.8153 206.116 41.4947 206.152 41.1457C206.187 40.7966 206.083 40.4477 205.861 40.1757C205.64 39.9037 205.319 39.7309 204.97 39.6953Z" fill="#263238"/>
<path d="M194.733 44.0913L175.374 42.1033C175.199 42.0861 175.024 42.1388 174.888 42.25C174.751 42.3612 174.664 42.5219 174.646 42.6969C174.637 42.7833 174.646 42.8706 174.671 42.9537C174.697 43.0367 174.738 43.114 174.793 43.1811C174.848 43.2482 174.916 43.3038 174.993 43.3447C175.069 43.3855 175.153 43.4109 175.24 43.4193L194.599 45.4073C194.774 45.4245 194.949 45.3718 195.085 45.2606C195.222 45.1494 195.308 44.9887 195.327 44.8137C195.336 44.7271 195.328 44.6396 195.303 44.5562C195.278 44.4728 195.237 44.3952 195.182 44.328C195.126 44.2607 195.058 44.2052 194.981 44.1645C194.904 44.1239 194.82 44.099 194.733 44.0913Z" fill="#263238"/>
<path d="M216.041 101.077L153.187 94.6369C153.017 94.6176 152.846 94.6652 152.71 94.7697C152.574 94.8742 152.484 95.0274 152.459 95.1969C152.442 95.372 152.494 95.5469 152.606 95.6833C152.717 95.8196 152.877 95.9065 153.052 95.9249L215.907 102.415C215.993 102.424 216.081 102.415 216.164 102.39C216.247 102.365 216.324 102.323 216.391 102.268C216.458 102.213 216.514 102.145 216.555 102.069C216.596 101.992 216.621 101.908 216.629 101.822C216.642 101.734 216.636 101.644 216.613 101.559C216.59 101.473 216.55 101.393 216.495 101.323C216.44 101.254 216.371 101.196 216.293 101.154C216.215 101.111 216.13 101.085 216.041 101.077Z" fill="#263238"/>
<path d="M215.576 105.809L142.468 98.3217C142.382 98.3124 142.295 98.3202 142.212 98.3448C142.129 98.3694 142.052 98.4102 141.985 98.4649C141.917 98.5196 141.862 98.5871 141.821 98.6634C141.78 98.7397 141.754 98.8234 141.746 98.9097C141.727 99.0799 141.774 99.251 141.879 99.3868C141.983 99.5227 142.136 99.6126 142.306 99.6376L215.392 107.125C215.478 107.134 215.565 107.125 215.649 107.1C215.732 107.076 215.809 107.034 215.877 106.98C215.944 106.925 216 106.857 216.041 106.781C216.082 106.704 216.108 106.62 216.117 106.534C216.126 106.448 216.117 106.36 216.092 106.277C216.068 106.194 216.026 106.116 215.972 106.049C215.917 105.982 215.849 105.926 215.773 105.885C215.696 105.843 215.612 105.818 215.526 105.809H215.576Z" fill="#263238"/>
<path d="M194.604 108.446L141.964 103.054C141.79 103.035 141.615 103.087 141.479 103.197C141.342 103.307 141.255 103.467 141.237 103.642C141.218 103.816 141.269 103.991 141.38 104.127C141.49 104.264 141.65 104.351 141.824 104.37L194.464 109.762C194.551 109.771 194.638 109.762 194.721 109.737C194.804 109.712 194.882 109.67 194.949 109.615C195.016 109.56 195.071 109.492 195.112 109.416C195.153 109.339 195.178 109.255 195.187 109.169C195.196 109.083 195.189 108.996 195.164 108.914C195.14 108.831 195.1 108.754 195.046 108.687C194.992 108.62 194.925 108.564 194.849 108.523C194.773 108.481 194.69 108.456 194.604 108.446Z" fill="#263238"/>
<path d="M141.158 108.157L139.019 129.025L212.699 136.574L214.837 115.706L141.158 108.157Z" fill="#BFBFBF" stroke="#263238" stroke-miterlimit="10"/>
<path d="M174.945 84.009C181.905 78.2104 182.846 67.8677 177.047 60.908C171.249 53.9482 160.906 53.007 153.946 58.8056C146.987 64.6042 146.045 74.9469 151.844 81.9066C157.643 88.8663 167.985 89.8076 174.945 84.009Z" fill="#09FF4F"/>
<mask id="mask2_24_5" style="mask-type:luminance" maskUnits="userSpaceOnUse" x="148" y="55" width="33" height="33">
<path d="M174.945 84.009C181.905 78.2104 182.846 67.8677 177.047 60.908C171.249 53.9482 160.906 53.007 153.946 58.8056C146.987 64.6042 146.045 74.9469 151.844 81.9066C157.643 88.8663 167.985 89.8076 174.945 84.009Z" fill="white"/>
</mask>
<g mask="url(#mask2_24_5)">
<path opacity="0.5" d="M174.945 84.009C181.905 78.2104 182.846 67.8677 177.047 60.908C171.249 53.9482 160.906 53.007 153.946 58.8056C146.987 64.6042 146.045 74.9469 151.844 81.9066C157.643 88.8663 167.985 89.8076 174.945 84.009Z" fill="white"/>
</g>
<path d="M174.945 84.009C181.905 78.2104 182.846 67.8677 177.047 60.908C171.249 53.9482 160.906 53.007 153.946 58.8056C146.987 64.6042 146.045 74.9469 151.844 81.9066C157.643 88.8663 167.985 89.8076 174.945 84.009Z" stroke="#263238" stroke-miterlimit="10"/>
<path d="M164.919 71.3689L178.56 78.2289C179.833 75.5857 180.339 72.6384 180.02 69.722C179.702 66.8056 178.571 64.0372 176.757 61.7313L164.919 71.3689Z" fill="white"/>
<path d="M165.008 70.6297L176.432 61.3337C174.727 59.3013 172.532 57.7364 170.054 56.7865L167.976 62.4425L165.008 70.6297Z" fill="#09FF4F"/>
<path d="M166.296 55.868L164.919 69.3752L169.567 56.6016C168.506 56.2401 167.41 55.9942 166.296 55.868Z" fill="#757575"/>
<path d="M164.208 71.2457L165.792 55.8121C163.092 55.5853 160.38 56.0621 157.919 57.1959C155.458 58.3298 153.333 60.0819 151.751 62.2816C150.169 64.4813 149.184 67.0535 148.892 69.7472C148.599 72.441 149.011 75.1645 150.084 77.6521L164.208 71.2457Z" fill="#999999"/>
<path d="M162.852 87.004C165.967 87.3209 169.105 86.6982 171.863 85.2161C174.62 83.734 176.871 81.4604 178.325 78.688L164.443 71.7048L150.292 78.1336C151.447 80.5665 153.21 82.6606 155.41 84.2143C157.61 85.768 160.173 86.7287 162.852 87.004Z" fill="#BFBFBF"/>
<path d="M190.767 60.765L188.901 60.5738C188.707 60.5539 188.534 60.695 188.514 60.8888L188.323 62.755C188.303 62.9489 188.444 63.1221 188.638 63.142L190.504 63.3332C190.698 63.353 190.871 63.212 190.891 63.0182L191.082 61.1519C191.102 60.9581 190.961 60.7849 190.767 60.765Z" fill="#09FF4F" stroke="#263238" stroke-miterlimit="10"/>
<path d="M216.769 64.3801L192.656 61.9105C192.599 61.8845 192.552 61.8413 192.521 61.787C192.49 61.7328 192.478 61.6702 192.484 61.6082C192.491 61.5463 192.517 61.488 192.559 61.4417C192.601 61.3954 192.656 61.3635 192.717 61.3505L216.831 63.7753C216.904 63.7896 216.968 63.8305 217.012 63.8902C217.056 63.9498 217.077 64.0237 217.069 64.0974C217.061 64.1711 217.026 64.2393 216.971 64.2885C216.915 64.3377 216.843 64.3644 216.769 64.3633V64.3801Z" fill="#263238"/>
<path d="M214.277 65.4216L192.527 63.1816C192.449 63.1732 192.378 63.1343 192.328 63.0734C192.279 63.0126 192.256 62.9347 192.264 62.8568C192.267 62.818 192.278 62.7803 192.297 62.7458C192.315 62.7114 192.34 62.6811 192.37 62.6565C192.401 62.632 192.436 62.6137 192.473 62.6029C192.511 62.5921 192.55 62.589 192.589 62.5936L214.339 64.8336C214.412 64.8479 214.476 64.8889 214.52 64.9485C214.564 65.0081 214.585 65.0821 214.577 65.1558C214.569 65.2295 214.534 65.2977 214.479 65.3469C214.423 65.3961 214.351 65.4227 214.277 65.4216Z" fill="#263238"/>
<path d="M190.178 66.5159L188.312 66.3247C188.118 66.3048 187.945 66.4458 187.925 66.6397L187.734 68.5059C187.714 68.6997 187.855 68.873 188.049 68.8928L189.915 69.084C190.109 69.1039 190.282 68.9628 190.302 68.769L190.493 66.9028C190.513 66.709 190.372 66.5357 190.178 66.5159Z" fill="#757575" stroke="#263238" stroke-linecap="round" stroke-linejoin="round"/>
<path d="M216.181 70.1312L192.056 67.6616C191.984 67.6474 191.919 67.6064 191.875 67.5468C191.831 67.4871 191.811 67.4132 191.819 67.3395C191.826 67.2658 191.861 67.1976 191.917 67.1484C191.972 67.0992 192.044 67.0725 192.118 67.0736L216.226 69.5432C216.304 69.5517 216.376 69.5904 216.426 69.6511C216.477 69.7117 216.501 69.7896 216.495 69.868C216.486 69.9438 216.449 70.0134 216.391 70.0624C216.332 70.1114 216.257 70.136 216.181 70.1312Z" fill="#263238"/>
<path d="M213.684 71.1784L191.939 68.9384C191.86 68.931 191.788 68.8926 191.737 68.8317C191.687 68.7708 191.663 68.6923 191.67 68.6136C191.677 68.5349 191.716 68.4624 191.777 68.412C191.838 68.3615 191.916 68.3374 191.995 68.3448L213.745 70.5848C213.784 70.5889 213.822 70.6005 213.856 70.6192C213.891 70.6379 213.921 70.6631 213.946 70.6935C213.971 70.724 213.989 70.7589 214 70.7965C214.012 70.8341 214.015 70.8734 214.011 70.9124C214.007 70.9514 213.995 70.9892 213.977 71.0237C213.958 71.0581 213.933 71.0886 213.903 71.1133C213.872 71.138 213.837 71.1564 213.8 71.1676C213.762 71.1788 213.723 71.1825 213.684 71.1784Z" fill="#263238"/>
<path d="M189.589 72.2725L187.723 72.0812C187.529 72.0614 187.356 72.2024 187.336 72.3962L187.145 74.2625C187.125 74.4563 187.266 74.6295 187.46 74.6494L189.326 74.8406C189.52 74.8605 189.693 74.7194 189.713 74.5256L189.904 72.6594C189.924 72.4655 189.783 72.2923 189.589 72.2725Z" fill="#999999" stroke="#263238" stroke-linecap="round" stroke-linejoin="round"/>
<path d="M215.576 75.8881L191.496 73.4129C191.455 73.4123 191.415 73.4031 191.377 73.3859C191.34 73.3688 191.306 73.344 191.279 73.3131C191.251 73.2823 191.231 73.2461 191.218 73.2069C191.206 73.1676 191.201 73.1262 191.206 73.0852C191.21 73.0442 191.223 73.0046 191.243 72.9688C191.264 72.933 191.291 72.9019 191.324 72.8774C191.358 72.8529 191.395 72.8356 191.436 72.8266C191.476 72.8175 191.518 72.817 191.558 72.8249L215.666 75.2945C215.705 75.2986 215.743 75.3102 215.777 75.3289C215.812 75.3475 215.842 75.3728 215.867 75.4032C215.892 75.4336 215.91 75.4686 215.921 75.5062C215.932 75.5437 215.936 75.5831 215.932 75.6221C215.928 75.6611 215.916 75.6989 215.898 75.7333C215.879 75.7678 215.854 75.7982 215.823 75.8229C215.793 75.8476 215.758 75.8661 215.72 75.8773C215.683 75.8885 215.643 75.8921 215.604 75.8881H215.576Z" fill="#263238"/>
<path d="M213.096 76.9297L191.345 74.6897C191.267 74.6812 191.196 74.6423 191.147 74.5815C191.097 74.5206 191.074 74.4428 191.082 74.3649C191.091 74.2866 191.129 74.2147 191.19 74.1645C191.251 74.1143 191.328 74.0898 191.407 74.0961L213.157 76.3361C213.236 76.3442 213.308 76.3833 213.358 76.4448C213.408 76.5062 213.431 76.5849 213.423 76.6637C213.415 76.7424 213.376 76.8146 213.315 76.8645C213.253 76.9144 213.174 76.9378 213.096 76.9297Z" fill="#263238"/>
<path d="M189 78.0283L187.134 77.8371C186.94 77.8172 186.767 77.9583 186.747 78.1521L186.556 80.0183C186.536 80.2122 186.677 80.3854 186.871 80.4053L188.737 80.5965C188.931 80.6163 189.104 80.4753 189.124 80.2815L189.315 78.4152C189.335 78.2214 189.194 78.0482 189 78.0283Z" fill="#BFBFBF" stroke="#263238" stroke-miterlimit="10"/>
<path d="M215.016 81.6392L190.908 79.1696C190.869 79.1661 190.831 79.1549 190.797 79.1367C190.762 79.1184 190.731 79.0935 190.706 79.0633C190.681 79.0331 190.663 78.9982 190.651 78.9607C190.64 78.9232 190.636 78.8839 190.64 78.8448C190.648 78.7666 190.687 78.6947 190.747 78.6445C190.808 78.5943 190.886 78.5697 190.964 78.576L215.078 81.0512C215.119 81.0519 215.16 81.061 215.197 81.0782C215.235 81.0954 215.268 81.1202 215.296 81.151C215.323 81.1818 215.344 81.218 215.356 81.2573C215.369 81.2965 215.373 81.3379 215.369 81.3789C215.365 81.4199 215.352 81.4596 215.331 81.4954C215.311 81.5311 215.283 81.5623 215.25 81.5867C215.217 81.6112 215.179 81.6285 215.139 81.6376C215.099 81.6466 215.057 81.6472 215.016 81.6392Z" fill="#263238"/>
<path d="M212.508 82.6808L190.757 80.4408C190.685 80.4265 190.62 80.3855 190.576 80.3259C190.532 80.2663 190.512 80.1924 190.519 80.1187C190.527 80.0449 190.562 79.9768 190.617 79.9276C190.673 79.8784 190.745 79.8517 190.819 79.8528L212.569 82.0928C212.615 82.083 212.663 82.0842 212.708 82.0964C212.754 82.1085 212.796 82.1313 212.83 82.1628C212.865 82.1943 212.892 82.2336 212.909 82.2776C212.926 82.3215 212.932 82.3688 212.926 82.4155C212.921 82.4622 212.905 82.507 212.879 82.5463C212.853 82.5855 212.819 82.6181 212.778 82.6412C212.737 82.6644 212.691 82.6776 212.644 82.6796C212.597 82.6816 212.55 82.6724 212.508 82.6528V82.6808Z" fill="#263238"/>
<path d="M188.411 83.7793L186.545 83.5881C186.351 83.5682 186.178 83.7093 186.158 83.9031L185.967 85.7693C185.947 85.9632 186.088 86.1364 186.282 86.1562L188.148 86.3474C188.342 86.3673 188.515 86.2263 188.535 86.0325L188.726 84.1662C188.746 83.9724 188.605 83.7992 188.411 83.7793Z" fill="white" stroke="#263238" stroke-linecap="round" stroke-linejoin="round"/>
<path d="M214.412 87.3904L190.298 84.9208C190.241 84.8948 190.194 84.8517 190.164 84.7974C190.133 84.7432 190.12 84.6806 190.127 84.6186C190.134 84.5566 190.16 84.4984 190.202 84.4521C190.243 84.4058 190.299 84.3739 190.36 84.3608L214.456 86.8024C214.502 86.7926 214.55 86.7938 214.595 86.806C214.641 86.8182 214.683 86.8409 214.718 86.8724C214.752 86.9039 214.779 86.9433 214.796 86.9872C214.813 87.0311 214.819 87.0784 214.814 87.1251C214.808 87.1718 214.792 87.2167 214.766 87.2559C214.741 87.2952 214.706 87.3277 214.665 87.3509C214.624 87.3741 214.578 87.3872 214.531 87.3892C214.484 87.3912 214.438 87.382 214.395 87.3624L214.412 87.3904Z" fill="#263238"/>
<path d="M211.92 88.4152L190.169 86.1752C190.128 86.1746 190.087 86.1654 190.05 86.1483C190.012 86.1311 189.979 86.1063 189.952 86.0755C189.924 86.0446 189.904 86.0085 189.891 85.9692C189.878 85.93 189.874 85.8885 189.878 85.8475C189.883 85.8066 189.896 85.7669 189.916 85.7311C189.936 85.6954 189.964 85.6642 189.997 85.6397C190.03 85.6152 190.068 85.5979 190.109 85.5889C190.149 85.5799 190.19 85.5793 190.231 85.5872L211.976 87.8272C212.017 87.827 212.058 87.8355 212.096 87.8522C212.134 87.8688 212.168 87.8932 212.196 87.9239C212.224 87.9545 212.245 87.9906 212.259 88.0299C212.272 88.0693 212.276 88.1109 212.272 88.1522C212.269 88.1934 212.256 88.2334 212.236 88.2696C212.215 88.3057 212.188 88.3372 212.154 88.362C212.121 88.3868 212.083 88.4043 212.043 88.4135C212.002 88.4226 211.96 88.4232 211.92 88.4152Z" fill="#263238"/>
<path d="M203.682 129.538L205.058 129.679L205.865 121.808L204.489 121.667L203.682 129.538Z" fill="#757575" stroke="#263238" stroke-linecap="round" stroke-linejoin="round"/>
<path d="M203.807 128.348L205.183 128.489L205.563 124.784L204.187 124.643L203.807 128.348Z" fill="#09FF4F" stroke="#263238" stroke-miterlimit="10"/>
<path d="M206.99 127.866L208.366 128.007L209.173 120.135L207.797 119.994L206.99 127.866Z" fill="#757575" stroke="#263238" stroke-linecap="round" stroke-linejoin="round"/>
<path d="M207.577 122.074L207.197 125.778L208.573 125.919L208.953 122.215L207.577 122.074Z" fill="#09FF4F" stroke="#263238" stroke-miterlimit="10"/>
<path d="M209.931 129.686L211.307 129.827L212.113 121.956L210.737 121.815L209.931 129.686Z" fill="#757575" stroke="#263238" stroke-linecap="round" stroke-linejoin="round"/>
<path d="M210.234 126.732L211.61 126.873L211.989 123.169L210.613 123.028L210.234 126.732Z" fill="#09FF4F" stroke="#263238" stroke-miterlimit="10"/>
<path d="M200.744 127.667L202.12 127.808L202.926 119.936L201.55 119.795L200.744 127.667Z" fill="#757575" stroke="#263238" stroke-linecap="round" stroke-linejoin="round"/>
<path d="M200.869 126.471L202.245 126.612L202.624 122.907L201.248 122.766L200.869 126.471Z" fill="#09FF4F" stroke="#263238" stroke-miterlimit="10"/>
<path d="M197.409 129.669L198.785 129.81L199.591 121.939L198.215 121.798L197.409 129.669Z" fill="#757575" stroke="#263238" stroke-linecap="round" stroke-linejoin="round"/>
<path d="M197.497 128.786L198.873 128.927L199.252 125.223L197.876 125.082L197.497 128.786Z" fill="#09FF4F" stroke="#263238" stroke-miterlimit="10"/>
<path d="M194.516 127.32L195.892 127.461L196.699 119.589L195.323 119.448L194.516 127.32Z" fill="#757575" stroke="#263238" stroke-linecap="round" stroke-linejoin="round"/>
<path d="M194.547 127.034L195.923 127.175L196.302 123.47L194.926 123.329L194.547 127.034Z" fill="#09FF4F" stroke="#263238" stroke-miterlimit="10"/>
<path d="M190.994 131.12L192.37 131.261L193.176 123.39L191.8 123.249L190.994 131.12Z" fill="#757575" stroke="#263238" stroke-linecap="round" stroke-linejoin="round"/>
<path d="M191.018 130.828L192.394 130.969L192.774 127.265L191.398 127.124L191.018 130.828Z" fill="#09FF4F" stroke="#263238" stroke-miterlimit="10"/>
<path d="M188.404 125.84L189.78 125.981L190.587 118.11L189.211 117.969L188.404 125.84Z" fill="#757575" stroke="#263238" stroke-linecap="round" stroke-linejoin="round"/>
<path d="M188.529 124.656L189.905 124.797L190.285 121.092L188.909 120.951L188.529 124.656Z" fill="#09FF4F" stroke="#263238" stroke-miterlimit="10"/>
<path d="M185.346 125.072L186.722 125.213L187.529 117.342L186.153 117.201L185.346 125.072Z" fill="#757575" stroke="#263238" stroke-linecap="round" stroke-linejoin="round"/>
<path d="M185.655 122.096L187.031 122.237L187.411 118.532L186.035 118.391L185.655 122.096Z" fill="#09FF4F" stroke="#263238" stroke-miterlimit="10"/>
<path d="M181.75 129.692L183.126 129.833L183.932 121.961L182.556 121.82L181.75 129.692Z" fill="#757575" stroke="#263238" stroke-linecap="round" stroke-linejoin="round"/>
<path d="M182.085 126.425L183.461 126.566L183.84 122.862L182.464 122.721L182.085 126.425Z" fill="#09FF4F" stroke="#263238" stroke-miterlimit="10"/>
<path d="M179.004 125.909L180.38 126.05L181.187 118.178L179.811 118.037L179.004 125.909Z" fill="#757575" stroke="#263238" stroke-linecap="round" stroke-linejoin="round"/>
<path d="M179.155 124.428L180.531 124.569L180.911 120.864L179.535 120.724L179.155 124.428Z" fill="#09FF4F" stroke="#263238" stroke-miterlimit="10"/>
<path d="M175.686 127.655L177.062 127.796L177.869 119.924L176.493 119.783L175.686 127.655Z" fill="#757575" stroke="#263238" stroke-linecap="round" stroke-linejoin="round"/>
<path d="M175.817 126.459L177.193 126.6L177.573 122.896L176.197 122.755L175.817 126.459Z" fill="#09FF4F" stroke="#263238" stroke-miterlimit="10"/>
<path d="M172.227 130.869L173.603 131.01L174.41 123.139L173.034 122.998L172.227 130.869Z" fill="#757575" stroke="#263238" stroke-linecap="round" stroke-linejoin="round"/>
<path d="M172.237 130.863L173.613 131.004L173.993 127.299L172.617 127.158L172.237 130.863Z" fill="#09FF4F" stroke="#263238" stroke-miterlimit="10"/>
<path d="M169.646 125.562L171.022 125.703L171.828 117.831L170.452 117.69L169.646 125.562Z" fill="#757575" stroke="#263238" stroke-linecap="round" stroke-linejoin="round"/>
<path d="M169.735 124.667L171.111 124.808L171.49 121.103L170.114 120.962L169.735 124.667Z" fill="#09FF4F" stroke="#263238" stroke-miterlimit="10"/>
<path d="M166.895 121.79L168.271 121.931L169.078 114.059L167.702 113.918L166.895 121.79Z" fill="#757575" stroke="#263238" stroke-linecap="round" stroke-linejoin="round"/>
<path d="M166.994 120.896L168.37 121.037L168.75 117.332L167.374 117.191L166.994 120.896Z" fill="#09FF4F" stroke="#263238" stroke-miterlimit="10"/>
<path d="M163.371 125.635L164.747 125.776L165.554 117.905L164.178 117.764L163.371 125.635Z" fill="#757575" stroke="#263238" stroke-linecap="round" stroke-linejoin="round"/>
<path d="M163.675 122.676L165.051 122.817L165.43 119.112L164.054 118.971L163.675 122.676Z" fill="#09FF4F" stroke="#263238" stroke-miterlimit="10"/>
<path d="M159.82 129.766L161.196 129.907L162.003 122.035L160.627 121.894L159.82 129.766Z" fill="#757575" stroke="#263238" stroke-linecap="round" stroke-linejoin="round"/>
<path d="M160.181 126.203L161.557 126.344L161.937 122.64L160.561 122.499L160.181 126.203Z" fill="#09FF4F" stroke="#263238" stroke-miterlimit="10"/>
<path d="M157.176 124.998L158.552 125.139L159.359 117.268L157.983 117.127L157.176 124.998Z" fill="#757575" stroke="#263238" stroke-linecap="round" stroke-linejoin="round"/>
<path d="M157.295 123.82L158.671 123.961L159.051 120.256L157.675 120.115L157.295 123.82Z" fill="#09FF4F" stroke="#263238" stroke-miterlimit="10"/>
<path d="M154.211 123.377L155.587 123.518L156.394 115.646L155.018 115.505L154.211 123.377Z" fill="#757575" stroke="#263238" stroke-linecap="round" stroke-linejoin="round"/>
<path d="M154.546 120.11L155.922 120.251L156.302 116.546L154.926 116.406L154.546 120.11Z" fill="#09FF4F" stroke="#263238" stroke-miterlimit="10"/>
<path d="M150.856 125.516L152.232 125.657L153.038 117.785L151.662 117.644L150.856 125.516Z" fill="#757575" stroke="#263238" stroke-linecap="round" stroke-linejoin="round"/>
<path d="M150.86 125.509L152.236 125.65L152.616 121.945L151.24 121.804L150.86 125.509Z" fill="#09FF4F" stroke="#263238" stroke-miterlimit="10"/>
<path d="M148.01 122.734L149.386 122.875L150.193 115.003L148.817 114.862L148.01 122.734Z" fill="#757575" stroke="#263238" stroke-linecap="round" stroke-linejoin="round"/>
<path d="M148.072 122.147L149.448 122.288L149.828 118.583L148.452 118.442L148.072 122.147Z" fill="#09FF4F" stroke="#263238" stroke-miterlimit="10"/>
<path d="M144.805 123.479L146.181 123.62L146.987 115.749L145.611 115.608L144.805 123.479Z" fill="#757575" stroke="#263238" stroke-linecap="round" stroke-linejoin="round"/>
<path d="M144.835 123.182L146.211 123.323L146.591 119.619L145.215 119.478L144.835 123.182Z" fill="#09FF4F" stroke="#263238" stroke-miterlimit="10"/>
<path d="M141.809 122.148L143.185 122.289L143.992 114.417L142.616 114.276L141.809 122.148Z" fill="#757575" stroke="#263238" stroke-linecap="round" stroke-linejoin="round"/>
<path d="M142.207 118.301L143.583 118.442L143.962 114.738L142.586 114.597L142.207 118.301Z" fill="#09FF4F" stroke="#263238" stroke-miterlimit="10"/>
<path d="M212.132 139.196L149.284 132.751C149.109 132.733 148.934 132.786 148.797 132.897C148.661 133.008 148.574 133.169 148.556 133.344C148.546 133.43 148.554 133.517 148.579 133.6C148.603 133.683 148.644 133.761 148.699 133.828C148.754 133.895 148.821 133.951 148.897 133.992C148.974 134.033 149.057 134.058 149.144 134.067L211.998 140.495C212.173 140.513 212.348 140.46 212.484 140.349C212.621 140.237 212.708 140.077 212.726 139.902C212.739 139.73 212.684 139.56 212.573 139.428C212.462 139.296 212.304 139.213 212.132 139.196Z" fill="#263238"/>
<path d="M211.656 143.928L138.565 136.435C138.39 136.418 138.215 136.471 138.079 136.582C137.942 136.693 137.856 136.854 137.837 137.029C137.828 137.115 137.836 137.203 137.861 137.286C137.886 137.37 137.927 137.447 137.982 137.515C138.038 137.582 138.106 137.637 138.183 137.678C138.26 137.719 138.344 137.744 138.431 137.751L211.516 145.244C211.691 145.26 211.864 145.206 211.999 145.095C212.134 144.984 212.22 144.824 212.239 144.651C212.248 144.565 212.24 144.478 212.216 144.395C212.192 144.313 212.152 144.236 212.098 144.168C212.043 144.101 211.977 144.046 211.901 144.004C211.825 143.963 211.742 143.937 211.656 143.928Z" fill="#263238"/>
<path d="M180.464 145.535L138.078 141.19C137.903 141.172 137.728 141.225 137.592 141.336C137.455 141.448 137.368 141.608 137.35 141.783C137.341 141.87 137.35 141.957 137.375 142.04C137.401 142.123 137.442 142.2 137.497 142.268C137.552 142.335 137.62 142.39 137.697 142.431C137.773 142.472 137.857 142.497 137.944 142.506L180.33 146.851C180.416 146.86 180.504 146.852 180.587 146.827C180.67 146.802 180.748 146.761 180.815 146.706C180.882 146.651 180.938 146.584 180.979 146.507C181.021 146.431 181.046 146.347 181.055 146.261C181.064 146.174 181.056 146.087 181.031 146.004C181.006 145.92 180.965 145.843 180.91 145.776C180.855 145.708 180.788 145.652 180.711 145.611C180.635 145.57 180.551 145.544 180.464 145.535Z" fill="#263238"/>
<path opacity="0.2" d="M219.065 103.25C216.898 103.076 216.148 106.531 216.148 106.531C216.148 106.531 212.72 102.051 213.264 91.4784C213.264 91.4784 211.584 86.7968 207.104 89.6248C202.624 92.4528 197.97 102.415 199.079 113.279L190.376 84.3328C187.364 84.9712 181.243 89.02 182.856 108.57L173.336 98.4896C173.336 98.4896 170.76 97.6608 169.304 99.94C167.848 102.219 168.542 118.543 169.746 124.647C170.95 130.751 167.881 143.015 167.881 143.015C167.881 143.015 164.6 129.127 158.664 125.61L136.056 79.0072L128.536 152.311L137.008 153.179L150.616 146.554C150.538 149.618 150.465 152.434 150.241 154.534L218.248 161.501L223.114 114.002C221.462 108.082 219.883 103.311 219.065 103.25Z" fill="black" fill-opacity="0.7"/>
</g>
<path d="M231.027 36.7888L223.114 114.002L218.248 161.501L150.241 154.534L137.008 153.179L128.536 152.311L136.045 79.0072L141.315 27.5992L231.027 36.7888Z" stroke="#263238" stroke-linecap="round" stroke-linejoin="round"/>
<path d="M229.907 235.566L190.147 242.331C190.147 242.331 183.225 205.567 179.098 199.771C174.971 193.975 175.738 191.595 173.722 187.692C172.512 185.334 166.442 180.938 161.688 176.598C161.273 176.223 160.87 175.848 160.484 175.478C160.316 175.327 160.159 175.165 160.002 175.014C159.369 174.386 158.781 173.776 158.26 173.177C158.07 172.964 157.883 172.751 157.7 172.538C156.818 171.555 156.16 170.392 155.774 169.128C155.757 169.071 155.746 169.013 155.74 168.954C155.724 168.886 155.713 168.817 155.707 168.747C155.6 167.879 155.488 166.888 155.376 165.813C155.376 165.6 155.332 165.376 155.304 165.152L155.27 164.883C155.175 163.987 155.068 163.035 154.945 162.055C154.822 161.075 154.688 159.966 154.531 158.897C154.48 158.527 154.43 158.158 154.368 157.777C154.307 157.362 154.24 156.948 154.172 156.528L153.976 155.447C153.976 155.386 153.948 155.33 153.943 155.279L153.708 154.036C153.692 153.991 153.683 153.944 153.68 153.896C153.601 153.532 153.528 153.174 153.444 152.81C153.271 151.998 153.075 151.202 152.884 150.43C152.499 148.975 152.003 147.552 151.4 146.174C148.533 139.773 152.263 142.086 150.017 125.616C150.017 125.616 151.669 121.797 156.379 124.849C156.743 125.086 157.094 125.342 157.432 125.616C158.386 126.388 159.229 127.289 159.935 128.293C160.892 129.66 161.622 131.173 162.096 132.773C162.866 135.368 163.084 138.096 162.735 140.781C162.735 140.781 166.274 152.91 168.139 155.671C170.004 158.432 177.715 142.573 177.216 140.725C177.041 139.896 176.909 139.058 176.819 138.216C176.785 137.942 176.752 137.656 176.712 137.342C176.673 137.029 176.64 136.715 176.606 136.385C176.606 136.228 176.567 136.06 176.544 135.898C176.544 135.83 176.544 135.763 176.544 135.702C176.477 135.069 176.399 134.397 176.326 133.702C176.326 133.506 176.287 133.322 176.264 133.142C176.231 132.812 176.197 132.47 176.164 132.134C176.16 132.078 176.16 132.022 176.164 131.966C176.164 131.776 176.119 131.58 176.102 131.406C176.057 131.014 176.018 130.617 175.979 130.219C175.94 129.822 175.912 129.536 175.878 129.194C175.811 128.55 175.749 127.906 175.688 127.285C175.643 126.82 175.598 126.361 175.559 125.913C175.559 125.812 175.559 125.711 175.531 125.616C175.296 123.152 175.111 121.136 175.044 120.262C175.044 120.262 169.444 111.963 168.884 108.054C168.324 104.146 168.357 100.03 170.704 98.3552C176.259 94.4016 174.624 100.774 177.121 103.395C179.619 106.016 183.421 110.356 185.583 111.706C187.576 112.971 189.357 117.866 189.609 118.605C189.324 117.53 186.473 106.957 186.412 104.829C186.339 102.589 184.625 90.7392 187.532 86.4888C190.438 82.2384 194.313 85.5368 194.672 86.3768C195.03 87.2168 195.136 98.6968 196.161 101.889C197.186 105.081 201.476 118.392 201.476 118.392C201.476 118.392 201.655 105.445 202.596 99.6488C203.536 93.8528 206.079 89.3224 208.543 89.0648C211.007 88.8072 213.286 91.5232 213.286 91.5232C213.286 91.5232 212.312 100.763 212.592 102.897C212.872 105.03 212.188 112.736 213.359 116.897C213.359 116.897 213.224 105.859 214.938 104.448C216.652 103.037 218.124 102.359 219.088 103.328C220.051 104.297 220.258 110.815 221.238 114.746C222.218 118.678 222.095 124.02 222.739 130.152C223.383 136.284 225.92 144.796 225.416 149.662C224.912 154.529 223.36 166.597 222.112 173.681C220.863 180.765 217.676 190.481 217.676 190.481C217.676 190.481 219.127 195.661 218.847 200.281C218.567 204.901 229.907 235.566 229.907 235.566Z" fill="white"/>
<path opacity="0.4" d="M196.111 101.855C196.872 104.218 199.42 112.126 200.686 116.074C200.686 116.074 195.131 120.156 195.265 123.953C195.4 127.75 194.252 135.416 191.754 135.192C189.256 134.968 189.514 119.036 188.668 116.354C189.178 117.507 189.503 118.442 189.57 118.627C189.385 117.938 186.417 106.968 186.356 104.795C186.356 104.286 186.238 103.266 186.12 101.95C186.12 101.95 191.648 96.6584 195.702 99.8952C195.794 100.557 195.93 101.212 196.111 101.855Z" fill="#09FF4F"/>
<path opacity="0.4" d="M212.625 106.402C210.038 108.855 206.135 113.19 205.642 117.373C205.642 117.373 207.081 129.054 206.465 134.173L201.425 118.375C201.425 118.375 201.604 105.428 202.545 99.632C202.545 99.4752 202.601 99.3128 202.629 99.156C205.775 97.5551 209.247 96.6987 212.776 96.6528C212.56 98.7117 212.487 100.783 212.558 102.852C212.643 104.034 212.665 105.219 212.625 106.402Z" fill="#09FF4F"/>
<path opacity="0.4" d="M214.916 104.386C214.854 104.426 214.703 104.549 214.484 104.734C214.614 104.482 214.76 104.239 214.921 104.006L214.916 104.386Z" fill="#09FF4F"/>
<path opacity="0.4" d="M216.232 136.682C216.232 136.682 212.905 124.205 212.872 114.158C212.844 110.44 213.275 107.052 214.479 104.762C214.609 104.51 214.755 104.267 214.916 104.034V104.392C215.518 103.872 216.184 103.432 216.898 103.082C215.963 104.538 214.888 107.388 216.131 112.042C218.085 119.271 216.383 128.136 216.232 136.682Z" fill="#09FF4F"/>
<path opacity="0.4" d="M170.351 160.459C170.351 160.459 171.241 172.348 161.688 176.604C161.273 176.229 160.87 175.854 160.484 175.484C160.316 175.333 160.159 175.17 160.002 175.019C159.369 174.392 158.781 173.782 158.26 173.182C158.064 172.964 157.891 172.751 157.7 172.544C156.818 171.561 156.16 170.397 155.774 169.134C155.757 169.077 155.746 169.019 155.74 168.96C155.724 168.892 155.713 168.823 155.707 168.753C155.6 167.885 155.488 166.894 155.376 165.818C155.376 165.606 155.332 165.382 155.304 165.158L155.27 164.889C155.175 163.993 155.068 163.041 154.945 162.061C154.822 161.081 154.688 159.972 154.531 158.902C154.475 158.533 154.424 158.158 154.368 157.782C154.307 157.368 154.24 156.954 154.172 156.534L153.976 155.447C153.976 155.386 153.948 155.33 153.943 155.279L153.708 154.036C153.692 153.991 153.683 153.944 153.68 153.896C153.601 153.532 153.528 153.174 153.444 152.81C153.265 152.003 153.069 151.208 152.884 150.43C156.664 146.795 165.389 149.074 161.167 140.646C161.167 140.646 163.295 133.434 157.432 125.616C161.441 128.847 163.496 134.531 162.735 140.736C162.735 140.736 166.274 152.866 168.139 155.626C170.004 158.387 177.715 142.528 177.216 140.68C177.041 139.851 176.909 139.014 176.819 138.171C176.785 137.897 176.752 137.611 176.712 137.298C176.673 136.984 176.64 136.67 176.606 136.34C176.606 136.183 176.567 136.015 176.544 135.853C176.544 135.786 176.544 135.718 176.544 135.657C176.477 135.018 176.404 134.352 176.326 133.658C176.326 133.462 176.287 133.277 176.264 133.098C176.231 132.767 176.197 132.426 176.164 132.09C176.16 132.034 176.16 131.978 176.164 131.922C176.164 131.731 176.119 131.535 176.102 131.362C176.057 130.97 176.018 130.572 175.979 130.174C175.94 129.777 175.912 129.491 175.878 129.15C175.811 128.506 175.749 127.862 175.688 127.24C175.643 126.775 175.604 126.31 175.559 125.868C175.559 125.767 175.559 125.666 175.531 125.571C175.682 126.305 178.521 139.823 180.145 142.97C181.775 146.196 174.696 163.259 170.351 160.459Z" fill="#09FF4F"/>
<path opacity="0.4" d="M222.089 173.602C220.84 180.692 217.654 190.402 217.654 190.402C217.654 190.402 219.104 195.582 218.824 200.202C218.746 201.446 219.519 204.587 220.672 208.507C220.336 207.645 216.752 198.394 216.825 195.168C216.898 191.78 215.935 190.845 214.025 186.684C212.116 182.523 209.26 182.982 209.26 182.982C209.26 182.982 208.14 193.359 205.541 186.538C202.943 179.718 202.433 171.783 209.002 144.231C209.002 144.231 209.993 147.686 209.164 157.951C208.336 168.215 210.788 171.323 210.788 171.323C214.475 164.898 217.405 158.067 219.519 150.967C219.519 150.967 218.668 162.946 217.912 168.4C217.156 173.854 220.605 162.078 223.013 154.803C225.253 147.977 225.36 145.379 224.497 140.518C225.136 143.939 225.617 147.238 225.371 149.595C224.889 154.439 223.338 166.518 222.089 173.602Z" fill="#09FF4F"/>
<path opacity="0.4" d="M177.16 196.697C179.098 199.777 183.841 203.848 186.68 215.11C189.52 226.371 187.728 238.697 187.728 238.697L177.16 196.697Z" fill="#09FF4F"/>
<path opacity="0.2" d="M162.102 132.751C162.102 132.751 152.184 137.791 151.4 146.191C148.533 139.79 152.263 142.103 150.017 125.633C150.017 125.633 151.669 121.814 156.379 124.866C156.743 125.103 157.094 125.359 157.432 125.633C158.386 126.405 159.229 127.306 159.935 128.31L162.102 132.751Z" fill="black" fill-opacity="0.7"/>
<path d="M190.147 242.331C190.147 242.331 183.225 205.567 179.098 199.771C174.971 193.975 175.738 191.595 173.722 187.692C171.706 183.789 156.401 174.291 155.724 168.742C155.046 163.192 154.268 152.574 151.4 146.168C148.533 139.762 152.263 142.08 150.012 125.61C150.012 125.61 151.692 121.791 156.379 124.843C161.066 127.895 163.564 133.999 162.74 140.758C162.74 140.758 166.28 152.877 168.15 155.643C170.02 158.41 177.715 142.545 177.216 140.691C176.718 138.838 175.24 123.074 175.01 120.195C175.01 120.195 169.41 111.89 168.85 107.982C168.29 104.073 168.324 99.9569 170.67 98.2881C176.225 94.3345 174.59 100.707 177.088 103.328C179.585 105.949 183.388 110.283 185.544 111.638C187.7 112.994 189.581 118.655 189.581 118.655C189.581 118.655 186.417 107.041 186.356 104.795C186.294 102.55 184.569 90.7057 187.476 86.4609C190.382 82.2161 194.263 85.5033 194.621 86.3433C194.98 87.1833 195.086 98.6633 196.116 101.855L201.42 118.358C201.42 118.358 201.604 105.411 202.573 99.6153C203.542 93.8193 206.056 89.2889 208.52 89.0313C210.984 88.7737 213.264 91.4897 213.264 91.4897C213.264 91.4897 212.289 100.73 212.564 102.863C212.838 104.997 212.166 112.697 213.336 116.863C213.336 116.863 213.202 105.826 214.916 104.414C216.629 103.003 218.102 102.326 219.065 103.294C220.028 104.263 220.236 110.782 221.216 114.713C222.196 118.644 222.072 123.986 222.716 130.118C223.36 136.25 225.897 144.762 225.393 149.623C224.889 154.484 223.338 166.563 222.084 173.653C220.829 180.742 217.66 190.453 217.66 190.453C217.66 190.453 219.104 195.633 218.824 200.253C218.544 204.873 229.901 235.628 229.901 235.628" stroke="#263238" stroke-linecap="round" stroke-linejoin="round"/>
<path d="M201.42 118.347C202.579 121.069 205.44 132.56 206.46 134.15C206.979 135.032 207.736 135.75 208.644 136.222" stroke="#263238" stroke-linecap="round" stroke-linejoin="round"/>
<path d="M213.336 116.835C213.336 116.835 213.09 119.193 214.361 126.697C215.632 134.201 216.254 137.398 216.965 139.073" stroke="#263238" stroke-linecap="round" stroke-linejoin="round"/>
<path d="M189.581 118.655C191.132 123.23 192.012 130.522 192.896 132.717C193.781 134.912 194.576 135.366 194.576 135.366" stroke="#263238" stroke-linecap="round" stroke-linejoin="round"/>
<path d="M192.096 129.62C193.03 130.33 193.77 131.264 194.246 132.336" stroke="#263238" stroke-linecap="round" stroke-linejoin="round"/>
<path d="M168.15 155.649C168.15 155.649 168.996 161.714 172.798 161.249" stroke="#263238" stroke-linecap="round" stroke-linejoin="round"/>
<path d="M177.216 140.697C177.216 140.697 178.202 147.91 176.589 150.967" stroke="#263238" stroke-linecap="round" stroke-linejoin="round"/>
<path d="M207.591 140.764C207.591 140.764 210.144 142.326 208.436 146.924C206.728 151.522 203.755 170.013 203.755 170.013" stroke="#263238" stroke-linecap="round" stroke-linejoin="round"/>
<path d="M218.707 145.602C219.776 149.746 219.872 149.853 218.147 154.943C216.422 160.034 213.605 172.505 213.605 172.505" stroke="#263238" stroke-linecap="round" stroke-linejoin="round"/>
<path d="M217.66 190.391C217.66 190.391 215.98 187.031 217.368 184.231" stroke="#263238" stroke-linecap="round" stroke-linejoin="round"/>
<path d="M179.098 199.777C179.098 199.777 183.32 205.707 185.157 212.343" stroke="#263238" stroke-linecap="round" stroke-linejoin="round"/>
<path d="M210.167 95.824L211.309 94.6984L211.824 94.5472L211.791 95.1072L210.744 96.4456L210.167 95.824Z" fill="#757575" stroke="#263238" stroke-linecap="round" stroke-linejoin="round"/>
<path d="M211.096 96.4513L209.237 100.662L159.285 167.269L153.724 163.718L161.256 154.243L206.124 97.9633L210.083 95.4489C210.325 95.5115 210.547 95.6372 210.725 95.8133C210.903 95.9894 211.031 96.2095 211.096 96.4513Z" fill="#09FF4F"/>
<mask id="mask3_24_5" style="mask-type:luminance" maskUnits="userSpaceOnUse" x="153" y="95" width="59" height="73">
<path d="M211.096 96.4513L209.237 100.662L159.285 167.269L153.724 163.718L161.256 154.243L206.124 97.9633L210.083 95.4489C210.325 95.5115 210.547 95.6372 210.725 95.8133C210.903 95.9894 211.031 96.2095 211.096 96.4513Z" fill="white"/>
</mask>
<g mask="url(#mask3_24_5)">
<path opacity="0.3" d="M211.096 96.4512L209.237 100.662L159.285 167.269L153.724 163.718L161.256 154.243C164.728 153.885 165.311 155.923 165.311 155.923L208.347 99.7552C207.921 98.2432 206.107 97.952 206.107 97.952L210.066 95.4376C210.313 95.4985 210.539 95.6248 210.72 95.8031C210.902 95.9815 211.032 96.2054 211.096 96.4512Z" fill="black" fill-opacity="0.7"/>
</g>
<path d="M211.096 96.4513L209.237 100.662L159.285 167.269L153.724 163.718L161.256 154.243L206.124 97.9633L210.083 95.4489C210.325 95.5115 210.547 95.6372 210.725 95.8133C210.903 95.9894 211.031 96.2095 211.096 96.4513Z" stroke="#263238" stroke-linecap="round" stroke-linejoin="round"/>
<path d="M175.576 147.546C175.576 147.546 169.976 158.611 164.633 166.44L160.803 167.431C160.803 167.431 152.011 176.167 146.646 180.53C145.672 179.925 144.79 179.184 144.025 178.329C144.025 178.329 151.641 163.702 160.069 154.445C161.057 154.795 161.987 155.29 162.83 155.912C163.924 156.688 164.897 157.62 165.72 158.678L175.111 146.862L175.576 147.546Z" fill="#09FF4F"/>
<mask id="mask4_24_5" style="mask-type:luminance" maskUnits="userSpaceOnUse" x="144" y="146" width="32" height="35">
<path d="M175.576 147.546C175.576 147.546 169.976 158.611 164.633 166.44L160.803 167.431C160.803 167.431 152.011 176.167 146.646 180.53C145.672 179.925 144.79 179.184 144.025 178.329C144.025 178.329 151.641 163.702 160.069 154.445C161.057 154.795 161.987 155.29 162.83 155.912C163.924 156.688 164.897 157.62 165.72 158.678L175.111 146.862L175.576 147.546Z" fill="white"/>
</mask>
<g mask="url(#mask4_24_5)">
<path opacity="0.3" d="M175.576 147.546C175.576 147.546 169.976 158.611 164.633 166.44L160.803 167.431C160.803 167.431 152.011 176.167 146.646 180.53L146.792 178.155C152.61 169.268 160.002 159.574 162.83 155.912C163.924 156.688 164.897 157.62 165.72 158.678L160.501 165.645L163.491 165.085L175.111 146.84L175.576 147.546Z" fill="black" fill-opacity="0.7"/>
</g>
<path d="M175.576 147.546C175.576 147.546 169.976 158.611 164.633 166.44L160.803 167.431C160.803 167.431 152.011 176.167 146.646 180.53C145.672 179.925 144.79 179.184 144.025 178.329C144.025 178.329 151.641 163.702 160.069 154.445C161.057 154.795 161.987 155.29 162.83 155.912C163.924 156.688 164.897 157.62 165.72 158.678L175.111 146.862L175.576 147.546Z" stroke="#263238" stroke-linecap="round" stroke-linejoin="round"/>
<path d="M194.565 135.355L178.964 150.475L176.472 152.894C178.18 148.503 177.351 141.694 177.244 140.893C177.244 140.848 177.244 140.82 177.244 140.82C177.244 140.82 177.244 140.73 177.244 140.702C177.069 139.874 176.937 139.036 176.847 138.194C176.813 137.919 176.78 137.634 176.74 137.32C176.701 137.006 176.668 136.693 176.634 136.362C176.634 136.206 176.595 136.038 176.572 135.875C176.572 135.808 176.572 135.741 176.572 135.679C176.505 135.046 176.427 134.374 176.354 133.68C176.354 133.484 176.315 133.299 176.292 133.12C176.259 132.79 176.225 132.448 176.192 132.112C176.188 132.056 176.188 132 176.192 131.944C176.192 131.754 176.147 131.558 176.13 131.384C176.085 130.992 176.046 130.594 176.007 130.197C175.968 129.799 175.94 129.514 175.906 129.172C175.839 128.528 175.777 127.884 175.716 127.262C175.671 126.798 175.626 126.338 175.587 125.89C175.587 125.79 175.587 125.689 175.559 125.594C175.324 123.13 175.139 121.114 175.072 120.24C175.072 120.24 169.472 111.941 168.912 108.032C168.352 104.123 168.385 100.007 170.732 98.3329C176.287 94.3793 174.652 100.752 177.149 103.373C179.647 105.994 183.449 110.334 185.611 111.683C187.772 113.033 189.581 118.655 189.581 118.655C191.132 123.225 192.012 130.516 192.896 132.711C193.781 134.907 194.565 135.355 194.565 135.355Z" fill="white"/>
<path d="M192.096 129.62C193.03 130.33 193.77 131.264 194.246 132.336" stroke="#263238" stroke-linecap="round" stroke-linejoin="round"/>
<path opacity="0.4" d="M177.065 103.35C179.54 105.994 183.343 110.283 185.504 111.65C185.202 111.498 181.22 109.561 178.997 111.717C176.684 113.957 175.01 120.201 175.01 120.201C175.01 120.201 169.41 111.902 168.85 107.993C168.29 104.084 168.324 99.9681 170.67 98.2937C176.203 94.3401 174.579 100.735 177.065 103.35Z" fill="#09FF4F"/>
<path opacity="0.4" d="M178.964 150.486L176.472 152.905C178.18 148.514 177.351 141.705 177.244 140.904C177.252 140.841 177.252 140.777 177.244 140.714C177.069 139.885 176.937 139.047 176.847 138.205C176.813 137.93 176.78 137.645 176.74 137.331C176.701 137.018 176.668 136.704 176.634 136.374C176.634 136.217 176.595 136.049 176.572 135.886C176.572 135.819 176.572 135.752 176.572 135.69C176.505 135.052 176.432 134.386 176.354 133.691C176.354 133.495 176.315 133.31 176.292 133.131C176.259 132.801 176.225 132.459 176.192 132.123C176.188 132.067 176.188 132.011 176.192 131.955C176.192 131.765 176.147 131.569 176.13 131.395C176.085 131.003 176.046 130.606 176.007 130.208C175.968 129.81 175.94 129.525 175.906 129.183C175.839 128.539 175.777 127.895 175.716 127.274C175.671 126.809 175.632 126.344 175.587 125.902C175.587 125.801 175.587 125.7 175.559 125.605C175.71 126.338 178.549 139.857 180.173 143.004C180.722 144.146 180.151 147.215 178.964 150.486Z" fill="#09FF4F"/>
<path d="M194.571 135.354C194.571 135.354 193.781 134.901 192.891 132.706C192 130.51 191.127 123.219 189.576 118.644C189.576 118.644 187.677 113.044 185.516 111.666C183.354 110.289 179.546 105.999 177.06 103.356C174.573 100.713 176.197 94.34 170.642 98.316C168.296 99.996 168.245 104.106 168.822 108.01C169.399 111.913 174.982 120.223 174.982 120.223C175.212 123.102 176.69 138.871 177.188 140.719" stroke="#263238" stroke-linecap="round" stroke-linejoin="round"/>
<path d="M177.216 140.697C177.216 140.697 178.202 147.91 176.589 150.967" stroke="#263238" stroke-linecap="round" stroke-linejoin="round"/>
<path opacity="0.2" d="M81.4397 149.517C81.4397 149.517 84.9845 165.981 77.3069 177.954C69.6293 189.926 63.7157 193.124 61.0669 196.697C58.4181 200.27 48.0077 220.245 48.0077 220.245L35.8557 184.254L48.0077 139.728L81.4397 149.517Z" fill="black" fill-opacity="0.7"/>
<path d="M153.064 136.934L77.7101 168.646L69.9429 171.917L55.3045 137.135L21.3125 56.3664L104.433 21.3832L153.064 136.934Z" fill="white"/>
<mask id="mask5_24_5" style="mask-type:luminance" maskUnits="userSpaceOnUse" x="21" y="21" width="133" height="151">
<path d="M153.064 136.934L77.7101 168.646L69.9429 171.917L55.3045 137.135L21.3125 56.3664L104.433 21.3832L153.064 136.934Z" fill="white"/>
</mask>
<g mask="url(#mask5_24_5)">
<path d="M82.9573 36.4192L47.0781 51.5392C46.7543 51.6751 46.4977 51.934 46.3649 52.2591C46.232 52.5841 46.2338 52.9486 46.3697 53.2724C46.5056 53.5962 46.7645 53.8527 47.0895 53.9856C47.4146 54.1184 47.7791 54.1167 48.1029 53.9808L83.9765 38.8552C84.1394 38.79 84.2878 38.693 84.4129 38.5699C84.5379 38.4467 84.6372 38.2999 84.7049 38.138C84.7727 37.976 84.8074 37.8022 84.8072 37.6267C84.8071 37.4512 84.7719 37.2774 84.7038 37.1156C84.6358 36.9538 84.5362 36.8072 84.4108 36.6844C84.2855 36.5615 84.1369 36.4648 83.9738 36.4C83.8107 36.3351 83.6363 36.3035 83.4608 36.3068C83.2853 36.3101 83.1122 36.3483 82.9517 36.4192H82.9573Z" fill="#263238"/>
<path d="M76.0973 45.2056L58.1773 52.7544C58.0154 52.8227 57.8873 52.9525 57.8211 53.1153C57.7549 53.2781 57.7561 53.4605 57.8245 53.6224C57.8928 53.7842 58.0226 53.9124 58.1854 53.9785C58.3482 54.0447 58.5306 54.0435 58.6925 53.9752L76.6125 46.4208C76.6966 46.39 76.7736 46.3425 76.8389 46.281C76.9041 46.2196 76.9561 46.1455 76.9918 46.0633C77.0275 45.9812 77.0461 45.8926 77.0465 45.803C77.0469 45.7134 77.029 45.6246 76.9941 45.5422C76.9591 45.4597 76.9077 45.3851 76.8431 45.3231C76.7784 45.2611 76.7018 45.2129 76.6179 45.1814C76.534 45.1499 76.4446 45.1358 76.3551 45.14C76.2656 45.1441 76.1779 45.1664 76.0973 45.2056Z" fill="#263238"/>
<path d="M105.615 91.2152C105.615 91.2152 106.371 97.1568 104.159 98.0864C102.137 98.9376 99.4773 95.7512 97.1533 96.7256C94.8293 97.7 96.6605 106.134 94.4205 107.074C92.1805 108.015 89.4813 104.554 87.5437 105.394C85.6061 106.234 86.7821 110.546 84.7885 111.386C83.1421 112.075 80.7901 108.631 78.9085 107.875C78.7352 107.791 78.5467 107.742 78.3542 107.733C78.1617 107.723 77.9693 107.752 77.7885 107.819C75.8173 108.648 76.7973 117.703 75.0949 118.414C74.6187 118.62 74.0999 118.706 73.5829 118.666C72.9495 118.547 72.3066 118.485 71.6621 118.482C71.4152 118.507 71.1736 118.569 70.9453 118.666C69.4949 119.277 69.6909 124.042 68.3637 124.602C67.0365 125.162 65.7261 124.468 64.3093 125.062C62.8925 125.655 62.9149 128.136 60.7981 129.026L61.6941 131.149L113.276 109.443" fill="#BFBFBF"/>
<path d="M105.615 91.2152C105.615 91.2152 106.371 97.1568 104.159 98.0864C102.137 98.9376 99.4773 95.7512 97.1533 96.7256C94.8293 97.7 96.6605 106.134 94.4205 107.074C92.1805 108.015 89.4813 104.554 87.5437 105.394C85.6061 106.234 86.7821 110.546 84.7885 111.386C83.1421 112.075 80.7901 108.631 78.9085 107.875C78.7352 107.791 78.5467 107.742 78.3542 107.733C78.1617 107.723 77.9693 107.752 77.7885 107.819C75.8173 108.648 76.7973 117.703 75.0949 118.414C74.6187 118.62 74.0999 118.706 73.5829 118.666C72.9495 118.547 72.3066 118.485 71.6621 118.482C71.4152 118.507 71.1736 118.569 70.9453 118.666C69.4949 119.277 69.6909 124.042 68.3637 124.602C67.0365 125.162 65.7261 124.468 64.3093 125.062C62.8925 125.655 62.9149 128.136 60.7981 129.026L61.6941 131.149L113.276 109.443" stroke="#263238" stroke-miterlimit="10"/>
<path d="M51.2501 106.29L61.6941 131.104L115.701 108.379" stroke="#263238" stroke-linecap="round" stroke-linejoin="round"/>
<path d="M109.764 101.06C109.764 101.06 109.507 100.746 109.126 100.371C108.46 99.7272 107.401 98.9096 106.595 99.2512C105.788 99.5928 105.738 100.886 105.755 102.286C105.755 103.966 105.923 105.814 105.066 106.173C104.338 106.481 103.688 106.022 103.016 105.518C102.249 104.958 101.465 104.319 100.519 104.717C98.9285 105.389 99.3989 107.461 98.8389 109.236C98.6868 109.747 98.4178 110.215 98.0533 110.604C97.6888 110.993 97.2388 111.291 96.7389 111.476C95.3669 112.036 93.9725 111.476 92.6565 110.591C90.4165 109.079 88.4453 106.626 87.1573 107.17C85.1021 108.038 87.3645 113.593 85.1581 114.522C83.9261 115.043 81.3725 111.162 78.8917 107.802C76.9317 105.154 75.0165 102.846 73.8517 103.322C71.1917 104.442 75.5765 117.731 73.6445 118.543L73.5829 118.571C73.272 118.699 72.9343 118.75 72.5995 118.718C72.2647 118.685 71.9429 118.572 71.6621 118.386C70.9677 117.994 70.3965 117.429 69.6293 117.754C68.2013 118.358 69.0357 123.566 67.4677 124.227C65.8997 124.888 64.9533 123.93 63.1837 124.675C61.6885 125.308 60.7981 128.931 60.7981 128.931L61.6941 131.054L113.276 109.348" fill="#757575"/>
<path d="M109.764 101.06C109.764 101.06 109.507 100.746 109.126 100.371C108.46 99.7272 107.401 98.9096 106.595 99.2512C105.788 99.5928 105.738 100.886 105.755 102.286C105.755 103.966 105.923 105.814 105.066 106.173C104.338 106.481 103.688 106.022 103.016 105.518C102.249 104.958 101.465 104.319 100.519 104.717C98.9285 105.389 99.3989 107.461 98.8389 109.236C98.6868 109.747 98.4178 110.215 98.0533 110.604C97.6888 110.993 97.2388 111.291 96.7389 111.476C95.3669 112.036 93.9725 111.476 92.6565 110.591C90.4165 109.079 88.4453 106.626 87.1573 107.17C85.1021 108.038 87.3645 113.593 85.1581 114.522C83.9261 115.043 81.3725 111.162 78.8917 107.802C76.9317 105.154 75.0165 102.846 73.8517 103.322C71.1917 104.442 75.5765 117.731 73.6445 118.543L73.5829 118.571C73.272 118.699 72.9343 118.75 72.5995 118.718C72.2647 118.685 71.9429 118.572 71.6621 118.386C70.9677 117.994 70.3965 117.429 69.6293 117.754C68.2013 118.358 69.0357 123.566 67.4677 124.227C65.8997 124.888 64.9533 123.93 63.1837 124.675C61.6885 125.308 60.7981 128.931 60.7981 128.931L61.6941 131.054L113.276 109.348" stroke="#263238" stroke-linecap="round" stroke-linejoin="round"/>
<path d="M98.8445 118.773L80.9245 126.322C80.7626 126.39 80.6345 126.52 80.5683 126.683C80.5021 126.845 80.5033 127.028 80.5717 127.19C80.64 127.352 80.7698 127.48 80.9326 127.546C81.0954 127.612 81.2778 127.611 81.4397 127.542L99.3597 119.994C99.5215 119.925 99.6497 119.795 99.7158 119.633C99.782 119.47 99.7808 119.288 99.7125 119.126C99.6441 118.964 99.5143 118.836 99.3515 118.769C99.1887 118.703 99.0064 118.705 98.8445 118.773Z" fill="#263238"/>
<path d="M113.052 89.0543L111.323 89.7819C111.143 89.8574 111.059 90.0643 111.134 90.2439L111.862 91.9731C111.937 92.1526 112.144 92.237 112.324 92.1614L114.053 91.4338C114.232 91.3583 114.317 91.1514 114.241 90.9718L113.514 89.2426C113.438 89.0631 113.231 88.9787 113.052 89.0543Z" fill="#BFBFBF" stroke="#263238" stroke-miterlimit="10"/>
<path d="M122.432 86.1192L115.264 89.1376C115.19 89.1659 115.108 89.1649 115.035 89.1347C114.962 89.1044 114.904 89.0474 114.872 88.9752C114.842 88.9031 114.841 88.8222 114.871 88.7498C114.9 88.6775 114.957 88.6197 115.028 88.5888L122.202 85.5704C122.274 85.5405 122.355 85.5402 122.427 85.5695C122.5 85.5989 122.558 85.6555 122.588 85.7272C122.604 85.7632 122.613 85.802 122.613 85.8412C122.614 85.8805 122.607 85.9195 122.592 85.9559C122.577 85.9924 122.556 86.0256 122.528 86.0536C122.501 86.0817 122.468 86.1039 122.432 86.1192Z" fill="#263238"/>
<path d="M120.746 88.2304L115.762 90.3248C115.69 90.3547 115.609 90.355 115.537 90.3257C115.464 90.2964 115.406 90.2397 115.376 90.168C115.36 90.132 115.352 90.0932 115.351 90.054C115.35 90.0147 115.358 89.9757 115.372 89.9393C115.387 89.9028 115.408 89.8696 115.436 89.8416C115.463 89.8136 115.496 89.7913 115.532 89.776L120.516 87.6816C120.589 87.6517 120.669 87.6514 120.742 87.6807C120.814 87.7101 120.872 87.7667 120.903 87.8384C120.933 87.9113 120.933 87.9931 120.904 88.0663C120.875 88.1395 120.818 88.1984 120.746 88.2304Z" fill="#263238"/>
<path d="M115.296 94.3852L113.567 95.1128C113.388 95.1884 113.303 95.3952 113.379 95.5748L114.106 97.304C114.182 97.4836 114.389 97.5679 114.568 97.4923L116.298 96.7648C116.477 96.6892 116.562 96.4823 116.486 96.3027L115.758 94.5736C115.683 94.394 115.476 94.3097 115.296 94.3852Z" fill="#757575" stroke="#263238" stroke-linecap="round" stroke-linejoin="round"/>
<path d="M124.672 91.4504L117.504 94.4632C117.467 94.4783 117.427 94.486 117.388 94.4858C117.348 94.4857 117.309 94.4777 117.272 94.4624C117.235 94.447 117.202 94.4246 117.174 94.3964C117.146 94.3682 117.124 94.3348 117.109 94.298C117.094 94.2612 117.086 94.2218 117.086 94.1821C117.086 94.1424 117.094 94.103 117.11 94.0664C117.125 94.0297 117.147 93.9964 117.176 93.9684C117.204 93.9404 117.237 93.9183 117.274 93.9032L124.442 90.8848C124.479 90.8697 124.518 90.862 124.558 90.8622C124.598 90.8623 124.637 90.8703 124.674 90.8856C124.71 90.901 124.744 90.9234 124.772 90.9516C124.8 90.9798 124.822 91.0132 124.837 91.05C124.852 91.0868 124.86 91.1261 124.859 91.1659C124.859 91.2056 124.851 91.245 124.836 91.2816C124.821 91.3183 124.798 91.3516 124.77 91.3796C124.742 91.4076 124.708 91.4297 124.672 91.4448V91.4504Z" fill="#263238"/>
<path d="M122.986 93.556L118.008 95.656C117.933 95.6872 117.85 95.6876 117.775 95.6572C117.701 95.6267 117.641 95.5679 117.61 95.4936C117.579 95.4194 117.579 95.3358 117.609 95.2612C117.639 95.1866 117.698 95.1272 117.773 95.096L122.757 93.0016C122.793 92.9865 122.833 92.9789 122.872 92.979C122.912 92.9791 122.951 92.9871 122.988 93.0025C123.025 93.0178 123.058 93.0402 123.086 93.0684C123.114 93.0966 123.136 93.1301 123.151 93.1668C123.166 93.2036 123.174 93.243 123.174 93.2827C123.174 93.3224 123.166 93.3618 123.15 93.3984C123.135 93.4351 123.113 93.4684 123.085 93.4964C123.056 93.5244 123.023 93.5465 122.986 93.5616V93.556Z" fill="#263238"/>
<path d="M134.102 113.425L75.8621 137.93C75.7002 137.999 75.5721 138.129 75.5059 138.291C75.4397 138.454 75.441 138.637 75.5093 138.798C75.5776 138.96 75.7074 139.088 75.8702 139.155C76.033 139.221 76.2154 139.22 76.3773 139.151L134.617 114.64C134.701 114.609 134.778 114.562 134.844 114.5C134.909 114.439 134.961 114.365 134.997 114.283C135.032 114.2 135.051 114.112 135.051 114.022C135.052 113.933 135.034 113.844 134.999 113.761C134.964 113.679 134.913 113.604 134.848 113.542C134.783 113.48 134.707 113.432 134.623 113.401C134.539 113.369 134.449 113.355 134.36 113.359C134.27 113.363 134.183 113.386 134.102 113.425Z" fill="#263238"/>
<path d="M135.95 117.81L68.2293 146.308C68.1452 146.339 68.0681 146.386 68.0029 146.448C67.9377 146.509 67.8857 146.583 67.85 146.665C67.8143 146.748 67.7957 146.836 67.7953 146.926C67.7949 147.015 67.8127 147.104 67.8477 147.187C67.8827 147.269 67.9341 147.344 67.9987 147.406C68.0634 147.468 68.14 147.516 68.2239 147.547C68.3078 147.579 68.3972 147.593 68.4867 147.589C68.5762 147.585 68.6639 147.562 68.7445 147.523L136.46 119.025C136.546 118.996 136.626 118.95 136.693 118.889C136.761 118.828 136.815 118.754 136.853 118.671C136.891 118.588 136.911 118.498 136.912 118.407C136.914 118.316 136.896 118.226 136.861 118.142C136.826 118.058 136.774 117.982 136.708 117.92C136.642 117.857 136.564 117.808 136.478 117.777C136.393 117.746 136.302 117.732 136.211 117.738C136.12 117.744 136.031 117.768 135.95 117.81Z" fill="#263238"/>
<path d="M137.792 122.194L70.0772 150.693C69.9931 150.724 69.916 150.771 69.8508 150.833C69.7856 150.894 69.7336 150.968 69.6979 151.05C69.6622 151.132 69.6436 151.221 69.6432 151.311C69.6428 151.4 69.6606 151.489 69.6956 151.571C69.7306 151.654 69.782 151.728 69.8466 151.79C69.9113 151.852 69.9879 151.901 70.0718 151.932C70.1557 151.964 70.2451 151.978 70.3346 151.974C70.4241 151.969 70.5118 151.947 70.5924 151.908L138.296 123.41C138.381 123.379 138.458 123.331 138.523 123.27C138.588 123.208 138.64 123.134 138.676 123.052C138.711 122.97 138.73 122.881 138.73 122.792C138.731 122.702 138.713 122.614 138.678 122.531C138.643 122.449 138.592 122.374 138.527 122.312C138.462 122.25 138.386 122.202 138.302 122.17C138.218 122.139 138.129 122.125 138.039 122.129C137.95 122.133 137.862 122.155 137.781 122.194H137.792Z" fill="#263238"/>
<path d="M139.64 126.579L71.9253 155.055C71.8389 155.084 71.7593 155.13 71.6916 155.191C71.6239 155.252 71.5696 155.326 71.5319 155.409C71.4942 155.492 71.4741 155.582 71.4727 155.673C71.4714 155.764 71.4889 155.854 71.5241 155.938C71.5593 156.022 71.6114 156.098 71.6773 156.16C71.7432 156.223 71.8213 156.272 71.9069 156.303C71.9924 156.334 72.0834 156.347 72.1743 156.342C72.2651 156.336 72.3539 156.312 72.4349 156.27L140.15 127.772C140.236 127.743 140.316 127.697 140.384 127.636C140.451 127.575 140.506 127.501 140.543 127.418C140.581 127.335 140.601 127.246 140.603 127.155C140.604 127.064 140.586 126.973 140.551 126.889C140.516 126.805 140.464 126.73 140.398 126.667C140.332 126.604 140.254 126.555 140.169 126.524C140.083 126.493 139.992 126.48 139.901 126.485C139.81 126.491 139.721 126.515 139.64 126.557V126.579Z" fill="#263238"/>
<path d="M113.04 142.931L73.7676 159.462C73.6835 159.493 73.6065 159.541 73.5413 159.602C73.476 159.664 73.424 159.738 73.3883 159.82C73.3526 159.902 73.334 159.991 73.3336 160.08C73.3332 160.17 73.3511 160.258 73.386 160.341C73.421 160.423 73.4724 160.498 73.5371 160.56C73.6017 160.622 73.6783 160.67 73.7622 160.702C73.8461 160.733 73.9355 160.747 74.025 160.743C74.1145 160.739 74.2022 160.717 74.2828 160.678L113.556 144.152C113.636 144.118 113.709 144.069 113.77 144.007C113.831 143.945 113.879 143.872 113.912 143.791C113.945 143.71 113.961 143.624 113.961 143.537C113.96 143.45 113.942 143.364 113.908 143.284C113.875 143.204 113.825 143.131 113.763 143.07C113.701 143.009 113.628 142.961 113.548 142.928C113.467 142.895 113.381 142.878 113.294 142.879C113.207 142.88 113.121 142.897 113.04 142.931Z" fill="#263238"/>
<path d="M91.4132 57.4471C91.4132 57.4471 92.1692 63.3943 89.9572 64.3239C87.9356 65.1751 85.27 61.9887 82.9516 62.9631C80.6332 63.9375 82.4588 72.3655 80.2188 73.3119C77.9788 74.2583 75.274 70.7919 73.342 71.6039C71.41 72.4159 72.5804 76.7559 70.5868 77.5903C68.9404 78.2847 66.5884 74.8407 64.7068 74.0847C64.5336 74.0003 64.345 73.9518 64.1526 73.9422C63.9601 73.9326 63.7676 73.962 63.5868 74.0287C61.6156 74.8575 62.5956 83.9071 60.8932 84.6239C60.4175 84.8303 59.8979 84.9149 59.3812 84.8703C58.7472 84.756 58.1046 84.696 57.4604 84.6911C57.2134 84.7156 56.9717 84.7779 56.7436 84.8759C55.2932 85.4863 55.4892 90.2519 54.162 90.8063C52.8348 91.3607 51.5244 90.6775 50.1076 91.2711C48.6908 91.8647 48.7132 94.3455 46.5964 95.2359L47.4924 97.3583L99.0964 75.6527" fill="#BFBFBF"/>
<path d="M91.4132 57.4471C91.4132 57.4471 92.1692 63.3943 89.9572 64.3239C87.9356 65.1751 85.27 61.9887 82.9516 62.9631C80.6332 63.9375 82.4588 72.3655 80.2188 73.3119C77.9788 74.2583 75.274 70.7919 73.342 71.6039C71.41 72.4159 72.5804 76.7559 70.5868 77.5903C68.9404 78.2847 66.5884 74.8407 64.7068 74.0847C64.5336 74.0003 64.345 73.9518 64.1526 73.9422C63.9601 73.9326 63.7676 73.962 63.5868 74.0287C61.6156 74.8575 62.5956 83.9071 60.8932 84.6239C60.4175 84.8303 59.8979 84.9149 59.3812 84.8703C58.7472 84.756 58.1046 84.696 57.4604 84.6911C57.2134 84.7156 56.9717 84.7779 56.7436 84.8759C55.2932 85.4863 55.4892 90.2519 54.162 90.8063C52.8348 91.3607 51.5244 90.6775 50.1076 91.2711C48.6908 91.8647 48.7132 94.3455 46.5964 95.2359L47.4924 97.3583L99.0964 75.6527" stroke="#263238" stroke-miterlimit="10"/>
<path d="M94.7453 65.3712C94.7453 65.3712 95.2157 68.2496 94.0789 68.7312C93.1325 69.1288 92.5501 68.5744 91.5533 68.5408C91.0665 68.526 90.5825 68.6197 90.1365 68.8152C89.2237 69.196 89.0165 70.428 88.8429 71.7496C88.6413 73.3792 88.5405 75.1488 87.3477 75.6696C86.5133 76.0224 85.6117 75.8152 84.6821 75.4904C83.1981 74.9752 81.6413 74.1576 80.1349 74.7904C79.4069 75.0984 78.8973 75.9104 78.4997 76.868C77.5645 79.1808 77.2733 82.5296 76.2597 82.9552C74.8205 83.5656 72.1829 81.0904 70.9061 81.628C69.6293 82.1656 70.1501 84.3832 69.1141 84.82C68.0781 85.2568 67.4845 83.9688 65.6589 84.736C63.8333 85.5032 64.7237 88.2024 62.1477 89.2888C59.5717 90.3752 58.4405 88.376 55.9541 89.4232C53.4677 90.4704 53.9157 92.3632 52.1573 93.1024C50.3989 93.8416 49.6597 92.5424 48.4053 93.1024C47.1509 93.6624 46.8485 95.6168 46.8317 95.74L47.5205 97.3752L99.0965 75.6528" fill="#09FF4F"/>
<path d="M94.7453 65.3712C94.7453 65.3712 95.2157 68.2496 94.0789 68.7312C93.1325 69.1288 92.5501 68.5744 91.5533 68.5408C91.0665 68.526 90.5825 68.6197 90.1365 68.8152C89.2237 69.196 89.0165 70.428 88.8429 71.7496C88.6413 73.3792 88.5405 75.1488 87.3477 75.6696C86.5133 76.0224 85.6117 75.8152 84.6821 75.4904C83.1981 74.9752 81.6413 74.1576 80.1349 74.7904C79.4069 75.0984 78.8973 75.9104 78.4997 76.868C77.5645 79.1808 77.2733 82.5296 76.2597 82.9552C74.8205 83.5656 72.1829 81.0904 70.9061 81.628C69.6293 82.1656 70.1501 84.3832 69.1141 84.82C68.0781 85.2568 67.4845 83.9688 65.6589 84.736C63.8333 85.5032 64.7237 88.2024 62.1477 89.2888C59.5717 90.3752 58.4405 88.376 55.9541 89.4232C53.4677 90.4704 53.9157 92.3632 52.1573 93.1024C50.3989 93.8416 49.6597 92.5424 48.4053 93.1024C47.1509 93.6624 46.8485 95.6168 46.8317 95.74L47.5205 97.3752L99.0965 75.6528" stroke="#263238" stroke-miterlimit="10"/>
<path d="M37.0485 72.5448L47.4925 97.3584L101.493 74.628" stroke="#263238" stroke-linecap="round" stroke-linejoin="round"/>
<path d="M84.4804 84.6408L66.5604 92.1896C66.3986 92.2571 66.2702 92.3862 66.2035 92.5485C66.1368 92.7108 66.1373 92.8929 66.2049 93.0548C66.2724 93.2166 66.4016 93.3451 66.5638 93.4117C66.7261 93.4784 66.9082 93.4779 67.0701 93.4104L84.9901 85.8616C85.0702 85.8277 85.1429 85.7784 85.204 85.7165C85.2651 85.6546 85.3135 85.5812 85.3462 85.5006C85.379 85.42 85.3955 85.3338 85.395 85.2468C85.3944 85.1598 85.3767 85.0737 85.3429 84.9936C85.309 84.9134 85.2597 84.8407 85.1978 84.7796C85.1359 84.7185 85.0625 84.6701 84.9819 84.6374C84.9013 84.6046 84.8151 84.5881 84.7281 84.5886C84.6411 84.5892 84.555 84.6069 84.4749 84.6408H84.4804Z" fill="#263238"/>
<path d="M97.9416 53.1537L96.2124 53.8812C96.0328 53.9568 95.9485 54.1637 96.024 54.3433L96.7516 56.0724C96.8272 56.252 97.034 56.3363 97.2136 56.2608L98.9428 55.5332C99.1224 55.4576 99.2067 55.2508 99.1312 55.0712L98.4036 53.342C98.328 53.1624 98.1211 53.0781 97.9416 53.1537Z" fill="#BFBFBF" stroke="#263238" stroke-miterlimit="10"/>
<path d="M107.323 50.2176L100.155 53.236C100.081 53.2644 99.9993 53.2633 99.9264 53.2331C99.8534 53.2029 99.7949 53.1458 99.7628 53.0736C99.7332 53.0008 99.7337 52.9193 99.7641 52.8469C99.7946 52.7744 99.8525 52.717 99.9252 52.6872L107.093 49.6688C107.166 49.6392 107.248 49.6397 107.32 49.6702C107.392 49.7006 107.45 49.7585 107.48 49.8312C107.495 49.8668 107.503 49.9052 107.504 49.944C107.505 49.9829 107.497 50.0215 107.483 50.0575C107.468 50.0935 107.446 50.1262 107.419 50.1537C107.391 50.1812 107.359 50.2029 107.323 50.2176Z" fill="#263238"/>
<path d="M105.637 52.3287L100.653 54.4232C100.579 54.4536 100.496 54.4533 100.422 54.4223C100.348 54.3913 100.289 54.3322 100.258 54.2579C100.228 54.1837 100.228 54.1004 100.259 54.0263C100.29 53.9523 100.349 53.8936 100.424 53.8632L105.408 51.7632C105.48 51.7332 105.561 51.7329 105.633 51.7623C105.705 51.7916 105.763 51.8483 105.794 51.92C105.812 51.9569 105.821 51.9971 105.823 52.038C105.825 52.0789 105.818 52.1197 105.803 52.1579C105.789 52.1962 105.766 52.231 105.738 52.2604C105.709 52.2897 105.675 52.313 105.637 52.3287Z" fill="#263238"/>
<path d="M100.192 58.4847L98.4626 59.2123C98.283 59.2879 98.1987 59.4947 98.2743 59.6743L99.0019 61.4035C99.0774 61.5831 99.2843 61.6674 99.4639 61.5918L101.193 60.8642C101.373 60.7887 101.457 60.5818 101.381 60.4022L100.654 58.6731C100.578 58.4935 100.371 58.4091 100.192 58.4847Z" fill="#09FF4F" stroke="#263238" stroke-miterlimit="10"/>
<path d="M109.563 55.5488L102.395 58.5672C102.322 58.5968 102.241 58.5963 102.168 58.5659C102.096 58.5355 102.038 58.4775 102.008 58.4048C101.993 58.3692 101.985 58.3309 101.984 58.292C101.984 58.2532 101.991 58.2146 102.005 58.1786C102.02 58.1426 102.042 58.1098 102.069 58.0823C102.097 58.0548 102.129 58.0331 102.165 58.0184L109.333 55C109.37 54.985 109.409 54.9773 109.449 54.9774C109.489 54.9776 109.528 54.9855 109.565 55.0009C109.602 55.0162 109.635 55.0386 109.663 55.0668C109.691 55.095 109.713 55.1285 109.728 55.1652C109.743 55.202 109.751 55.2414 109.751 55.2811C109.751 55.3209 109.743 55.3602 109.727 55.3968C109.712 55.4335 109.689 55.4668 109.661 55.4948C109.633 55.5228 109.6 55.545 109.563 55.56V55.5488Z" fill="#263238"/>
<path d="M107.877 57.66L102.899 59.7544C102.825 59.7856 102.741 59.786 102.666 59.7556C102.592 59.7251 102.532 59.6663 102.501 59.592C102.47 59.5178 102.47 59.4341 102.5 59.3596C102.531 59.285 102.589 59.2256 102.664 59.1944L107.648 57.1C107.684 57.0849 107.724 57.0773 107.764 57.0774C107.803 57.0775 107.843 57.0855 107.879 57.1009C107.916 57.1162 107.949 57.1386 107.977 57.1668C108.005 57.195 108.027 57.2284 108.042 57.2652C108.058 57.302 108.065 57.3414 108.065 57.3811C108.065 57.4208 108.057 57.4602 108.042 57.4968C108.026 57.5335 108.004 57.5668 107.976 57.5948C107.947 57.6228 107.914 57.6449 107.877 57.66Z" fill="#263238"/>
<path opacity="0.2" d="M77.71 168.646L69.9428 171.917L55.3044 137.135C56.612 135.838 57.4697 134.156 57.7516 132.336C58.6252 127.677 58.0092 112.697 69.674 111.151C81.3388 109.606 71.4996 135.836 72.0372 140.831C72.53 145.39 79.1772 158.622 77.71 168.646Z" fill="black" fill-opacity="0.7"/>
</g>
<path d="M153.064 136.934L77.7101 168.646L69.9429 171.917L55.3045 137.135L21.3125 56.3664L104.433 21.3832L153.064 136.934Z" stroke="#263238" stroke-linecap="round" stroke-linejoin="round"/>
<path d="M73.0173 142.735C74.3277 138.255 79.4349 123.908 78.7629 117.563C78.7082 117.035 78.5878 116.516 78.4045 116.018C76.6125 111.28 69.2877 111.739 66.4709 115.665C63.3853 119.982 60.8709 127.755 60.6469 132.465C60.4488 134.827 59.6801 137.106 58.4069 139.106C57.9669 139.845 57.4708 140.549 56.9229 141.212L40.2237 101.592C38.5366 102.997 37.0632 104.64 35.8501 106.47C35.168 107.49 34.7275 108.652 34.5621 109.869C34.2205 113.778 29.7965 129.855 27.9765 136.575C27.9373 136.721 27.8981 136.861 27.8645 136.995C26.0949 143.502 30.7653 167.672 29.4269 174.694C28.0885 181.717 27.2653 181.554 27.0693 186.544C26.9293 190.184 21.7213 201.25 15.8693 212.612C12.5093 219.125 8.97006 225.722 6.04126 231.092L48.7805 229.317C49.5197 224.126 50.2813 218.643 50.9757 213.334C51.2775 211.126 51.7038 208.937 52.2525 206.777C53.1933 202.969 54.3413 199.525 55.0525 197.509C55.9606 194.548 56.7084 191.54 57.2925 188.498C62.2653 183.234 68.7837 174.963 70.6709 169.363V169.324C71.1331 168.174 71.28 166.921 71.0965 165.695C70.8882 164.689 70.7739 163.665 70.7549 162.638C70.5365 156.556 71.9197 146.459 73.0173 142.735Z" fill="white"/>
<path opacity="0.4" d="M58.418 139.146C57.0908 141.806 55.4948 144.387 54.498 147.366C53.5012 150.346 52.3868 150.771 49.3964 153.106C46.406 155.442 44.222 151.594 44.222 151.594C44.222 151.594 48.1812 147.484 46.8652 145.194C45.5492 142.903 40.6212 137.208 40.9124 134.066C41.2036 130.925 37.9276 123.88 37.9276 123.88C37.9276 123.88 45.3924 119.495 43.942 114.36C43.1524 111.56 39.2436 108.575 35.8724 106.453C37.0856 104.623 38.559 102.98 40.246 101.575L56.9564 141.234C57.496 140.576 57.9846 139.878 58.418 139.146Z" fill="#09FF4F"/>
<path opacity="0.4" d="M31.3364 163.455C31.4372 163.791 33.8676 171.816 31.818 175.159C29.7684 178.502 27.6628 182.938 28.6652 187.479C29.4604 191.108 22.7404 204.212 15.8916 212.623C21.7268 201.261 26.9348 190.195 27.0916 186.555C27.2876 181.566 28.1108 181.717 29.4492 174.706C30.7876 167.694 26.0892 143.514 27.8868 137.006C27.9204 136.872 27.9596 136.732 27.9988 136.586C29.3036 143.962 32.3388 158.65 33.1732 163.371C34.198 169.397 31.426 163.707 31.3364 163.455Z" fill="#09FF4F"/>
<path opacity="0.4" d="M46.7029 211.895C51.6701 190.509 68.3861 174.112 70.6485 169.363C68.7613 174.963 62.2485 183.234 57.2701 188.498C56.686 191.54 55.9382 194.548 55.0301 197.509C54.3301 199.525 53.1821 202.969 52.2301 206.777C47.3973 212.506 46.7029 211.895 46.7029 211.895Z" fill="#09FF4F"/>
<path opacity="0.4" d="M73.0173 142.735C71.8973 146.459 70.5365 156.556 70.7493 162.621C69.8701 158.813 68.1789 153.974 67.8989 147.238C67.4229 135.814 73.8965 139.935 71.6565 134.285C69.4165 128.634 62.9653 135.87 66.1349 123.958C68.4477 115.262 75.0389 115.34 78.4213 116.018C78.6046 116.516 78.725 117.035 78.7797 117.563C79.4349 123.908 74.3277 138.255 73.0173 142.735Z" fill="#09FF4F"/>
<path d="M12.5428 219.304C17.8964 209.51 23.11 199.435 26.8564 188.571C27.3044 187.009 26.7052 184.97 27.1588 183.408C32.2324 169.302 26.4756 154.613 27.422 140.159C28.2228 134.464 30.0428 128.735 31.8964 122.984C32.7532 118.834 33.0724 114.186 34.4444 110.009C35.8556 106.862 37.2444 103.205 40.2516 101.609C45.9636 114.696 51.6533 127.845 56.9621 141.268C59.3645 139.879 59.762 136.788 60.154 134.184C61.442 127.951 62.7468 122.239 65.1044 116.992C67.5012 112.775 73.6052 110.978 77.3516 114.422C78.4259 115.498 79.0402 116.95 79.0652 118.47C78.3372 125.706 76.0636 133.03 73.7732 139.795C72.8716 142.92 71.9532 145.535 71.5668 148.638C71.606 149.668 71.6284 150.178 71.6732 151.208C70.346 156.41 71.5668 160.991 71.2644 166.154C70.1052 175.467 62.6516 181.952 57.2644 188.868C55.9316 194.07 54.6044 199.273 52.7844 204.498C50.5444 212.338 49.8277 220.066 49.0605 227.598" stroke="#263238" stroke-linecap="round" stroke-linejoin="round"/>
<path d="M56.9397 141.251C55.9259 143.207 55.1009 145.254 54.4757 147.366C53.7757 150.11 50.2309 149.718 48.3997 151.421" stroke="#263238" stroke-linecap="round" stroke-linejoin="round"/>
<path d="M43.5669 136.418C43.5669 136.418 48.3885 138.098 51.1997 140.31C54.0109 142.522 56.0829 143.038 56.0829 143.038" stroke="#263238" stroke-linecap="round" stroke-linejoin="round"/>
<path d="M40.4924 124.462C40.4924 124.462 44.4124 125.554 47.2684 124.182C47.3988 122.785 47.6441 121.401 48.002 120.044" stroke="#263238" stroke-linecap="round" stroke-linejoin="round"/>
<path d="M48.198 124.748C48.198 124.748 48.2372 125.308 50.2196 125.308" stroke="#263238" stroke-linecap="round" stroke-linejoin="round"/>
<path d="M57.2701 188.498C54.553 191.242 52.4662 194.544 51.1549 198.175" stroke="#263238" stroke-linecap="round" stroke-linejoin="round"/>
<path d="M27.6181 138.21C27.4389 141.57 31.3813 153.487 32.5741 159.412C33.7669 165.337 34.2205 169.526 34.2205 169.526" stroke="#263238" stroke-linecap="round" stroke-linejoin="round"/>
</svg>
