<svg width="54" height="64" viewBox="0 0 54 64" fill="none" xmlns="http://www.w3.org/2000/svg">
<mask id="mask0_3_1145" style="mask-type:luminance" maskUnits="userSpaceOnUse" x="0" y="1" width="54" height="62">
<path d="M53.3583 1.09088H0.210938V62.5009H53.3583V1.09088Z" fill="white"/>
</mask>
<g mask="url(#mask0_3_1145)">
<path fill-rule="evenodd" clip-rule="evenodd" d="M30.1684 58.5949V61.1022H3.41371C1.66843 61.1022 0.210938 59.6006 0.210938 57.7955V4.39895C0.210938 2.5891 1.66147 1.09088 3.41371 1.09088H44.7353C46.4804 1.09088 47.9381 2.5927 47.9381 4.39895V34.4305H45.5081V24.2869H2.79172L2.68496 24.2821V58.1754C2.68496 58.4296 2.89036 58.6405 3.13638 58.6405L30.1684 58.5949ZM29.1472 53.5944V55.0976C29.1472 55.179 29.0949 55.2328 29.0185 55.2328H6.10473C6.02697 55.2328 5.97476 55.179 5.97476 55.0976V53.5944C5.97476 53.5141 6.02697 53.4603 6.10473 53.4603H29.0185C29.0961 53.4603 29.1472 53.5141 29.1472 53.5944ZM26.9378 49.1729V50.6746C26.9378 50.7575 26.8856 50.8113 26.8078 50.8113H6.10473C6.02697 50.8113 5.97476 50.7575 5.97476 50.6746V49.1729C5.97476 49.0915 6.02697 49.0373 6.10473 49.0373H26.8078C26.8867 49.0373 26.9378 49.0926 26.9378 49.1729ZM24.7284 44.7502V46.2531C24.7284 46.3348 24.6761 46.3886 24.5996 46.3886H6.10473C6.02697 46.3886 5.97476 46.3348 5.97476 46.2531V44.7502C5.97476 44.6688 6.02697 44.6158 6.10473 44.6158H24.5996C24.6773 44.6158 24.7284 44.6699 24.7284 44.7502ZM36.8431 38.1364H51.9787C52.7364 38.1364 53.3583 38.7741 53.3583 39.5566V61.076C53.3583 61.8586 52.7364 62.5009 51.9787 62.5009H36.8431C36.0854 62.5009 35.4635 61.8621 35.4635 61.0795V39.5616C35.4635 38.7787 36.0854 38.1364 36.8431 38.1364ZM48.7839 42.2883H49.2272V44.7575H48.7839V42.2883ZM38.7149 48.0893H40.8874C41.0741 48.0893 41.2273 48.2487 41.2273 48.4407V50.4087C41.227 50.5018 41.1909 50.5908 41.1273 50.6566C41.0636 50.7223 40.9772 50.7595 40.8874 50.7598H38.7149C38.5293 50.7598 38.3761 50.6016 38.3761 50.4087V48.4407C38.3761 48.2487 38.5293 48.0893 38.7149 48.0893ZM38.7149 57.2465H40.8874C41.0741 57.2465 41.2273 57.4059 41.2273 57.5965V59.5668C41.2273 59.7588 41.0741 59.9171 40.8874 59.9171H38.7149C38.5293 59.9171 38.3761 59.7588 38.3761 59.5668V57.5965C38.3761 57.4059 38.5293 57.2465 38.7149 57.2465ZM38.7149 52.6679H40.8874C41.0741 52.6679 41.2273 52.8273 41.2273 53.019V54.9885C41.2273 55.1802 41.0741 55.3384 40.8874 55.3384H38.7149C38.5293 55.3384 38.3761 55.1802 38.3761 54.9885V53.019C38.3761 52.8273 38.5293 52.6679 38.7149 52.6679ZM47.9369 48.0893H50.1103C50.2959 48.0893 50.4457 48.2487 50.4457 48.4407V50.4087C50.4457 50.6016 50.2925 50.7598 50.1103 50.7598H47.9369C47.7511 50.7598 47.5979 50.6016 47.5979 50.4087V48.4407C47.5979 48.2487 47.7477 48.0893 47.9369 48.0893ZM47.9369 57.2465H50.1103C50.2959 57.2465 50.4457 57.4059 50.4457 57.5965V59.5668C50.4457 59.7588 50.2925 59.9171 50.1103 59.9171H47.9369C47.7511 59.9171 47.5979 59.7588 47.5979 59.5668V57.5965C47.5979 57.4059 47.7477 57.2465 47.9369 57.2465ZM47.9369 52.6679H50.1103C50.2959 52.6679 50.4457 52.8273 50.4457 53.019V54.9885C50.4457 55.1802 50.2925 55.3384 50.1103 55.3384H47.9369C47.7511 55.3384 47.5979 55.1802 47.5979 54.9885V53.019C47.5979 52.8273 47.7477 52.6679 47.9369 52.6679ZM43.3242 48.0893H45.4964C45.6831 48.0893 45.8363 48.2487 45.8363 48.4407V50.4087C45.836 50.5018 45.8002 50.5908 45.7366 50.6566C45.6729 50.7223 45.5865 50.7595 45.4964 50.7598H43.3242C43.1383 50.7598 42.9854 50.6016 42.9854 50.4087V48.4407C42.9854 48.2487 43.1383 48.0893 43.3242 48.0893ZM43.3242 57.2465H45.4964C45.6831 57.2465 45.8363 57.4059 45.8363 57.5965V59.5668C45.8363 59.7588 45.6831 59.9171 45.4964 59.9171H43.3242C43.1383 59.9171 42.9854 59.7588 42.9854 59.5668V57.5965C42.9854 57.4059 43.1383 57.2465 43.3242 57.2465ZM43.3242 52.6679H45.4964C45.6831 52.6679 45.8363 52.8273 45.8363 53.019V54.9885C45.8363 55.1802 45.6831 55.3384 45.4964 55.3384H43.3242C43.1383 55.3384 42.9854 55.1802 42.9854 54.9885V53.019C42.9854 52.8273 43.1383 52.6679 43.3242 52.6679ZM38.4295 40.8235H50.3922C50.7637 40.8235 51.0712 41.1412 51.0712 41.5249V45.5185C51.0712 45.9019 50.7637 46.2196 50.3922 46.2196H38.4295C38.0581 46.2196 37.7505 45.9008 37.7505 45.5185V41.5249C37.7505 41.1412 38.0581 40.8235 38.4295 40.8235ZM50.303 41.6171H38.5188V45.4263H50.303V41.6171ZM51.9787 39.1336H36.8431C36.6134 39.1336 36.4241 39.323 36.4241 39.5616V61.0795C36.4241 61.3158 36.61 61.5075 36.8397 61.5075H51.975C52.2038 61.5075 52.3894 61.3158 52.3894 61.0795V39.5616C52.3894 39.3265 52.2072 39.1336 51.9787 39.1336ZM39.366 29.3702V30.8576C39.366 30.939 39.3148 30.9917 39.2384 30.9917H24.2827C24.205 30.9917 24.1539 30.939 24.1539 30.8576V29.3702C24.1539 29.2887 24.205 29.2358 24.2827 29.2358H39.2384C39.3148 29.2358 39.366 29.2887 39.366 29.3702ZM32.6007 33.5578V35.0478C32.6007 35.127 32.5495 35.1796 32.4708 35.1796H24.3094C24.2317 35.1796 24.1795 35.127 24.1795 35.0478V33.5578C24.1795 33.4775 24.2317 33.4248 24.3094 33.4248H32.4708C32.5228 33.4248 32.6007 33.4775 32.6007 33.5578ZM13.3957 34.6691L18.4203 34.7624C18.4203 36.6801 17.5337 38.441 16.0554 39.5101L13.3957 34.6691ZM13.0591 26.8063V26.3976L13.4444 26.43C13.9167 26.4599 14.389 26.5546 14.8334 26.6817C15.2767 26.8063 15.691 26.9957 16.1041 27.215C18.5271 28.561 19.5111 30.8168 19.7107 33.5974L13.1009 33.4091L13.0591 26.8063ZM13.8285 32.6554L18.9425 32.8125C18.7348 30.674 17.4931 28.8199 15.778 27.8443C15.2407 27.5578 14.6675 27.3481 14.0757 27.2306C13.9736 27.2102 13.8726 27.1946 13.7693 27.1839L13.8285 32.6554ZM14.577 39.3949C13.6904 39.9284 12.7145 40.2135 11.7096 40.2135C8.54627 40.2135 5.97476 37.4772 5.97476 34.1105C5.97476 30.8407 8.39888 28.1367 11.4728 28.0109L11.7096 34.1105L14.577 39.3949ZM45.5081 21.9029V4.1113C45.5081 3.85839 45.3049 3.64503 45.059 3.64503H3.13638C2.88107 3.64503 2.68496 3.8512 2.68496 4.1113V21.9077L2.79172 21.9029H45.5081ZM15.6678 8.68864H18.5456C18.6547 8.68864 18.7266 8.76297 18.7266 8.87564V19.2541C18.7266 19.3667 18.6547 19.4411 18.5456 19.4411H15.6678C15.5587 19.4411 15.4867 19.3667 15.4867 19.2541V8.87564C15.4867 8.76297 15.5587 8.68864 15.6678 8.68864ZM22.961 12.6332H25.8389C25.948 12.6332 26.0199 12.7075 26.0199 12.8201V19.2169C26.0199 19.3296 25.948 19.4039 25.8389 19.4039H22.961C22.8519 19.4039 22.78 19.3296 22.78 19.2169V12.8201C22.78 12.7458 22.8519 12.6332 22.961 12.6332ZM37.5488 12.6332H40.4267C40.5355 12.6332 40.6077 12.7075 40.6077 12.8201V19.2169C40.6077 19.3296 40.5355 19.4039 40.4267 19.4039H37.5488C37.4396 19.4039 37.3677 19.3296 37.3677 19.2169V12.8201C37.3677 12.7458 37.4396 12.6332 37.5488 12.6332ZM30.2542 8.68864H33.131C33.2413 8.68864 33.3132 8.76297 33.3132 8.87564V19.2541C33.3132 19.3667 33.2413 19.4411 33.131 19.4411H30.2542C30.1439 19.4411 30.072 19.3667 30.072 19.2541V8.87564C30.072 8.76297 30.1439 8.68864 30.2542 8.68864ZM8.37452 10.1149H11.2512C11.3603 10.1149 11.4322 10.1893 11.4322 10.3043V19.2541C11.4322 19.3667 11.3603 19.4411 11.2512 19.4411H8.37452C8.26544 19.4411 8.19348 19.3667 8.19348 19.2541V10.3043C8.15636 10.1893 8.26544 10.1149 8.37452 10.1149Z" fill="black"/>
</g>
</svg>
