<svg width="28" height="28" viewBox="0 0 28 28" fill="none" xmlns="http://www.w3.org/2000/svg">
<path d="M14 2.34244C9.50196 2.34472 5.83331 5.99969 5.83331 10.5C5.83331 12.8333 6.81996 14.9456 8.3945 16.4313C8.57906 16.6067 8.71352 16.8528 8.77734 17.1354L10.2174 23.6113C10.4818 24.8076 11.5527 25.6667 12.7786 25.6667H15.2214C16.4472 25.6667 17.5182 24.8076 17.7825 23.6113L19.2226 17.1354V17.1331C19.2864 16.8528 19.4209 16.6068 19.6055 16.4336V16.4313H19.6077C21.18 14.9456 22.1666 12.8333 22.1666 10.5C22.1666 5.99969 18.498 2.34472 14 2.34244ZM14 4.09244C17.5547 4.09244 20.4166 6.94761 20.4166 10.5C20.4166 12.3411 19.6442 13.9886 18.4046 15.1598C17.9398 15.5996 17.6458 16.1647 17.5159 16.7549L16.8324 19.8333H11.1676L10.4841 16.7526C10.3541 16.1624 10.0602 15.5996 9.59535 15.1598C8.35576 13.9886 7.58331 12.3411 7.58331 10.5C7.58331 6.94761 10.4453 4.09244 14 4.09244ZM11.5573 21.5833H16.4427L16.0758 23.233C15.9869 23.6364 15.6361 23.9167 15.2214 23.9167H12.7786C12.3616 23.9167 12.0153 23.6364 11.9241 23.233L11.5573 21.5833Z" fill="#45BE1A"/>
</svg>
