<svg width="20" height="20" viewBox="0 0 20 20" fill="none" xmlns="http://www.w3.org/2000/svg">
<g clip-path="url(#clip0_42_9)">
<path d="M18.75 20C16.4907 20 14.2453 19.4444 12.0139 18.3333C9.78242 17.2222 7.77777 15.7777 6 14C4.22222 12.2222 2.77777 10.2176 1.66667 7.98611C0.555556 5.75463 0 3.50926 0 1.25C0 0.89285 0.119046 0.595232 0.357139 0.357139C0.595232 0.119046 0.89285 0 1.25 0H5.13889C5.39094 0 5.616 0.0879633 5.81406 0.263889C6.01209 0.439815 6.13889 0.675926 6.19444 0.972225L6.94444 4.47223C6.98148 4.73148 6.97685 4.96759 6.93056 5.18056C6.88426 5.39352 6.78703 5.57407 6.63889 5.72222L3.86111 8.52775C4.89815 10.25 6.06018 11.75 7.34723 13.0277C8.63425 14.3056 10.0926 15.3889 11.7222 16.2777L14.3611 13.5556C14.5463 13.3518 14.7592 13.2083 15 13.125C15.2407 13.0417 15.4815 13.0277 15.7222 13.0833L19.0277 13.8056C19.3113 13.8681 19.5442 14.0087 19.7266 14.2274C19.9088 14.4462 20 14.7037 20 15V18.75C20 19.1072 19.8809 19.4047 19.6428 19.6428C19.4047 19.8809 19.1072 20 18.75 20ZM3.02778 7L5.27778 4.72222L4.63889 1.66667H1.66667C1.66667 2.38889 1.77778 3.18056 2 4.04167C2.22223 4.90277 2.56482 5.88889 3.02778 7ZM13.2777 17.0833C14.037 17.4352 14.8611 17.7222 15.75 17.9444C16.6389 18.1667 17.5 18.2963 18.3333 18.3333V15.3611L15.4722 14.7777L13.2777 17.0833Z" fill="#403D3D"/>
</g>
<defs>
<clipPath id="clip0_42_9">
<rect width="20" height="20" fill="white"/>
</clipPath>
</defs>
</svg>
