<svg width="48" height="48" viewBox="0 0 48 48" fill="none" xmlns="http://www.w3.org/2000/svg">
<path d="M38.9844 6.96875C38.4531 6.98437 37.9531 7.20312 37.5859 7.58594L24 21.1719L10.4141 7.58594C10.0352 7.19922 9.51953 6.98047 8.97656 6.98047C8.16406 6.98047 7.4336 7.47656 7.12891 8.23047C6.82031 8.98437 7.00391 9.84765 7.58594 10.4141L21.1719 24L7.58594 37.5859C7.0625 38.0859 6.85156 38.832 7.03516 39.5352C7.21875 40.2344 7.76563 40.7812 8.46485 40.9648C9.16797 41.1484 9.91406 40.9375 10.4141 40.4141L24 26.8281L37.5859 40.4141C38.0859 40.9375 38.832 41.1484 39.5352 40.9648C40.2344 40.7812 40.7812 40.2344 40.9648 39.5352C41.1484 38.832 40.9375 38.0859 40.4141 37.5859L26.8281 24L40.4141 10.4141C41.0078 9.84375 41.1953 8.96484 40.875 8.20312C40.5586 7.4414 39.8086 6.95312 38.9844 6.96875Z" fill="#2461FF"/>
</svg>
