<svg width="61" height="57" viewBox="0 0 61 57" fill="none" xmlns="http://www.w3.org/2000/svg">
<path fill-rule="evenodd" clip-rule="evenodd" d="M3.53398 0.222656H57.4684C58.3224 0.222656 59.0187 1.04283 59.0187 2.04892V44.1405C59.0187 45.1466 58.3224 45.9668 57.4684 45.9668H3.53398C2.67993 45.9668 1.9837 45.1466 1.9837 44.1405V2.04892C1.9837 1.04283 2.67993 0.222656 3.53398 0.222656ZM39.905 37.2563L32.4508 31.9362V28.5627L39.905 23.2423V27.2503L35.3748 30.2576L39.905 33.2649V37.2563ZM44.5324 37.2563L51.9866 31.9362V28.5627L44.5324 23.2423V27.2503L49.0626 30.2576L44.5324 33.2649V37.2563ZM19.9185 24.2703L21.6962 26.3645C22.165 26.9167 22.165 27.8189 21.6962 28.3657L20.2666 30.0498C20.6612 30.9191 20.9629 31.8542 21.1532 32.8386H23.0052C23.6642 32.8386 24.2073 33.4781 24.2073 34.2547V37.2127C24.2073 37.9891 23.6642 38.6289 23.0052 38.6289H20.9814C20.8004 39.3289 20.5684 39.9958 20.2806 40.6302H55.3288C56.0807 40.6302 56.698 39.9029 56.698 39.0171V4.70085C56.698 3.81504 56.0852 3.0878 55.3288 3.0878H5.67835C4.9218 3.0878 4.30448 3.81504 4.30911 4.70085V23.6251C4.7779 23.1931 5.46948 23.2259 5.89651 23.7399L7.32608 25.424C8.06409 24.9592 8.85779 24.6039 9.69328 24.3797V22.198C9.69328 21.4215 10.2363 20.7873 10.8954 20.7873H13.4065C14.0656 20.7873 14.6086 21.427 14.6086 22.2035V24.582C15.4255 24.8773 16.2007 25.2928 16.9062 25.8177L18.2151 24.2703C18.6885 23.718 19.4497 23.718 19.9185 24.2703ZM11.833 28.8195C14.8964 28.8195 17.3796 31.745 17.3796 35.3591C17.3796 37.5245 16.4885 39.4437 15.1099 40.6302H8.55608C7.17758 39.4437 6.2864 37.5245 6.2864 35.3591C6.2864 31.745 8.76961 28.8195 11.833 28.8195ZM8.31937 13.4822H11.8794C12.1533 13.4822 12.3761 13.7556 12.3761 14.0673V15.2593C12.3761 15.5764 12.144 15.8443 11.8794 15.8443H8.31937C8.05018 15.8443 7.82274 15.5819 7.82274 15.2593V14.0673C7.81811 13.7447 8.04088 13.4822 8.31937 13.4822ZM14.2141 7.39649H27.9901C28.264 7.39649 28.4868 7.66442 28.4868 7.98154V9.17355C28.4868 9.49614 28.2594 9.7586 27.9901 9.7586H14.2141C13.9402 9.7586 13.7175 9.49614 13.7175 9.17355V7.98154C13.7175 7.65895 13.9402 7.39649 14.2141 7.39649ZM8.31937 7.39649H11.8794C12.1533 7.39649 12.3761 7.65895 12.3761 7.98154V9.17355C12.3761 9.49614 12.1533 9.7586 11.8794 9.7586H8.31937C8.04551 9.7586 7.82274 9.49614 7.82274 9.17355V7.98154C7.81811 7.65895 8.04088 7.39649 8.31937 7.39649ZM19.7886 13.4822H42.6482C42.922 13.4822 43.1447 13.7556 43.1447 14.0673V15.2593C43.1447 15.5709 42.9126 15.8443 42.6482 15.8443H19.7886C19.5194 15.8443 19.2919 15.5819 19.2919 15.2593V14.0673C19.2919 13.7447 19.5147 13.4822 19.7886 13.4822ZM14.1491 13.4822H17.7092C17.983 13.4822 18.2058 13.7556 18.2058 14.0673V15.2593C18.2058 15.5764 17.9738 15.8443 17.7092 15.8443H14.1491C13.8799 15.8443 13.6525 15.5819 13.6525 15.2593V14.0673C13.6478 13.7447 13.8753 13.4822 14.1491 13.4822ZM23.4693 48.4873H37.533C37.5702 51.3527 38.5728 53.9172 41.2882 55.9401H19.7143C21.8865 54.0864 23.4786 51.8338 23.4693 48.4873Z" fill="black"/>
</svg>
