<svg width="28" height="28" viewBox="0 0 28 28" fill="none" xmlns="http://www.w3.org/2000/svg">
<path d="M4.95833 2.91666C4.16309 2.91666 3.5 3.57975 3.5 4.375V7.875C3.5 8.55861 4.02637 9.05986 4.66667 9.21258V21.2917C4.66667 23.3743 6.37566 25.0833 8.45833 25.0833H19.5417C21.6243 25.0833 23.3333 23.3743 23.3333 21.2917V9.21258C23.9737 9.05986 24.5 8.55861 24.5 7.875V4.375C24.5 3.57975 23.8369 2.91666 23.0417 2.91666H4.95833ZM5.25 4.66666H22.75V7.58333H5.25V4.66666ZM6.41667 9.33333H21.5833V21.2917C21.5833 22.4287 20.6787 23.3333 19.5417 23.3333H8.45833C7.3213 23.3333 6.41667 22.4287 6.41667 21.2917V9.33333ZM11.375 12.8333C11.0605 12.8288 10.7666 12.9951 10.6071 13.2663C10.4476 13.5397 10.4476 13.877 10.6071 14.1504C10.7666 14.4216 11.0605 14.5879 11.375 14.5833H16.625C16.9395 14.5879 17.2334 14.4216 17.3929 14.1504C17.5524 13.877 17.5524 13.5397 17.3929 13.2663C17.2334 12.9951 16.9395 12.8288 16.625 12.8333H11.375Z" fill="#00CD3A"/>
</svg>
