<svg width="32" height="32" viewBox="0 0 32 32" fill="none" xmlns="http://www.w3.org/2000/svg">
<g clip-path="url(#clip0_2_602)">
<mask id="mask0_2_602" style="mask-type:luminance" maskUnits="userSpaceOnUse" x="0" y="0" width="32" height="32">
<path d="M0 0H32V32H0V0Z" fill="white"/>
</mask>
<g mask="url(#mask0_2_602)">
<mask id="mask1_2_602" style="mask-type:luminance" maskUnits="userSpaceOnUse" x="0" y="0" width="32" height="32">
<path d="M0 0H32V32H0V0Z" fill="white"/>
<path d="M0 0H32V32H0V0Z" stroke="white"/>
</mask>
<g mask="url(#mask1_2_602)">
<path d="M29.1383 8.61146C29.1485 8.62515 29.1588 8.63866 29.1683 8.65293C29.1776 8.66688 29.1857 8.68128 29.1942 8.69562C29.1959 8.69838 29.1975 8.70113 29.1992 8.70389C29.2058 8.71485 29.2123 8.7258 29.2184 8.73715C29.2243 8.74838 29.2296 8.75983 29.2349 8.77128C29.2365 8.77472 29.2381 8.77814 29.2397 8.78157C29.2467 8.79635 29.2538 8.81107 29.26 8.82624C29.266 8.84083 29.271 8.85568 29.2762 8.87053C29.2819 8.88659 29.2879 8.90253 29.2927 8.91891C29.2961 8.93029 29.2989 8.94174 29.3017 8.95321C29.3025 8.95671 29.3034 8.96021 29.3043 8.96371C29.3049 8.96645 29.3056 8.96919 29.3063 8.97193C29.3098 8.98587 29.3133 8.99979 29.3161 9.01402C29.3192 9.03021 29.3213 9.04659 29.3236 9.06291C29.3252 9.07383 29.3269 9.08463 29.3283 9.09554C29.329 9.10061 29.3296 9.10571 29.33 9.11085C29.3316 9.12752 29.3322 9.14424 29.3327 9.16096C29.3328 9.16401 29.3329 9.16706 29.3331 9.17011C29.3332 9.17509 29.3336 9.18002 29.3339 9.18496C29.3344 9.19176 29.3348 9.19857 29.3348 9.2055V16.5389C29.3348 17.092 28.8865 17.5405 28.3332 17.5405C27.78 17.5405 27.3316 17.092 27.3316 16.5389V11.5964L17.9263 20.8515C17.5364 21.2352 16.9108 21.2351 16.5211 20.8513L12.5132 16.9053L4.36896 24.9195C3.97465 25.3075 3.34054 25.3023 2.95258 24.9081C2.56461 24.5138 2.56966 23.8796 2.96397 23.4916L11.8109 14.7859C12.2008 14.4022 12.8264 14.4023 13.2161 14.7861L17.224 18.7322L25.8874 10.2071H20.9999C20.4467 10.2071 19.9982 9.75866 19.9982 9.2055C19.9982 8.65235 20.4467 8.20391 20.9999 8.20391H28.3332L28.3346 8.20397C28.3673 8.20404 28.3999 8.20569 28.4324 8.2089C28.4435 8.20998 28.4544 8.21175 28.4652 8.21351C28.4703 8.21435 28.4754 8.21518 28.4806 8.21594C28.497 8.21837 28.5134 8.22016 28.5297 8.22342C28.548 8.22707 28.5657 8.23213 28.5835 8.23674C28.5883 8.23795 28.593 8.2391 28.5978 8.24024C28.607 8.24246 28.6162 8.24467 28.6253 8.24742C28.6381 8.2513 28.6505 8.25594 28.663 8.26058C28.6674 8.26222 28.6718 8.26386 28.6762 8.26547C28.6902 8.27059 28.7044 8.27507 28.7183 8.28083C28.7297 8.28558 28.7407 8.29096 28.7517 8.29634C28.7557 8.29828 28.7596 8.30023 28.7636 8.30215C28.7679 8.30419 28.7723 8.30619 28.7766 8.30819C28.787 8.31302 28.7974 8.31785 28.8076 8.32333C28.8174 8.32859 28.8268 8.33443 28.8362 8.34027C28.8406 8.34294 28.8449 8.34561 28.8492 8.34822C28.8537 8.35092 28.8582 8.35354 28.8626 8.35616C28.8725 8.36195 28.8824 8.36773 28.892 8.37421C28.9138 8.38886 28.9345 8.40486 28.955 8.42112C28.965 8.42906 28.9748 8.43712 28.9846 8.4455C29.0051 8.4631 29.0252 8.48109 29.0442 8.50023L29.0472 8.50298C29.0518 8.5077 29.0561 8.51266 29.0603 8.51762C29.0634 8.52126 29.0665 8.5249 29.0698 8.52845L29.0735 8.53244C29.0861 8.54601 29.0986 8.55961 29.1103 8.57395C29.1173 8.58267 29.1239 8.59165 29.1304 8.60064C29.133 8.60425 29.1356 8.60786 29.1383 8.61146Z" fill="#09FF4F"/>
<path d="M29.1383 8.61146C29.1485 8.62515 29.1588 8.63866 29.1683 8.65293C29.1776 8.66688 29.1857 8.68128 29.1942 8.69562C29.1959 8.69838 29.1975 8.70113 29.1992 8.70389C29.2058 8.71485 29.2123 8.7258 29.2184 8.73715C29.2243 8.74838 29.2296 8.75983 29.2349 8.77128C29.2365 8.77472 29.2381 8.77814 29.2397 8.78157C29.2467 8.79635 29.2538 8.81107 29.26 8.82624C29.266 8.84083 29.271 8.85568 29.2762 8.87053C29.2819 8.88659 29.2879 8.90253 29.2927 8.91891C29.2961 8.93029 29.2989 8.94174 29.3017 8.95321C29.3025 8.95671 29.3034 8.96021 29.3043 8.96371C29.3049 8.96645 29.3056 8.96919 29.3063 8.97193C29.3098 8.98587 29.3133 8.99979 29.3161 9.01402C29.3192 9.03021 29.3213 9.04659 29.3236 9.06291C29.3252 9.07383 29.3269 9.08463 29.3283 9.09554C29.329 9.10061 29.3296 9.10571 29.33 9.11085C29.3316 9.12752 29.3322 9.14424 29.3327 9.16096C29.3328 9.16401 29.3329 9.16706 29.3331 9.17011C29.3332 9.17509 29.3336 9.18002 29.3339 9.18496C29.3344 9.19176 29.3348 9.19857 29.3348 9.2055V16.5389C29.3348 17.092 28.8865 17.5405 28.3332 17.5405C27.78 17.5405 27.3316 17.092 27.3316 16.5389V11.5964L17.9263 20.8515C17.5364 21.2352 16.9108 21.2351 16.5211 20.8513L12.5132 16.9053L4.36896 24.9195C3.97465 25.3075 3.34054 25.3023 2.95258 24.9081C2.56461 24.5138 2.56966 23.8796 2.96397 23.4916L11.8109 14.7859C12.2008 14.4022 12.8264 14.4023 13.2161 14.7861L17.224 18.7322L25.8874 10.2071H20.9999C20.4467 10.2071 19.9982 9.75866 19.9982 9.2055C19.9982 8.65235 20.4467 8.20391 20.9999 8.20391H28.3332L28.3346 8.20397C28.3673 8.20404 28.3999 8.20569 28.4324 8.2089C28.4435 8.20998 28.4544 8.21175 28.4652 8.21351C28.4703 8.21435 28.4754 8.21518 28.4806 8.21594C28.497 8.21837 28.5134 8.22016 28.5297 8.22342C28.548 8.22707 28.5657 8.23213 28.5835 8.23674C28.5883 8.23795 28.593 8.2391 28.5978 8.24024C28.607 8.24246 28.6162 8.24467 28.6253 8.24742C28.6381 8.2513 28.6505 8.25594 28.663 8.26058C28.6674 8.26222 28.6718 8.26386 28.6762 8.26547C28.6902 8.27059 28.7044 8.27507 28.7183 8.28083C28.7297 8.28558 28.7407 8.29096 28.7517 8.29634C28.7557 8.29828 28.7596 8.30023 28.7636 8.30215C28.7679 8.30419 28.7723 8.30619 28.7766 8.30819C28.787 8.31302 28.7974 8.31785 28.8076 8.32333C28.8174 8.32859 28.8268 8.33443 28.8362 8.34027C28.8406 8.34294 28.8449 8.34561 28.8492 8.34822C28.8537 8.35092 28.8582 8.35354 28.8626 8.35616C28.8725 8.36195 28.8824 8.36773 28.892 8.37421C28.9138 8.38886 28.9345 8.40486 28.955 8.42112C28.965 8.42906 28.9748 8.43712 28.9846 8.4455C29.0051 8.4631 29.0252 8.48109 29.0442 8.50023L29.0472 8.50298C29.0518 8.5077 29.0561 8.51266 29.0603 8.51762C29.0634 8.52126 29.0665 8.5249 29.0698 8.52845L29.0735 8.53244C29.0861 8.54601 29.0986 8.55961 29.1103 8.57395C29.1173 8.58267 29.1239 8.59165 29.1304 8.60064C29.133 8.60425 29.1356 8.60786 29.1383 8.61146Z" stroke="#09FF4F"/>
</g>
</g>
</g>
<defs>
<clipPath id="clip0_2_602">
<rect width="32" height="32" fill="white"/>
</clipPath>
</defs>
</svg>
