<svg width="27" height="26" viewBox="0 0 27 26" fill="none" xmlns="http://www.w3.org/2000/svg">
<g clip-path="url(#clip0_42_61)">
<mask id="mask0_42_61" style="mask-type:luminance" maskUnits="userSpaceOnUse" x="0" y="0" width="27" height="26">
<path d="M27 0H0V26H27V0Z" fill="white"/>
</mask>
<g mask="url(#mask0_42_61)">
<path fill-rule="evenodd" clip-rule="evenodd" d="M7.92403 0.159548C5.72639 0.255033 3.8216 0.772429 2.28351 2.24729C0.740063 3.7299 0.209441 5.57142 0.110036 7.66565C0.0482439 8.97278 -0.313084 18.8478 0.734692 21.4375C1.44127 23.1846 2.83289 24.528 4.66381 25.2106C5.51816 25.5306 6.49342 25.7472 7.92403 25.8104C19.8861 26.3317 24.3204 26.0479 26.1902 21.4375C26.522 20.6169 26.7504 19.6785 26.8135 18.3043C27.3602 6.75572 26.7249 4.25249 24.6401 2.24729C22.9865 0.658874 21.0414 -0.422397 7.92403 0.159548ZM8.03416 23.4878C6.72444 23.431 6.01385 23.2209 5.53966 23.0441C4.3468 22.5977 3.45083 21.7384 2.99007 20.5965C2.19215 18.6287 2.45679 9.28268 2.52799 7.77039C2.59785 6.28906 2.90948 4.93524 3.99487 3.89007C5.33817 2.59971 7.0737 1.96732 18.8908 2.48089C20.4329 2.54798 21.842 2.84747 22.9301 3.89007C24.2733 5.18041 24.9396 6.86452 24.3969 18.2002C24.3378 19.4583 24.1189 20.141 23.9349 20.5965C22.7192 23.5965 19.9224 24.013 8.03416 23.4878ZM19.0211 6.09651C19.0211 6.95073 19.7424 7.64534 20.633 7.64534C21.5237 7.64534 22.2463 6.95073 22.2463 6.09651C22.2463 5.24231 21.5237 4.54832 20.633 4.54832C19.7424 4.54832 19.0211 5.24231 19.0211 6.09651ZM6.5646 12.9844C6.5646 16.6438 9.65286 19.6107 13.4625 19.6107C17.2721 19.6107 20.3603 16.6438 20.3603 12.9844C20.3603 9.32493 17.2721 6.35994 13.4625 6.35994C9.65286 6.35994 6.5646 9.32493 6.5646 12.9844ZM8.98523 12.9844C8.98523 10.6101 10.9894 8.68382 13.4625 8.68382C15.9355 8.68382 17.9397 10.6101 17.9397 12.9844C17.9397 15.3599 15.9355 17.2868 13.4625 17.2868C10.9894 17.2868 8.98523 15.3599 8.98523 12.9844Z" fill="#484848"/>
</g>
</g>
<defs>
<clipPath id="clip0_42_61">
<rect width="27" height="26" fill="white"/>
</clipPath>
</defs>
</svg>
