<svg width="20" height="29" viewBox="0 0 20 29" fill="none" xmlns="http://www.w3.org/2000/svg">
<path d="M10 21.0975C12.5667 19.0709 14.5047 17.1202 15.8139 15.2457C17.1232 13.3711 17.7778 11.6242 17.7778 10.005C17.7778 8.57917 17.5123 7.37083 16.9815 6.38C16.4506 5.38917 15.7962 4.58103 15.0182 3.9556C14.2402 3.33014 13.3973 2.87702 12.4897 2.59623C11.5819 2.31541 10.7521 2.175 10 2.175C9.24792 2.175 8.41808 2.31541 7.51037 2.59623C6.60269 2.87702 5.75984 3.33014 4.98182 3.9556C4.20382 4.58103 3.54938 5.38917 3.01852 6.38C2.48766 7.37083 2.22222 8.57917 2.22222 10.005C2.22222 11.6242 2.87685 13.3711 4.18611 15.2457C5.49537 17.1202 7.43333 19.0709 10 21.0975ZM10 23.8525C6.61728 21.3633 4.10494 18.9805 2.46297 16.704C0.820988 14.4275 0 12.1975 0 10.014C0 8.36465 0.302469 6.9177 0.907408 5.67312C1.51234 4.42854 2.2963 3.38333 3.25926 2.5375C4.22222 1.69167 5.29605 1.05729 6.48074 0.634375C7.66543 0.211458 8.83825 0 9.99925 0C11.1602 0 12.3333 0.211458 13.5185 0.634375C14.7037 1.05729 15.7777 1.69167 16.7407 2.5375C17.7037 3.38333 18.4877 4.42894 19.0926 5.67432C19.6975 6.9197 20 8.36877 20 10.0215C20 12.2096 19.179 14.4396 17.537 16.7113C15.8951 18.9829 13.3827 21.3633 10 23.8525ZM10.0033 12.325C10.7172 12.325 11.3272 12.0762 11.8333 11.5786C12.3395 11.0811 12.5926 10.483 12.5926 9.78424C12.5926 9.08561 12.3384 8.48854 11.83 7.99312C11.3217 7.49771 10.7106 7.25 9.99667 7.25C9.28283 7.25 8.67283 7.49878 8.16667 7.99635C7.66049 8.49389 7.40741 9.09204 7.40741 9.79076C7.40741 10.4894 7.66159 11.0864 8.16997 11.5819C8.67833 12.0773 9.28942 12.325 10.0033 12.325ZM0 29H-0.5H10H20H0Z" fill="#403D3D"/>
</svg>
