<svg width="168" height="47" viewBox="0 0 168 47" fill="none" xmlns="http://www.w3.org/2000/svg">
<path d="M10.9858 10.5653C10.9176 9.87784 10.625 9.34375 10.108 8.96307C9.59091 8.58239 8.8892 8.39204 8.00284 8.39204C7.40057 8.39204 6.89205 8.47727 6.47727 8.64773C6.0625 8.8125 5.74432 9.04261 5.52273 9.33807C5.30682 9.63352 5.19886 9.96875 5.19886 10.3438C5.1875 10.6562 5.25284 10.929 5.39489 11.1619C5.54261 11.3949 5.74432 11.5966 6 11.767C6.25568 11.9318 6.55114 12.0767 6.88636 12.2017C7.22159 12.321 7.57955 12.4233 7.96023 12.5085L9.52841 12.8835C10.2898 13.054 10.9886 13.2812 11.625 13.5653C12.2614 13.8494 12.8125 14.1989 13.2784 14.6136C13.7443 15.0284 14.1051 15.517 14.3608 16.0795C14.6222 16.642 14.7557 17.2869 14.7614 18.0142C14.7557 19.0824 14.483 20.0085 13.9432 20.7926C13.4091 21.571 12.6364 22.1761 11.625 22.608C10.6193 23.0341 9.40625 23.2472 7.9858 23.2472C6.5767 23.2472 5.34943 23.0312 4.30398 22.5994C3.2642 22.1676 2.4517 21.5284 1.86648 20.6818C1.28693 19.8295 0.982955 18.7756 0.954545 17.5199H4.52557C4.56534 18.1051 4.73295 18.5937 5.02841 18.9858C5.32955 19.3722 5.73011 19.6648 6.23011 19.8636C6.7358 20.0568 7.30682 20.1534 7.94318 20.1534C8.56818 20.1534 9.1108 20.0625 9.57102 19.8807C10.0369 19.6989 10.3977 19.446 10.6534 19.1222C10.9091 18.7983 11.0369 18.4261 11.0369 18.0057C11.0369 17.6136 10.9205 17.2841 10.6875 17.017C10.4602 16.75 10.125 16.5227 9.68182 16.3352C9.24432 16.1477 8.70739 15.9773 8.07102 15.8239L6.17045 15.3466C4.69886 14.9886 3.53693 14.429 2.68466 13.6676C1.83239 12.9062 1.40909 11.8807 1.41477 10.5909C1.40909 9.53409 1.69034 8.6108 2.25852 7.82102C2.83239 7.03125 3.61932 6.41477 4.61932 5.97159C5.61932 5.52841 6.75568 5.30682 8.02841 5.30682C9.32386 5.30682 10.4545 5.52841 11.4205 5.97159C12.392 6.41477 13.1477 7.03125 13.6875 7.82102C14.2273 8.6108 14.5057 9.52557 14.5227 10.5653H10.9858ZM23.1413 23.2557C21.7947 23.2557 20.6357 22.983 19.6641 22.4375C18.6982 21.8864 17.9538 21.108 17.4311 20.1023C16.9084 19.0909 16.647 17.8949 16.647 16.5142C16.647 15.1676 16.9084 13.9858 17.4311 12.9688C17.9538 11.9517 18.6896 11.1591 19.6385 10.5909C20.593 10.0227 21.7124 9.73864 22.9964 9.73864C23.8601 9.73864 24.6641 9.87784 25.4084 10.1562C26.1584 10.429 26.8118 10.8409 27.3686 11.392C27.9311 11.9432 28.3686 12.6364 28.6811 13.4716C28.9936 14.3011 29.1499 15.2727 29.1499 16.3864V17.3835H18.0959V15.1335H25.7322C25.7322 14.6108 25.6186 14.1477 25.3913 13.7443C25.1641 13.3409 24.8487 13.0256 24.4453 12.7983C24.0476 12.5653 23.5845 12.4489 23.0561 12.4489C22.505 12.4489 22.0163 12.5767 21.5902 12.8324C21.1697 13.0824 20.8402 13.4205 20.6016 13.8466C20.3629 14.267 20.2408 14.7358 20.2351 15.2528V17.392C20.2351 18.0398 20.3544 18.5994 20.593 19.071C20.8374 19.5426 21.1811 19.9062 21.6243 20.1619C22.0675 20.4176 22.593 20.5455 23.201 20.5455C23.6044 20.5455 23.9737 20.4886 24.3089 20.375C24.6442 20.2614 24.9311 20.0909 25.1697 19.8636C25.4084 19.6364 25.5902 19.358 25.7152 19.0284L29.0732 19.25C28.9027 20.0568 28.5533 20.7614 28.0249 21.3636C27.5021 21.9602 26.826 22.4261 25.9964 22.7614C25.1726 23.0909 24.2209 23.2557 23.1413 23.2557ZM35.1499 5.54545V23H31.5192V5.54545H35.1499ZM41.6889 5.54545V23H38.0582V5.54545H41.6889ZM50.5632 23.2557C49.2166 23.2557 48.0575 22.983 47.0859 22.4375C46.12 21.8864 45.3757 21.108 44.853 20.1023C44.3303 19.0909 44.0689 17.8949 44.0689 16.5142C44.0689 15.1676 44.3303 13.9858 44.853 12.9688C45.3757 11.9517 46.1115 11.1591 47.0604 10.5909C48.0149 10.0227 49.1342 9.73864 50.4183 9.73864C51.282 9.73864 52.0859 9.87784 52.8303 10.1562C53.5803 10.429 54.2337 10.8409 54.7905 11.392C55.353 11.9432 55.7905 12.6364 56.103 13.4716C56.4155 14.3011 56.5717 15.2727 56.5717 16.3864V17.3835H45.5178V15.1335H53.1541C53.1541 14.6108 53.0405 14.1477 52.8132 13.7443C52.5859 13.3409 52.2706 13.0256 51.8672 12.7983C51.4695 12.5653 51.0064 12.4489 50.478 12.4489C49.9268 12.4489 49.4382 12.5767 49.0121 12.8324C48.5916 13.0824 48.2621 13.4205 48.0234 13.8466C47.7848 14.267 47.6626 14.7358 47.657 15.2528V17.392C47.657 18.0398 47.7763 18.5994 48.0149 19.071C48.2592 19.5426 48.603 19.9062 49.0462 20.1619C49.4893 20.4176 50.0149 20.5455 50.6229 20.5455C51.0263 20.5455 51.3956 20.4886 51.7308 20.375C52.0661 20.2614 52.353 20.0909 52.5916 19.8636C52.8303 19.6364 53.0121 19.358 53.1371 19.0284L56.495 19.25C56.3246 20.0568 55.9751 20.7614 55.4467 21.3636C54.924 21.9602 54.2479 22.4261 53.4183 22.7614C52.5945 23.0909 51.6428 23.2557 50.5632 23.2557ZM58.9411 23V9.90909H62.4609V12.1932H62.5973C62.8359 11.3807 63.2365 10.767 63.799 10.3523C64.3615 9.93182 65.0092 9.72159 65.7422 9.72159C65.924 9.72159 66.12 9.73295 66.3303 9.75568C66.5405 9.77841 66.7251 9.80966 66.8842 9.84943V13.071C66.7138 13.0199 66.478 12.9744 66.1768 12.9347C65.8757 12.8949 65.6001 12.875 65.3501 12.875C64.8161 12.875 64.3388 12.9915 63.9183 13.2244C63.5036 13.4517 63.174 13.7699 62.9297 14.179C62.6911 14.5881 62.5717 15.0597 62.5717 15.5938V23H58.9411ZM84.6626 9.90909C84.5661 8.9375 84.1371 8.16477 83.3757 7.59091C82.6143 7.01705 81.657 6.73011 80.5036 6.73011C79.6911 6.73011 78.9751 6.86932 78.3558 7.14773C77.7422 7.42614 77.2592 7.8125 76.907 8.30682C76.5604 8.79545 76.3871 9.35227 76.3871 9.97727C76.3871 10.4375 76.4865 10.8409 76.6854 11.1875C76.8842 11.5341 77.1513 11.8324 77.4865 12.0824C77.8274 12.3267 78.2024 12.5369 78.6115 12.7131C79.0263 12.8892 79.4439 13.0369 79.8643 13.1562L81.7053 13.6847C82.2621 13.8381 82.8189 14.0341 83.3757 14.2727C83.9325 14.5114 84.4411 14.8125 84.9013 15.1761C85.3672 15.5341 85.7393 15.9744 86.0178 16.4972C86.3018 17.0142 86.4439 17.6364 86.4439 18.3636C86.4439 19.2955 86.2024 20.1335 85.7195 20.8778C85.2365 21.6222 84.5433 22.2131 83.6399 22.6506C82.7365 23.0824 81.6541 23.2983 80.3928 23.2983C79.2053 23.2983 78.174 23.1023 77.299 22.7102C76.424 22.3125 75.7365 21.7642 75.2365 21.0653C74.7365 20.3665 74.4553 19.5568 74.3928 18.6364H76.0291C76.0859 19.3239 76.3132 19.9062 76.7109 20.3835C77.1087 20.8608 77.6257 21.2244 78.2621 21.4744C78.8984 21.7187 79.6087 21.8409 80.3928 21.8409C81.2621 21.8409 82.0348 21.696 82.7109 21.4062C83.3928 21.1108 83.9268 20.7017 84.3132 20.179C84.7053 19.6506 84.9013 19.0369 84.9013 18.3381C84.9013 17.7472 84.7479 17.2528 84.4411 16.8551C84.1342 16.4517 83.7053 16.1136 83.1541 15.8409C82.6087 15.5682 81.9751 15.3267 81.2536 15.1165L79.1655 14.5028C77.7962 14.0937 76.7337 13.5284 75.978 12.8068C75.2223 12.0852 74.8445 11.1648 74.8445 10.0455C74.8445 9.10795 75.0945 8.28409 75.5945 7.57386C76.1001 6.85795 76.782 6.30114 77.6399 5.90341C78.5036 5.5 79.4723 5.29829 80.5462 5.29829C81.6314 5.29829 82.5916 5.49716 83.4268 5.89489C84.2621 6.29261 84.924 6.84091 85.4126 7.53977C85.907 8.23295 86.1712 9.02273 86.2053 9.90909H84.6626ZM98.282 17.9972V9.90909H99.799V23H98.282V20.8267H98.1626C97.8558 21.4972 97.37 22.0568 96.7053 22.5057C96.0405 22.9489 95.228 23.1705 94.2678 23.1705C93.4325 23.1705 92.6911 22.9886 92.0433 22.625C91.3956 22.2557 90.8871 21.7159 90.5178 21.0057C90.1484 20.2955 89.9638 19.4233 89.9638 18.3892V9.90909H91.4808V18.2955C91.4808 19.3182 91.782 20.142 92.3842 20.767C92.9865 21.3864 93.7592 21.696 94.7024 21.696C95.2933 21.696 95.8615 21.554 96.407 21.2699C96.9524 20.9858 97.4013 20.571 97.7536 20.0256C98.1058 19.4744 98.282 18.7983 98.282 17.9972ZM108.929 23.2727C107.759 23.2727 106.739 22.9801 105.869 22.3949C105.006 21.8097 104.335 21.0085 103.858 19.9915C103.381 18.9744 103.142 17.8153 103.142 16.5142C103.142 15.2017 103.384 14.0341 103.866 13.0114C104.355 11.9886 105.031 11.1875 105.895 10.608C106.759 10.0227 107.761 9.73011 108.903 9.73011C109.778 9.73011 110.571 9.90057 111.281 10.2415C111.991 10.5767 112.577 11.0511 113.037 11.6648C113.503 12.2727 113.795 12.983 113.915 13.7955H112.381C112.222 13.0568 111.838 12.4261 111.23 11.9034C110.628 11.375 109.861 11.1108 108.929 11.1108C108.094 11.1108 107.355 11.3381 106.713 11.7926C106.071 12.2415 105.568 12.8693 105.205 13.6761C104.847 14.4773 104.668 15.4062 104.668 16.4631C104.668 17.5256 104.844 18.4659 105.196 19.2841C105.548 20.0966 106.043 20.733 106.679 21.1932C107.321 21.6534 108.071 21.8835 108.929 21.8835C109.509 21.8835 110.037 21.7756 110.514 21.5597C110.997 21.3381 111.401 21.0256 111.724 20.6222C112.054 20.2187 112.276 19.7386 112.389 19.1818H113.923C113.81 19.9716 113.528 20.6761 113.08 21.2955C112.636 21.9091 112.06 22.392 111.349 22.7443C110.645 23.0966 109.838 23.2727 108.929 23.2727ZM122.288 23.2727C121.118 23.2727 120.098 22.9801 119.229 22.3949C118.365 21.8097 117.695 21.0085 117.217 19.9915C116.74 18.9744 116.501 17.8153 116.501 16.5142C116.501 15.2017 116.743 14.0341 117.226 13.0114C117.714 11.9886 118.391 11.1875 119.254 10.608C120.118 10.0227 121.121 9.73011 122.263 9.73011C123.138 9.73011 123.93 9.90057 124.641 10.2415C125.351 10.5767 125.936 11.0511 126.396 11.6648C126.862 12.2727 127.155 12.983 127.274 13.7955H125.74C125.581 13.0568 125.197 12.4261 124.589 11.9034C123.987 11.375 123.22 11.1108 122.288 11.1108C121.453 11.1108 120.714 11.3381 120.072 11.7926C119.43 12.2415 118.928 12.8693 118.564 13.6761C118.206 14.4773 118.027 15.4062 118.027 16.4631C118.027 17.5256 118.203 18.4659 118.555 19.2841C118.908 20.0966 119.402 20.733 120.038 21.1932C120.68 21.6534 121.43 21.8835 122.288 21.8835C122.868 21.8835 123.396 21.7756 123.874 21.5597C124.357 21.3381 124.76 21.0256 125.084 20.6222C125.413 20.2187 125.635 19.7386 125.749 19.1818H127.283C127.169 19.9716 126.888 20.6761 126.439 21.2955C125.996 21.9091 125.419 22.392 124.709 22.7443C124.004 23.0966 123.197 23.2727 122.288 23.2727ZM135.827 23.2727C134.605 23.2727 133.548 22.9886 132.656 22.4205C131.764 21.8466 131.074 21.054 130.585 20.0426C130.102 19.0256 129.861 17.8551 129.861 16.5312C129.861 15.2131 130.102 14.0426 130.585 13.0199C131.074 11.9915 131.747 11.1875 132.605 10.608C133.469 10.0227 134.466 9.73011 135.597 9.73011C136.307 9.73011 136.991 9.8608 137.651 10.1222C138.31 10.3778 138.901 10.7727 139.423 11.3068C139.952 11.8352 140.369 12.5028 140.676 13.3097C140.983 14.1108 141.136 15.0597 141.136 16.1562V16.9062H130.909V15.5682H139.585C139.585 14.7273 139.415 13.9716 139.074 13.3011C138.739 12.625 138.27 12.0909 137.668 11.6989C137.071 11.3068 136.381 11.1108 135.597 11.1108C134.767 11.1108 134.037 11.3324 133.406 11.7756C132.776 12.2187 132.281 12.804 131.923 13.5312C131.571 14.2585 131.392 15.054 131.386 15.9176V16.7188C131.386 17.7585 131.565 18.6676 131.923 19.446C132.287 20.2187 132.801 20.8182 133.466 21.2443C134.131 21.6705 134.918 21.8835 135.827 21.8835C136.446 21.8835 136.989 21.7869 137.455 21.5938C137.926 21.4006 138.321 21.142 138.639 20.8182C138.963 20.4886 139.207 20.1278 139.372 19.7358L140.812 20.2045C140.614 20.7557 140.287 21.2642 139.832 21.7301C139.384 22.196 138.821 22.571 138.145 22.8551C137.474 23.1335 136.702 23.2727 135.827 23.2727ZM153.275 12.7812L151.886 13.1733C151.749 12.7812 151.556 12.4261 151.306 12.108C151.056 11.7898 150.729 11.5369 150.326 11.3494C149.928 11.1619 149.434 11.0682 148.843 11.0682C147.957 11.0682 147.229 11.2784 146.661 11.6989C146.093 12.1193 145.809 12.6619 145.809 13.3267C145.809 13.8892 146.002 14.3466 146.388 14.6989C146.781 15.0455 147.383 15.321 148.195 15.5256L150.173 16.0114C151.269 16.2784 152.09 16.7017 152.636 17.2812C153.187 17.8608 153.462 18.5881 153.462 19.4631C153.462 20.2017 153.258 20.858 152.849 21.4318C152.44 22.0057 151.869 22.4574 151.136 22.7869C150.408 23.1108 149.565 23.2727 148.604 23.2727C147.326 23.2727 146.272 22.9858 145.442 22.4119C144.613 21.8324 144.082 20.9972 143.849 19.9062L145.306 19.5483C145.494 20.3267 145.86 20.9148 146.406 21.3125C146.957 21.7102 147.681 21.9091 148.579 21.9091C149.585 21.9091 150.388 21.6847 150.991 21.2358C151.593 20.7812 151.894 20.2131 151.894 19.5312C151.894 19.0028 151.718 18.5597 151.366 18.2017C151.013 17.8381 150.479 17.571 149.763 17.4006L147.624 16.8892C146.488 16.6165 145.647 16.1847 145.102 15.5938C144.556 15.0028 144.283 14.2699 144.283 13.3949C144.283 12.6733 144.479 12.0398 144.871 11.4943C145.263 10.9432 145.803 10.5114 146.491 10.1989C147.178 9.88636 147.962 9.73011 148.843 9.73011C150.042 9.73011 150.999 10.0028 151.715 10.5483C152.437 11.0881 152.957 11.8324 153.275 12.7812ZM165.58 12.7812L164.19 13.1733C164.054 12.7812 163.861 12.4261 163.611 12.108C163.361 11.7898 163.034 11.5369 162.631 11.3494C162.233 11.1619 161.739 11.0682 161.148 11.0682C160.261 11.0682 159.534 11.2784 158.966 11.6989C158.398 12.1193 158.114 12.6619 158.114 13.3267C158.114 13.8892 158.307 14.3466 158.693 14.6989C159.085 15.0455 159.688 15.321 160.5 15.5256L162.477 16.0114C163.574 16.2784 164.395 16.7017 164.94 17.2812C165.491 17.8608 165.767 18.5881 165.767 19.4631C165.767 20.2017 165.563 20.858 165.153 21.4318C164.744 22.0057 164.173 22.4574 163.44 22.7869C162.713 23.1108 161.869 23.2727 160.909 23.2727C159.631 23.2727 158.577 22.9858 157.747 22.4119C156.918 21.8324 156.386 20.9972 156.153 19.9062L157.611 19.5483C157.798 20.3267 158.165 20.9148 158.71 21.3125C159.261 21.7102 159.986 21.9091 160.884 21.9091C161.889 21.9091 162.693 21.6847 163.295 21.2358C163.898 20.7812 164.199 20.2131 164.199 19.5312C164.199 19.0028 164.023 18.5597 163.67 18.2017C163.318 17.8381 162.784 17.571 162.068 17.4006L159.929 16.8892C158.793 16.6165 157.952 16.1847 157.406 15.5938C156.861 15.0028 156.588 14.2699 156.588 13.3949C156.588 12.6733 156.784 12.0398 157.176 11.4943C157.568 10.9432 158.108 10.5114 158.795 10.1989C159.483 9.88636 160.267 9.73011 161.148 9.73011C162.347 9.73011 163.304 10.0028 164.02 10.5483C164.741 11.0881 165.261 11.8324 165.58 12.7812Z" fill="black"/>
<path d="M3.00426 33.8182H5.26136L8.28409 41.196H8.40341L11.4261 33.8182H13.6832V44H11.9134V37.005H11.8189L9.00497 43.9702H7.68253L4.86861 36.9901H4.77415V44H3.00426V33.8182ZM17.1393 44H15.1705L18.7551 33.8182H21.032L24.6215 44H22.6528L19.9333 35.9062H19.8538L17.1393 44ZM17.2039 40.0078H22.5732V41.4893H17.2039V40.0078ZM26.1026 44V33.8182H29.9208C30.703 33.8182 31.3593 33.9541 31.8896 34.2259C32.4232 34.4976 32.8259 34.8788 33.0977 35.3693C33.3727 35.8565 33.5103 36.425 33.5103 37.0746C33.5103 37.7275 33.3711 38.2943 33.0927 38.7749C32.8176 39.2521 32.4116 39.6217 31.8746 39.8835C31.3377 40.142 30.6781 40.2713 29.8959 40.2713H27.1765V38.7401H29.6474C30.1048 38.7401 30.4793 38.6771 30.7709 38.5511C31.0626 38.4219 31.278 38.2346 31.4173 37.9893C31.5598 37.7408 31.631 37.4358 31.631 37.0746C31.631 36.7133 31.5598 36.4051 31.4173 36.1499C31.2747 35.8913 31.0576 35.6958 30.766 35.5632C30.4743 35.4273 30.0981 35.3594 29.6374 35.3594H27.9471V44H26.1026ZM31.3626 39.3864L33.8832 44H31.8249L29.3491 39.3864H31.3626ZM35.3481 44V33.8182H37.1925V38.4964H37.3168L41.2891 33.8182H43.5413L39.6038 38.3871L43.5761 44H41.3587L38.3211 39.6349L37.1925 40.9673V44H35.3481ZM44.9627 44V33.8182H51.5849V35.3643H46.8072V38.1286H51.2418V39.6747H46.8072V42.4538H51.6246V44H44.9627ZM53.1592 35.3643V33.8182H61.2827V35.3643H58.1357V44H56.3062V35.3643H53.1592ZM64.8333 33.8182V44H62.9888V33.8182H64.8333ZM75.3378 33.8182V44H73.6972L68.8996 37.0646H68.815V44H66.9706V33.8182H68.6212L73.4138 40.7585H73.5033V33.8182H75.3378ZM84.3086 37.0696C84.2257 36.8011 84.1114 36.5608 83.9655 36.3487C83.823 36.1333 83.6507 35.9493 83.4485 35.7969C83.2496 35.6444 83.0209 35.5301 82.7624 35.4538C82.5039 35.3743 82.2222 35.3345 81.9172 35.3345C81.3704 35.3345 80.8831 35.4721 80.4556 35.7472C80.028 36.0223 79.6916 36.4266 79.4464 36.9602C79.2044 37.4905 79.0834 38.1368 79.0834 38.8991C79.0834 39.6681 79.2044 40.3194 79.4464 40.853C79.6883 41.3866 80.0247 41.7926 80.4556 42.071C80.8865 42.3461 81.3869 42.4837 81.957 42.4837C82.4741 42.4837 82.9215 42.3842 83.2993 42.1854C83.6805 41.9865 83.9738 41.7048 84.1793 41.3402C84.3848 40.9723 84.4875 40.5414 84.4875 40.0476L84.9052 40.1122H82.141V38.6705H86.2723V39.8935C86.2723 40.7652 86.0867 41.5192 85.7155 42.1555C85.3443 42.7919 84.8339 43.2824 84.1843 43.6271C83.5347 43.9685 82.7889 44.1392 81.9471 44.1392C81.0091 44.1392 80.1855 43.9287 79.4762 43.5078C78.7702 43.0836 78.2184 42.482 77.8206 41.7031C77.4262 40.9209 77.229 39.9929 77.229 38.919C77.229 38.0971 77.345 37.3629 77.577 36.7166C77.8124 36.0703 78.1405 35.5218 78.5614 35.071C78.9823 34.617 79.4762 34.2723 80.0429 34.0369C80.6097 33.7983 81.2262 33.679 81.8924 33.679C82.4558 33.679 82.9812 33.7618 83.4684 33.9276C83.9556 34.09 84.3881 34.322 84.766 34.6236C85.1471 34.9252 85.4603 35.2831 85.7056 35.6974C85.9509 36.1117 86.1116 36.5691 86.1878 37.0696H84.3086ZM94.7716 44.1491C94.0756 44.1491 93.4774 44.0232 92.9769 43.7713C92.4764 43.5194 92.0903 43.1797 91.8185 42.7521C91.55 42.3213 91.4158 41.8357 91.4158 41.2955C91.4158 40.8878 91.4987 40.5265 91.6644 40.2116C91.8334 39.8968 92.0654 39.6051 92.3604 39.3366C92.6587 39.0682 93.0034 38.8014 93.3945 38.5362L95.1992 37.3082C95.4643 37.1359 95.6649 36.9536 95.8007 36.7614C95.94 36.5691 96.0096 36.3437 96.0096 36.0852C96.0096 35.8665 95.9168 35.6593 95.7311 35.4638C95.5489 35.2682 95.297 35.1705 94.9755 35.1705C94.76 35.1705 94.5695 35.2218 94.4037 35.3246C94.2413 35.424 94.1137 35.5549 94.0209 35.7173C93.9314 35.8797 93.8867 36.0521 93.8867 36.2344C93.8867 36.4564 93.948 36.6818 94.0706 36.9105C94.1966 37.1392 94.359 37.3762 94.5578 37.6214C94.76 37.8667 94.9755 38.1269 95.2042 38.402L99.9819 44H98.033L94.0657 39.456C93.7707 39.1113 93.4856 38.7715 93.2105 38.4368C92.9388 38.102 92.715 37.754 92.5394 37.3928C92.367 37.0282 92.2809 36.6338 92.2809 36.2095C92.2809 35.7289 92.3919 35.2997 92.614 34.9219C92.836 34.5407 93.1459 34.2408 93.5436 34.022C93.9447 33.8033 94.4137 33.6939 94.9506 33.6939C95.4875 33.6939 95.9482 33.8 96.3327 34.0121C96.7172 34.2242 97.0138 34.5059 97.2226 34.8572C97.4314 35.2086 97.5358 35.5914 97.5358 36.0057C97.5358 36.4863 97.4165 36.9171 97.1779 37.2983C96.9392 37.6761 96.6078 38.0192 96.1836 38.3274L94.1253 39.8338C93.7873 40.0791 93.5453 40.3277 93.3995 40.5795C93.2536 40.8281 93.1807 41.0402 93.1807 41.2159C93.1807 41.4844 93.2487 41.728 93.3846 41.9467C93.5204 42.1655 93.711 42.3411 93.9563 42.4737C94.2049 42.603 94.4949 42.6676 94.8263 42.6676C95.1909 42.6676 95.5505 42.5864 95.9052 42.424C96.2598 42.2583 96.5829 42.023 96.8746 41.718C97.1663 41.4131 97.3983 41.0485 97.5706 40.6243C97.743 40.1967 97.8292 39.7228 97.8292 39.2024H99.3753C99.3753 39.8454 99.3041 40.4055 99.1615 40.8828C99.019 41.3568 98.8351 41.7578 98.6097 42.0859C98.3843 42.4107 98.1457 42.6709 97.8938 42.8665C97.8142 42.9228 97.738 42.9792 97.6651 43.0355C97.5922 43.0919 97.5159 43.1482 97.4364 43.2045C97.0784 43.5294 96.6592 43.768 96.1786 43.9205C95.7013 44.0729 95.2323 44.1491 94.7716 44.1491ZM104.844 44V33.8182H111.367V35.3643H106.689V38.1286H110.92V39.6747H106.689V44H104.844ZM115.032 33.8182V44H113.188V33.8182H115.032ZM125.537 33.8182V44H123.896L119.098 37.0646H119.014V44H117.169V33.8182H118.82L123.613 40.7585H123.702V33.8182H125.537ZM128.994 44H127.025L130.61 33.8182H132.887L136.476 44H134.507L131.788 35.9062H131.708L128.994 44ZM129.058 40.0078H134.428V41.4893H129.058V40.0078ZM146.324 33.8182V44H144.684L139.886 37.0646H139.802V44H137.957V33.8182H139.608L144.4 40.7585H144.49V33.8182H146.324ZM157.189 37.2536H155.33C155.277 36.9486 155.179 36.6785 155.037 36.4432C154.894 36.2045 154.717 36.0024 154.505 35.8366C154.293 35.6709 154.051 35.5466 153.779 35.4638C153.51 35.3776 153.22 35.3345 152.909 35.3345C152.355 35.3345 151.865 35.4737 151.437 35.7521C151.01 36.0272 150.675 36.4316 150.433 36.9652C150.191 37.4955 150.07 38.1435 150.07 38.9091C150.07 39.688 150.191 40.3442 150.433 40.8778C150.678 41.4081 151.013 41.8092 151.437 42.081C151.865 42.3494 152.354 42.4837 152.904 42.4837C153.209 42.4837 153.494 42.4439 153.759 42.3643C154.027 42.2815 154.268 42.1605 154.48 42.0014C154.695 41.8423 154.876 41.6468 155.022 41.4148C155.171 41.1828 155.274 40.9176 155.33 40.6193L157.189 40.6293C157.12 41.1132 156.969 41.5672 156.737 41.9915C156.508 42.4157 156.208 42.7902 155.837 43.1151C155.466 43.4366 155.032 43.6884 154.534 43.8707C154.037 44.0497 153.485 44.1392 152.879 44.1392C151.984 44.1392 151.185 43.9321 150.483 43.5178C149.78 43.1035 149.226 42.5052 148.822 41.723C148.418 40.9408 148.216 40.0028 148.216 38.9091C148.216 37.812 148.419 36.8741 148.827 36.0952C149.235 35.313 149.79 34.7147 150.493 34.3004C151.195 33.8861 151.991 33.679 152.879 33.679C153.446 33.679 153.973 33.7585 154.46 33.9176C154.947 34.0767 155.381 34.3104 155.762 34.6186C156.144 34.9235 156.457 35.2981 156.702 35.7422C156.951 36.183 157.113 36.6868 157.189 37.2536ZM159.018 44V33.8182H165.641V35.3643H160.863V38.1286H165.298V39.6747H160.863V42.4538H165.68V44H159.018Z" fill="#007922"/>
</svg>
