<svg width="490" height="447" viewBox="0 0 490 447" fill="none" xmlns="http://www.w3.org/2000/svg">
<path d="M404.55 101.139C384.385 89.8758 363.376 85.3545 340.45 88.2497C312.21 91.8059 289.906 95.9967 262.885 85.262C240.166 76.246 219.417 62.788 197.748 51.6303C153.424 28.6936 109.425 21.5945 76.1957 66.8333C58.5183 90.9069 45.0917 118.55 35.8253 147.713C20.8436 194.763 8.53156 246.863 15.2837 296.002C23.8244 358.295 76.1957 387.537 138.844 364.971C164.181 355.849 188.637 342.497 215.658 338.676C272.203 330.665 318.807 383.624 386.614 370.748C503.487 348.591 494.856 151.574 404.55 101.139Z" fill="#09FF4F"/>
<path opacity="0.7" d="M404.55 101.139C384.385 89.8758 363.376 85.3545 340.45 88.2497C312.21 91.8059 289.906 95.9967 262.885 85.262C240.166 76.246 219.417 62.788 197.748 51.6303C153.424 28.6936 109.425 21.5945 76.1957 66.8333C58.5183 90.9069 45.0917 118.55 35.8253 147.713C20.8436 194.763 8.53156 246.863 15.2837 296.002C23.8244 358.295 76.1957 387.537 138.844 364.971C164.181 355.849 188.637 342.497 215.658 338.676C272.203 330.665 318.807 383.624 386.614 370.748C503.487 348.591 494.856 151.574 404.55 101.139Z" fill="white"/>
<path d="M422.241 50.3876C414.011 45.8003 410.279 49.6209 407.285 45.8003C404.291 41.9797 415.515 32.0647 393.029 22.1497C393.029 22.1497 391.539 0.786208 360.862 0.019448C330.186 -0.747312 338.454 21.383 330.225 26.7238C321.995 32.0647 319.753 23.7229 311.523 29.0109C303.294 34.2989 307.039 45.0335 300.313 46.5538C293.587 48.0741 284.593 39.6927 276.363 45.0336C268.133 50.3744 268.133 54.9486 264.401 54.9486C260.668 54.9486 253.178 51.8947 248.693 54.9486C244.209 58.0024 238.96 61.8229 238.96 61.8229H428.176C428.176 61.8229 430.47 54.9618 422.241 50.3876Z" fill="#09FF4F"/>
<path opacity="0.5" d="M422.241 50.3876C414.011 45.8003 410.279 49.6209 407.285 45.8003C404.291 41.9797 415.515 32.0647 393.029 22.1497C393.029 22.1497 391.539 0.786208 360.862 0.019448C330.186 -0.747312 338.454 21.383 330.225 26.7238C321.995 32.0647 319.753 23.7229 311.523 29.0109C303.294 34.2989 307.039 45.0335 300.313 46.5538C293.587 48.0741 284.593 39.6927 276.363 45.0336C268.133 50.3744 268.133 54.9486 264.401 54.9486C260.668 54.9486 253.178 51.8947 248.693 54.9486C244.209 58.0024 238.96 61.8229 238.96 61.8229H428.176C428.176 61.8229 430.47 54.9618 422.241 50.3876Z" fill="white"/>
<path d="M207.662 221.891C201.882 218.678 199.251 221.349 197.152 218.678C195.052 216.008 202.932 209.027 187.172 202.061C187.172 202.061 186.123 187.056 164.57 186.514C143.018 185.972 148.811 201.519 143.031 205.273C137.25 209.027 135.682 203.131 129.902 206.886C124.122 210.64 126.74 218.136 122.022 219.207C117.305 220.278 110.981 214.382 105.174 218.136C99.3684 221.891 99.3943 225.103 96.7764 225.103C94.1585 225.103 88.8837 222.961 85.7345 225.103C82.5852 227.245 78.9045 229.928 78.9045 229.928H211.861C211.861 229.928 213.442 225.103 207.662 221.891Z" fill="white"/>
<path opacity="0.5" d="M207.662 221.891C201.882 218.678 199.251 221.349 197.152 218.678C195.052 216.008 202.932 209.027 187.172 202.061C187.172 202.061 186.123 187.056 164.57 186.514C143.018 185.972 148.811 201.519 143.031 205.273C137.25 209.027 135.682 203.131 129.902 206.886C124.122 210.64 126.74 218.136 122.022 219.207C117.305 220.278 110.981 214.382 105.174 218.136C99.3684 221.891 99.3943 225.103 96.7764 225.103C94.1585 225.103 88.8837 222.961 85.7345 225.103C82.5852 227.245 78.9045 229.928 78.9045 229.928H211.861C211.861 229.928 213.442 225.103 207.662 221.891Z" fill="white"/>
<path d="M371.982 445.269H453.889C452.321 435.05 445.88 436.848 445.024 421.011C444.597 413.079 451.841 403.164 451.206 392.693C450.688 384.061 442.355 375.217 441.707 365.341C441.123 356.431 448.187 346.542 447.552 336.945C446.891 327.876 438.48 319.164 437.689 309.725C436.963 300.471 443.936 290.543 443.106 281.236C442.277 271.929 433.684 263.375 432.738 254.201C431.792 244.775 438.544 234.622 437.508 225.606C436.419 216.021 427.554 207.746 426.349 198.915C425.053 189.092 431.287 178.596 429.822 170.108C428.021 159.717 418.534 152.195 416.538 144.528C412.819 130.237 413.285 116.475 408.892 115.576C404.213 114.624 403.138 128.122 399.587 143.206C397.798 150.781 388.532 158.461 387.003 168.866C385.771 177.287 392.329 187.532 391.253 197.315C390.294 206.08 381.65 214.501 380.808 224.033C380.017 232.996 387.028 242.871 386.342 252.244C385.668 261.353 377.27 270.038 376.712 279.292C376.155 288.546 383.361 298.223 382.868 307.358C382.363 316.718 374.133 325.562 373.706 334.565C373.265 344.097 380.639 353.708 380.276 362.539C379.875 372.335 371.762 381.298 371.463 389.864C371.101 400.255 378.579 409.84 378.345 417.759C377.853 434.945 370.142 431.362 369.869 445.19L371.982 445.269Z" fill="#09FF4F"/>
<path d="M407.142 143.034V441.409" stroke="black" stroke-miterlimit="10"/>
<path d="M419.934 174.312L406.598 186.065L395.686 171.219" stroke="black" stroke-miterlimit="10"/>
<path d="M419.934 226.254L406.598 237.993L395.686 223.16" stroke="black" stroke-miterlimit="10"/>
<path d="M419.934 275.088L406.598 286.841L395.686 271.995" stroke="black" stroke-miterlimit="10"/>
<path d="M419.934 333.217L406.598 344.956L395.686 330.123" stroke="black" stroke-miterlimit="10"/>
<path d="M419.934 391.953L406.598 403.693L395.686 388.86" stroke="black" stroke-miterlimit="10"/>
<path d="M316.189 445.269H379.421C378.203 437.337 373.239 438.765 372.578 426.55C372.241 420.389 377.827 412.775 377.347 404.684C376.946 398.074 370.517 391.186 370.012 383.532C369.558 376.658 375.053 368.99 374.522 361.613C374.017 354.607 367.498 347.891 366.914 340.607C366.331 333.322 371.736 325.787 371.101 318.609C370.466 311.43 363.817 304.82 363.117 297.747C362.391 290.463 367.601 282.637 366.798 275.657C365.955 268.267 359.113 261.882 358.192 255.073C357.156 247.485 362.003 239.381 360.862 232.837C359.475 224.813 352.153 218.996 350.624 213.087C347.747 202.061 348.11 191.419 344.714 190.732C341.098 189.991 340.269 200.409 337.534 212.069C336.16 217.912 328.994 223.848 327.814 231.899C326.868 238.403 331.923 246.308 331.093 253.857C330.354 260.626 323.693 267.077 323.032 274.48C322.423 281.394 327.84 289.022 327.309 296.254C326.79 303.287 320.323 309.989 319.87 317.128C319.416 324.267 325.054 331.749 324.626 338.796C324.198 345.842 317.887 352.848 317.563 359.802C317.213 367.152 322.902 374.569 322.63 381.39C322.319 388.952 316.059 395.932 315.826 402.542C315.541 410.554 321.321 417.97 321.14 424.065C320.751 437.285 314.802 434.574 314.595 445.217L316.189 445.269Z" fill="#09FF4F"/>
<path d="M343.34 211.976V442.295" stroke="black" stroke-miterlimit="10"/>
<path d="M353.203 236.116L342.913 245.185L334.489 233.723" stroke="black" stroke-miterlimit="10"/>
<path d="M353.203 276.199L342.913 285.268L334.489 273.819" stroke="black" stroke-miterlimit="10"/>
<path d="M353.203 313.902L342.913 322.971L334.489 311.522" stroke="black" stroke-miterlimit="10"/>
<path d="M353.203 358.771L342.913 367.84L334.489 356.378" stroke="black" stroke-miterlimit="10"/>
<path d="M353.203 404.115L342.913 413.171L334.489 401.723" stroke="black" stroke-miterlimit="10"/>
<path d="M259.826 444.648V177.366H273.655V444.648" fill="#2E353A"/>
<path d="M259.826 444.648V177.366H273.655V444.648" stroke="#2E353A" stroke-linecap="round" stroke-linejoin="round"/>
<path d="M252.918 444.648V177.366H266.747V444.648" fill="#09FF4F"/>
<path d="M252.918 444.648V177.366H266.747V444.648" stroke="#2E353A" stroke-linecap="round" stroke-linejoin="round"/>
<g style="mix-blend-mode:multiply" opacity="0.3">
<path d="M266.747 177.366H252.918V209.094H266.747V177.366Z" fill="#2E353A"/>
</g>
<path d="M311.925 73.0205H209.464L254.124 184.915H356.599V118.577C356.599 112.593 355.443 106.668 353.198 101.14C350.953 95.612 347.662 90.5894 343.513 86.3589C339.365 82.1285 334.44 78.7731 329.02 76.4845C323.6 74.1959 317.791 73.0188 311.925 73.0205Z" fill="#09FF4F" stroke="#2E353A" stroke-linecap="round" stroke-linejoin="round"/>
<g style="mix-blend-mode:multiply" opacity="0.3">
<path d="M246.309 165.323L254.085 184.915H356.598V118.577C356.598 117.572 356.598 116.567 356.495 115.576H246.335L246.309 165.323Z" fill="black"/>
</g>
<path d="M311.174 115.576H300.391" stroke="#2E353A" stroke-linecap="round" stroke-linejoin="round"/>
<path d="M356.495 115.576H323.861" stroke="#2E353A" stroke-linecap="round" stroke-linejoin="round"/>
<path d="M209.464 73.0205C221.312 73.0205 232.674 77.8216 241.052 86.3675C249.43 94.9134 254.137 106.504 254.137 118.59V184.928H164.791V118.577C164.794 106.493 169.502 94.9058 177.88 86.3628C186.257 77.8197 197.618 73.0205 209.464 73.0205Z" fill="#2E353A" stroke="#2E353A" stroke-linecap="round" stroke-linejoin="round"/>
<path d="M254.124 177.366H177.141V184.915H254.124V177.366Z" fill="#09FF4F" stroke="#2E353A" stroke-linecap="round" stroke-linejoin="round"/>
<path d="M254.124 177.366H94.8064V184.915H254.124V177.366Z" fill="#09FF4F" stroke="#2E353A" stroke-linecap="round" stroke-linejoin="round"/>
<path opacity="0.3" d="M254.124 177.366H177.141V184.915H254.124V177.366Z" fill="black"/>
<path d="M318.587 46.0518H286.615V68.962H318.587V46.0518Z" fill="#2E353A" stroke="#2E353A" stroke-linecap="round" stroke-linejoin="round"/>
<path d="M289.206 46.0518H282.299V117.44H289.206V46.0518Z" fill="white" stroke="#2E353A" stroke-linecap="round" stroke-linejoin="round"/>
<path d="M285.746 127.13C290.041 127.13 293.522 123.579 293.522 119.198C293.522 114.817 290.041 111.266 285.746 111.266C281.451 111.266 277.97 114.817 277.97 119.198C277.97 123.579 281.451 127.13 285.746 127.13Z" fill="#2E353A" stroke="#2E353A" stroke-linecap="round" stroke-linejoin="round"/>
<path d="M171.711 91.3433C189.751 100.69 221.114 115.668 250.041 123.203" stroke="white" stroke-linecap="round" stroke-linejoin="round" stroke-dasharray="2 4"/>
<path d="M156.574 83.2129C156.574 83.2129 162.354 86.5443 171.711 91.3961" stroke="#2E353A" stroke-linecap="round" stroke-linejoin="round" stroke-dasharray="2 4"/>
<path d="M150.081 82.7238L163.054 51.2866L68.9771 27.874L150.081 82.7238Z" fill="white" stroke="#2E353A" stroke-width="1.2629" stroke-linecap="round" stroke-linejoin="round"/>
<path d="M156.405 55.094L150.081 82.7238L68.9771 27.874L156.405 55.094Z" fill="#09FF4F" stroke="#2E353A" stroke-width="1.2629" stroke-linecap="round" stroke-linejoin="round"/>
<path d="M156.405 55.094L141.644 67.9967L68.9771 27.874L156.405 55.094Z" fill="white" stroke="#2E353A" stroke-width="1.2629" stroke-linecap="round" stroke-linejoin="round"/>
<path d="M163.054 51.2866L176.195 45.84L68.9771 27.874L163.054 51.2866Z" fill="white" stroke="#2E353A" stroke-width="1.2629" stroke-linecap="round" stroke-linejoin="round"/>
<path d="M131.807 77.8325L134.853 79.7362" stroke="#2E353A" stroke-linecap="round" stroke-linejoin="round"/>
<path d="M115.192 67.4414L125.392 73.8134" stroke="#2E353A" stroke-linecap="round" stroke-linejoin="round"/>
<path d="M103.736 142.901V108.807L199.355 124.486L103.736 142.901Z" fill="white" stroke="#2E353A" stroke-width="1.2629" stroke-linecap="round" stroke-linejoin="round"/>
<path d="M108.414 114.941L103.736 142.901L199.355 124.486L108.414 114.941Z" fill="#09FF4F" stroke="#2E353A" stroke-width="1.2629" stroke-linecap="round" stroke-linejoin="round"/>
<path d="M108.414 114.941L117.11 132.669L199.355 124.486L108.414 114.941Z" fill="white" stroke="#2E353A" stroke-width="1.2629" stroke-linecap="round" stroke-linejoin="round"/>
<path d="M103.736 108.807L93.7048 98.5747L199.355 124.486L103.736 108.807Z" fill="white" stroke="#2E353A" stroke-width="1.2629" stroke-linecap="round" stroke-linejoin="round"/>
<path d="M137.976 142.266L146.27 140.548" stroke="#2E353A" stroke-linecap="round" stroke-linejoin="round"/>
<path d="M108.842 148.308L129.695 143.985" stroke="#2E353A" stroke-linecap="round" stroke-linejoin="round"/>
<path d="M92.2144 140.799C92.2144 140.799 17.0464 154.019 2.79035 222.763C-11.4656 291.507 63.7024 295.473 76.6624 262.423C89.6224 229.373 32.5984 216.153 19.6384 247.881C6.67836 279.609 45.5584 333.811 98.6944 336.455C142.849 338.65 266.643 286.074 343.638 272.788C343.638 272.788 400.662 256.686 488.79 260.216" stroke="#2E353A" stroke-linecap="round" stroke-linejoin="round" stroke-dasharray="2 4"/>
<path d="M463.298 356.286H484.902" stroke="#2E353A" stroke-linecap="round" stroke-linejoin="round"/>
<path d="M463.298 388.886H484.902" stroke="#2E353A" stroke-linecap="round" stroke-linejoin="round"/>
<path d="M8.4021 388.014H460.706V357.158H8.4021" fill="white"/>
<path d="M8.4021 388.014H460.706V357.158H8.4021" stroke="#2E353A" stroke-linecap="round" stroke-linejoin="round"/>
<path d="M39.843 444.86V289.63C39.8433 289.25 39.9192 288.873 40.0662 288.523C40.2132 288.173 40.4283 287.857 40.6984 287.594L52.5179 276.238C53.0502 275.731 53.7576 275.458 54.4859 275.481C55.2143 275.503 55.9044 275.818 56.4059 276.357L66.7739 287.608C67.2443 288.131 67.5075 288.814 67.5126 289.525V444.86" fill="#2E353A"/>
<path d="M39.843 444.86V289.63C39.8433 289.25 39.9192 288.873 40.0662 288.523C40.2132 288.173 40.4283 287.857 40.6984 287.594L52.5179 276.238C53.0502 275.731 53.7576 275.458 54.4859 275.481C55.2143 275.503 55.9044 275.818 56.4059 276.357L66.7739 287.608C67.2443 288.131 67.5075 288.814 67.5126 289.525V444.86" stroke="#2E353A" stroke-linecap="round" stroke-linejoin="round"/>
<path d="M36.4863 446.182V289.63C36.486 289.248 36.5629 288.87 36.7123 288.52C36.8617 288.17 37.0804 287.855 37.3546 287.595L49.1742 276.239C49.4369 275.986 49.746 275.788 50.0838 275.657C50.4215 275.526 50.7812 275.464 51.1424 275.475C51.5035 275.486 51.859 275.57 52.1884 275.721C52.5178 275.873 52.8147 276.089 53.0622 276.358L63.4302 287.608C63.906 288.128 64.1701 288.813 64.1689 289.525V446.182" fill="white"/>
<path d="M36.4863 446.182V289.63C36.486 289.248 36.5629 288.87 36.7123 288.52C36.8617 288.17 37.0804 287.855 37.3546 287.595L49.1742 276.239C49.4369 275.986 49.746 275.788 50.0838 275.657C50.4215 275.526 50.7812 275.464 51.1424 275.475C51.5035 275.486 51.859 275.57 52.1884 275.721C52.5178 275.873 52.8147 276.089 53.0622 276.358L63.4302 287.608C63.906 288.128 64.1701 288.813 64.1689 289.525V446.182" stroke="#2E353A" stroke-linecap="round" stroke-linejoin="round"/>
<path d="M139.505 444.86V289.63C139.506 289.25 139.582 288.873 139.729 288.523C139.876 288.173 140.091 287.857 140.361 287.595L152.193 276.239C152.456 275.986 152.765 275.788 153.103 275.657C153.441 275.526 153.8 275.464 154.161 275.475C154.523 275.486 154.878 275.57 155.207 275.721C155.537 275.873 155.834 276.089 156.081 276.358L166.449 287.608C166.925 288.128 167.189 288.813 167.188 289.525V444.86" fill="#2E353A"/>
<path d="M139.505 444.86V289.63C139.506 289.25 139.582 288.873 139.729 288.523C139.876 288.173 140.091 287.857 140.361 287.595L152.193 276.239C152.456 275.986 152.765 275.788 153.103 275.657C153.441 275.526 153.8 275.464 154.161 275.475C154.523 275.486 154.878 275.57 155.207 275.721C155.537 275.873 155.834 276.089 156.081 276.358L166.449 287.608C166.925 288.128 167.189 288.813 167.188 289.525V444.86" stroke="#2E353A" stroke-linecap="round" stroke-linejoin="round"/>
<path d="M136.706 446.182V289.63C136.706 289.248 136.783 288.87 136.932 288.52C137.081 288.17 137.3 287.855 137.574 287.594L149.394 276.238C149.926 275.731 150.634 275.458 151.362 275.481C152.09 275.503 152.78 275.818 153.282 276.357L163.65 287.608C164.129 288.126 164.398 288.812 164.402 289.525V446.182" fill="white"/>
<path d="M136.706 446.182V289.63C136.706 289.248 136.783 288.87 136.932 288.52C137.081 288.17 137.3 287.855 137.574 287.594L149.394 276.238C149.926 275.731 150.634 275.458 151.362 275.481C152.09 275.503 152.78 275.818 153.282 276.357L163.65 287.608C164.129 288.126 164.398 288.812 164.402 289.525V446.182" stroke="#2E353A" stroke-linecap="round" stroke-linejoin="round"/>
<path d="M239.725 444.86V289.63C239.725 289.248 239.802 288.87 239.951 288.52C240.1 288.17 240.319 287.855 240.593 287.594L252.413 276.238C252.945 275.731 253.653 275.458 254.381 275.481C255.109 275.503 255.799 275.818 256.301 276.357L266.669 287.608C267.148 288.126 267.417 288.812 267.421 289.525V446.182" fill="#2E353A"/>
<path d="M239.725 444.86V289.63C239.725 289.248 239.802 288.87 239.951 288.52C240.1 288.17 240.319 287.855 240.593 287.594L252.413 276.238C252.945 275.731 253.653 275.458 254.381 275.481C255.109 275.503 255.799 275.818 256.301 276.357L266.669 287.608C267.148 288.126 267.417 288.812 267.421 289.525V446.182" stroke="#2E353A" stroke-linecap="round" stroke-linejoin="round"/>
<path d="M236.939 446.182V289.63C236.939 289.25 237.015 288.873 237.162 288.523C237.309 288.173 237.524 287.857 237.794 287.595L249.627 276.239C249.889 275.986 250.198 275.788 250.536 275.657C250.874 275.526 251.234 275.464 251.595 275.475C251.956 275.486 252.311 275.57 252.641 275.721C252.97 275.873 253.267 276.089 253.515 276.358L263.883 287.608C264.358 288.128 264.622 288.813 264.621 289.525V446.182" fill="white"/>
<path d="M236.939 446.182V289.63C236.939 289.25 237.015 288.873 237.162 288.523C237.309 288.173 237.524 287.857 237.794 287.595L249.627 276.239C249.889 275.986 250.198 275.788 250.536 275.657C250.874 275.526 251.234 275.464 251.595 275.475C251.956 275.486 252.311 275.57 252.641 275.721C252.97 275.873 253.267 276.089 253.515 276.358L263.883 287.608C264.358 288.128 264.622 288.813 264.621 289.525V446.182" stroke="#2E353A" stroke-linecap="round" stroke-linejoin="round"/>
<path d="M339.958 444.86V289.63C339.958 289.25 340.034 288.873 340.181 288.523C340.328 288.173 340.543 287.857 340.813 287.594L352.633 276.238C353.165 275.731 353.872 275.458 354.601 275.481C355.329 275.503 356.019 275.818 356.521 276.357L366.889 287.608C367.359 288.131 367.622 288.814 367.627 289.525V444.86" fill="#2E353A"/>
<path d="M339.958 444.86V289.63C339.958 289.25 340.034 288.873 340.181 288.523C340.328 288.173 340.543 287.857 340.813 287.594L352.633 276.238C353.165 275.731 353.872 275.458 354.601 275.481C355.329 275.503 356.019 275.818 356.521 276.357L366.889 287.608C367.359 288.131 367.622 288.814 367.627 289.525V444.86" stroke="#2E353A" stroke-linecap="round" stroke-linejoin="round"/>
<path d="M337.158 446.182V289.63C337.158 289.248 337.235 288.87 337.384 288.52C337.534 288.17 337.753 287.855 338.027 287.595L349.846 276.239C350.109 275.986 350.418 275.788 350.756 275.657C351.094 275.526 351.453 275.464 351.814 275.475C352.176 275.486 352.531 275.57 352.861 275.721C353.19 275.873 353.487 276.089 353.734 276.358L364.102 287.608C364.578 288.128 364.842 288.813 364.841 289.525V446.182" fill="white"/>
<path d="M337.158 446.182V289.63C337.158 289.248 337.235 288.87 337.384 288.52C337.534 288.17 337.753 287.855 338.027 287.595L349.846 276.239C350.109 275.986 350.418 275.788 350.756 275.657C351.094 275.526 351.453 275.464 351.814 275.475C352.176 275.486 352.531 275.57 352.861 275.721C353.19 275.873 353.487 276.089 353.734 276.358L364.102 287.608C364.578 288.128 364.842 288.813 364.841 289.525V446.182" stroke="#2E353A" stroke-linecap="round" stroke-linejoin="round"/>
<path d="M440.177 444.86V289.63C440.178 289.25 440.254 288.873 440.401 288.523C440.548 288.173 440.763 287.857 441.033 287.595L452.865 276.239C453.128 275.986 453.437 275.788 453.775 275.657C454.113 275.526 454.472 275.464 454.834 275.475C455.195 275.486 455.55 275.57 455.88 275.721C456.209 275.873 456.506 276.089 456.753 276.358L467.121 287.608C467.597 288.128 467.861 288.813 467.86 289.525V444.86" fill="#2E353A"/>
<path d="M440.177 444.86V289.63C440.178 289.25 440.254 288.873 440.401 288.523C440.548 288.173 440.763 287.857 441.033 287.595L452.865 276.239C453.128 275.986 453.437 275.788 453.775 275.657C454.113 275.526 454.472 275.464 454.834 275.475C455.195 275.486 455.55 275.57 455.88 275.721C456.209 275.873 456.506 276.089 456.753 276.358L467.121 287.608C467.597 288.128 467.861 288.813 467.86 289.525V444.86" stroke="#2E353A" stroke-linecap="round" stroke-linejoin="round"/>
<path d="M437.378 446.182V289.63C437.378 289.248 437.455 288.87 437.604 288.52C437.754 288.17 437.972 287.855 438.247 287.594L450.066 276.238C450.598 275.731 451.306 275.458 452.034 275.481C452.762 275.503 453.453 275.818 453.954 276.357L464.322 287.608C464.801 288.126 465.07 288.812 465.074 289.525V446.182" fill="white"/>
<path d="M437.378 446.182V289.63C437.378 289.248 437.455 288.87 437.604 288.52C437.754 288.17 437.972 287.855 438.247 287.594L450.066 276.238C450.598 275.731 451.306 275.458 452.034 275.481C452.762 275.503 453.453 275.818 453.954 276.357L464.322 287.608C464.801 288.126 465.07 288.812 465.074 289.525V446.182" stroke="#2E353A" stroke-linecap="round" stroke-linejoin="round"/>
<path d="M53.0493 276.357V287.674" stroke="#2E353A" stroke-linecap="round" stroke-linejoin="round"/>
<path d="M57.4946 282.201V308.984" stroke="#2E353A" stroke-linecap="round" stroke-linejoin="round"/>
<path d="M142.162 284.395V318.278" stroke="#2E353A" stroke-linecap="round" stroke-linejoin="round"/>
<path d="M146.452 280.02V294.773" stroke="#2E353A" stroke-linecap="round" stroke-linejoin="round"/>
<path d="M249.626 276.238V309.539" stroke="#2E353A" stroke-linecap="round" stroke-linejoin="round"/>
<path d="M255.782 278.922V328.127" stroke="#2E353A" stroke-linecap="round" stroke-linejoin="round"/>
<path d="M342.057 284.395V321.556" stroke="#2E353A" stroke-linecap="round" stroke-linejoin="round"/>
<path d="M355.989 280.02V289.313" stroke="#2E353A" stroke-linecap="round" stroke-linejoin="round"/>
<path d="M446.554 279.464V299.149" stroke="#2E353A" stroke-linecap="round" stroke-linejoin="round"/>
<path d="M458.347 281.659V338.505" stroke="#2E353A" stroke-linecap="round" stroke-linejoin="round"/>
<path d="M436.912 364.747H425.118" stroke="#2E353A" stroke-linecap="round" stroke-linejoin="round"/>
<path d="M436.912 374.04H395.647" stroke="#2E353A" stroke-linecap="round" stroke-linejoin="round"/>
<path d="M283.102 374.04H264.349" stroke="#2E353A" stroke-linecap="round" stroke-linejoin="round"/>
<path d="M184.503 374.04H165.75" stroke="#2E353A" stroke-linecap="round" stroke-linejoin="round"/>
<path d="M36.0588 369.122H17.3057" stroke="#2E353A" stroke-linecap="round" stroke-linejoin="round"/>
<path d="M36.0588 377.861H28.5549" stroke="#2E353A" stroke-linecap="round" stroke-linejoin="round"/>
<path d="M273.46 369.122H264.349" stroke="#2E353A" stroke-linecap="round" stroke-linejoin="round"/>
<path d="M173.785 379.5H164.674" stroke="#2E353A" stroke-linecap="round" stroke-linejoin="round"/>
<path d="M135.734 379.5H126.623" stroke="#2E353A" stroke-linecap="round" stroke-linejoin="round"/>
<path d="M473.342 374.04H465.307" stroke="#2E353A" stroke-linecap="round" stroke-linejoin="round"/>
<path d="M484.06 374.04H479.239" stroke="#2E353A" stroke-linecap="round" stroke-linejoin="round"/>
<path d="M63.7025 317.208C63.7025 317.208 60.4625 345.617 56.5745 374.688C52.6865 403.759 59.8145 433.504 61.7585 436.148" stroke="#2E353A" stroke-linecap="round" stroke-linejoin="round"/>
<path d="M50.885 374.714C51.5071 369.043 52.0255 365.46 52.0255 365.46" stroke="#2E353A" stroke-linecap="round" stroke-linejoin="round"/>
<path d="M60.4494 432.843C60.4494 432.843 48.7854 430.199 48.7854 409.047C48.7854 400.361 49.3297 391.464 49.9777 383.929" stroke="#2E353A" stroke-linecap="round" stroke-linejoin="round"/>
<path d="M158.31 283.496C158.31 283.496 160.902 285.479 156.366 307.953C151.83 330.427 152.478 363.477 158.31 381.985" stroke="#2E353A" stroke-linecap="round" stroke-linejoin="round"/>
<path d="M164.79 325.139C164.79 325.139 158.31 344.969 162.846 372.731" stroke="#2E353A" stroke-linecap="round" stroke-linejoin="round"/>
<path d="M238.662 337.685C238.662 337.685 241.902 356.854 245.142 376.671C248.382 396.488 245.79 424.263 243.198 431.521C240.606 438.778 238.014 444.741 238.014 444.741" stroke="#2E353A" stroke-linecap="round" stroke-linejoin="round"/>
<path d="M250.871 435.024C247.981 444.066 244.391 433.503 244.391 433.503" stroke="#2E353A" stroke-linecap="round" stroke-linejoin="round"/>
<path d="M250.754 367.443C250.754 367.443 256.858 399.581 253.411 423.774" stroke="#2E353A" stroke-linecap="round" stroke-linejoin="round"/>
<path d="M237.366 378.02C237.366 378.02 243.846 391.901 238.014 405.121" stroke="#2E353A" stroke-linecap="round" stroke-linejoin="round"/>
<path d="M358.283 379.976C359.151 384.017 360.289 387.992 361.692 391.874" stroke="#2E353A" stroke-linecap="round" stroke-linejoin="round"/>
<path d="M363.636 311.258C359.524 324.573 356.915 338.322 355.86 352.24C355.473 359.282 355.859 366.346 357.013 373.3" stroke="#2E353A" stroke-linecap="round" stroke-linejoin="round"/>
<path d="M351.324 372.044C351.324 372.044 357.156 394.518 360.396 402.45C363.636 410.382 362.34 429.538 358.452 438.792" stroke="#2E353A" stroke-linecap="round" stroke-linejoin="round"/>
<path d="M438.778 321.173C438.778 321.173 451.738 344.969 439.426 383.955" stroke="#2E353A" stroke-linecap="round" stroke-linejoin="round"/>
<path d="M450.688 361.812C450.766 369.241 450.118 378.654 447.202 386.586C441.37 402.45 438.778 407.738 438.778 407.738" stroke="#2E353A" stroke-linecap="round" stroke-linejoin="round"/>
<path d="M449.794 348.935C449.794 348.935 450.222 351.777 450.481 356.153" stroke="#2E353A" stroke-linecap="round" stroke-linejoin="round"/>
</svg>
