<svg width="24" height="20" viewBox="0 0 24 20" fill="none" xmlns="http://www.w3.org/2000/svg">
<path d="M1.8 20C1.32 20 0.9 19.8125 0.54 19.4375C0.18 19.0625 0 18.625 0 18.125V1.875C0 1.375 0.18 0.9375 0.54 0.5625C0.9 0.1875 1.32 0 1.8 0H22.2C22.68 0 23.1 0.1875 23.46 0.5625C23.82 0.9375 24 1.375 24 1.875V18.125C24 18.625 23.82 19.0625 23.46 19.4375C23.1 19.8125 22.68 20 22.2 20H1.8ZM12 10.5625L1.8 3.59375V18.125H22.2V3.59375L12 10.5625ZM12 8.6875L22.08 1.875H1.95L12 8.6875ZM1.8 3.59375V1.875V18.125V3.59375Z" fill="#403D3D"/>
</svg>
