<svg width="734" height="603" viewBox="0 0 734 603" fill="none" xmlns="http://www.w3.org/2000/svg">
<path d="M768.44 601H78.3242V602.5H768.44V601Z" fill="#263238"/>
<path d="M61.4244 601H37V602.5H61.4244V601Z" fill="#263238"/>
<path d="M5.96653 212.117C3.63309 211.895 2.37775 211.895 2.36299 211.895V210.41C2.36299 210.41 3.70693 210.41 6.11422 210.647L5.96653 212.117Z" fill="#263238"/>
<path d="M188.021 268.342C185.57 268.342 183.108 268.298 180.637 268.209V266.724C183.133 266.724 185.614 266.842 188.021 266.857V268.342ZM195.406 268.342V266.857C197.931 266.857 200.412 266.753 202.79 266.649V268.134C200.486 268.238 198.005 268.342 195.45 268.342H195.406ZM173.09 267.941C170.639 267.822 168.157 267.659 165.706 267.466L165.824 265.981C168.305 266.174 170.772 266.338 173.208 266.456L173.09 267.941ZM210.278 267.763L210.189 266.278C212.774 266.115 215.225 265.922 217.573 265.714L217.706 267.199C215.388 267.421 212.921 267.6 210.322 267.763H210.278ZM158.292 266.857C155.796 266.59 153.315 266.308 150.908 265.996L151.1 264.511C153.507 264.823 155.973 265.105 158.484 265.358L158.292 266.857ZM143.523 264.927C141.057 264.526 138.591 264.095 136.139 263.635L136.405 262.15C138.797 262.61 141.249 263.041 143.701 263.427L143.523 264.927ZM128.902 262.091C126.451 261.526 124.014 260.918 121.666 260.279L122.05 258.794C124.383 259.418 126.79 260.027 129.227 260.591L128.902 262.091ZM114.518 258.171C112.11 257.398 109.733 256.567 107.473 255.721L107.99 254.325C110.235 255.171 112.583 255.988 114.976 256.745L114.518 258.171ZM100.532 252.855C98.2279 251.83 95.9535 250.746 93.7973 249.618L94.4767 248.296C96.6034 249.41 98.9073 250.479 101.137 251.489L100.532 252.855ZM87.24 245.92C86.0586 245.178 84.8771 244.435 83.7399 243.633L81.0224 241.807L81.8347 240.56L84.5669 242.401C85.6893 243.173 86.8413 243.886 88.0228 244.658L87.24 245.92ZM74.7901 237.783C72.6929 236.476 70.5515 235.199 68.4395 233.967L69.178 232.69C71.3047 233.922 73.4609 235.214 75.5728 236.521L74.7901 237.783ZM61.9709 230.359C59.7851 229.185 57.5403 228.042 55.3841 226.973L56.0339 225.637C58.2344 226.721 60.4645 227.864 62.665 229.052L61.9709 230.359ZM48.6791 223.84C46.4195 222.83 44.1304 221.865 41.856 220.974L42.4024 219.593C44.6916 220.499 46.9955 221.464 49.2846 222.489L48.6791 223.84ZM34.9295 218.375C32.5813 217.559 30.2183 216.787 27.8996 216.104L28.3279 214.619C30.6614 215.317 33.0539 216.104 35.4169 216.92L34.9295 218.375ZM20.7811 214.188C18.3295 213.579 15.8927 213.074 13.574 212.703L13.8251 211.218C16.1881 211.649 18.6397 212.169 21.2094 212.703L20.7811 214.188Z" fill="#263238"/>
<path d="M224.808 266.94L224.646 265.455C225.916 265.306 227.127 265.143 228.279 264.98L228.486 266.465C227.319 266.628 226.093 266.791 224.808 266.94Z" fill="#263238"/>
<path d="M227.511 273.265L238.794 263.747L224.956 258.684L227.511 273.265Z" fill="#263238"/>
<path d="M3.66263 47.2197L0.871348 44.7993L1.84608 43.6857L4.62259 46.106L3.66263 47.2197Z" fill="#263238"/>
<path d="M226.92 200.802C224.779 199.986 222.49 199.08 219.876 198.041L220.437 196.66C222.977 197.699 225.31 198.605 227.437 199.407L226.92 200.802ZM212.905 195.13C210.719 194.21 208.41 193.22 205.978 192.16L206.569 190.794C209.001 191.873 211.305 192.863 213.481 193.764L212.905 195.13ZM199.126 188.998L192.273 185.805L192.908 184.454C195.286 185.582 197.56 186.637 199.746 187.646L199.126 188.998ZM185.465 182.538L179.144 179.45L178.686 179.227L179.336 177.891L179.794 178.113L186.115 181.202L185.465 182.538ZM171.966 175.678C169.899 174.535 167.683 173.258 165.394 171.892L166.147 170.615C168.422 171.966 170.578 173.228 172.69 174.371L171.966 175.678ZM158.94 167.942C156.858 166.635 154.716 165.269 152.56 163.858L153.358 162.611C155.514 164.017 157.636 165.373 159.723 166.68L158.94 167.942ZM146.239 159.671C144.191 158.295 142.109 156.874 139.992 155.409L140.834 154.177C142.931 155.632 145.008 157.053 147.066 158.438L146.239 159.671ZM133.789 151.073C131.751 149.638 129.698 148.153 127.631 146.619L128.487 145.416L134.631 149.871L133.789 151.073ZM121.502 142.164L115.417 137.709L116.303 136.521L122.373 140.976L121.502 142.164ZM109.362 133.121C107.353 131.636 105.345 130.151 103.336 128.547L104.222 127.374C106.231 128.859 108.239 130.433 110.248 131.933L109.362 133.121ZM97.222 124.004L91.3146 119.356L92.2154 118.183C94.2092 119.668 96.203 121.286 98.1968 122.816L97.222 124.004ZM85.4071 114.708L79.4996 110.016L80.4153 108.843L86.3228 113.535L85.4071 114.708ZM73.5922 105.294L67.6847 100.572L68.6004 99.4138L74.5078 104.136L73.5922 105.294ZM61.7773 95.8055L55.8698 91.039L56.8002 89.8808L62.7077 94.6473L61.7773 95.8055ZM49.9623 86.1983L44.0549 81.3723L44.9853 80.229L50.8928 85.04L49.9623 86.1983ZM38.2951 76.5464L32.491 71.6908L33.4362 70.5475L39.2403 75.4031L38.2951 76.5464ZM26.7017 66.8946L20.9124 62.0093L21.8724 60.8808L27.6469 65.7661L26.7017 66.8946ZM15.1379 57.1092C13.0112 55.2976 11.0765 53.6493 9.3781 52.1793L10.3381 51.0508L16.0978 55.9806L15.1379 57.1092Z" fill="#263238"/>
<path d="M237.303 204.396C236.239 204.069 235.058 203.683 233.773 203.253L234.246 201.768C235.516 202.198 236.682 202.57 237.746 202.911L237.303 204.396Z" fill="#263238"/>
<path d="M233.714 210.232L247.847 206.089L237.214 195.843L233.714 210.232Z" fill="#263238"/>
<path d="M3.70693 467.965C1.29964 467.846 0 467.727 0 467.727L0.132918 466.242C0.132918 466.242 1.41779 466.361 3.78078 466.465L3.70693 467.965Z" fill="#263238"/>
<path d="M12.893 468.173H11.1946V466.688H12.893C14.6505 466.688 16.5704 466.688 18.638 466.614V468.099C16.5852 468.158 14.6653 468.173 12.893 468.173ZM26.1848 467.802V466.317C28.6512 466.183 31.1471 466.005 33.5691 465.812L33.7021 467.297C31.1323 467.505 28.6216 467.683 26.1405 467.816L26.1848 467.802ZM41.1011 466.584L40.9387 465.099C43.4051 464.832 45.8862 464.52 48.323 464.178L48.515 465.663C46.0339 466.005 43.538 466.332 41.1011 466.584ZM55.8698 464.55L55.6335 463.065C58.0851 462.664 60.5515 462.218 63.0178 461.743L63.2984 463.228C60.8173 463.688 58.3362 464.134 55.8698 464.55ZM70.5498 461.684L70.2249 460.199C72.647 459.664 75.069 459.085 77.4616 458.476L77.816 459.961C75.4235 460.555 72.9719 461.134 70.5498 461.684ZM85.0379 457.986L84.6391 456.502C87.0021 455.818 89.3946 455.091 91.7576 454.334L92.2007 455.818C89.8377 456.561 87.4156 457.303 85.0379 457.986ZM99.2896 453.413L98.8023 452.017C101.136 451.186 103.484 450.309 105.758 449.419L106.305 450.8C104.001 451.705 101.653 452.581 99.2896 453.413ZM113.231 447.949L112.64 446.582C114.93 445.602 117.204 444.578 119.419 443.538L120.054 444.89C117.898 445.929 115.52 447.028 113.231 447.949ZM126.774 441.578L126.095 440.257C128.295 439.128 130.525 437.955 132.652 436.738L133.376 438.044C131.19 439.262 128.975 440.45 126.759 441.578H126.774ZM139.844 434.273L139.076 432.996C140.671 432.045 142.252 431.05 143.817 430.026C144.334 429.699 144.836 429.372 145.294 429.016L146.136 430.249L144.57 431.288C143.005 432.313 141.439 433.307 139.844 434.273ZM152.161 425.66L151.201 424.517C153.018 423.032 154.849 421.28 156.636 419.483L157.685 420.537C155.854 422.364 154.007 424.086 152.161 425.66ZM162.795 414.999L161.672 414.034C163.238 412.237 164.818 410.292 166.384 408.272L167.55 409.178C165.97 411.227 164.375 413.187 162.795 414.999ZM172.01 403.12L170.799 402.258C172.188 400.298 173.591 398.219 174.979 396.081L176.22 396.883C174.816 399.066 173.399 401.159 172.01 403.134V403.12ZM180.207 390.528L178.952 389.755C180.241 387.627 181.512 385.484 182.762 383.326L184.032 384.068C182.777 386.251 181.507 388.419 180.207 390.602V390.528ZM187.724 377.535L186.425 376.822C187.636 374.624 188.827 372.432 189.999 370.244L191.298 370.942C190.117 373.154 188.935 375.352 187.724 377.55V377.535ZM194.798 364.319L193.499 363.621L196.955 356.984L198.269 357.667L194.798 364.319ZM201.71 350.955L200.411 350.272C201.592 348.005 202.759 345.793 203.911 343.635L205.21 344.347C204.058 346.56 202.892 348.772 201.71 351.029V350.955ZM208.799 337.784L207.514 337.057C208.873 334.636 210.114 332.513 211.31 330.568L212.565 331.34C211.384 333.344 210.143 335.453 208.799 337.858V337.784Z" fill="#263238"/>
<path d="M216.582 325.266L215.386 324.42C216.124 323.351 216.863 322.356 217.601 321.45L218.753 322.371C218.044 323.232 217.321 324.197 216.582 325.266Z" fill="#263238"/>
<path d="M222.12 328.682L225.709 314.323L211.546 318.376L222.12 328.682Z" fill="#263238"/>
<path d="M8.96457 355.944C6.55728 355.722 5.27241 355.529 5.27241 355.529L5.49394 354.044C5.49394 354.044 6.76404 354.222 9.11226 354.46L8.96457 355.944Z" fill="#263238"/>
<path d="M30.7631 356.702V355.217C33.1113 355.217 35.5481 355.113 37.985 355.009V356.494C35.5777 356.598 33.1408 356.672 30.7631 356.702ZM23.4969 356.702C21.0158 356.702 18.5642 356.583 16.2307 356.464L16.3046 354.979C18.6233 355.098 21.0453 355.187 23.5265 355.217L23.4969 356.702ZM45.2954 356.063L45.1921 354.578C47.5698 354.415 49.9919 354.192 52.3844 353.955L52.5321 355.44C50.1248 355.677 47.688 355.885 45.2954 356.063ZM59.7539 354.578L59.562 353.093C61.9545 352.782 64.3618 352.44 66.7247 352.069L66.9463 353.554C64.5685 353.955 62.1465 354.296 59.7539 354.608V354.578ZM74.1238 352.336L73.858 350.851C76.1767 350.421 78.5397 349.96 80.947 349.441L81.2423 350.925C78.835 351.46 76.4573 351.995 74.1238 352.366V352.336ZM88.3313 349.366L87.9916 347.881C90.325 347.317 92.688 346.708 94.9919 346.085L95.3759 347.57C93.0572 348.164 90.6943 348.772 88.3608 349.337L88.3313 349.366ZM102.376 345.565L101.948 344.08C104.237 343.397 106.556 342.595 108.845 341.897L109.303 343.308C107.014 344.095 104.68 344.837 102.376 345.535V345.565ZM116.17 340.991L115.683 339.596C117.928 338.779 120.202 337.918 122.432 337.027L122.979 338.408C120.734 339.269 118.445 340.115 116.17 340.962V340.991ZM129.713 335.661L129.137 334.295C131.338 333.359 133.568 332.364 135.753 331.325L136.359 332.676C134.144 333.671 131.914 334.666 129.713 335.661ZM143.005 329.558L142.34 328.221C143.886 327.449 145.437 326.662 146.992 325.86L148.779 324.91L149.473 326.232L147.672 327.167C145.959 327.939 144.482 328.741 142.916 329.513L143.005 329.558ZM155.898 322.861L155.204 321.539L161.628 318.169L162.322 319.49L155.898 322.861ZM168.747 316.105L168.052 314.798L174.477 311.412L175.156 312.734L168.747 316.105ZM181.581 309.348L180.886 308.027L187.296 304.641L187.99 305.948L181.581 309.348Z" fill="#263238"/>
<path d="M196.893 299.459L193.628 301.193L194.318 302.506L197.582 300.772L196.893 299.459Z" fill="#263238"/>
<path d="M198.742 307.626L206.599 295.108L191.889 294.514L198.742 307.626Z" fill="#263238"/>
<path d="M83.5757 387.944H73.8136V422.319H83.5757V387.944Z" fill="#263238"/>
<path d="M84.3289 423.062H73.0752V387.201H84.3289V423.062ZM74.5521 421.577H82.852V388.686H74.5521V421.577Z" fill="#263238"/>
<path d="M100.678 369.427H90.9157V422.319H100.678V369.427Z" fill="#09FF4F"/>
<path d="M100.678 423.062H90.9157C90.7199 423.062 90.5321 422.983 90.3936 422.844C90.2551 422.705 90.1773 422.516 90.1773 422.319V369.427C90.1773 369.23 90.2551 369.041 90.3936 368.902C90.5321 368.763 90.7199 368.685 90.9157 368.685H100.678C100.874 368.685 101.061 368.763 101.2 368.902C101.338 369.041 101.416 369.23 101.416 369.427V422.319C101.416 422.516 101.338 422.705 101.2 422.844C101.061 422.983 100.874 423.062 100.678 423.062ZM91.6542 421.577H99.9394V370.17H91.6542V421.577Z" fill="#263238"/>
<path d="M117.765 398.294H108.003V422.319H117.765V398.294Z" fill="#263238"/>
<path d="M118.504 423.062H107.265V397.551H118.504V423.062ZM108.741 421.577H117.027V399.036H108.741V421.577Z" fill="#263238"/>
<path d="M134.852 372.011H125.09V422.319H134.852V372.011Z" fill="#09FF4F"/>
<path d="M134.852 423.062H125.09C124.896 423.058 124.71 422.978 124.572 422.84C124.435 422.702 124.356 422.515 124.352 422.319V372.011C124.352 371.814 124.43 371.625 124.568 371.486C124.707 371.347 124.895 371.268 125.09 371.268H134.852C135.048 371.268 135.236 371.347 135.375 371.486C135.513 371.625 135.591 371.814 135.591 372.011V422.319C135.591 422.516 135.513 422.705 135.375 422.844C135.236 422.983 135.048 423.062 134.852 423.062ZM125.829 421.577H134.144V372.783H125.858L125.829 421.577Z" fill="#263238"/>
<path d="M69.2354 367.289H62.3827V368.774H69.2354V367.289Z" fill="#263238"/>
<path d="M69.2354 375.04H62.3827V376.525H69.2354V375.04Z" fill="#263238"/>
<path d="M69.2354 382.791H62.3827V384.276H69.2354V382.791Z" fill="#263238"/>
<path d="M69.2354 390.557H62.3827V392.042H69.2354V390.557Z" fill="#263238"/>
<path d="M69.2354 398.308H62.3827V399.793H69.2354V398.308Z" fill="#263238"/>
<path d="M69.2354 406.06H62.3827V407.544H69.2354V406.06Z" fill="#263238"/>
<path d="M69.2354 413.811H62.3827V415.296H69.2354V413.811Z" fill="#263238"/>
<path d="M69.2354 421.577H62.3827V423.062H69.2354V421.577Z" fill="#263238"/>
<path d="M76.6344 379.747L75.5563 378.723L97.6059 355.232L112.995 377.163L128.207 359.27L129.329 360.236L112.891 379.569L97.4287 357.563L76.6344 379.747Z" fill="#263238"/>
<path d="M132.962 366.205L135.65 351.653L121.767 356.598L132.962 366.205Z" fill="#263238"/>
<path d="M66.6952 261.876H5.93695V339.076H66.6952V261.876Z" fill="#09FF4F"/>
<path d="M66.6952 339.833H5.93698C5.74114 339.833 5.55331 339.755 5.41483 339.616C5.27635 339.477 5.19855 339.288 5.19855 339.091V261.876C5.19855 261.679 5.27635 261.49 5.41483 261.351C5.55331 261.212 5.74114 261.134 5.93698 261.134H66.6952C66.891 261.134 67.0789 261.212 67.2174 261.351C67.3558 261.49 67.4336 261.679 67.4336 261.876V339.091C67.4336 339.288 67.3558 339.477 67.2174 339.616C67.0789 339.755 66.891 339.833 66.6952 339.833ZM6.67541 338.348H65.9568V262.619H6.67541V338.348Z" fill="#263238"/>
<path d="M61.8954 259.352C58.0128 259.349 54.2165 260.504 50.9869 262.671C47.7572 264.837 45.2392 267.918 43.7514 271.524C42.2635 275.13 41.8727 279.098 42.6284 282.927C43.3841 286.756 45.2522 290.274 47.9966 293.035C50.741 295.797 54.2382 297.677 58.046 298.44C61.8538 299.203 65.801 298.813 69.3883 297.32C72.9756 295.826 76.0419 293.297 78.1993 290.051C80.3566 286.806 81.5081 282.99 81.5081 279.086C81.5081 273.855 79.4423 268.838 75.7646 265.137C72.0869 261.437 67.0984 259.356 61.8954 259.352ZM61.8954 294.588C58.8459 294.588 55.8649 293.679 53.3293 291.976C50.7938 290.272 48.8175 287.851 47.6506 285.019C46.4836 282.186 46.1782 279.069 46.7732 276.062C47.3681 273.055 48.8366 270.292 50.9929 268.124C53.1492 265.956 55.8965 264.48 58.8874 263.882C61.8783 263.284 64.9784 263.591 67.7958 264.764C70.6131 265.937 73.0212 267.924 74.7154 270.474C76.4096 273.023 77.3138 276.02 77.3138 279.086C77.3138 281.122 76.915 283.138 76.1402 285.019C75.3653 286.899 74.2296 288.608 72.7979 290.048C71.3661 291.487 69.6664 292.629 67.7958 293.408C65.9251 294.187 63.9201 294.588 61.8954 294.588Z" fill="#263238"/>
<path d="M61.8954 299.548C57.8661 299.551 53.9265 298.352 50.5751 296.103C47.2237 293.854 44.611 290.656 43.0678 286.914C41.5245 283.172 41.1199 279.054 41.9053 275.08C42.6906 271.107 44.6306 267.457 47.4797 264.592C50.3288 261.727 53.959 259.777 57.911 258.987C61.863 258.198 65.9592 258.604 69.6812 260.156C73.4032 261.708 76.5837 264.335 78.8205 267.704C81.0572 271.074 82.2495 275.035 82.2466 279.086C82.2388 284.511 80.0921 289.711 76.2772 293.546C72.4623 297.382 67.2905 299.54 61.8954 299.548ZM61.8954 260.094C58.1589 260.091 54.5054 261.203 51.3971 263.288C48.2889 265.373 45.8655 268.338 44.4336 271.808C43.0017 275.278 42.6255 279.097 43.3527 282.782C44.0798 286.467 45.8777 289.853 48.5188 292.51C51.1599 295.168 54.5256 296.978 58.1901 297.712C61.8546 298.446 65.6534 298.071 69.1058 296.634C72.5581 295.197 75.5091 292.762 77.5853 289.639C79.6615 286.515 80.7697 282.843 80.7697 279.086C80.7619 274.054 78.7713 269.23 75.2338 265.671C71.6963 262.111 66.9001 260.106 61.8954 260.094ZM61.8954 295.331C58.6986 295.337 55.5719 294.389 52.9111 292.608C50.2502 290.826 48.1747 288.291 46.9473 285.323C45.7199 282.356 45.3957 279.088 46.0158 275.935C46.6359 272.782 48.1723 269.885 50.4307 267.61C52.6891 265.335 55.568 263.785 58.7029 263.156C61.8378 262.527 65.088 262.846 68.042 264.075C70.996 265.304 73.5211 267.386 75.2978 270.058C77.0744 272.73 78.0227 275.872 78.0228 279.086C78.0189 283.388 76.3194 287.513 73.2966 290.558C70.2739 293.603 66.1741 295.319 61.8954 295.331ZM61.8954 264.326C58.9907 264.32 56.1496 265.181 53.7316 266.799C51.3136 268.418 49.4274 270.721 48.3118 273.417C47.1961 276.114 46.9012 279.082 47.4643 281.947C48.0274 284.812 49.4232 287.445 51.475 289.512C53.5269 291.58 56.1426 292.988 58.991 293.56C61.8395 294.132 64.7927 293.842 67.4768 292.725C70.161 291.609 72.4554 289.717 74.0698 287.289C75.6842 284.861 76.5459 282.007 76.5459 279.086C76.5264 275.188 74.9757 271.456 72.2316 268.702C69.4874 265.949 65.7723 264.397 61.8954 264.386V264.326Z" fill="#263238"/>
<path d="M108.106 306.2C107.549 306.201 106.998 306.074 106.497 305.829L76.5459 291.114C75.6666 290.681 74.9944 289.914 74.6773 288.982C74.3601 288.051 74.424 287.031 74.8549 286.147C75.2857 285.263 76.0483 284.587 76.9747 284.268C77.9012 283.949 78.9156 284.013 79.795 284.447L109.716 299.147C110.47 299.514 111.077 300.127 111.438 300.886C111.799 301.646 111.893 302.506 111.704 303.326C111.515 304.146 111.055 304.877 110.398 305.399C109.742 305.921 108.929 306.204 108.092 306.2H108.106Z" fill="#263238"/>
<path d="M129.344 196.481H177.608C178.627 196.48 179.637 196.68 180.579 197.071C181.522 197.462 182.378 198.035 183.1 198.76C183.821 199.484 184.394 200.344 184.784 201.29C185.175 202.237 185.376 203.252 185.376 204.277V233.648C185.376 234.673 185.175 235.688 184.784 236.635C184.394 237.582 183.821 238.442 183.1 239.166C182.378 239.89 181.522 240.464 180.579 240.855C179.637 241.246 178.627 241.446 177.608 241.444H173.354L164.227 255.387L163.164 241.444H129.344C128.324 241.446 127.315 241.246 126.372 240.855C125.43 240.464 124.573 239.89 123.852 239.166C123.13 238.442 122.558 237.582 122.167 236.635C121.777 235.688 121.576 234.673 121.576 233.648V204.277C121.576 203.252 121.777 202.237 122.167 201.29C122.558 200.344 123.13 199.484 123.852 198.76C124.573 198.035 125.43 197.462 126.372 197.071C127.315 196.68 128.324 196.48 129.344 196.481Z" fill="#263238"/>
<path d="M163.681 257.615L162.499 242.187H129.344C127.093 242.183 124.935 241.282 123.343 239.681C121.752 238.081 120.856 235.912 120.852 233.648V204.277C120.856 202.011 121.754 199.84 123.349 198.239C124.944 196.638 127.105 195.739 129.359 195.739H177.623C179.876 195.739 182.038 196.638 183.632 198.239C185.227 199.84 186.125 202.011 186.129 204.277V233.648C186.125 235.914 185.227 238.086 183.632 239.687C182.038 241.287 179.876 242.187 177.623 242.187H173.768L163.681 257.615ZM129.359 197.224C127.497 197.224 125.711 197.967 124.393 199.289C123.075 200.611 122.333 202.405 122.329 204.277V233.648C122.333 235.52 123.075 237.314 124.393 238.637C125.711 239.959 127.497 240.702 129.359 240.702H163.873L164.818 253.16L172.97 240.702H177.623C179.484 240.702 181.27 239.959 182.588 238.637C183.906 237.314 184.648 235.52 184.652 233.648V204.277C184.648 202.405 183.906 200.611 182.588 199.289C181.27 197.967 179.484 197.224 177.623 197.224H129.359Z" fill="#263238"/>
<path d="M143.669 218.621C143.666 217.867 143.441 217.131 143.023 216.505C142.604 215.88 142.01 215.393 141.316 215.106C140.622 214.82 139.86 214.746 139.124 214.895C138.389 215.044 137.714 215.409 137.185 215.943C136.655 216.477 136.295 217.157 136.15 217.897C136.005 218.637 136.081 219.403 136.369 220.1C136.656 220.796 137.143 221.391 137.767 221.81C138.391 222.229 139.124 222.452 139.874 222.452C140.374 222.452 140.868 222.353 141.33 222.16C141.791 221.968 142.21 221.685 142.563 221.329C142.916 220.973 143.195 220.551 143.385 220.086C143.575 219.621 143.671 219.124 143.669 218.621Z" fill="white"/>
<path d="M155.543 222.437C157.64 222.437 159.339 220.729 159.339 218.621C159.339 216.514 157.64 214.805 155.543 214.805C153.447 214.805 151.748 216.514 151.748 218.621C151.748 220.729 153.447 222.437 155.543 222.437Z" fill="white"/>
<path d="M175.008 218.621C175.006 217.867 174.78 217.131 174.362 216.505C173.943 215.88 173.349 215.393 172.655 215.106C171.961 214.82 171.199 214.746 170.463 214.895C169.728 215.044 169.053 215.409 168.524 215.943C167.995 216.477 167.635 217.157 167.489 217.897C167.344 218.637 167.42 219.403 167.708 220.1C167.995 220.796 168.482 221.391 169.106 221.81C169.73 222.229 170.463 222.452 171.213 222.452C171.713 222.452 172.207 222.353 172.669 222.16C173.13 221.968 173.549 221.685 173.902 221.329C174.255 220.973 174.534 220.551 174.724 220.086C174.914 219.621 175.01 219.124 175.008 218.621Z" fill="white"/>
<path d="M138.279 177.371H90.0149C87.9546 177.371 85.9787 178.194 84.5219 179.659C83.0651 181.123 82.2466 183.11 82.2466 185.181V214.553C82.2466 215.578 82.4476 216.593 82.8382 217.539C83.2288 218.486 83.8012 219.346 84.5228 220.07C85.2443 220.794 86.1008 221.368 87.0432 221.759C87.9856 222.15 88.9955 222.35 90.0149 222.348H94.2683L103.395 236.292L104.459 222.348H138.279C139.298 222.35 140.308 222.15 141.251 221.759C142.193 221.368 143.049 220.794 143.771 220.07C144.493 219.346 145.065 218.486 145.456 217.539C145.846 216.593 146.047 215.578 146.047 214.553V185.181C146.047 183.11 145.229 181.123 143.772 179.659C142.315 178.194 140.339 177.371 138.279 177.371Z" fill="white"/>
<path d="M103.957 238.519L93.8695 223.091H90.0149C87.7614 223.091 85.5999 222.192 84.005 220.591C82.4101 218.99 81.5121 216.818 81.5082 214.553V185.181C81.5121 182.914 82.4096 180.741 84.0041 179.138C85.5985 177.535 87.76 176.632 90.0149 176.628H138.279C140.534 176.632 142.695 177.535 144.29 179.138C145.884 180.741 146.782 182.914 146.786 185.181V214.553C146.782 216.818 145.884 218.99 144.289 220.591C142.694 222.192 140.532 223.091 138.279 223.091H105.138L103.957 238.519ZM90.0149 178.113C88.1505 178.113 86.3624 178.858 85.044 180.184C83.7257 181.509 82.985 183.307 82.985 185.181V214.553C82.989 216.425 83.7313 218.219 85.0493 219.541C86.3672 220.863 88.153 221.606 90.0149 221.606H94.667L102.819 234.064L103.779 221.606H138.279C140.141 221.606 141.927 220.863 143.245 219.541C144.562 218.219 145.305 216.425 145.309 214.553V185.181C145.309 183.307 144.568 181.509 143.25 180.184C141.931 178.858 140.143 178.113 138.279 178.113H90.0149Z" fill="#263238"/>
<path d="M102.273 200.966C102.273 200.211 102.05 199.473 101.633 198.846C101.216 198.218 100.623 197.729 99.9298 197.44C99.2363 197.151 98.4731 197.076 97.7369 197.223C97.0006 197.37 96.3243 197.734 95.7935 198.267C95.2627 198.801 94.9012 199.481 94.7547 200.221C94.6083 200.962 94.6834 201.729 94.9707 202.426C95.258 203.124 95.7445 203.72 96.3686 204.139C96.9928 204.558 97.7266 204.782 98.4773 204.782C99.4828 204.778 100.446 204.375 101.157 203.66C101.868 202.945 102.269 201.977 102.273 200.966Z" fill="#263238"/>
<path d="M98.4773 205.524C97.5764 205.527 96.695 205.261 95.9447 204.76C95.1944 204.259 94.6091 203.544 94.2629 202.708C93.9168 201.872 93.8255 200.951 94.0005 200.062C94.1756 199.174 94.6091 198.358 95.2462 197.717C95.8832 197.077 96.6951 196.641 97.5788 196.465C98.4625 196.289 99.3784 196.381 100.21 196.729C101.042 197.077 101.752 197.665 102.251 198.419C102.75 199.174 103.014 200.06 103.011 200.966C103.007 202.174 102.528 203.331 101.679 204.185C100.83 205.039 99.6786 205.521 98.4773 205.524ZM98.4773 197.877C97.8692 197.874 97.2738 198.053 96.7667 198.391C96.2596 198.728 95.8636 199.209 95.6288 199.774C95.394 200.338 95.3311 200.959 95.4479 201.559C95.5648 202.159 95.8562 202.711 96.2852 203.145C96.7142 203.578 97.2615 203.874 97.8578 203.994C98.4541 204.114 99.0725 204.054 99.6347 203.821C100.197 203.587 100.678 203.192 101.016 202.683C101.354 202.175 101.534 201.577 101.534 200.966C101.534 200.149 101.213 199.366 100.64 198.787C100.067 198.208 99.2895 197.881 98.4773 197.877Z" fill="#263238"/>
<path d="M117.898 200.966C117.898 200.211 117.676 199.473 117.258 198.846C116.841 198.218 116.249 197.729 115.555 197.44C114.862 197.151 114.098 197.076 113.362 197.223C112.626 197.37 111.95 197.734 111.419 198.267C110.888 198.801 110.526 199.481 110.38 200.221C110.234 200.962 110.309 201.729 110.596 202.426C110.883 203.124 111.37 203.72 111.994 204.139C112.618 204.558 113.352 204.782 114.103 204.782C115.108 204.778 116.071 204.375 116.782 203.66C117.493 202.945 117.894 201.977 117.898 200.966Z" fill="#263238"/>
<path d="M114.147 205.524C113.246 205.527 112.364 205.261 111.614 204.76C110.864 204.259 110.279 203.544 109.932 202.708C109.586 201.872 109.495 200.951 109.67 200.062C109.845 199.174 110.279 198.358 110.916 197.717C111.553 197.077 112.365 196.641 113.248 196.465C114.132 196.289 115.048 196.381 115.88 196.729C116.711 197.077 117.422 197.665 117.92 198.419C118.419 199.174 118.684 200.06 118.681 200.966C118.677 202.174 118.198 203.331 117.349 204.185C116.499 205.039 115.348 205.521 114.147 205.524ZM114.147 197.877C113.539 197.874 112.943 198.053 112.436 198.391C111.929 198.728 111.533 199.209 111.298 199.774C111.064 200.338 111.001 200.959 111.117 201.559C111.234 202.159 111.526 202.711 111.955 203.145C112.384 203.578 112.931 203.874 113.527 203.994C114.124 204.114 114.742 204.054 115.304 203.821C115.866 203.587 116.347 203.192 116.685 202.683C117.023 202.175 117.204 201.577 117.204 200.966C117.204 200.149 116.882 199.366 116.309 198.787C115.737 198.208 114.959 197.881 114.147 197.877Z" fill="#263238"/>
<path d="M133.612 200.966C133.612 200.211 133.389 199.473 132.972 198.846C132.555 198.218 131.962 197.729 131.269 197.44C130.575 197.151 129.812 197.076 129.076 197.223C128.34 197.37 127.663 197.734 127.133 198.267C126.602 198.801 126.24 199.481 126.094 200.221C125.947 200.962 126.023 201.729 126.31 202.426C126.597 203.124 127.084 203.72 127.708 204.139C128.332 204.558 129.066 204.782 129.816 204.782C130.822 204.778 131.785 204.375 132.496 203.66C133.207 202.945 133.608 201.977 133.612 200.966Z" fill="#263238"/>
<path d="M129.816 205.524C128.916 205.527 128.034 205.261 127.284 204.76C126.533 204.259 125.948 203.544 125.602 202.708C125.256 201.872 125.165 200.951 125.34 200.062C125.515 199.174 125.948 198.358 126.585 197.717C127.222 197.077 128.034 196.641 128.918 196.465C129.802 196.289 130.717 196.381 131.549 196.729C132.381 197.077 133.091 197.665 133.59 198.419C134.089 199.174 134.353 200.06 134.35 200.966C134.346 202.174 133.868 203.331 133.018 204.185C132.169 205.039 131.018 205.521 129.816 205.524ZM129.816 197.877C129.208 197.874 128.613 198.053 128.106 198.391C127.599 198.728 127.203 199.209 126.968 199.774C126.733 200.338 126.67 200.959 126.787 201.559C126.904 202.159 127.195 202.711 127.624 203.145C128.053 203.578 128.601 203.874 129.197 203.994C129.793 204.114 130.412 204.054 130.974 203.821C131.536 203.587 132.017 203.192 132.355 202.683C132.693 202.175 132.874 201.577 132.874 200.966C132.874 200.149 132.552 199.366 131.979 198.787C131.406 198.208 130.629 197.881 129.816 197.877Z" fill="#263238"/>
<path d="M101.845 87.0298H21.2964V147.079H101.845V87.0298Z" fill="white"/>
<path d="M102.583 147.807H20.5579V86.2874H102.583V147.807ZM22.0348 146.322H101.106V87.7722H22.0348V146.322Z" fill="#263238"/>
<path d="M101.845 117.663L88.6414 105.873L67.1235 128.221L49.7555 117.04L21.2964 147.064H101.845V117.663Z" fill="#263238"/>
<path d="M102.583 147.807H19.5684L49.6522 116.089L67.0053 127.27L88.6118 104.849L102.583 117.337V147.807ZM23.0095 146.322H101.106V118.005L88.6857 106.898L67.2268 129.171L49.8737 118.005L23.0095 146.322Z" fill="#263238"/>
<path d="M47.3335 103.601C47.3335 105.432 46.7935 107.221 45.7818 108.742C44.7702 110.264 43.3323 111.45 41.6502 112.149C39.9681 112.849 38.1174 113.031 36.3322 112.673C34.547 112.315 32.9076 111.433 31.6214 110.137C30.3352 108.842 29.4601 107.192 29.1067 105.397C28.7534 103.601 28.9377 101.741 29.6364 100.051C30.335 98.3606 31.5166 96.9169 33.0316 95.9022C34.5466 94.8875 36.327 94.3474 38.1474 94.3503C40.585 94.3543 42.9215 95.3307 44.6438 97.0651C46.3661 98.7996 47.3335 101.15 47.3335 103.601Z" fill="#263238"/>
<path d="M38.1474 113.595C36.1816 113.595 34.2599 113.008 32.6254 111.91C30.9909 110.812 29.7169 109.252 28.9647 107.426C28.2124 105.599 28.0155 103.59 28.3991 101.652C28.7826 99.7131 29.7292 97.9325 31.1192 96.5349C32.5093 95.1373 34.2803 94.1855 36.2083 93.7999C38.1364 93.4143 40.1348 93.6122 41.951 94.3686C43.7672 95.125 45.3195 96.4058 46.4116 98.0492C47.5037 99.6926 48.0867 101.625 48.0867 103.601C48.0828 106.25 47.0343 108.79 45.1712 110.663C43.3081 112.537 40.7822 113.591 38.1474 113.595ZM38.1474 95.1076C36.4737 95.1076 34.8375 95.6066 33.4459 96.5416C32.0543 97.4765 30.9696 98.8053 30.3291 100.36C29.6886 101.915 29.521 103.626 29.8475 105.276C30.1741 106.926 30.98 108.443 32.1635 109.632C33.347 110.822 34.8549 111.633 36.4964 111.961C38.138 112.289 39.8395 112.121 41.3858 111.477C42.9321 110.833 44.2538 109.742 45.1836 108.343C46.1135 106.944 46.6098 105.299 46.6098 103.616C46.6059 101.361 45.7131 99.1988 44.1269 97.604C42.5407 96.0093 40.3906 95.1116 38.1474 95.1076Z" fill="#263238"/>
<path d="M149.857 103.393H69.3092V163.443H149.857V103.393Z" fill="white"/>
<path d="M150.596 164.17H68.5708V102.651H150.596V164.17ZM70.0477 162.685H149.119V104.136H70.0477V162.685Z" fill="#263238"/>
<path d="M149.857 134.027L136.669 122.237L115.136 144.584L97.7832 133.418L69.3092 163.428H149.857V134.027Z" fill="#09FF4F"/>
<path d="M149.857 164.17H69.3092C69.1664 164.168 69.0271 164.125 68.9084 164.045C68.7896 163.965 68.6965 163.852 68.6402 163.72C68.5839 163.588 68.567 163.443 68.5913 163.301C68.6157 163.16 68.6804 163.028 68.7776 162.923L97.222 132.898C97.3412 132.775 97.4991 132.698 97.6687 132.679C97.8383 132.66 98.0093 132.701 98.1524 132.794L115.003 143.634L136.108 121.732C136.243 121.597 136.427 121.521 136.617 121.521C136.808 121.521 136.991 121.597 137.127 121.732L150.315 133.522C150.393 133.591 150.456 133.675 150.499 133.77C150.542 133.864 150.565 133.967 150.566 134.071V163.413C150.57 163.607 150.498 163.796 150.366 163.937C150.233 164.079 150.051 164.162 149.857 164.17ZM71.0372 162.685H149.119V134.368L136.699 123.321L115.668 145.163C115.549 145.286 115.391 145.364 115.221 145.383C115.052 145.402 114.881 145.361 114.738 145.267L97.9013 134.428L71.0372 162.685Z" fill="#263238"/>
<path d="M86.1603 129.216C91.2418 129.216 95.3611 125.074 95.3611 119.965C95.3611 114.856 91.2418 110.714 86.1603 110.714C81.0788 110.714 76.9594 114.856 76.9594 119.965C76.9594 125.074 81.0788 129.216 86.1603 129.216Z" fill="#09FF4F"/>
<path d="M86.1603 129.958C84.1944 129.958 82.2728 129.372 80.6383 128.274C79.0038 127.176 77.7298 125.615 76.9775 123.789C76.2253 121.963 76.0284 119.954 76.4119 118.015C76.7954 116.077 77.7421 114.296 79.1321 112.898C80.5221 111.501 82.2932 110.549 84.2212 110.163C86.1492 109.778 88.1477 109.976 89.9639 110.732C91.78 111.489 93.3323 112.769 94.4245 114.413C95.5166 116.056 96.0995 117.988 96.0995 119.965C96.0956 122.614 95.0472 125.154 93.1841 127.027C91.3209 128.9 88.7951 129.954 86.1603 129.958ZM86.1603 111.456C84.4865 111.456 82.8504 111.955 81.4588 112.89C80.0671 113.825 78.9825 115.154 78.342 116.709C77.7015 118.263 77.5339 119.974 77.8604 121.625C78.1869 123.275 78.9929 124.791 80.1764 125.981C81.3599 127.171 82.8678 127.981 84.5093 128.31C86.1509 128.638 87.8524 128.47 89.3987 127.826C90.945 127.182 92.2666 126.091 93.1965 124.692C94.1264 123.293 94.6227 121.648 94.6227 119.965C94.6227 117.707 93.7316 115.541 92.145 113.943C90.5584 112.345 88.406 111.445 86.1603 111.442V111.456Z" fill="#263238"/>
<path d="M262.114 371.298L242.915 360.132L251.879 357.801C254.632 357.257 257.185 355.968 259.264 354.073C260.271 352.861 261.152 351.547 261.892 350.153C263.207 347.881 264.359 345.921 265.821 345.699C266.105 345.647 266.397 345.661 266.676 345.738C266.955 345.815 267.212 345.954 267.431 346.144C269.181 347.674 270.445 349.688 271.065 351.935C271.684 354.182 271.633 356.563 270.916 358.781C269.262 364.497 262.675 370.66 262.395 370.972L262.114 371.298ZM246.843 360.651L261.907 369.457C263.384 367.972 268.302 362.879 269.631 358.32C270.271 356.388 270.332 354.31 269.807 352.343C269.281 350.376 268.193 348.608 266.677 347.258C266.441 347.08 266.308 347.094 266.249 347.109C265.452 347.258 264.27 349.292 263.295 350.911C262.499 352.395 261.554 353.793 260.475 355.083C258.175 357.228 255.317 358.675 252.234 359.256L246.843 360.651Z" fill="#263238"/>
<path d="M207.485 468.381L195.95 467.104L209.626 456.383L207.485 468.381Z" fill="white"/>
<path d="M208.09 469.197L194.06 467.713L210.69 454.66L208.09 469.197ZM197.841 466.569L206.879 467.564L208.548 458.165L197.841 466.569Z" fill="#263238"/>
<path d="M213.894 358.008L213.422 367.066C213.422 367.066 204.177 404.946 204.649 406.342C205.122 407.738 203.955 447.696 204.871 452.374C205.786 457.051 207.426 468.41 207.426 468.41C207.426 468.41 220.127 467.95 225.901 464.921C230.67 462.106 235.16 458.839 239.311 455.165L234.689 437.049C237.448 435.18 239.677 432.622 241.157 429.625C242.455 426.651 243.387 423.53 243.934 420.329L247.626 419.171C247.626 419.171 252.485 421.725 254.789 419.394C257.093 417.063 255.261 413.826 254.567 412.192C253.873 410.559 251.333 404.768 251.333 404.768C251.333 404.768 254.109 408.955 256.871 408.495C259.633 408.035 260.342 408.257 260.578 406.401C260.459 404.037 260.067 401.695 259.411 399.422C259.411 399.422 264.728 401.516 266.796 399.422C267.466 398.779 267.933 397.951 268.138 397.043C268.343 396.134 268.276 395.185 267.948 394.314C267.726 393.616 261.479 379.465 261.479 379.465C261.479 379.465 273.737 382.242 274.653 382.242C275.771 382.175 276.84 381.758 277.711 381.05C278.582 380.342 279.212 379.377 279.511 378.292C280.427 375.04 270.266 371.09 261.789 364.824C253.312 358.558 243.756 355.989 239.828 355.989C235.9 355.989 215.799 354.519 213.894 358.008Z" fill="white"/>
<path d="M206.835 469.153L206.746 468.485C206.746 468.381 205.122 457.066 204.206 452.492C203.66 449.686 203.822 435.238 203.97 422.497C204.058 415.073 204.147 407.307 203.97 406.535C203.512 405.184 209.272 381.113 212.742 366.888L213.274 357.667C214.751 354.905 223.715 354.697 236.741 355.098C238.1 355.098 239.163 355.172 239.799 355.172C243.727 355.172 253.282 357.607 262.188 364.082C265.215 366.309 268.464 368.254 271.33 370.021C276.956 373.362 281.018 375.783 280.265 378.426C279.909 379.656 279.183 380.745 278.185 381.543C277.188 382.341 275.969 382.808 274.697 382.88C273.885 382.88 266.323 381.188 262.793 380.386C264.418 384.068 268.494 393.379 268.701 393.973C269.082 394.985 269.16 396.087 268.924 397.143C268.687 398.199 268.148 399.162 267.372 399.912C265.644 401.649 262.35 401.056 260.504 400.521C261.043 402.455 261.321 404.452 261.331 406.461C261.065 408.599 260.032 408.747 258.156 409.015L257.034 409.193C255.832 409.318 254.629 408.966 253.681 408.213C254.316 409.698 254.966 411.182 255.276 411.88L255.512 412.415C256.31 414.167 257.787 417.449 255.35 419.914C252.913 422.379 248.748 420.493 247.596 419.914L244.643 420.849C244.085 423.957 243.163 426.988 241.896 429.877C240.449 432.847 238.28 435.4 235.589 437.302L240.197 455.358L239.858 455.67C235.663 459.386 231.123 462.688 226.3 465.53C220.393 468.589 208.031 469.079 207.5 469.093L206.835 469.153ZM214.677 358.246L214.219 367.155C210.601 382.004 205.358 404.575 205.432 406.253C205.609 406.787 205.58 411.153 205.432 422.587C205.299 434.629 205.122 449.612 205.639 452.284C206.436 456.234 207.736 465.173 208.105 467.683C210.763 467.534 220.791 466.836 225.606 464.312C230.196 461.609 234.523 458.477 238.528 454.957L233.906 436.634L234.349 436.337C236.99 434.541 239.126 432.091 240.552 429.224C241.811 426.308 242.723 423.253 243.269 420.122V419.661L247.7 418.28L247.966 418.414C249.191 419.052 252.692 420.374 254.272 418.785C255.852 417.196 255.069 415.028 254.139 412.95L253.888 412.4C253.194 410.767 250.653 404.976 250.653 404.976L251.938 404.263C252.647 405.302 254.892 407.96 256.753 407.648L257.92 407.47C259.721 407.218 259.721 407.218 259.84 406.208C259.737 403.942 259.355 401.698 258.702 399.526L258.318 398.041L259.692 398.576C261.036 399.11 264.876 400.165 266.293 398.739C266.871 398.196 267.273 397.49 267.447 396.715C267.621 395.939 267.559 395.128 267.268 394.388C267.091 393.854 263.31 385.241 260.829 379.539L260.224 378.188L261.7 378.515C266.353 379.569 273.988 381.262 274.726 381.292C275.68 381.215 276.588 380.847 277.327 380.237C278.067 379.626 278.602 378.802 278.862 377.876C279.29 376.391 275.066 373.808 270.591 371.15C267.637 369.412 264.418 367.467 261.331 365.21C253.179 359.271 243.845 356.523 239.813 356.523C239.163 356.523 238.085 356.523 236.712 356.434C231.617 356.449 216.435 355.87 214.677 358.246Z" fill="#263238"/>
<path d="M259.485 378.574C257.137 376.733 250.624 371.803 248.866 371.269C247.39 370.823 234.098 369.294 226.078 368.299C222.209 367.853 220.363 367.645 219.492 367.437C218.709 367.259 218.724 367.066 218.738 366.725V366.027H219.447V366.68L219.595 366.042C219.89 366.042 222.815 366.443 226.197 366.829C237.052 368.076 247.759 369.323 249.25 369.798C251.613 370.511 259.47 376.659 260.356 377.357L259.485 378.574Z" fill="#263238"/>
<path d="M258.85 399.749C255.763 394.626 250.269 386.266 248.601 385.657C246.636 384.944 227.408 381.574 217.586 379.881L217.823 378.396C219.004 378.589 246.577 383.296 249.162 384.232C251.746 385.167 258.791 396.675 260.164 398.962L258.85 399.749Z" fill="#263238"/>
<path d="M249.339 404.114C247.416 402.374 245.306 400.855 243.048 399.585C241.098 398.68 223.538 394.507 214.529 392.428L214.869 390.943C215.932 391.196 241.083 397.017 243.668 398.205C246.055 399.536 248.285 401.135 250.314 402.971L249.339 404.114Z" fill="#263238"/>
<path d="M245.809 417.805L237.923 410.559L223.199 410.113L219.713 412.742L218.827 411.554L222.726 408.614L238.514 409.089L246.799 416.706L245.809 417.805Z" fill="#263238"/>
<path d="M195.95 467.104L198.624 478.181C198.624 478.181 204.959 479.859 217.631 474.825C226.581 470.966 235.08 466.125 242.974 460.392L241.969 452.344C241.969 452.344 219.964 468.455 195.95 467.104Z" fill="white"/>
<path d="M201.666 479.191C200.58 479.221 199.494 479.122 198.432 478.894L198.003 478.775L195.05 466.317H196.054C219.521 467.623 241.379 451.854 241.6 451.69L242.605 450.963L243.816 460.689L243.461 460.941C243.343 461.03 230.568 470.445 217.956 475.449C212.807 477.711 207.281 478.98 201.666 479.191ZM199.229 477.528C200.809 477.78 206.909 478.285 217.35 474.127C226.114 470.361 234.443 465.646 242.191 460.065L241.394 453.65C236.83 456.709 217.586 468.618 196.896 467.891L199.229 477.528Z" fill="#263238"/>
<path d="M243.638 457.719C243.638 457.719 226.965 468.455 214.958 472.137C206.915 474.459 198.625 475.81 190.264 476.162C190.264 476.162 204.945 543.902 209.611 554.297C214.278 564.691 221.81 594.537 221.81 594.537H305.992C305.992 594.537 255.97 497.292 254.301 489.912C252.632 482.532 243.638 457.719 243.638 457.719Z" fill="black"/>
<path d="M306.006 595.28H221.279L221.131 594.716C221.131 594.419 213.569 564.81 208.976 554.623C204.383 544.437 190.191 479.116 189.585 476.355L189.393 475.478H190.294C198.579 475.12 206.793 473.779 214.766 471.484C226.581 467.876 243.107 457.259 243.269 457.155L244.052 456.65L244.362 457.526C244.731 458.536 253.4 482.472 255.055 489.808C256.709 497.143 306.184 593.275 306.745 594.255L307.306 595.339L306.006 595.28ZM222.401 593.795H304.795C299.021 582.569 255.187 497.128 253.592 490.075C252.116 483.601 244.864 463.347 243.254 458.892C239.813 461.045 225.665 469.673 215.194 472.895C207.376 475.142 199.33 476.492 191.21 476.919C192.938 484.833 205.978 544.452 210.306 554.029C214.633 563.607 221.279 589.578 222.401 593.795Z" fill="#263238"/>
<path d="M277.813 206.475C277.813 206.475 262.04 243.345 264.004 248.052C265.969 252.759 273.87 260.347 270.325 265.499C266.781 270.652 246.267 287.699 250.21 296.43C254.154 305.161 264.403 305.547 264.403 305.547C264.403 305.547 262.439 317.04 265.186 319.817L267.948 322.594C267.948 322.594 267.948 328.533 269.927 331.31C271.906 334.087 277.016 336.463 277.016 336.463C277.016 336.463 267.165 351.133 269.129 355.885C271.093 360.637 293.586 368.18 303.097 370.556C312.608 372.932 329.503 369.769 329.503 369.769L334.244 393.527L423.742 340.798L409.948 305.517C409.948 305.517 433.578 284.105 434.789 251.987C436 219.869 426.105 189.755 408.368 179.049C390.631 168.343 366.573 170.332 366.573 170.332C362.121 165.728 356.432 162.526 350.201 161.118C343.97 159.71 337.465 160.157 331.482 162.403C309.743 169.946 277.813 206.475 277.813 206.475Z" fill="white"/>
<path d="M333.668 394.7L328.883 370.615C325.501 371.194 311.382 373.407 302.861 371.269C294.812 369.234 270.709 361.587 268.45 356.167C266.574 351.638 273.825 339.982 275.937 336.745C273.415 335.542 271.164 333.834 269.321 331.726C267.49 329.142 267.253 324.182 267.224 322.816L264.669 320.247C262.07 317.634 263.192 308.962 263.546 306.126C260.947 305.829 253.002 304.3 249.531 296.638C246.385 289.659 257.314 278.27 264.536 270.726C266.376 268.925 268.102 267.011 269.705 264.995C271.935 261.757 268.893 257.184 266.205 253.115C265.104 251.581 264.14 249.951 263.325 248.245C261.302 243.33 275.509 209.831 277.134 206.029L277.252 205.836C278.566 204.351 309.566 169.13 331.187 161.616C337.256 159.383 343.833 158.938 350.145 160.332C356.458 161.726 362.244 164.902 366.824 169.486C369.91 169.293 392.152 168.343 408.708 178.395C425.957 188.79 436.768 218.384 435.483 252.002C434.375 281.818 413.832 302.741 410.775 305.696L424.613 341.095L424.067 341.422L333.668 394.7ZM330.05 368.893L334.717 392.369L422.782 340.487L409.032 305.324L409.402 304.968C409.638 304.76 432.84 283.392 434.006 251.987C435.217 218.889 424.746 189.844 407.94 179.702C390.616 169.308 366.824 171.06 366.587 171.075H366.218L366.011 170.837C361.632 166.382 356.071 163.287 349.991 161.921C343.91 160.554 337.568 160.974 331.719 163.131C311.042 170.332 280.25 204.841 278.551 206.831C272.496 220.982 263.443 244.533 264.802 247.77C265.581 249.389 266.495 250.938 267.534 252.403C270.488 256.857 273.825 261.861 271.034 265.93C269.376 268.015 267.596 269.998 265.703 271.87C259.175 278.67 248.246 290.06 250.934 296.133C254.656 304.344 264.388 304.805 264.492 304.819H265.334L265.186 305.651C264.669 308.74 263.709 317.218 265.777 319.267L268.73 322.237V322.549C268.73 322.549 268.73 328.281 270.576 330.835C272.422 333.389 277.326 335.72 277.37 335.75L278.167 336.106L277.68 336.834C274.992 340.828 268.376 351.965 269.867 355.558C271.61 359.775 292.848 367.17 303.274 369.798C312.475 372.1 329.208 369.026 329.37 368.997L330.05 368.893Z" fill="#263238"/>
<path d="M270.709 247.651C270.709 247.651 270.709 252.002 275.834 250.027C280.959 248.052 283.721 244.473 287.649 245.26C291.577 246.047 296.717 248.037 293.556 242.498C290.396 236.96 282.908 239.321 278.566 241.296C275.562 242.881 272.893 245.04 270.709 247.651Z" fill="#263238"/>
<path d="M273.486 251.289C272.773 251.311 272.071 251.108 271.477 250.71C271.02 250.343 270.65 249.878 270.395 249.348C270.139 248.819 270.004 248.239 270 247.651V247.384L270.178 247.176C272.436 244.471 275.207 242.245 278.33 240.627C286.039 237.093 291.622 237.658 294.251 242.112C295.388 244.117 295.624 245.379 294.989 246.225C294.059 247.488 291.828 246.953 289.229 246.359L287.546 245.973C285.36 245.542 283.514 246.656 281.18 248.067C279.58 249.1 277.889 249.984 276.129 250.71C275.29 251.062 274.395 251.258 273.486 251.289ZM271.492 247.889C271.514 248.2 271.6 248.504 271.745 248.78C271.889 249.056 272.09 249.299 272.334 249.492C272.852 249.717 273.414 249.82 273.977 249.791C274.541 249.763 275.09 249.605 275.583 249.329C277.265 248.641 278.881 247.801 280.412 246.819C282.908 245.335 285.079 243.983 287.797 244.533L289.525 244.919C290.883 245.245 293.409 245.839 293.763 245.349C293.763 245.349 294.073 244.889 292.921 242.855C290.056 237.821 282.908 240.152 278.891 241.979C276.071 243.454 273.56 245.461 271.492 247.889Z" fill="#263238"/>
<path d="M279.999 280.512C278.404 280.512 276.897 278.923 275.406 275.686C273.924 272.195 272.834 268.55 272.157 264.816C271.394 261.105 271.052 257.32 271.138 253.531C271.33 249.611 272.29 247.592 274.091 247.191C275.893 246.79 277.547 248.393 279.172 251.957C280.666 255.469 281.756 259.14 282.421 262.901C283.179 266.617 283.516 270.408 283.425 274.201C283.248 278.106 282.288 280.14 280.471 280.541L279.999 280.512ZM274.682 250.264C274.032 251.527 273.545 256.427 275.066 264.252C276.587 272.077 278.832 276.443 279.895 277.379C280.545 276.116 281.018 271.216 279.511 263.391C278.005 255.551 275.745 251.2 274.682 250.264Z" fill="#263238"/>
<path d="M355.771 253.316L280.462 258.465L280.662 261.428L355.971 256.279L355.771 253.316Z" fill="#263238"/>
<path d="M269.528 309.883C268.515 309.66 267.467 309.65 266.45 309.853C265.433 310.056 264.469 310.468 263.618 311.064C262.766 311.659 262.047 312.424 261.503 313.312C260.96 314.2 260.605 315.191 260.46 316.223C260.175 317.451 260.145 318.724 260.374 319.964C260.602 321.203 261.083 322.381 261.786 323.425C262.489 324.468 263.4 325.354 264.46 326.026C265.521 326.698 266.708 327.142 267.948 327.33C269.927 327.33 273.471 324.955 279.762 327.731C286.054 330.508 291.577 334.072 291.577 340.813C291.577 347.555 289.214 352.306 284.09 351.905C278.965 351.505 275.42 342.001 272.659 343.189C269.897 344.377 262.793 355.484 267.534 363.013C272.275 370.541 303.806 384.811 314.055 384.425C324.305 384.039 362.556 350.718 367.68 338.393C372.805 326.068 366.1 320.945 364.919 317.382C363.737 313.818 351.907 283.675 351.907 274.958C351.907 266.242 357.431 246.419 368.463 245.617C379.495 244.815 386.185 268.618 382.67 277.334C380.788 282.278 377.664 286.647 373.602 290.015C373.602 290.015 371.225 315.392 377.93 319.713C384.635 324.034 402.372 329.617 410.657 330.018C418.942 330.419 422.088 331.607 426.43 323.277C430.772 314.946 423.269 311.398 425.647 306.631C428.025 301.864 447.328 278.418 449.277 253.501C451.226 228.585 444.935 208.316 434.287 192.457C423.639 176.599 400.777 161.928 393.274 160.74C387.78 159.727 382.377 158.267 377.117 156.374C377.117 156.374 385.388 152.811 379.082 147.257C372.775 141.704 360.163 138.927 339.649 145.668C319.136 152.41 311.367 160.443 311.367 160.443C311.367 160.443 312.549 149.737 300.719 154.503C288.889 159.27 268.391 180.667 271.182 194.596C273.973 208.524 280.25 208.079 288.904 205.302C297.559 202.525 310.983 196.585 316.965 197.372C322.946 198.159 326.815 198.56 316.182 207.678C305.549 216.795 290.942 226.313 298.829 230.679C306.715 235.044 328.794 247.324 331.556 256.442C334.318 265.559 322.089 329.394 317.747 336.923C313.405 344.451 305.135 346.827 300.025 341.274C294.915 335.72 290.558 321.465 281.889 315.11C273.22 308.754 269.528 309.883 269.528 309.883Z" fill="black"/>
<path d="M313.657 385.167C302.536 385.167 271.595 370.838 266.929 363.399C264.506 359.538 265.127 355.098 266.057 352.054C267.534 347.421 270.488 343.308 272.393 342.506C274.298 341.704 275.834 343.739 277.739 346.055C279.644 348.371 281.771 350.985 284.178 351.178C284.894 351.258 285.618 351.184 286.303 350.961C286.988 350.739 287.618 350.372 288.151 349.886C289.909 348.253 290.868 345.03 290.868 340.813C290.868 334.309 285.404 331.013 279.482 328.414C276.502 326.982 273.095 326.733 269.941 327.717C269.293 327.915 268.624 328.035 267.948 328.073C265.445 327.735 263.169 326.437 261.597 324.45C260.673 323.292 260.024 321.936 259.702 320.487C259.379 319.038 259.391 317.534 259.736 316.09C259.9 314.945 260.295 313.846 260.897 312.86C261.499 311.874 262.295 311.023 263.236 310.358C265.113 309.214 267.332 308.778 269.498 309.126C270.458 308.918 274.283 308.665 282.185 314.442C287.619 318.406 291.326 325.311 294.605 331.384C296.2 334.695 298.157 337.818 300.439 340.695C301.315 341.703 302.422 342.481 303.665 342.963C304.908 343.444 306.249 343.613 307.572 343.456C309.571 343.101 311.461 342.286 313.095 341.075C314.729 339.865 316.064 338.291 316.994 336.477C321.425 328.875 333.314 265.202 330.729 256.59C328.026 247.681 305.622 235.311 298.356 231.243C297.663 230.938 297.059 230.461 296.601 229.855C296.144 229.249 295.848 228.536 295.742 227.783C295.358 223.507 302.019 218.102 309.743 211.865C311.692 210.276 313.716 208.643 315.576 207.039C321.248 202.183 322.178 200.283 321.956 199.615C321.735 198.946 319.195 198.442 316.965 198.13H316.743C312.578 197.565 304.175 200.624 296.776 203.327C293.999 204.337 291.385 205.287 289.081 206.029C283.927 207.663 279.822 208.361 276.543 206.415C273.589 204.663 271.61 200.951 270.384 194.759C267.431 180.162 288.461 158.676 300.409 153.88C304.515 152.232 307.616 152.187 309.669 153.746C310.399 154.387 310.989 155.173 311.401 156.055C311.813 156.937 312.038 157.895 312.061 158.869C315.015 156.434 323.345 150.45 339.487 145.149C363.663 137.19 375.02 142.817 379.628 146.871C381.622 148.623 382.478 150.405 382.198 152.187C381.976 153.074 381.576 153.905 381.022 154.631C380.468 155.356 379.773 155.959 378.978 156.404C383.701 158.028 388.539 159.289 393.451 160.176C400.924 161.364 424.111 176.049 434.951 192.22C446.766 209.875 451.891 230.575 450.06 253.739C448.465 274.112 435.513 293.311 429.28 302.533C427.877 304.612 426.77 306.26 426.327 307.136C425.47 308.858 426.164 310.432 427.021 312.422C428.246 315.229 429.768 318.718 427.109 323.796C423.004 331.696 419.725 331.473 413.064 331.072L410.657 330.939C402.224 330.538 384.28 324.88 377.56 320.544C370.56 315.986 372.79 291.173 372.894 290.119V289.777L373.159 289.584C377.121 286.295 380.173 282.035 382.021 277.215C384.457 271.276 381.888 258.506 376.852 251.512C375.109 249.091 372.244 246.255 368.566 246.522C358.095 247.28 352.69 266.91 352.69 275.122C352.69 282.204 360.768 304.018 364.224 313.328C364.933 315.288 365.465 316.684 365.701 317.307C366.045 318.181 366.486 319.013 367.016 319.787C369.231 323.41 372.583 328.89 368.492 338.838C363.043 351.891 324.497 384.87 314.218 385.286L313.657 385.167ZM273.176 343.828C273.107 343.814 273.037 343.814 272.969 343.828C271.64 344.407 268.834 348.045 267.475 352.44C266.861 354.08 266.606 355.834 266.728 357.581C266.85 359.329 267.347 361.03 268.184 362.567C272.614 369.65 303.88 384.083 314.055 383.638C323.743 383.252 361.861 350.495 367.03 338.096C370.885 328.86 367.902 323.975 365.716 320.396C365.116 319.527 364.621 318.59 364.239 317.604C364.032 316.996 363.515 315.615 362.762 313.684C359.277 304.3 351.139 282.308 351.139 274.958C351.139 265.173 357.224 245.676 368.389 244.874C371.83 244.622 375.153 246.567 377.974 250.487C383.261 257.822 385.905 271.276 383.32 277.616C381.412 282.576 378.3 286.976 374.267 290.416C373.647 297.588 373.189 315.808 378.299 319.134C384.871 323.395 402.416 328.919 410.657 329.32L413.094 329.454C419.636 329.87 422.088 330.018 425.751 322.98C428.069 318.525 426.814 315.659 425.618 312.882C424.672 310.729 423.786 308.68 424.953 306.334C425.888 304.692 426.909 303.101 428.01 301.567C434.154 292.435 446.958 273.473 448.539 253.487C450.34 230.664 445.334 210.276 433.681 192.918C423.018 177.044 400.422 162.67 393.171 161.512C387.646 160.465 382.214 158.975 376.925 157.057L375.168 156.419L376.881 155.677C376.881 155.677 380.366 154.192 380.75 151.756C380.942 150.524 380.234 149.188 378.653 147.807C374.223 143.946 363.427 138.645 339.945 146.322C319.845 152.929 311.884 160.725 311.884 160.799L310.407 162.284L310.629 160.191C310.629 160.191 311.013 156.36 308.812 154.682C307.217 153.449 304.589 153.568 301 155.008C289.746 159.537 269.159 180.549 271.876 194.21C272.998 199.882 274.83 203.371 277.34 204.886C280.146 206.549 283.898 205.881 288.668 204.351C290.957 203.624 293.556 202.673 296.318 201.679C304.249 198.783 312.46 195.739 316.994 196.392H317.201C320.391 196.823 322.902 197.164 323.419 198.932C323.935 200.699 321.942 203.386 316.581 207.975C314.69 209.593 312.667 211.241 310.673 212.83C303.909 218.309 296.924 223.967 297.219 227.456C297.311 227.967 297.53 228.445 297.855 228.848C298.18 229.25 298.602 229.563 299.08 229.758C306.553 233.886 329.282 246.448 332.162 255.952C335.115 265.767 322.355 329.959 318.294 337.027C317.248 339.04 315.753 340.783 313.926 342.12C312.1 343.457 309.991 344.351 307.764 344.733C306.209 344.912 304.634 344.712 303.172 344.152C301.709 343.591 300.402 342.685 299.36 341.511C296.997 338.545 294.971 335.323 293.32 331.904C290.13 325.964 286.497 319.223 281.328 315.451C273.22 309.512 269.794 310.403 269.764 310.403H269.587H269.395C267.558 310.087 265.67 310.434 264.063 311.383C263.261 311.963 262.588 312.705 262.087 313.561C261.586 314.418 261.268 315.37 261.154 316.357C260.849 317.588 260.832 318.874 261.104 320.113C261.375 321.352 261.928 322.511 262.719 323.499C264.019 325.13 265.869 326.224 267.918 326.573C268.474 326.526 269.023 326.422 269.557 326.261C273.025 325.188 276.768 325.464 280.043 327.033C286.113 329.706 292.316 333.419 292.316 340.798C292.316 345.506 291.208 349.025 289.126 350.97C288.444 351.597 287.636 352.07 286.757 352.357C285.879 352.644 284.949 352.738 284.031 352.633C280.988 352.395 278.64 349.53 276.646 346.99C275.376 345.506 274.003 343.828 273.176 343.828Z" fill="#263238"/>
<path d="M363.058 293.193V291.708C366.582 291.109 370.073 290.321 373.514 289.347L373.883 290.832C370.317 291.805 366.704 292.593 363.058 293.193Z" fill="#263238"/>
<path d="M321.838 405.822C321.838 405.822 304.234 420.211 301.753 426.284C299.272 432.357 299.833 443.984 299.833 445.098C299.833 446.211 286.349 456.427 281.668 470.266C276.986 484.106 276.72 501.241 276.72 501.241L307.247 445.365L324.659 409.905L321.838 405.822Z" fill="#09FF4F"/>
<path d="M275.923 504.211V501.241C275.923 501.063 276.248 483.809 280.914 470.059C284.444 459.664 292.892 451.215 296.938 447.176C297.671 446.487 298.366 445.758 299.021 444.994V444.578C298.814 436.04 299.479 429.803 301.015 426.031C303.525 419.854 320.583 405.867 321.307 405.243L321.942 404.738L325.368 409.92L307.912 445.691L275.923 504.211ZM321.705 406.936C318.56 409.549 304.589 421.384 302.506 426.581C301.517 429.046 300.38 434.139 300.631 444.533V445.112C300.631 445.677 300.188 446.137 298.105 448.216C294.118 452.18 285.847 460.422 282.436 470.489C279.024 480.557 278.005 492.51 277.651 498.079L306.671 444.994L323.788 410.009L321.705 406.936Z" fill="#263238"/>
<path d="M395.312 346.367C395.312 346.367 318.028 389.577 319.21 395.116C320.391 400.655 324.733 416.929 324.733 416.929C324.733 416.929 385.447 368.566 396.494 362.612C407.541 356.657 430.801 347.941 430.801 347.941C430.801 347.941 426.459 336.448 425.278 335.26C424.096 334.072 403.982 342.788 395.312 346.367Z" fill="white"/>
<path d="M324.305 418.206L324.024 417.122C324.024 416.959 319.667 400.788 318.486 395.279C318.235 394.076 317.644 391.285 356.441 368.017C375.404 356.657 394.751 345.743 394.958 345.743L399.787 343.739C420.67 335.007 424.732 333.805 425.721 334.829C426.962 336.062 430.683 345.832 431.422 347.777L431.673 348.475L430.979 348.728C430.742 348.817 407.644 357.504 396.774 363.354C385.905 369.204 325.723 417.107 325.117 417.597L324.305 418.206ZM395.637 347.035C358.982 367.527 320.007 391.3 319.933 394.982C320.923 399.6 324.172 411.91 325.161 415.637C332.959 409.445 385.713 367.541 396.139 361.958C406.034 356.627 425.883 349.025 429.841 347.51C428.428 343.528 426.755 339.644 424.835 335.883H424.746C422.324 335.883 408.146 341.823 400.437 345.03L395.637 347.035Z" fill="#263238"/>
<path d="M328.277 401.471L266.382 519.996L221.825 594.537H488.754C488.754 594.537 486.789 532.692 482.846 493.446C478.903 454.2 450.193 377.683 444.197 369.813C438.201 361.943 436.709 357.934 436.709 357.934C436.709 357.934 435.527 345.238 431.185 343.263C426.843 341.288 383.881 355.87 328.277 401.471Z" fill="black"/>
<path d="M489.522 595.28H220.511L265.747 519.624L327.702 400.996L327.82 400.907C382.154 356.36 426.12 340.026 431.496 342.521C435.926 344.57 437.255 355.885 437.403 357.682C439.45 361.813 441.925 365.715 444.787 369.323C450.887 377.49 479.671 454.527 483.585 493.386C487.498 532.246 489.492 593.899 489.492 594.523L489.522 595.28ZM223.125 593.795H488C487.749 586.549 485.77 529.944 482.093 493.52C478.209 454.913 449.602 378.292 443.591 370.199C437.58 362.107 436.074 358.32 436.015 358.127V357.919C435.705 354.519 434.169 345.342 430.934 343.857C426.991 342.061 384.561 356.345 328.913 401.946L267.061 520.352L223.125 593.795Z" fill="#263238"/>
<path d="M548.168 219.245C606.234 219.245 653.306 171.917 653.306 113.535C653.306 55.1533 606.234 7.82547 548.168 7.82547C490.102 7.82547 443.03 55.1533 443.03 113.535C443.03 171.917 490.102 219.245 548.168 219.245Z" fill="#263238"/>
<path d="M548.168 219.987C527.226 219.996 506.751 213.76 489.334 202.069C471.917 190.377 458.34 173.754 450.319 154.304C442.299 134.853 440.196 113.447 444.276 92.7947C448.356 72.1421 458.437 53.17 473.242 38.2779C488.047 23.3858 506.913 13.2428 527.452 9.13174C547.991 5.02064 569.282 7.12615 588.631 15.1819C607.979 23.2378 624.518 36.882 636.154 54.3889C647.789 71.8958 654 92.479 654 113.535C653.969 141.751 642.81 168.802 622.971 188.758C603.131 208.713 576.231 219.944 548.168 219.987ZM548.168 8.56792C527.518 8.5591 507.329 14.7078 490.155 26.2364C472.98 37.765 459.592 54.1556 451.684 73.3351C443.775 92.5145 441.701 113.621 445.725 133.986C449.748 154.351 459.688 173.058 474.286 187.742C488.885 202.427 507.487 212.428 527.74 216.482C547.993 220.536 568.986 218.46 588.065 210.517C607.144 202.573 623.452 189.119 634.926 171.856C646.399 154.594 652.523 134.298 652.523 113.535C652.492 85.7135 641.489 59.0396 621.926 39.3626C602.364 19.6855 575.839 8.61114 548.168 8.56792Z" fill="#263238"/>
<path d="M474.723 211.152C482.782 211.152 489.315 204.81 489.315 196.986C489.315 189.163 482.782 182.82 474.723 182.82C466.665 182.82 460.132 189.163 460.132 196.986C460.132 204.81 466.665 211.152 474.723 211.152Z" fill="#263238"/>
<path d="M474.723 211.895C471.829 211.784 469.031 210.82 466.677 209.123C464.323 207.425 462.518 205.069 461.486 202.348C460.453 199.627 460.24 196.661 460.871 193.818C461.503 190.976 462.952 188.383 465.038 186.363C467.124 184.342 469.755 182.983 472.604 182.454C475.452 181.926 478.392 182.251 481.058 183.389C483.724 184.528 485.999 186.43 487.598 188.858C489.197 191.286 490.051 194.133 490.053 197.046C489.964 201.054 488.302 204.864 485.431 207.646C482.559 210.427 478.71 211.954 474.723 211.895ZM474.723 183.563C472.121 183.673 469.609 184.55 467.498 186.084C465.387 187.618 463.771 189.742 462.851 192.192C461.93 194.641 461.746 197.309 462.32 199.863C462.895 202.417 464.203 204.745 466.082 206.558C467.961 208.371 470.329 209.589 472.891 210.061C475.453 210.532 478.096 210.237 480.492 209.211C482.889 208.185 484.932 206.473 486.369 204.29C487.807 202.106 488.574 199.546 488.576 196.927C488.487 193.313 486.981 189.88 484.387 187.377C481.792 184.874 478.319 183.503 474.723 183.563Z" fill="#263238"/>
<path d="M463.573 215.102C463.647 217.21 463.092 219.292 461.981 221.082C460.869 222.871 459.252 224.285 457.335 225.144C455.419 226.003 453.291 226.266 451.224 225.9C449.158 225.535 447.247 224.557 445.738 223.092C444.228 221.627 443.188 219.742 442.751 217.679C442.313 215.616 442.499 213.468 443.284 211.512C444.069 209.556 445.418 207.88 447.156 206.699C448.895 205.519 450.945 204.887 453.043 204.886C454.402 204.86 455.752 205.104 457.017 205.604C458.282 206.104 459.437 206.85 460.415 207.799C461.393 208.747 462.175 209.881 462.717 211.134C463.259 212.387 463.55 213.736 463.573 215.102Z" fill="#263238"/>
<path d="M453.043 226.046C450.904 225.973 448.834 225.268 447.09 224.02C445.347 222.772 444.007 221.035 443.239 219.027C442.471 217.018 442.308 214.826 442.771 212.725C443.233 210.624 444.301 208.707 445.84 207.212C447.379 205.716 449.323 204.71 451.427 204.318C453.532 203.926 455.704 204.166 457.674 205.008C459.644 205.849 461.324 207.255 462.504 209.05C463.685 210.845 464.313 212.95 464.311 215.102C464.286 216.565 463.975 218.008 463.395 219.349C462.815 220.691 461.978 221.905 460.932 222.921C459.886 223.937 458.65 224.736 457.297 225.272C455.943 225.808 454.498 226.071 453.043 226.046ZM453.043 205.628C451.197 205.701 449.413 206.318 447.913 207.402C446.412 208.487 445.262 209.99 444.605 211.726C443.949 213.463 443.814 215.355 444.218 217.167C444.622 218.98 445.548 220.633 446.879 221.921C448.21 223.209 449.889 224.075 451.706 224.412C453.523 224.748 455.398 224.54 457.098 223.813C458.798 223.087 460.249 221.874 461.269 220.325C462.289 218.776 462.833 216.96 462.835 215.102C462.784 212.541 461.725 210.104 459.889 208.328C458.053 206.552 455.591 205.581 453.043 205.628Z" fill="#263238"/>
<path d="M544.136 212.162C602.202 212.162 649.274 164.834 649.274 106.452C649.274 48.0704 602.202 0.742493 544.136 0.742493C486.07 0.742493 438.998 48.0704 438.998 106.452C438.998 164.834 486.07 212.162 544.136 212.162Z" fill="white"/>
<path d="M544.136 212.904C523.196 212.904 502.725 206.661 485.314 194.964C467.903 183.267 454.332 166.641 446.319 147.19C438.305 127.738 436.209 106.334 440.294 85.6844C444.379 65.0347 454.463 46.0668 469.27 31.1792C484.077 16.2916 502.942 6.15298 523.481 2.0455C544.019 -2.06198 565.307 0.0461262 584.653 8.10324C604 16.1604 620.535 29.8046 632.169 47.3106C643.803 64.8165 650.012 85.398 650.012 106.452C649.981 134.675 638.816 161.734 618.967 181.691C599.118 201.647 572.207 212.873 544.136 212.904ZM544.136 1.48494C523.488 1.48494 503.303 7.64117 486.135 19.1751C468.966 30.7091 455.585 47.1027 447.683 66.283C439.782 85.4633 437.714 106.569 441.742 126.93C445.771 147.292 455.714 165.995 470.314 180.675C484.915 195.355 503.517 205.352 523.769 209.403C544.02 213.453 565.011 211.374 584.088 203.429C603.165 195.485 619.47 182.031 630.941 164.769C642.413 147.507 648.536 127.213 648.536 106.452C648.485 78.6357 637.467 51.9742 617.897 32.3118C598.327 12.6495 571.802 1.59059 544.136 1.55919V1.48494Z" fill="black"/>
<path d="M470.692 204.069C478.75 204.069 485.283 197.727 485.283 189.903C485.283 182.08 478.75 175.737 470.692 175.737C462.633 175.737 456.1 182.08 456.1 189.903C456.1 197.727 462.633 204.069 470.692 204.069Z" fill="white"/>
<path d="M470.692 204.812C467.797 204.701 464.999 203.737 462.645 202.04C460.291 200.342 458.486 197.986 457.454 195.265C456.421 192.544 456.208 189.578 456.84 186.735C457.471 183.893 458.92 181.3 461.006 179.28C463.092 177.259 465.723 175.9 468.572 175.371C471.42 174.843 474.36 175.168 477.026 176.306C479.693 177.445 481.967 179.347 483.566 181.775C485.165 184.203 486.019 187.05 486.021 189.963C485.936 193.972 484.276 197.785 481.403 200.567C478.531 203.349 474.68 204.875 470.692 204.812ZM470.692 176.48C468.089 176.59 465.577 177.467 463.466 179.001C461.355 180.535 459.739 182.659 458.819 185.109C457.898 187.558 457.714 190.226 458.288 192.78C458.863 195.334 460.171 197.662 462.05 199.475C463.93 201.288 466.297 202.506 468.859 202.978C471.421 203.449 474.064 203.154 476.46 202.128C478.857 201.102 480.9 199.391 482.338 197.207C483.775 195.023 484.542 192.463 484.545 189.844C484.459 186.228 482.955 182.794 480.359 180.29C477.764 177.786 474.288 176.416 470.692 176.48Z" fill="#263238"/>
<path d="M459.541 207.96C459.615 210.069 459.06 212.151 457.948 213.941C456.836 215.73 455.217 217.145 453.3 218.003C451.383 218.861 449.254 219.124 447.187 218.757C445.12 218.39 443.21 217.411 441.7 215.944C440.191 214.478 439.152 212.592 438.717 210.528C438.281 208.463 438.469 206.315 439.257 204.359C440.044 202.403 441.394 200.728 443.135 199.55C444.876 198.371 446.927 197.742 449.026 197.744C450.384 197.72 451.733 197.966 452.996 198.466C454.259 198.967 455.412 199.713 456.388 200.662C457.365 201.61 458.146 202.743 458.687 203.995C459.228 205.247 459.518 206.595 459.541 207.96Z" fill="white"/>
<path d="M449.026 218.978C446.887 218.908 444.815 218.206 443.07 216.96C441.325 215.714 439.983 213.979 439.213 211.972C438.442 209.964 438.276 207.773 438.736 205.671C439.195 203.569 440.26 201.65 441.798 200.153C443.335 198.656 445.277 197.647 447.381 197.252C449.485 196.858 451.658 197.094 453.629 197.933C455.6 198.772 457.282 200.176 458.465 201.97C459.647 203.763 460.278 205.867 460.28 208.019C460.229 210.972 459.016 213.783 456.906 215.838C454.797 217.892 451.963 219.021 449.026 218.978ZM449.026 198.545C447.179 198.615 445.393 199.23 443.891 200.312C442.389 201.395 441.237 202.898 440.578 204.634C439.918 206.37 439.782 208.262 440.184 210.076C440.587 211.89 441.511 213.544 442.842 214.834C444.173 216.123 445.851 216.991 447.669 217.328C449.486 217.666 451.362 217.459 453.063 216.732C454.764 216.006 456.216 214.793 457.236 213.243C458.257 211.694 458.801 209.877 458.803 208.019C458.752 205.46 457.695 203.026 455.862 201.25C454.029 199.474 451.571 198.502 449.026 198.545Z" fill="#263238"/>
<path d="M589.018 91.7072C589.023 84.5342 587.309 77.4655 584.021 71.0996C580.734 64.7336 575.969 59.2577 570.13 55.1354C564.292 51.0131 557.552 48.3658 550.48 47.4174C543.408 46.4691 536.214 47.2477 529.505 49.6873C522.796 52.1269 516.77 56.1557 511.938 61.4328C507.106 66.7098 503.609 73.0797 501.744 80.0033C499.879 86.9269 499.7 94.2003 501.223 101.208C502.746 108.216 505.926 114.751 510.493 120.262C517.028 128.155 520.607 138.101 520.61 148.371V154.503H568.608V148.386C568.6 138.144 572.164 128.223 578.68 120.351C585.381 112.329 589.043 102.183 589.018 91.7072Z" fill="#09FF4F"/>
<path d="M568.593 155.231H520.595C520.399 155.231 520.211 155.153 520.073 155.014C519.934 154.874 519.856 154.686 519.856 154.489V148.371C519.85 138.278 516.328 128.506 509.902 120.752C504.411 114.121 500.912 106.053 499.816 97.495C498.72 88.9367 500.072 80.2415 503.714 72.4279C507.356 64.6142 513.136 58.0057 520.379 53.3762C527.622 48.7467 536.026 46.288 544.609 46.288C553.191 46.288 561.596 48.7467 568.838 53.3762C576.081 58.0057 581.862 64.6142 585.504 72.4279C589.145 80.2415 590.497 88.9367 589.401 97.495C588.305 106.053 584.807 114.121 579.315 120.752C572.9 128.504 569.389 138.271 569.39 148.356V154.503C569.389 154.605 569.366 154.705 569.325 154.797C569.283 154.89 569.223 154.973 569.148 155.041C569.074 155.109 568.986 155.161 568.89 155.194C568.795 155.227 568.694 155.239 568.593 155.231ZM521.333 153.746H567.855V148.371C567.865 137.929 571.524 127.822 578.193 119.816C585.34 111.199 588.934 100.158 588.236 88.9594C587.539 77.7611 582.602 67.2565 574.441 59.6038C570.069 55.4621 564.886 52.2824 559.223 50.2678C553.56 48.2531 547.542 47.4476 541.552 47.9028C533.536 48.4736 525.833 51.2575 519.291 55.9479C512.749 60.6382 507.621 67.053 504.472 74.4858C501.323 81.9185 500.275 90.0809 501.445 98.0738C502.614 106.067 505.955 113.58 511.099 119.787C517.76 127.808 521.418 137.921 521.437 148.371L521.333 153.746Z" fill="#263238"/>
<path d="M568.608 154.489H520.595V166.427H568.608V154.489Z" fill="white"/>
<path d="M568.593 167.184H520.595C520.399 167.184 520.211 167.106 520.073 166.967C519.934 166.828 519.856 166.639 519.856 166.442V154.563C519.856 154.366 519.934 154.177 520.073 154.038C520.211 153.899 520.399 153.82 520.595 153.82H568.593C568.789 153.82 568.977 153.899 569.115 154.038C569.254 154.177 569.331 154.366 569.331 154.563V166.442C569.331 166.639 569.254 166.828 569.115 166.967C568.977 167.106 568.789 167.184 568.593 167.184ZM521.333 165.7H567.854V155.305H521.333V165.7Z" fill="#263238"/>
<path d="M520.595 166.472H568.608V171.402C568.608 172.324 568.427 173.237 568.076 174.089C567.725 174.941 567.21 175.716 566.562 176.368C565.913 177.02 565.143 177.538 564.295 177.89C563.448 178.243 562.54 178.425 561.622 178.425H527.566C525.713 178.425 523.936 177.685 522.626 176.368C521.316 175.051 520.58 173.264 520.58 171.402V166.472H520.595Z" fill="white"/>
<path d="M561.622 179.153H527.566C525.52 179.149 523.559 178.329 522.113 176.873C520.668 175.417 519.856 173.444 519.856 171.387V166.472C519.856 166.275 519.934 166.086 520.073 165.947C520.211 165.807 520.399 165.729 520.595 165.729H568.593C568.789 165.729 568.977 165.807 569.115 165.947C569.254 166.086 569.331 166.275 569.331 166.472V171.387C569.331 173.444 568.52 175.417 567.074 176.873C565.629 178.329 563.668 179.149 561.622 179.153ZM521.333 167.274V171.446C521.333 173.109 521.989 174.705 523.158 175.882C524.326 177.06 525.911 177.723 527.566 177.727H561.622C563.276 177.723 564.862 177.06 566.03 175.882C567.198 174.705 567.854 173.109 567.854 171.446V167.274H521.333Z" fill="#263238"/>
<path d="M526.65 178.395H562.538V180.816C562.538 182.066 562.293 183.303 561.817 184.458C561.341 185.613 560.644 186.662 559.765 187.546C558.886 188.43 557.842 189.131 556.694 189.609C555.545 190.088 554.314 190.334 553.071 190.334H536.117C533.606 190.334 531.198 189.331 529.423 187.546C527.647 185.761 526.65 183.34 526.65 180.816V178.395Z" fill="#263238"/>
<path d="M553.071 191.076H536.117C533.411 191.073 530.818 189.99 528.905 188.067C526.992 186.143 525.915 183.536 525.912 180.816V177.653H563.276V180.816C563.272 183.536 562.196 186.143 560.283 188.067C558.37 189.99 555.776 191.073 553.071 191.076ZM527.388 179.197V180.875C527.392 183.201 528.313 185.431 529.949 187.076C531.585 188.721 533.803 189.647 536.117 189.651H553.071C555.385 189.647 557.603 188.721 559.239 187.076C560.875 185.431 561.795 183.201 561.799 180.875V179.197H527.388Z" fill="#263238"/>
<path d="M615.602 92.6873H595.309C595.114 92.6873 594.926 92.6091 594.787 92.4698C594.649 92.3306 594.571 92.1417 594.571 91.9448C594.571 91.7479 594.649 91.5591 594.787 91.4198C594.926 91.2806 595.114 91.2024 595.309 91.2024H615.602C615.797 91.2024 615.985 91.2806 616.124 91.4198C616.262 91.5591 616.34 91.7479 616.34 91.9448C616.34 92.1417 616.262 92.3306 616.124 92.4698C615.985 92.6091 615.797 92.6873 615.602 92.6873Z" fill="#263238"/>
<path d="M492.239 92.6873H471.563C471.367 92.6873 471.179 92.6091 471.041 92.4698C470.902 92.3306 470.824 92.1417 470.824 91.9448C470.824 91.7479 470.902 91.5591 471.041 91.4198C471.179 91.2806 471.367 91.2024 471.563 91.2024H492.239C492.435 91.2024 492.623 91.2806 492.761 91.4198C492.9 91.5591 492.977 91.7479 492.977 91.9448C492.974 92.1405 492.895 92.3272 492.757 92.4656C492.619 92.604 492.434 92.6835 492.239 92.6873Z" fill="#263238"/>
<path d="M543.634 40.7901C543.438 40.7901 543.25 40.7119 543.112 40.5727C542.973 40.4334 542.896 40.2446 542.896 40.0477V19.5413C542.896 19.3444 542.973 19.1555 543.112 19.0163C543.25 18.877 543.438 18.7988 543.634 18.7988C543.83 18.7988 544.018 18.877 544.156 19.0163C544.295 19.1555 544.372 19.3444 544.372 19.5413V40.0477C544.372 40.2446 544.295 40.4334 544.156 40.5727C544.018 40.7119 543.83 40.7901 543.634 40.7901Z" fill="#263238"/>
<path d="M580.511 55.6094C580.415 55.6088 580.319 55.5888 580.23 55.5506C580.142 55.5123 580.061 55.4566 579.994 55.3867C579.925 55.3176 579.87 55.2355 579.833 55.145C579.795 55.0546 579.776 54.9575 579.776 54.8595C579.776 54.7615 579.795 54.6645 579.833 54.574C579.87 54.4835 579.925 54.4014 579.994 54.3324L594.039 40.1665C594.177 40.0304 594.363 39.9542 594.556 39.9542C594.75 39.9542 594.935 40.0304 595.073 40.1665C595.142 40.2355 595.197 40.3176 595.235 40.4081C595.272 40.4986 595.292 40.5956 595.292 40.6936C595.292 40.7916 595.272 40.8887 595.235 40.9791C595.197 41.0696 595.142 41.1517 595.073 41.2207L581.043 55.3421C580.977 55.4206 580.896 55.4848 580.804 55.5307C580.713 55.5767 580.613 55.6034 580.511 55.6094Z" fill="#263238"/>
<path d="M492.726 143.872C492.53 143.871 492.34 143.797 492.195 143.664C492.059 143.522 491.982 143.333 491.982 143.137C491.982 142.94 492.059 142.751 492.195 142.609L506.446 128.28C506.515 128.211 506.597 128.156 506.687 128.119C506.777 128.081 506.873 128.062 506.971 128.062C507.068 128.062 507.165 128.081 507.255 128.119C507.344 128.156 507.426 128.211 507.495 128.28C507.564 128.349 507.619 128.432 507.656 128.522C507.693 128.612 507.712 128.709 507.712 128.807C507.712 128.905 507.693 129.002 507.656 129.093C507.619 129.183 507.564 129.265 507.495 129.334L493.243 143.664C493.101 143.793 492.918 143.867 492.726 143.872Z" fill="#263238"/>
<path d="M506.314 55.1936C506.121 55.1948 505.935 55.1202 505.797 54.9857L492.15 41.2653C492.011 41.1255 491.933 40.9359 491.933 40.7382C491.933 40.5405 492.011 40.3508 492.15 40.211C492.289 40.0712 492.478 39.9927 492.675 39.9927C492.871 39.9927 493.06 40.0712 493.199 40.211L506.83 53.9315C506.932 54.0352 507 54.1666 507.028 54.3092C507.056 54.4519 507.041 54.5996 506.986 54.7339C506.931 54.8683 506.838 54.9835 506.718 55.0652C506.599 55.1469 506.458 55.1916 506.314 55.1936Z" fill="#263238"/>
<path d="M594.556 143.872C594.364 143.87 594.18 143.796 594.039 143.664L580.452 130.003C580.383 129.933 580.329 129.851 580.291 129.761C580.254 129.67 580.235 129.573 580.235 129.476C580.235 129.378 580.254 129.281 580.291 129.19C580.329 129.1 580.383 129.018 580.452 128.948C580.521 128.879 580.603 128.824 580.693 128.787C580.783 128.749 580.879 128.73 580.976 128.73C581.074 128.73 581.17 128.749 581.26 128.787C581.35 128.824 581.432 128.879 581.501 128.948L595.073 142.609C595.174 142.713 595.243 142.845 595.271 142.987C595.298 143.13 595.284 143.278 595.229 143.412C595.174 143.546 595.081 143.661 594.961 143.743C594.842 143.825 594.701 143.87 594.556 143.872Z" fill="#263238"/>
<path d="M190.279 475.018L201.282 470.667L201.946 476.028L190.279 475.018Z" fill="white"/>
<path d="M202.803 476.845L187.074 475.493L201.843 469.554L202.803 476.845ZM193.484 474.558L201.105 475.211L200.676 471.707L193.484 474.558Z" fill="#263238"/>
<path d="M387.175 194.937V190.319H381.902C381.639 187.751 380.96 185.243 379.894 182.895L384.487 180.237L382.257 176.183L377.664 178.841C376.163 176.736 374.327 174.894 372.229 173.391L374.887 168.773L370.9 166.457L368.241 171.06C365.905 169.991 363.411 169.314 360.857 169.055V163.739H356.249V169.055C353.696 169.314 351.201 169.991 348.865 171.06L346.207 166.457L342.234 168.773L344.877 173.391C342.78 174.894 340.943 176.736 339.443 178.841L334.85 176.183L332.56 180.192L337.139 182.85C336.071 185.197 335.397 187.706 335.145 190.275H329.858V194.893H334.997C335.249 197.461 335.923 199.97 336.991 202.317L332.413 204.975L334.702 208.984L339.295 206.326C340.799 208.428 342.635 210.269 344.73 211.776L342.086 216.394L346.059 218.71L348.717 214.092C351.05 215.172 353.546 215.855 356.102 216.112V221.428H360.709V216.112C363.265 215.855 365.761 215.172 368.094 214.092L370.752 218.71L374.74 216.394L372.081 211.776C374.176 210.269 376.012 208.428 377.516 206.326L382.109 208.984L384.413 204.975L379.82 202.317C380.886 199.968 381.565 197.461 381.829 194.893L387.175 194.937ZM358.45 174.505C362.946 174.517 367.276 176.219 370.588 179.277C373.9 182.335 375.955 186.528 376.349 191.032H361.817C361.514 190.378 361.033 189.824 360.429 189.435C359.825 189.046 359.123 188.837 358.406 188.834C358.224 188.819 358.041 188.819 357.859 188.834L350.298 176.406C352.826 175.13 355.621 174.478 358.45 174.505ZM340.432 192.621C340.425 189.708 341.118 186.836 342.453 184.251C343.787 181.665 345.724 179.442 348.097 177.772L355.673 190.141C355.077 190.823 354.747 191.698 354.743 192.606C354.746 193.432 355.016 194.234 355.511 194.893L348.127 207.425C345.756 205.76 343.819 203.546 342.479 200.969C341.14 198.392 340.438 195.528 340.432 192.621ZM358.45 210.751C355.627 210.746 352.845 210.074 350.327 208.791L357.711 196.318C357.973 196.379 358.241 196.409 358.509 196.407C359.326 196.408 360.12 196.14 360.771 195.644C361.422 195.148 361.893 194.451 362.112 193.66H376.482C376.225 198.289 374.211 202.642 370.856 205.822C367.501 209.002 363.061 210.766 358.45 210.751Z" fill="#D1D1D1"/>
<path d="M399.389 255.551H403.982V250.235C406.537 249.976 409.032 249.294 411.366 248.215L414.009 252.833L417.997 250.502L415.339 245.899C417.434 244.386 419.269 242.541 420.774 240.434L425.367 243.092L427.656 239.083L423.077 236.425C424.139 234.076 424.812 231.568 425.071 229.001H430.344V224.293H425.086C424.822 221.725 424.144 219.218 423.077 216.869L427.656 214.211L425.352 210.202L420.774 212.875C419.265 210.772 417.43 208.927 415.339 207.41L417.982 202.792L413.995 200.491L411.351 205.094C409.017 204.02 406.522 203.343 403.967 203.089V197.773H399.359V203.074C396.805 203.34 394.311 204.022 391.975 205.094L389.316 200.491L385.344 202.807L387.987 207.41C385.893 208.919 384.062 210.765 382.567 212.875L377.974 210.217L375.67 214.226L380.263 216.884C379.195 219.231 378.521 221.74 378.269 224.308H372.982V228.941H378.269C378.527 231.511 379.206 234.019 380.278 236.366L375.641 239.142L377.944 243.152L382.537 240.494C384.046 242.592 385.881 244.432 387.972 245.943L385.329 250.561L389.316 252.878L391.96 248.26C394.294 249.333 396.79 250.011 399.344 250.264L399.389 255.551ZM419.695 226.654C419.695 231.181 418.009 235.543 414.969 238.882C411.93 242.221 407.757 244.295 403.273 244.696V230.085C403.923 229.781 404.472 229.297 404.857 228.689C405.242 228.081 405.445 227.375 405.444 226.654C405.444 226.476 405.444 226.298 405.444 226.12L417.702 218.502C418.986 221.027 419.669 223.818 419.695 226.654ZM401.648 208.539C404.545 208.534 407.4 209.232 409.971 210.574C412.542 211.915 414.753 213.861 416.417 216.245L404.129 223.818C403.454 223.214 402.581 222.881 401.678 222.883C400.861 222.886 400.068 223.157 399.418 223.655L386.953 216.231C388.611 213.859 390.811 211.923 393.368 210.584C395.926 209.246 398.765 208.544 401.648 208.539ZM383.645 226.669C383.644 223.83 384.312 221.032 385.595 218.502L397.985 225.927C397.926 226.195 397.896 226.469 397.897 226.744C397.897 227.567 398.166 228.367 398.662 229.022C399.158 229.676 399.854 230.149 400.644 230.367V244.815C396.039 244.552 391.709 242.525 388.547 239.149C385.385 235.773 383.63 231.307 383.645 226.669Z" fill="#D1D1D1"/>
<path d="M501.05 477.727C505.37 479.585 515.738 479.354 515.738 479.354C515.738 479.354 513.506 472.529 513.304 472.154C511.015 467.373 503.786 459.468 497.896 460.26C496.923 460.42 495.994 460.784 495.169 461.326C494.345 461.869 493.644 462.579 493.112 463.41C492.58 464.241 492.228 465.174 492.08 466.15C491.932 467.125 491.99 468.121 492.251 469.073C493.231 473.105 497.421 476.143 501.05 477.727Z" fill="#263238"/>
<path d="M504.65 507.924C509.071 508.557 518.373 505.865 519.05 505.649C520.579 510.973 522.464 516.188 524.695 521.258C525.976 524.225 527.359 527.162 528.784 530.1C527.935 528.861 527.157 527.753 527.042 527.609C523.571 523.605 514.499 517.889 509.042 520.207C508.144 520.618 507.342 521.213 506.69 521.954C506.037 522.696 505.548 523.566 505.255 524.509C504.961 525.452 504.87 526.446 504.987 527.427C505.103 528.408 505.425 529.353 505.931 530.201C507.947 533.873 512.786 535.687 516.703 536.263C520.619 536.839 528.655 534.693 530.757 534.103L532.427 537.473C535.12 542.829 537.827 548.172 540.333 553.5C541.211 555.372 542.003 557.244 542.81 559.13C542.061 558.021 541.37 557.1 541.37 556.97C537.899 552.953 528.842 547.25 523.37 549.569C522.474 549.98 521.674 550.574 521.023 551.315C520.372 552.055 519.884 552.924 519.591 553.865C519.297 554.806 519.205 555.798 519.32 556.778C519.436 557.757 519.756 558.7 520.259 559.548C522.275 563.234 527.114 565.049 531.031 565.61C534.947 566.172 542.205 564.257 544.711 563.565C545.488 565.509 546.251 567.453 546.914 569.325C547.331 570.65 547.821 571.889 548.167 573.242C548.512 574.596 548.915 575.892 549.275 577.188C549.88 579.722 550.528 582.343 551.061 584.834C551.435 586.562 551.781 588.218 552.112 589.889C551.263 588.002 549.506 584.373 549.319 584.129C546.511 579.636 538.403 572.609 532.658 574.049C531.71 574.318 530.829 574.785 530.073 575.417C529.317 576.049 528.702 576.834 528.269 577.719C527.835 578.605 527.593 579.571 527.558 580.557C527.523 581.542 527.695 582.523 528.064 583.437C529.504 587.383 534.011 589.903 537.799 591.069C541.96 592.337 551.205 591.17 552.357 591.069C552.904 593.82 553.423 596.513 553.797 599.061C554.042 600.401 554.243 601.668 554.459 602.949H558.131C557.858 601.509 557.57 599.983 557.267 598.413C556.706 595.605 556.072 592.653 555.381 589.557C558.162 588.448 560.874 587.174 563.503 585.741C566.541 589.039 574.331 592.941 575.339 593.373C574.274 595.98 573.223 598.514 572.186 600.876L571.264 602.949H575.138L575.426 602.244C576.52 599.609 577.629 596.757 578.738 593.834C579.847 594.065 588.991 595.922 593.253 594.957C597.112 594.079 601.792 591.89 603.52 588.074C603.959 587.191 604.206 586.225 604.246 585.24C604.286 584.254 604.118 583.272 603.752 582.356C603.387 581.44 602.832 580.611 602.125 579.924C601.417 579.237 600.573 578.707 599.647 578.369C594.016 576.468 585.419 582.861 582.28 587.138C582.093 587.383 580.379 590.335 579.328 592.221C579.775 591.026 580.221 589.86 580.667 588.621C581.575 586.173 582.395 583.697 583.288 581.047C583.677 579.751 584.08 578.441 584.469 577.116C584.858 575.791 585.175 574.38 585.535 572.997C586.298 569.786 586.975 566.489 587.464 563.162C589.61 563.94 597.271 566.604 601.245 566.33C605.219 566.057 610.144 564.602 612.434 561.089C613.001 560.281 613.392 559.362 613.581 558.393C613.77 557.424 613.752 556.426 613.529 555.464C613.307 554.502 612.884 553.598 612.288 552.81C611.692 552.023 610.937 551.37 610.072 550.893C604.802 548.172 595.327 553.197 591.568 556.927C591.338 557.157 588.947 560.153 587.666 561.823C587.983 559.807 588.299 557.82 588.559 555.775C589.279 549.885 589.84 543.895 590.416 537.933C590.603 536.105 590.791 534.29 590.992 532.461C591.755 532.749 600.784 536.119 605.234 535.802C609.194 535.529 614.147 534.074 616.437 530.561C617.002 529.752 617.391 528.833 617.579 527.865C617.766 526.896 617.748 525.899 617.526 524.937C617.303 523.976 616.881 523.072 616.286 522.285C615.692 521.497 614.939 520.843 614.075 520.365C608.791 517.644 599.33 522.669 595.571 526.413C595.283 526.687 591.842 530.993 591.021 532.173C591.453 528.17 591.914 524.167 592.461 520.25C593.29 514.946 594.469 509.703 595.989 504.554C596.335 504.684 605.767 508.241 610.317 507.924C614.263 507.636 619.216 506.196 621.506 502.682C622.073 501.874 622.464 500.956 622.653 499.987C622.842 499.017 622.824 498.019 622.601 497.057C622.379 496.095 621.956 495.191 621.36 494.404C620.764 493.616 620.009 492.963 619.144 492.487C613.874 489.765 604.413 494.777 600.64 498.521C600.352 498.823 596.651 503.445 596.047 504.281C596.133 503.978 596.191 503.661 596.277 503.373C597.902 498.248 599.984 493.28 602.498 488.527C603.837 485.877 605.277 483.429 606.731 481.082C608.416 481.917 616.178 485.69 620.296 485.849C624.415 486.007 629.339 485.114 632.003 481.874C632.655 481.133 633.143 480.262 633.437 479.32C633.73 478.377 633.822 477.384 633.707 476.403C633.591 475.423 633.271 474.478 632.767 473.629C632.263 472.78 631.585 472.047 630.779 471.477C625.826 468.194 615.875 472.14 611.728 475.452C611.498 475.625 609.41 477.713 607.912 479.253C608.575 478.202 609.251 477.093 609.914 476.1C612.405 472.356 614.911 469.087 617.114 466.207C618.395 464.58 619.591 463.14 620.728 461.786C622.816 461.786 631.211 461.498 634.898 459.77C638.584 458.042 642.573 454.946 643.451 450.842C643.689 449.884 643.722 448.887 643.547 447.915C643.373 446.944 642.995 446.02 642.439 445.205C641.883 444.389 641.162 443.7 640.321 443.183C639.481 442.665 638.54 442.331 637.562 442.202C631.658 441.554 624.602 449.647 622.485 454.5C622.298 454.917 620.138 461.801 620.253 461.801H620.368C619.259 463.068 618.079 464.436 616.811 465.962C614.493 468.842 611.915 472.025 609.338 475.725C606.525 479.69 603.938 483.81 601.591 488.066C598.954 492.83 596.742 497.818 594.981 502.97C594.981 502.97 594.981 503.085 594.981 503.157C594.981 501.415 594.981 496.548 594.895 496.173C594.203 490.917 589.797 481.154 583.951 480.074C582.977 479.921 581.981 479.976 581.029 480.233C580.078 480.491 579.191 480.947 578.427 481.571C577.664 482.194 577.04 482.972 576.597 483.853C576.155 484.734 575.903 485.699 575.858 486.684C575.512 490.86 578.536 495.036 581.488 497.685C584.829 500.652 594.074 503.532 594.808 503.762C593.15 509.05 591.846 514.443 590.906 519.905C590.33 523.073 589.869 526.298 589.466 529.524C589.466 528.084 589.466 526.644 589.379 526.485C588.703 521.229 584.296 511.466 578.45 510.386C577.475 510.233 576.479 510.288 575.526 510.545C574.574 510.803 573.686 511.259 572.922 511.882C572.157 512.506 571.532 513.283 571.088 514.164C570.643 515.045 570.389 516.01 570.343 516.996C569.997 521.172 573.035 525.362 575.987 527.997C578.939 530.633 586.816 533.297 588.947 533.959L588.472 537.674C587.767 543.636 587.032 549.597 586.226 555.415C585.938 557.46 585.563 559.461 585.203 561.477C585.203 560.138 585.203 559.015 585.131 558.842C584.44 553.586 580.034 543.823 574.202 542.743C573.227 542.59 572.231 542.644 571.278 542.902C570.326 543.16 569.438 543.615 568.674 544.239C567.909 544.862 567.284 545.64 566.84 546.521C566.395 547.402 566.141 548.367 566.095 549.353C565.749 553.529 568.773 557.719 571.739 560.354C574.706 562.989 581.819 565.38 584.282 566.186C583.835 568.231 583.418 570.29 582.842 572.249C582.467 573.588 582.194 574.898 581.733 576.209C581.272 577.519 580.883 578.829 580.466 580.111C579.573 582.573 578.68 585.108 577.744 587.469C577.111 589.125 576.477 590.695 575.843 592.265C576.16 590.234 576.707 586.231 576.707 585.9C576.648 581.234 575.388 576.661 573.05 572.623C573.067 572.103 573.034 571.582 572.949 571.068C572.829 570.083 572.502 569.135 571.988 568.286C571.475 567.437 570.787 566.706 569.97 566.143C569.154 565.58 568.227 565.196 567.251 565.017C566.275 564.838 565.272 564.869 564.309 565.106C558.549 566.633 554.92 576.698 554.647 581.997C554.647 582.314 554.834 585.727 555.007 587.873C554.719 586.62 554.445 585.41 554.143 584.129C553.538 581.58 552.861 579.074 552.141 576.367C551.752 575.071 551.349 573.761 550.96 572.436C550.571 571.111 550.024 569.772 549.52 568.418C548.383 565.322 547.087 562.226 545.704 559.145C547.936 558.612 555.784 556.61 558.952 554.177C562.12 551.743 565.418 547.826 565.389 543.636C565.417 542.649 565.236 541.668 564.859 540.756C564.482 539.844 563.917 539.022 563.201 538.342C562.485 537.663 561.634 537.142 560.704 536.814C559.773 536.485 558.784 536.357 557.8 536.436C551.896 537.084 546.77 546.516 545.704 551.685C545.632 552.002 545.287 555.818 545.128 557.921C544.293 556.063 543.458 554.22 542.536 552.377C539.901 547.063 537.064 541.764 534.256 536.465C533.407 534.852 532.557 533.225 531.722 531.597C532.514 531.41 541.903 529.236 545.445 526.514C548.584 524.109 551.925 520.164 551.882 515.973C551.909 514.987 551.729 514.006 551.352 513.094C550.975 512.182 550.41 511.359 549.694 510.68C548.978 510.001 548.127 509.48 547.197 509.151C546.266 508.823 545.277 508.694 544.293 508.773C538.389 509.421 533.263 518.853 532.197 524.023C532.111 524.412 531.621 529.898 531.563 531.295C529.706 527.724 527.877 524.095 526.235 520.524C523.996 515.665 522.072 510.668 520.475 505.562C520.85 505.476 530.671 503.244 534.285 500.465C537.424 498.045 540.765 494.1 540.736 489.909C540.766 488.922 540.587 487.94 540.211 487.027C539.835 486.114 539.27 485.291 538.553 484.611C537.837 483.931 536.985 483.41 536.054 483.083C535.122 482.755 534.132 482.628 533.147 482.709C527.229 483.343 522.117 492.789 521.037 497.945C520.951 498.348 520.432 504.252 520.403 505.332C520.317 505.044 520.187 504.741 520.101 504.439C518.635 499.297 517.628 494.034 517.091 488.714C516.76 485.834 516.616 482.954 516.53 480.175C518.402 479.945 526.941 478.807 530.469 476.661C533.997 474.516 537.669 471.06 538.043 466.884C538.177 465.907 538.104 464.913 537.829 463.967C537.553 463.02 537.082 462.142 536.445 461.39C535.808 460.637 535.02 460.027 534.131 459.6C533.243 459.172 532.275 458.935 531.29 458.906C525.343 458.906 519.223 467.676 517.581 472.716C517.495 472.989 516.904 475.884 516.501 478.001C516.501 476.748 516.429 475.452 516.429 474.257C516.429 469.778 516.731 465.617 517.005 462.017C517.192 459.943 517.394 458.085 517.595 456.343C519.309 455.162 526.235 450.309 528.295 446.839C530.354 443.369 532.039 438.573 530.498 434.685C530.17 433.755 529.65 432.904 528.972 432.188C528.293 431.472 527.47 430.907 526.559 430.531C525.647 430.154 524.665 429.974 523.679 430.003C522.693 430.032 521.724 430.268 520.835 430.697C515.551 433.433 514.168 444.045 515.075 449.287C515.162 449.733 517.149 456.674 517.235 456.617L517.336 456.545C517.106 458.215 516.875 460.015 516.674 461.988C516.314 465.617 515.939 469.735 515.824 474.242C515.659 479.102 515.774 483.968 516.17 488.815C516.592 494.242 517.498 499.62 518.877 504.885V505.073C517.941 503.633 515.191 499.586 514.946 499.313C511.475 495.309 502.418 489.593 496.946 491.911C496.048 492.322 495.246 492.917 494.594 493.658C493.941 494.4 493.452 495.27 493.159 496.213C492.865 497.156 492.774 498.15 492.891 499.131C493.007 500.112 493.329 501.057 493.835 501.905C495.895 505.533 500.733 507.348 504.65 507.924Z" fill="black"/>
<path d="M606.501 480.074C606.587 480.074 608.388 473.148 608.46 472.687C609.18 467.445 607.509 456.847 602.167 454.269C601.266 453.865 600.29 453.656 599.303 453.654C598.316 453.652 597.34 453.858 596.438 454.259C595.536 454.66 594.728 455.246 594.068 455.98C593.407 456.714 592.909 457.578 592.605 458.517C591.165 462.449 592.98 467.287 595.14 470.613C597.732 474.458 606.487 480.074 606.501 480.074Z" fill="#263238"/>
</svg>
