<svg width="510" height="536" viewBox="0 0 510 536" fill="none" xmlns="http://www.w3.org/2000/svg">
<path d="M106.914 122.976C96.01 122.976 85.553 118.645 77.843 110.935C70.133 103.225 65.8015 92.7675 65.8015 81.864C65.8015 70.9604 70.133 60.5034 77.843 52.7934C85.553 45.0834 96.01 40.752 106.914 40.752C117.817 40.752 128.274 45.0834 135.984 52.7934C143.694 60.5034 148.026 70.9604 148.026 81.864C148.026 92.7675 143.694 103.225 135.984 110.935C128.274 118.645 117.817 122.976 106.914 122.976Z" fill="#09FF4F"/>
<path d="M96.7735 72.708H88.2655V100.2H96.7735V72.708Z" fill="white"/>
<path d="M92.4775 69.1081C93.4835 69.1176 94.4695 68.828 95.3106 68.276C96.1516 67.7241 96.8097 66.9347 97.2012 66.0081C97.5928 65.0814 97.7002 64.0593 97.5098 63.0715C97.3194 62.0838 96.8398 61.1748 96.1318 60.4601C95.4239 59.7454 94.5195 59.2572 93.5336 59.0574C92.5477 58.8576 91.5246 58.9553 90.5943 59.338C89.664 59.7208 88.8684 60.3713 88.3084 61.2071C87.7485 62.0428 87.4496 63.0261 87.4495 64.0321C87.4463 65.371 87.9735 66.6567 88.9158 67.6079C89.858 68.5592 91.1387 69.0986 92.4775 69.1081Z" fill="white"/>
<path d="M110.382 85.764C110.382 81.9 112.158 79.596 115.566 79.596C118.686 79.596 120.198 81.804 120.198 85.764V100.164H128.658V82.788C128.658 75.42 124.494 71.868 118.662 71.868C117.008 71.8467 115.376 72.2531 113.925 73.0478C112.475 73.8425 111.254 74.9986 110.382 76.404V72.708H102.21V100.188H110.382V85.764Z" fill="white"/>
<path d="M162.006 0L167.634 10.284L177.93 15.924L167.634 21.552L162.006 31.836L156.378 21.552L146.082 15.924L156.378 10.284L162.006 0Z" fill="#F5F5F5"/>
<path d="M396.786 278.856L401.01 286.584L408.726 290.796L401.01 295.02L396.786 302.748L392.562 295.02L384.846 290.796L392.562 286.584L396.786 278.856Z" fill="#EBEBEB"/>
<path d="M408.726 240.744L410.634 244.224L414.114 246.132L410.634 248.04L408.726 251.52L406.83 248.04L403.338 246.132L406.83 244.224L408.726 240.744Z" fill="#09FF4F"/>
<path d="M121.794 3.86401L123.702 7.35601L127.182 9.25201L123.702 11.16L121.794 14.64L119.898 11.16L116.406 9.25201L119.898 7.35601L121.794 3.86401Z" fill="#09FF4F"/>
<path d="M26.2975 327.444C28.5117 326.429 30.3803 324.789 31.6726 322.725C32.965 320.66 33.6244 318.263 33.5695 315.828C33.5695 308.952 28.2295 303.432 21.7855 303.48C15.3415 303.528 10.1695 309.156 10.2295 316.032C10.2121 318.487 10.9234 320.892 12.2735 322.943C13.6235 324.993 15.5515 326.597 17.8135 327.552C-0.114459 330.492 0.941538 350.004 0.941538 350.004L43.4095 349.644C43.4095 349.644 44.1415 329.904 26.2975 327.444Z" fill="#09FF4F"/>
<path d="M433.71 456.06C433.41 454.52 432.574 453.138 431.349 452.158C430.125 451.179 428.592 450.666 427.024 450.712C425.457 450.758 423.957 451.36 422.792 452.41C421.627 453.46 420.874 454.89 420.665 456.444C420.448 454.892 419.685 453.468 418.515 452.426C417.345 451.384 415.843 450.791 414.276 450.753C412.709 450.716 411.18 451.236 409.961 452.221C408.743 453.206 407.913 454.592 407.621 456.132C407.308 458.407 407.884 460.715 409.229 462.576C410.562 464.41 412.127 466.064 413.885 467.496C416.285 469.62 418.458 471.6 420.834 473.712C423.234 471.576 425.189 469.572 427.541 467.436C429.293 465.989 430.846 464.319 432.162 462.468C433.475 460.607 434.029 458.315 433.71 456.06Z" fill="#09FF4F"/>
<path d="M461.37 203.112L465.918 202.212L473.118 186.396L471.318 177.312C471.318 177.312 478.266 175.488 479.802 187.548C481.338 199.608 481.626 196.404 481.626 196.404C481.626 196.404 496.566 193.5 498.066 194.544C499.158 195.312 502.506 210.072 504.258 218.088C504.742 220.009 504.57 222.038 503.767 223.85C502.965 225.661 501.578 227.152 499.83 228.084C499.331 228.329 498.803 228.507 498.258 228.612C494.538 229.356 474.906 230.1 474.906 230.1L467.046 231.66L461.37 203.112Z" fill="#09FF4F"/>
<path d="M447.846 203.196L456.81 233.772L464.61 232.224L458.562 201.732L447.846 203.196Z" fill="#09FF4F"/>
<path d="M415.458 191.112C403.828 196.765 390.429 197.568 378.208 193.344C365.987 189.12 355.943 180.215 350.286 168.588C344.633 156.958 343.83 143.56 348.054 131.338C352.278 119.117 361.182 109.074 372.81 103.416C378.568 100.615 384.821 98.9765 391.213 98.5928C397.604 98.209 404.009 99.0881 410.061 101.18C416.113 103.271 421.693 106.534 426.484 110.783C431.275 115.031 435.181 120.182 437.982 125.94C440.782 131.698 442.421 137.952 442.805 144.343C443.189 150.735 442.31 157.139 440.218 163.191C438.126 169.243 434.863 174.824 430.615 179.614C426.366 184.405 421.216 188.312 415.458 191.112Z" fill="#09FF4F"/>
<path d="M382.086 158.16C382.264 158.156 382.44 158.112 382.599 158.031C382.759 157.951 382.898 157.835 383.008 157.694C383.117 157.552 383.193 157.388 383.231 157.214C383.268 157.039 383.267 156.858 383.226 156.684C383.106 156.096 382.782 154.608 382.662 153.996C382.494 153.144 382.29 152.916 381.462 152.532C379.311 151.544 377.602 149.796 376.662 147.624C372.99 140.064 375.354 130.548 384.426 126.144C392.454 122.232 399.258 124.944 402.426 131.544C406.614 140.172 406.338 149.304 400.674 152.064C399.967 152.453 399.18 152.67 398.374 152.699C397.569 152.728 396.768 152.567 396.036 152.229C395.304 151.892 394.662 151.387 394.16 150.756C393.659 150.125 393.313 149.385 393.15 148.596C392.214 144.372 391.95 139.44 390.63 136.704C389.43 134.304 387.126 132.852 384.414 134.172C381.21 135.732 380.25 140.292 382.41 144.72C383.18 146.358 384.288 147.814 385.662 148.992C385.662 148.992 389.142 164.448 389.742 167.16C390.942 172.548 394.806 177.96 395.178 178.572C395.231 178.64 395.302 178.691 395.383 178.721C395.464 178.75 395.552 178.755 395.636 178.736C395.721 178.717 395.798 178.675 395.859 178.614C395.92 178.553 395.962 178.476 395.982 178.392C396.09 177.864 397.614 171.312 396.618 165.984C396.342 164.472 394.722 156.732 394.722 156.732C396.726 158.208 400.614 158.484 403.842 156.912C413.442 152.232 415.722 140.292 410.01 128.556C405.702 119.688 394.158 115.08 382.746 120.636C368.526 127.548 366.318 141.216 370.446 149.712C372.942 154.86 377.082 158.532 382.086 158.16Z" fill="white"/>
<path d="M464.142 328.644C460.015 327.07 456.238 324.698 453.029 321.664C449.82 318.629 447.24 314.992 445.438 310.959C443.636 306.927 442.646 302.579 442.526 298.163C442.406 293.748 443.157 289.352 444.738 285.228C446.31 281.101 448.681 277.325 451.714 274.116C454.747 270.906 458.383 268.326 462.415 266.522C466.446 264.719 470.793 263.728 475.207 263.606C479.622 263.484 484.017 264.234 488.142 265.812C492.268 267.386 496.045 269.758 499.254 272.792C502.463 275.827 505.043 279.464 506.845 283.497C508.647 287.529 509.637 291.878 509.757 296.293C509.877 300.708 509.126 305.104 507.546 309.228C505.973 313.355 503.602 317.131 500.569 320.34C497.536 323.55 493.9 326.13 489.868 327.934C485.837 329.737 481.49 330.728 477.076 330.85C472.661 330.972 468.266 330.222 464.142 328.644Z" fill="#09FF4F"/>
<path fill-rule="evenodd" clip-rule="evenodd" d="M493.71 302.94C495.209 298.529 494.951 293.709 492.988 289.484C491.026 285.258 487.51 281.952 483.172 280.252C478.834 278.552 474.008 278.589 469.697 280.356C465.386 282.124 461.922 285.484 460.026 289.74C459.918 289.98 459.822 290.232 459.726 290.472C458.551 293.529 458.244 296.851 458.838 300.072L452.346 307.908L462.858 308.508C464.884 310.904 467.497 312.732 470.443 313.813C473.388 314.894 476.564 315.192 479.659 314.677C482.753 314.161 485.661 312.85 488.097 310.873C490.533 308.895 492.413 306.319 493.554 303.396C493.614 303.247 493.666 303.095 493.71 302.94ZM471.246 311.016C468.464 309.96 466.055 308.107 464.322 305.688L458.19 305.34L461.97 300.78C461.122 297.708 461.278 294.445 462.414 291.468C462.594 291.012 462.798 290.556 463.014 290.124C464.723 286.738 467.635 284.111 471.179 282.759C474.724 281.407 478.645 281.426 482.176 282.813C485.706 284.2 488.592 286.855 490.268 290.258C491.944 293.661 492.29 297.567 491.238 301.212C491.13 301.596 491.01 301.968 490.866 302.34C489.412 306.09 486.529 309.111 482.851 310.737C479.172 312.364 474.998 312.464 471.246 311.016Z" fill="white"/>
<path fill-rule="evenodd" clip-rule="evenodd" d="M483.102 303.252C482.754 302.892 481.11 301.116 480.774 300.852C480.438 300.588 480.198 300.396 479.766 300.708C479.334 301.02 478.17 301.632 477.834 301.812C477.498 301.992 477.234 301.932 476.898 301.572C475.859 300.621 474.994 299.496 474.342 298.248C473.759 297.075 473.355 295.821 473.142 294.528C473.07 294.024 473.358 293.88 473.646 293.76C473.934 293.64 474.246 293.436 474.546 293.28L474.774 293.136C474.931 293.015 475.079 292.882 475.218 292.74C475.32 292.651 475.397 292.536 475.441 292.408C475.485 292.279 475.495 292.142 475.47 292.008C475.47 291.768 475.386 289.416 475.35 288.468C475.314 287.52 474.918 287.52 474.678 287.424C474.438 287.328 474.174 287.184 473.898 287.088C473.685 287.012 473.46 286.98 473.235 286.994C473.01 287.009 472.79 287.069 472.59 287.172C471.955 287.438 471.382 287.832 470.907 288.33C470.432 288.827 470.065 289.418 469.83 290.064C469.655 290.539 469.546 291.036 469.506 291.54C469.437 292.694 469.571 293.852 469.902 294.96C470.01 295.308 471.03 300.612 474.606 303.876C478.182 307.14 478.41 306.588 479.202 306.804C479.83 306.927 480.478 306.911 481.1 306.757C481.721 306.604 482.302 306.317 482.802 305.916C483.312 305.409 483.659 304.762 483.798 304.056C483.666 303.828 483.438 303.612 483.102 303.252Z" fill="white"/>
<path d="M26.8975 173.22C20.0963 173.22 13.5737 170.518 8.76449 165.709C3.95531 160.9 1.25354 154.377 1.25354 147.576C1.25354 140.775 3.95531 134.252 8.76449 129.443C13.5737 124.634 20.0963 121.932 26.8975 121.932C30.2652 121.932 33.5998 122.595 36.7111 123.884C39.8224 125.173 42.6493 127.062 45.0306 129.443C47.4119 131.824 49.3008 134.651 50.5895 137.763C51.8782 140.874 52.5415 144.209 52.5415 147.576C52.5415 150.944 51.8782 154.278 50.5895 157.39C49.3008 160.501 47.4119 163.328 45.0306 165.709C42.6493 168.09 39.8224 169.979 36.7111 171.268C33.5998 172.557 30.2652 173.22 26.8975 173.22Z" fill="#09FF4F"/>
<path d="M13.2415 156.132C15.7044 157.703 18.5512 158.568 21.4717 158.633C24.3923 158.698 27.2746 157.959 29.8046 156.499C32.3346 155.038 34.4151 152.911 35.8196 150.35C37.2241 147.788 37.8985 144.89 37.7695 141.972C38.8536 141.185 39.7917 140.214 40.5415 139.104C39.5142 139.555 38.4269 139.854 37.3135 139.992C38.4871 139.306 39.3735 138.22 39.8095 136.932C38.6988 137.593 37.4801 138.052 36.2095 138.288C35.3679 137.367 34.2438 136.753 33.0145 136.542C31.7852 136.331 30.5206 136.536 29.4202 137.123C28.3199 137.71 27.4463 138.647 26.9374 139.786C26.4285 140.925 26.3131 142.2 26.6095 143.412C24.3799 143.297 22.1992 142.716 20.2086 141.705C18.2179 140.694 16.4617 139.277 15.0535 137.544C14.34 138.78 14.1228 140.241 14.4459 141.631C14.7689 143.022 15.6081 144.237 16.7935 145.032C15.9018 145.009 15.0288 144.77 14.2495 144.336C14.2347 145.643 14.6759 146.914 15.4973 147.93C16.3187 148.946 17.4688 149.644 18.7495 149.904C17.9239 150.129 17.0578 150.162 16.2175 150C16.5768 151.112 17.2739 152.084 18.2117 152.781C19.1495 153.478 20.2814 153.865 21.4495 153.888C19.112 155.68 16.1657 156.486 13.2415 156.132Z" fill="white"/>
<path d="M72.9415 460.464C61.553 463.169 49.5564 461.241 39.5883 455.105C29.6202 448.969 22.4961 439.127 19.7815 427.74C18.4357 422.095 18.2157 416.241 19.1341 410.511C20.0524 404.781 22.0911 399.288 25.1336 394.346C28.1761 389.405 32.1627 385.111 36.8656 381.712C41.5684 378.312 46.8953 375.872 52.5415 374.532C58.1831 373.188 64.0343 372.968 69.761 373.884C75.4877 374.801 80.9777 376.837 85.9175 379.876C90.8573 382.915 95.1501 386.897 98.5509 391.595C101.952 396.293 104.394 401.614 105.738 407.256C107.083 412.904 107.301 418.761 106.381 424.493C105.46 430.224 103.418 435.719 100.372 440.66C97.3261 445.602 93.3354 449.895 88.6286 453.293C83.9217 456.692 78.5911 459.128 72.9415 460.464Z" fill="#455A64"/>
<path d="M58.1455 398.196C64.4335 396.696 65.1895 396.54 67.7455 396.06C69.2413 395.724 70.7837 395.647 72.3055 395.832C73.4195 395.967 74.4895 396.348 75.4375 396.948C76.3943 397.529 77.2132 398.311 77.8375 399.24C78.6868 400.517 79.3118 401.929 79.6855 403.416C80.3935 405.876 80.5975 406.62 82.0855 412.908C83.5735 419.196 83.7295 419.952 84.2095 422.508C84.5518 424.003 84.629 425.546 84.4375 427.068C84.315 428.185 83.9328 429.257 83.3215 430.2C82.7485 431.159 81.9698 431.979 81.0415 432.6C79.7602 433.449 78.3441 434.073 76.8535 434.448C74.4535 435.156 73.6615 435.36 67.3735 436.848C61.0855 438.336 60.3295 438.504 57.7735 438.984C56.2744 439.326 54.7272 439.403 53.2015 439.212C52.0867 439.081 51.016 438.699 50.0695 438.096C49.1223 437.497 48.3257 436.688 47.7415 435.732C46.8847 434.458 46.2553 433.045 45.8815 431.556C45.1855 429.096 44.9815 428.364 43.4815 422.076C41.9815 415.788 41.8255 415.032 41.3455 412.476C41.016 410.975 40.9389 409.43 41.1175 407.904C41.2651 406.794 41.6448 405.728 42.232 404.775C42.8192 403.822 43.6007 403.003 44.5255 402.372C45.8008 401.517 47.2133 400.888 48.7015 400.512C51.1015 399.816 51.9055 399.612 58.1935 398.112M57.1855 393.864C50.7895 395.388 49.9855 395.604 47.5015 396.324C45.5579 396.806 43.7112 397.618 42.0415 398.724C40.625 399.703 39.4274 400.966 38.5247 402.433C37.622 403.9 37.0338 405.538 36.7975 407.244C36.5454 409.244 36.6347 411.273 37.0615 413.244C37.5535 415.776 37.7095 416.592 39.2335 422.988C40.7575 429.384 40.9735 430.188 41.6335 432.66C42.1136 434.604 42.9255 436.451 44.0335 438.12C45.01 439.589 46.3012 440.823 47.8135 441.732C49.2688 442.648 50.9073 443.234 52.6135 443.448C54.614 443.701 56.6431 443.612 58.6135 443.184C61.1455 442.704 61.9615 442.536 68.3575 441.012C74.7535 439.488 75.5575 439.272 78.0295 438.612C79.9703 438.121 81.8157 437.31 83.4895 436.212C84.9207 435.247 86.1246 433.981 87.0175 432.504C87.9286 431.045 88.5177 429.409 88.7455 427.704C88.9939 425.703 88.9006 423.674 88.4695 421.704C87.9895 419.16 87.8215 418.356 86.2975 411.96C84.7735 405.564 84.5575 404.76 83.8975 402.276C83.4046 400.336 82.5936 398.491 81.4975 396.816C80.5318 395.388 79.2664 394.188 77.7895 393.3C76.3365 392.377 74.6973 391.787 72.9895 391.572C70.9891 391.318 68.96 391.408 66.9895 391.836C64.4455 392.328 63.6415 392.484 57.2455 394.008" fill="white"/>
<path d="M59.8615 405.408C57.4698 405.978 55.3008 407.244 53.6288 409.047C51.9567 410.849 50.8566 413.107 50.4677 415.535C50.0787 417.962 50.4183 420.451 51.4435 422.685C52.4688 424.92 54.1336 426.801 56.2275 428.089C58.3214 429.378 60.7504 430.017 63.2073 429.925C65.6643 429.833 68.0388 429.015 70.0307 427.573C72.0226 426.132 73.5425 424.133 74.398 421.828C75.2536 419.523 75.4066 417.016 74.8375 414.624C74.0713 411.417 72.0639 408.646 69.2561 406.918C66.4482 405.19 63.0694 404.647 59.8615 405.408ZM64.6615 425.364C63.1077 425.731 61.48 425.629 59.984 425.071C58.488 424.513 57.191 423.525 56.2567 422.23C55.3224 420.935 54.7928 419.393 54.7348 417.797C54.6769 416.202 55.0931 414.625 55.931 413.266C56.7689 411.907 57.9908 410.827 59.4424 410.162C60.8939 409.497 62.51 409.277 64.0863 409.53C65.6627 409.784 67.1286 410.498 68.299 411.584C69.4693 412.67 70.2914 414.079 70.6615 415.632C70.9077 416.665 70.9477 417.736 70.7793 418.785C70.6109 419.833 70.2373 420.838 69.68 421.742C69.1227 422.646 68.3926 423.432 67.5314 424.053C66.6703 424.674 65.6951 425.12 64.6615 425.364Z" fill="white"/>
<path d="M75.1495 401.268C75.2807 401.826 75.2435 402.411 75.0426 402.949C74.8416 403.486 74.486 403.952 74.0205 404.288C73.555 404.623 73.0006 404.813 72.4271 404.834C71.8537 404.855 71.287 404.705 70.7986 404.404C70.3101 404.103 69.9218 403.664 69.6827 403.142C69.4436 402.621 69.3643 402.04 69.4549 401.473C69.5455 400.907 69.8019 400.38 70.1918 399.959C70.5817 399.538 71.0875 399.242 71.6455 399.108C72.0175 399.017 72.4039 399.001 72.7821 399.061C73.1604 399.12 73.523 399.255 73.849 399.456C74.1749 399.656 74.4578 399.92 74.681 400.231C74.9043 400.542 75.0635 400.895 75.1495 401.268Z" fill="white"/>
<path d="M407.514 421.596C404.808 421.598 402.129 421.066 399.63 420.032C397.13 418.998 394.858 417.481 392.945 415.569C391.032 413.657 389.514 411.386 388.478 408.887C387.443 406.388 386.91 403.709 386.91 401.004C386.91 398.299 387.443 395.62 388.478 393.121C389.514 390.622 391.032 388.351 392.945 386.439C394.858 384.527 397.13 383.01 399.63 381.976C402.129 380.942 404.808 380.411 407.514 380.412C410.221 380.407 412.902 380.937 415.405 381.969C417.907 383.002 420.182 384.518 422.098 386.431C424.014 388.343 425.534 390.615 426.571 393.116C427.608 395.616 428.142 398.297 428.142 401.004C428.142 403.711 427.608 406.392 426.571 408.893C425.534 411.393 424.014 413.665 422.098 415.578C420.182 417.49 417.907 419.006 415.405 420.039C412.902 421.072 410.221 421.601 407.514 421.596Z" fill="#455A64"/>
<path d="M404.37 413.448H409.386V400.932H412.878L413.262 396.732H409.386V394.332C409.386 393.348 409.59 392.952 410.586 392.952H413.31V388.584H409.83C406.098 388.584 404.418 390.228 404.418 393.384V396.744H401.742V400.932H404.346L404.37 413.448Z" fill="white"/>
<path d="M337.266 535.392L171.798 535.332C162.25 535.332 153.093 531.539 146.342 524.788C139.59 518.036 135.798 508.88 135.798 499.332L135.87 84.5159C135.87 79.7823 136.803 75.0951 138.617 70.7227C140.43 66.3503 143.089 62.3785 146.439 59.0346C149.79 55.6908 153.767 53.0405 158.143 51.2356C162.519 49.4307 167.208 48.5065 171.942 48.5159L337.398 48.6119C346.945 48.6119 356.102 52.4048 362.853 59.1561C369.605 65.9074 373.398 75.0641 373.398 84.6119L373.326 499.332C373.333 504.07 372.406 508.762 370.597 513.141C368.787 517.519 366.132 521.498 362.781 524.848C359.431 528.198 355.453 530.854 351.074 532.663C346.696 534.472 342.003 535.4 337.266 535.392Z" fill="#263238"/>
<path d="M337.218 63.1558H305.13C303.024 63.2062 301.023 64.0873 299.564 65.607C298.105 67.1266 297.306 69.1615 297.342 71.2679V77.0878C297.365 78.1337 297.183 79.174 296.804 80.1492C296.426 81.1244 295.858 82.0154 295.135 82.7711C294.412 83.5268 293.546 84.1324 292.588 84.5533C291.631 84.9742 290.599 85.202 289.554 85.2239H227.022C225.975 85.2005 224.944 84.9712 223.986 84.549C223.028 84.1268 222.163 83.5201 221.439 82.7634C220.716 82.0067 220.149 81.115 219.771 80.1391C219.392 79.1632 219.21 78.1223 219.234 77.0759V71.2199C219.275 69.1083 218.48 67.0659 217.02 65.5392C215.561 64.0124 213.557 63.1253 211.446 63.0718H200.142H172.074C168.759 63.064 165.476 63.71 162.411 64.9728C159.347 66.2357 156.562 68.0907 154.216 70.4315C151.869 72.7723 150.008 75.553 148.738 78.6144C147.467 81.6757 146.814 84.9575 146.814 88.2718L146.73 493.164C146.73 499.847 149.385 506.257 154.11 510.983C158.836 515.709 165.246 518.364 171.93 518.364L337.074 518.46C340.383 518.46 343.66 517.808 346.717 516.542C349.775 515.275 352.553 513.419 354.893 511.079C357.233 508.739 359.089 505.961 360.355 502.903C361.622 499.846 362.274 496.569 362.274 493.26L362.358 88.3558C362.358 81.6828 359.711 75.2821 354.998 70.5579C350.285 65.8337 343.891 63.1717 337.218 63.1558Z" fill="white"/>
<path d="M339.63 96.0478C339.63 96.1558 335.454 96.2758 330.318 96.3118C325.182 96.3478 320.994 96.3118 320.994 96.2038C320.994 96.0958 325.158 95.9638 330.306 95.9278C335.454 95.8918 339.63 95.9398 339.63 96.0478Z" fill="#263238"/>
<path d="M339.666 100.812C339.666 100.92 335.502 101.04 330.354 101.088C325.206 101.136 321.03 101.088 321.03 100.968C321.03 100.848 325.206 100.74 330.354 100.692C335.502 100.644 339.666 100.704 339.666 100.812Z" fill="#263238"/>
<path d="M339.714 105.576C339.714 105.684 335.538 105.816 330.39 105.852C325.242 105.888 321.078 105.852 321.066 105.732C321.054 105.612 325.242 105.504 330.39 105.456C335.538 105.408 339.714 105.468 339.714 105.576Z" fill="#263238"/>
<path d="M164.142 110.232H164.634H165.99L171.006 110.112L170.862 110.244C170.862 109.14 170.862 107.928 170.802 106.644C170.802 105.972 170.802 105.336 170.802 104.556C170.881 104.153 171.086 103.785 171.388 103.507C171.69 103.229 172.073 103.054 172.482 103.008C173.298 103.008 174.006 103.008 174.882 103.008C175.34 103.082 175.758 103.317 176.059 103.671C176.36 104.025 176.526 104.475 176.526 104.94C176.526 106.644 176.526 108.408 176.586 110.244L176.358 110.016H182.682L182.442 110.256C182.442 107.712 182.442 105.072 182.37 102.372C182.37 101.7 182.37 101.04 182.37 100.368C182.342 100.069 182.248 99.7804 182.095 99.5229C181.941 99.2654 181.731 99.0456 181.482 98.8798L178.722 96.1438L176.046 93.5158L174.762 92.2438C174.318 91.8118 173.97 91.3678 173.454 91.2598C173.206 91.1948 172.948 91.1858 172.696 91.2335C172.445 91.2813 172.208 91.3846 172.002 91.5358C171.618 91.8598 171.21 92.3158 170.802 92.7358L168.522 95.0278C167.094 96.5038 165.606 97.8598 164.526 99.1438C164.205 99.9005 164.097 100.73 164.214 101.544C164.214 102.324 164.214 103.068 164.214 103.764C164.214 105.132 164.214 106.332 164.214 107.364C164.214 108.396 164.214 109.032 164.214 109.656C164.231 109.932 164.231 110.208 164.214 110.484C164.2 110.232 164.2 109.98 164.214 109.728C164.214 109.116 164.214 108.36 164.214 107.46C164.214 106.56 164.214 105.216 164.13 103.86C164.13 103.14 164.13 102.384 164.13 101.58C164.13 101.172 164.13 100.764 164.13 100.38C164.127 99.9168 164.247 99.4613 164.478 99.0598C165.678 97.6318 167.046 96.3598 168.486 94.8358L170.742 92.5198C171.15 92.1238 171.474 91.7278 171.942 91.3198C172.2 91.1232 172.499 90.9876 172.817 90.9231C173.135 90.8587 173.463 90.8672 173.778 90.9478C174.375 91.1672 174.902 91.5446 175.302 92.0398L176.598 93.3118L179.274 95.9398L182.046 98.6518C182.305 98.8849 182.542 99.1421 182.754 99.4198C182.961 99.7383 183.077 100.108 183.09 100.488C183.09 101.16 183.09 101.832 183.09 102.504C183.09 105.204 183.09 107.844 183.15 110.388V110.628H182.91H176.586H176.142V110.4C176.142 108.564 176.142 106.8 176.142 105.096C176.149 104.73 176.025 104.373 175.792 104.091C175.558 103.809 175.231 103.62 174.87 103.56C174.138 103.56 173.274 103.56 172.566 103.56C172.242 103.592 171.937 103.726 171.694 103.941C171.45 104.156 171.281 104.443 171.21 104.76C171.21 105.396 171.21 106.128 171.21 106.776C171.21 108.084 171.21 109.308 171.21 110.376V110.52H171.066H165.966H164.634C164.46 110.441 164.295 110.345 164.142 110.232Z" fill="#263238"/>
<path d="M273.342 426.624C272.766 426.714 272.184 426.755 271.602 426.744L266.874 426.84C262.89 426.9 257.37 426.936 251.274 426.936C245.178 426.936 239.658 426.936 235.674 426.84L230.946 426.744C230.363 426.754 229.781 426.714 229.206 426.624C229.78 426.527 230.363 426.487 230.946 426.504L235.674 426.396C239.658 426.396 245.178 426.312 251.274 426.312C257.37 426.312 262.878 426.312 266.874 426.396L271.602 426.504C272.184 426.486 272.767 426.526 273.342 426.624Z" fill="#455A64"/>
<path d="M342.666 437.472C342.666 437.652 317.262 437.784 285.93 437.784C254.598 437.784 229.194 437.652 229.194 437.472C229.194 437.292 254.598 437.16 285.93 437.16C317.262 437.16 342.666 437.304 342.666 437.472Z" fill="#455A64"/>
<path d="M307.206 447.732C307.206 447.912 289.746 448.044 268.206 448.044C246.666 448.044 229.194 447.912 229.194 447.732C229.194 447.552 246.654 447.42 268.206 447.42C289.758 447.42 307.206 447.516 307.206 447.732Z" fill="#455A64"/>
<path d="M344.91 467.568L341.382 464.028L338.022 467.376V457.248H344.898L344.91 467.568ZM341.382 463.584L341.49 463.692L344.598 466.812V457.572H338.346V466.632L341.382 463.584Z" fill="#263238"/>
<path d="M251.034 466.248L249.834 465.696C249.117 466.033 248.301 466.091 247.544 465.858C246.787 465.625 246.144 465.118 245.742 464.436C245.339 463.754 245.205 462.947 245.366 462.171C245.527 461.396 245.972 460.709 246.613 460.244C247.254 459.779 248.046 459.57 248.833 459.658C249.62 459.746 250.345 460.124 250.868 460.719C251.391 461.314 251.673 462.082 251.659 462.874C251.645 463.666 251.337 464.424 250.794 465L251.034 466.248ZM248.142 459.504C247.321 459.561 246.553 459.929 245.995 460.533C245.437 461.137 245.13 461.932 245.138 462.754C245.146 463.577 245.467 464.365 246.036 464.959C246.606 465.552 247.38 465.906 248.202 465.948C248.749 465.91 249.28 465.741 249.75 465.456L250.674 465.864L250.458 464.964C250.881 464.502 251.16 463.926 251.26 463.308C251.361 462.69 251.279 462.055 251.024 461.483C250.769 460.911 250.352 460.426 249.825 460.087C249.298 459.748 248.684 459.57 248.058 459.576L248.142 459.504Z" fill="#263238"/>
<path d="M259.026 465.732L257.61 462.252L254.934 459.852H261.414L259.026 465.732ZM255.534 460.056L257.814 462.144L259.014 465.108L261.054 460.008L255.534 460.056Z" fill="#263238"/>
<path d="M261.278 459.774L257.738 462.077L257.868 462.278L261.409 459.975L261.278 459.774Z" fill="#263238"/>
<path d="M240.822 460.524C240.726 460.061 240.47 459.647 240.099 459.354C239.727 459.062 239.264 458.91 238.792 458.926C238.319 458.942 237.868 459.124 237.517 459.44C237.166 459.757 236.938 460.187 236.874 460.656C236.809 460.182 236.577 459.747 236.219 459.429C235.862 459.111 235.403 458.932 234.924 458.923C234.446 458.914 233.981 459.077 233.612 459.382C233.243 459.686 232.995 460.113 232.914 460.584C232.821 461.275 232.997 461.975 233.406 462.54C233.811 463.095 234.287 463.595 234.822 464.028C235.554 464.664 236.214 465.228 236.934 465.9C237.654 465.252 238.254 464.64 238.974 463.992C239.501 463.55 239.969 463.042 240.366 462.48C240.767 461.912 240.931 461.21 240.822 460.524Z" fill="#09FF4F"/>
<path d="M352.134 476.532C352.134 476.532 352.134 476.136 352.134 475.404C352.134 474.672 352.134 473.556 352.134 472.116C352.134 469.224 352.134 464.916 352.074 459.444C352.074 448.416 352.014 432.372 351.966 412.248L352.17 412.452L160.278 412.56L160.59 412.248C160.59 434.592 160.59 456.252 160.59 476.532L160.29 476.232L297.606 476.364L337.686 476.448H348.486H351.27H352.23H351.306H348.558H337.866L297.846 476.532L160.326 476.676H160.014V476.532C160.014 456.252 160.014 434.592 160.014 412.248V411.936H160.35L352.242 412.044H352.446V412.248C352.446 432.42 352.362 448.512 352.338 459.576C352.338 465.072 352.338 469.308 352.338 472.2C352.338 473.616 352.338 474.696 352.338 475.44C352.338 476.184 352.134 476.532 352.134 476.532Z" fill="#263238"/>
<path d="M168.224 422.996L167.979 465.499L221.138 465.805L221.383 423.302L168.224 422.996Z" fill="#EBEBEB"/>
<path d="M221.37 423.276H220.35H217.446H206.538L168.138 423.192L168.426 422.916C168.366 435.576 168.294 450.072 168.222 465.408C168.282 465.492 167.634 464.82 167.91 465.096H171.57H175.17H182.37L196.17 465.18L221.058 465.36L220.806 465.624C220.926 452.856 221.034 442.272 221.118 434.832C221.118 431.136 221.202 428.232 221.226 426.204C221.226 425.232 221.226 424.476 221.226 423.924C221.226 423.372 221.226 423.12 221.226 423.12C221.226 423.12 221.226 423.36 221.226 423.864C221.226 424.368 221.226 425.148 221.226 426.108C221.226 428.112 221.226 431.004 221.226 434.676C221.226 442.152 221.226 452.796 221.226 465.624V465.876H220.962L196.074 465.78L182.274 465.708H175.074H171.474H167.814L167.49 465.384C167.598 450.036 167.682 435.54 167.766 422.892V422.604H168.054L206.574 422.952L217.374 423.096H220.218H220.938L221.37 423.276Z" fill="#263238"/>
<path d="M170.044 425.683L169.83 462.834L219.258 463.119L219.472 425.967L170.044 425.683Z" fill="#E0E0E0"/>
<path d="M169.806 462.804L187.206 439.812L197.814 454.32L205.11 446.64L219.234 463.092L169.806 462.804Z" fill="#F5F5F5"/>
<path d="M202.458 437.076C202.455 437.848 202.224 438.602 201.793 439.242C201.362 439.882 200.75 440.38 200.036 440.673C199.322 440.966 198.537 441.04 197.78 440.886C197.024 440.732 196.33 440.357 195.787 439.809C195.244 439.261 194.876 438.564 194.729 437.806C194.582 437.048 194.663 436.264 194.963 435.552C195.262 434.841 195.765 434.234 196.41 433.809C197.054 433.384 197.81 433.159 198.582 433.164C199.093 433.166 199.599 433.268 200.071 433.466C200.543 433.663 200.971 433.952 201.332 434.316C201.692 434.679 201.976 435.11 202.17 435.584C202.363 436.057 202.461 436.565 202.458 437.076Z" fill="#F5F5F5"/>
<path d="M257.85 147.576C257.659 147.608 257.464 147.608 257.274 147.576L255.654 147.636L249.654 147.744C244.602 147.744 237.654 147.828 229.902 147.828C222.15 147.828 215.202 147.828 210.15 147.744L204.15 147.636L202.518 147.576C202.331 147.609 202.14 147.609 201.954 147.576C202.138 147.53 202.328 147.51 202.518 147.516H204.15L210.15 147.42C215.202 147.36 222.15 147.324 229.902 147.324C237.654 147.324 244.602 147.324 249.654 147.42L255.654 147.516H257.274C257.467 147.511 257.661 147.531 257.85 147.576Z" fill="#263238"/>
<path d="M336.378 382.512L331.146 377.256L326.142 382.236V367.188H336.366L336.378 382.512ZM331.146 376.608L331.302 376.764L335.922 381.396V367.668H326.61V381.132L331.146 376.608Z" fill="#263238"/>
<path d="M203.346 380.928L200.946 379.836C199.548 380.486 197.958 380.591 196.487 380.131C195.016 379.672 193.769 378.68 192.991 377.349C192.212 376.019 191.958 374.446 192.277 372.939C192.596 371.431 193.466 370.096 194.717 369.196C195.968 368.295 197.51 367.894 199.041 368.07C200.573 368.246 201.983 368.987 202.997 370.147C204.011 371.308 204.556 372.805 204.525 374.346C204.494 375.887 203.89 377.361 202.83 378.48L203.346 380.928ZM197.622 367.668C196.789 367.675 195.967 367.846 195.201 368.171C194.435 368.496 193.74 368.969 193.157 369.562C192.574 370.155 192.113 370.858 191.801 371.629C191.489 372.401 191.332 373.226 191.34 374.058C191.347 374.89 191.518 375.713 191.843 376.479C192.167 377.245 192.64 377.939 193.234 378.522C193.827 379.106 194.529 379.566 195.301 379.878C196.072 380.19 196.897 380.347 197.73 380.34C198.809 380.275 199.856 379.945 200.778 379.38L200.886 379.32L202.686 380.124L202.278 378.348L202.362 378.264C203.195 377.354 203.744 376.221 203.942 375.003C204.139 373.785 203.976 372.535 203.472 371.409C202.968 370.283 202.146 369.328 201.106 368.664C200.067 367.999 198.855 367.653 197.622 367.668Z" fill="#263238"/>
<path d="M219.09 379.884L216.282 373.032L211.026 368.232L223.794 368.136L219.09 379.884ZM212.214 368.688L216.702 372.804L219.102 378.636L223.11 368.604L212.214 368.688Z" fill="#263238"/>
<path d="M223.54 368.115L216.579 372.644L216.835 373.036L223.795 368.507L223.54 368.115Z" fill="#263238"/>
<path d="M183.258 369.732C183.076 368.813 182.574 367.989 181.842 367.406C181.109 366.823 180.192 366.52 179.257 366.55C178.321 366.58 177.426 366.942 176.732 367.571C176.039 368.2 175.591 369.055 175.47 369.984C175.332 369.059 174.871 368.213 174.168 367.597C173.465 366.98 172.566 366.633 171.631 366.618C170.697 366.602 169.787 366.918 169.063 367.51C168.34 368.103 167.85 368.932 167.682 369.852C167.501 371.209 167.849 372.584 168.654 373.692C169.459 374.785 170.398 375.773 171.45 376.632C172.878 377.832 174.186 379.032 175.614 380.316C177.006 379.044 178.206 377.844 179.61 376.56C180.647 375.687 181.57 374.687 182.358 373.584C183.138 372.462 183.46 371.084 183.258 369.732Z" fill="#09FF4F"/>
<path d="M182.094 156.24C186.879 156.24 190.758 152.361 190.758 147.576C190.758 142.791 186.879 138.912 182.094 138.912C177.309 138.912 173.43 142.791 173.43 147.576C173.43 152.361 177.309 156.24 182.094 156.24Z" fill="#EBEBEB"/>
<path d="M333.114 332.832C333.114 333.012 296.802 333.156 252.018 333.156C207.234 333.156 170.91 333.012 170.91 332.832C170.91 332.652 207.222 332.52 252.018 332.52C296.814 332.52 333.114 332.664 333.114 332.832Z" fill="#455A64"/>
<path d="M333.114 319.332C333.114 319.5 296.802 319.644 252.018 319.644C207.234 319.644 170.91 319.5 170.91 319.332C170.91 319.164 207.222 319.02 252.018 319.02C296.814 319.02 333.114 319.164 333.114 319.332Z" fill="#455A64"/>
<path d="M259.194 346.524C259.194 346.692 239.43 346.836 215.058 346.836C190.686 346.836 170.91 346.692 170.91 346.524C170.91 346.356 190.674 346.212 215.058 346.212C239.442 346.212 259.194 346.356 259.194 346.524Z" fill="#455A64"/>
<path d="M248.31 493.68C248.298 494.362 248.084 495.025 247.696 495.586C247.308 496.147 246.763 496.58 246.129 496.832C245.496 497.084 244.801 497.142 244.134 497C243.467 496.858 242.857 496.522 242.381 496.034C241.905 495.546 241.583 494.928 241.457 494.258C241.332 493.588 241.407 492.895 241.674 492.267C241.941 491.64 242.387 491.105 242.957 490.731C243.528 490.357 244.196 490.16 244.878 490.164C245.334 490.169 245.785 490.264 246.205 490.443C246.625 490.622 247.005 490.883 247.324 491.21C247.642 491.536 247.894 491.923 248.063 492.347C248.232 492.771 248.316 493.224 248.31 493.68Z" fill="#263238"/>
<path d="M258.942 493.728C258.927 494.406 258.713 495.065 258.326 495.623C257.938 496.18 257.395 496.61 256.764 496.859C256.132 497.108 255.442 497.166 254.778 497.024C254.115 496.882 253.508 496.547 253.034 496.062C252.56 495.576 252.24 494.961 252.114 494.294C251.988 493.628 252.062 492.938 252.327 492.314C252.591 491.689 253.034 491.156 253.601 490.782C254.167 490.408 254.831 490.21 255.51 490.212C255.966 490.215 256.418 490.309 256.839 490.488C257.259 490.666 257.64 490.927 257.959 491.254C258.278 491.581 258.53 491.968 258.698 492.392C258.867 492.817 258.95 493.271 258.942 493.728Z" fill="#263238"/>
<path d="M269.658 493.776C269.643 494.454 269.429 495.113 269.042 495.67C268.654 496.227 268.111 496.658 267.48 496.907C266.848 497.156 266.158 497.214 265.494 497.072C264.831 496.93 264.224 496.595 263.75 496.109C263.276 495.624 262.956 495.009 262.83 494.342C262.704 493.675 262.778 492.986 263.043 492.361C263.307 491.736 263.75 491.204 264.317 490.83C264.883 490.456 265.547 490.258 266.226 490.26C266.682 490.264 267.133 490.359 267.553 490.539C267.973 490.718 268.353 490.979 268.672 491.305C268.99 491.632 269.242 492.018 269.411 492.442C269.58 492.866 269.664 493.319 269.658 493.776Z" fill="#263238"/>
<path d="M353.286 164.712H161.37V282.072H353.286V164.712Z" fill="#E0E0E0"/>
<path d="M179.094 282.108L234.078 208.5L268.182 254.532L291.282 229.908L336.606 282.06L179.094 282.108Z" fill="#F5F5F5"/>
<path d="M282.63 199.464C282.632 201.918 281.906 204.319 280.544 206.361C279.182 208.403 277.245 209.995 274.978 210.936C272.711 211.877 270.216 212.124 267.808 211.647C265.401 211.17 263.189 209.989 261.452 208.254C259.716 206.519 258.533 204.308 258.053 201.901C257.573 199.494 257.818 196.998 258.757 194.73C259.696 192.462 261.286 190.524 263.327 189.16C265.368 187.796 267.767 187.068 270.222 187.068C273.51 187.068 276.664 188.373 278.991 190.698C281.318 193.022 282.626 196.175 282.63 199.464Z" fill="#F5F5F5"/>
<path d="M352.77 391.152C352.77 388.644 352.65 282.624 352.482 125.664L352.77 125.952H160.878L161.19 125.64C161.19 224.928 161.19 316.812 161.19 391.128L160.926 390.876L352.842 391.128L160.926 391.392H160.674V391.128C160.674 316.812 160.674 224.928 160.614 125.64V125.328H160.95H352.842H353.13V125.604C353.07 204.168 353.022 270.564 352.986 317.34C352.986 340.692 352.926 359.136 352.914 371.76C352.914 378.048 352.914 382.884 352.914 386.16C352.914 387.78 352.914 389.016 352.914 389.856C352.914 390.696 352.77 391.152 352.77 391.152Z" fill="#263238"/>
<path d="M262.542 424.092L266.79 409.824C267.534 406.728 268.518 403.08 269.838 398.916C271.038 395.172 274.086 391.236 276.87 388.404C281.202 384 283.266 383.976 286.17 381.636C286.434 381.468 286.734 381.216 286.986 381.084C287.535 380.785 288.017 380.377 288.402 379.884C290.91 377.172 288.498 372.96 283.398 373.368C279.57 373.668 273.306 374.76 263.13 385.26C262.998 385.428 262.866 385.56 262.746 385.716C257.406 392.664 252.39 372.84 251.478 365.46C251.301 364.316 250.869 363.227 250.214 362.273C249.559 361.319 248.697 360.524 247.694 359.948C246.69 359.372 245.569 359.029 244.415 358.944C243.261 358.86 242.102 359.036 241.026 359.46L216.234 371.052C213.869 370.366 211.347 370.45 209.034 371.292C207.299 371.901 205.853 373.135 204.979 374.752C204.105 376.37 203.864 378.255 204.306 380.04L214.374 420.132L184.842 518.412H248.502L262.542 424.092Z" fill="#FFBE9D"/>
<path d="M311.502 333.828L291.822 372.396L281.982 369.66L232.542 409.896C230.524 411.547 227.941 412.345 225.344 412.121C222.746 411.897 220.339 410.668 218.634 408.696L199.794 386.82C199.794 386.82 237.774 370.464 244.794 356.928C251.814 343.392 243.702 340.308 243.702 340.308L261.57 320.004L311.502 333.828Z" fill="#09FF4F"/>
<path d="M285.978 255.06C285.978 255.06 257.178 248.688 216.63 209.712C176.082 170.736 157.05 118.932 152.142 119.22C147.234 119.508 125.514 109.416 84.3056 199.044C43.0976 288.672 59.3336 309.444 67.5056 309.324C75.6776 309.204 131.37 293.64 166.146 297.588C200.922 301.536 245.622 319.668 245.622 319.668L285.978 255.06Z" fill="#09FF4F"/>
<path d="M347.166 303.912L337.338 322.596L332.934 330.996C330.027 336.525 325.109 340.728 319.194 342.738C313.279 344.747 306.819 344.41 301.146 341.796L239.406 320.28L275.406 238.2L337.086 271.068C342.76 274.104 347.004 279.261 348.892 285.413C350.78 291.566 350.16 298.215 347.166 303.912Z" fill="#09FF4F"/>
<g opacity="0.4">
<path d="M347.166 303.912L337.338 322.596L332.934 330.996C330.027 336.525 325.109 340.728 319.194 342.738C313.279 344.747 306.819 344.41 301.146 341.796L239.406 320.28L275.406 238.2L337.086 271.068C342.76 274.104 347.004 279.261 348.892 285.413C350.78 291.566 350.16 298.215 347.166 303.912Z" fill="black"/>
</g>
<path d="M87.5935 200.676C65.6695 249.228 56.5375 292.5 67.1935 297.312C77.8495 302.124 104.286 266.676 126.21 218.112C148.134 169.548 157.266 126.3 146.61 121.476C135.954 116.652 109.518 152.124 87.5935 200.676Z" fill="#09FF4F"/>
<g opacity="0.5">
<path d="M87.5935 200.676C65.6695 249.228 56.5375 292.5 67.1935 297.312C77.8495 302.124 104.286 266.676 126.21 218.112C148.134 169.548 157.266 126.3 146.61 121.476C135.954 116.652 109.518 152.124 87.5935 200.676Z" fill="black"/>
</g>
<path d="M352.47 330.912L335.73 325.656L346.086 305.976L358.638 313.776L352.47 330.912Z" fill="#09FF4F"/>
<g opacity="0.6">
<path d="M346.086 305.976L335.73 325.656L339.174 326.736L347.586 306.9L346.086 305.976Z" fill="black"/>
</g>
<path d="M334.542 310.512C334.302 311.052 325.95 307.812 315.894 303.312C305.838 298.812 297.894 294.636 298.122 294.096C298.35 293.556 306.714 296.808 316.782 301.356C326.85 305.904 334.794 309.972 334.542 310.512Z" fill="#09FF4F"/>
<path d="M339.702 298.788C339.438 299.316 331.878 296.136 322.818 291.672C313.758 287.208 306.63 283.164 306.894 282.624C307.158 282.084 314.706 285.276 323.766 289.74C332.826 294.204 339.966 298.248 339.702 298.788Z" fill="#09FF4F"/>
<path d="M328.062 322.812C327.978 323.1 325.986 322.644 322.818 321.612C321.234 321.12 319.35 320.496 317.274 319.788C315.198 319.08 313.074 317.952 310.782 316.908C301.626 312.66 294.63 308.508 294.858 308.004C295.086 307.5 302.61 310.752 311.658 314.964C313.938 315.996 316.05 317.124 318.042 317.952C320.034 318.78 321.822 319.512 323.322 320.184C326.322 321.564 328.146 322.524 328.062 322.812Z" fill="#09FF4F"/>
<path d="M132.294 189.888C132.294 189.888 107.262 174.36 93.5695 208.188C79.8775 242.016 106.206 247.572 106.206 247.572C117.575 229.669 126.358 210.249 132.294 189.888Z" fill="#09FF4F"/>
<g opacity="0.5">
<path d="M158.922 149.568C159.078 149.568 158.718 151.896 157.95 156.036C157.182 160.176 156.03 166.164 154.422 173.532L150.942 185.376C150.31 187.496 149.658 189.692 148.986 191.964L147.966 195.408C147.594 196.608 147.102 197.7 146.67 198.864L141.018 213.456C140.526 214.728 140.022 216 139.53 217.284C139.038 218.568 138.33 219.792 137.766 221.064L134.046 228.744L130.314 236.412C129.678 237.612 129.114 238.956 128.43 240.132C127.746 241.308 127.026 242.532 126.342 243.672L118.362 257.148C117.714 258.204 117.162 259.296 116.442 260.304L114.366 263.244L110.382 268.86L103.182 278.904C98.3815 284.7 94.3735 289.272 91.6135 292.452C90.2579 294.174 88.7607 295.78 87.1375 297.252C88.2657 295.379 89.5503 293.605 90.9775 291.948C93.6415 288.552 97.3975 283.8 102.006 277.956L108.906 267.84L112.77 262.212C113.442 261.252 114.114 260.268 114.798 259.272C115.482 258.276 115.998 257.184 116.658 256.116L124.542 242.652L126.594 239.124C127.302 237.924 127.794 236.724 128.454 235.428L132.15 227.808C133.35 225.228 134.634 222.696 135.858 220.188C136.434 218.988 137.13 217.716 137.61 216.444L139.11 212.652L144.846 198.252C145.29 197.052 145.794 195.984 146.178 194.832C146.562 193.68 146.886 192.552 147.234 191.424L149.274 184.908L152.958 173.208L157.122 155.928C157.539 153.761 158.141 151.633 158.922 149.568Z" fill="black"/>
</g>
<g opacity="0.4">
<path d="M205.77 384.132C208.062 388.284 210.39 392.532 213.762 395.808C217.134 399.084 221.742 401.412 226.542 400.932C231.342 400.452 235.722 396.54 235.77 391.812C238.026 393.504 241.494 392.592 243.366 390.468C245.238 388.344 245.85 385.404 246.066 382.584C249.138 384.396 253.41 382.968 255.462 380.052C256.404 378.533 257 376.825 257.207 375.05C257.415 373.274 257.228 371.475 256.662 369.78C255.492 366.406 253.83 363.224 251.73 360.336C254.13 360.528 256.602 360.696 258.714 359.628C260.826 358.56 262.314 355.752 261.03 353.736C260.186 352.61 258.962 351.83 257.586 351.54C253.878 350.34 251.286 349.452 247.422 349.896C246.534 349.896 248.97 360.072 224.766 373.968C210.402 382.188 205.77 384.132 205.77 384.132Z" fill="black"/>
</g>
<path d="M260.274 398.772C260.274 398.88 258.654 398.568 256.038 398.64C252.638 398.721 249.294 399.524 246.229 400.995C243.163 402.465 240.444 404.571 238.254 407.172C236.562 409.164 235.854 410.616 235.698 410.556C235.797 410.182 235.955 409.825 236.166 409.5C236.679 408.586 237.261 407.711 237.906 406.884C240.063 404.146 242.819 401.939 245.962 400.433C249.105 398.927 252.552 398.162 256.038 398.196C257.084 398.202 258.128 398.299 259.158 398.484C259.544 398.513 259.921 398.611 260.274 398.772Z" fill="#EB996E"/>
<path d="M207.342 377.64C211.242 381.384 213.906 385.524 217.998 389.292C219.858 391.008 222.798 394.248 225.198 394.68C227.598 395.112 229.278 394.788 230.262 392.46C231.066 390.576 229.626 387.996 228.642 386.46C226.038 382.368 223.542 379.176 221.598 375.996C220.674 374.508 221.862 374.196 222.294 374.892C224.166 376.836 226.974 378.492 228.654 380.64C230.958 383.532 231.366 387.384 237.39 386.16C238.195 386.03 238.959 385.713 239.622 385.236C241.89 383.496 242.022 380.436 241.038 378.036C240.188 376.184 239.054 374.475 237.678 372.972C240.246 375.864 243.042 378.972 247.122 379.236C248.274 379.376 249.442 379.154 250.463 378.602C251.484 378.049 252.308 377.193 252.822 376.152C254.022 373.416 252.306 370.764 250.566 368.628C247.486 364.83 244.059 361.327 240.33 358.164C238.937 356.994 237.18 356.345 235.362 356.328C233.25 356.328 230.562 356.712 229.362 358.536C228.676 359.416 228.177 360.426 227.894 361.505C227.612 362.584 227.551 363.709 227.718 364.812C227.718 364.812 222.438 362.136 218.19 364.932C215.575 366.769 213.695 369.473 212.886 372.564L207.342 377.64Z" fill="#FFBE9D"/>
<path d="M235.482 355.176C234.637 354.196 234.113 352.98 233.98 351.693C233.847 350.406 234.111 349.109 234.738 347.976C235.638 346.212 236.766 344.496 237.918 344.112C242.946 342.42 264.93 346.224 264.726 351.096C264.522 355.968 262.914 358.296 250.998 356.58C248.898 356.28 245.61 355.872 245.61 355.872L242.73 360.192L235.482 355.176Z" fill="#FFBE9D"/>
<path d="M239.418 375.6C236.533 370.843 232.326 367.028 227.31 364.62C228.128 364.752 228.916 365.028 229.638 365.436C233.25 367.183 236.282 369.932 238.374 373.356C238.858 374.033 239.212 374.794 239.418 375.6Z" fill="#EB996E"/>
<path d="M243.114 360.612C243.006 360.708 241.554 359.532 239.574 358.32C238.745 357.796 237.888 357.319 237.006 356.892C236.322 356.58 235.866 356.496 235.878 356.4C235.89 356.304 236.394 356.256 237.15 356.484C238.123 356.797 239.051 357.237 239.91 357.792C241.938 359.028 243.27 360.48 243.114 360.612Z" fill="#EB996E"/>
<path d="M246.81 356.076C245.379 356.243 243.93 356.079 242.574 355.596C241.581 355.293 240.66 354.795 239.862 354.132C239.262 353.616 239.01 353.196 239.07 353.136C240.224 353.883 241.46 354.495 242.754 354.96C244.129 355.242 245.484 355.614 246.81 356.076Z" fill="#EB996E"/>
<path d="M225.45 381.636C224.692 380.841 224.02 379.968 223.446 379.032C222.075 376.815 220.343 374.844 218.322 373.2C216.226 371.667 213.629 370.981 211.05 371.28C209.992 371.469 208.963 371.796 207.99 372.252C207.99 372.252 208.206 372 208.698 371.7C209.398 371.275 210.171 370.982 210.978 370.836C212.321 370.619 213.694 370.672 215.017 370.991C216.339 371.311 217.585 371.89 218.682 372.696C220.77 374.374 222.514 376.44 223.818 378.78C224.441 379.685 224.987 380.64 225.45 381.636Z" fill="#EB996E"/>
<path d="M242.262 430.236C239.302 430.865 236.303 431.294 233.286 431.52C230.285 431.955 227.258 432.179 224.226 432.192C227.189 431.563 230.192 431.134 233.214 430.908C236.211 430.48 239.234 430.256 242.262 430.236Z" fill="#EB996E"/>
<path d="M431.298 31.1401L432.654 33.6241L435.126 34.9801L432.654 36.3361L431.298 38.8081L429.942 36.3361L427.47 34.9801L429.942 33.6241L431.298 31.1401Z" fill="#09FF4F"/>
<path d="M459.63 92.5442L460.986 95.0282L463.458 96.3842L460.986 97.7402L459.63 100.212L458.274 97.7402L455.79 96.3842L458.274 95.0282L459.63 92.5442Z" fill="#09FF4F"/>
<path d="M5.62155 256.368L6.97755 258.852L9.46155 260.208L6.97755 261.552L5.62155 264.036L4.26555 261.552L1.79355 260.208L4.26555 258.852L5.62155 256.368Z" fill="#09FF4F"/>
<path d="M394.134 46.4041L397.266 52.1281L402.99 55.2601L397.266 58.3801L394.134 64.104L391.014 58.3801L385.29 55.2601L391.014 52.1281L394.134 46.4041Z" fill="#09FF4F"/>
<path d="M31.0136 217.452L34.1336 223.152L39.8456 226.272L34.1336 229.404L31.0136 235.104L27.8936 229.404L22.1815 226.272L27.8936 223.152L31.0136 217.452Z" fill="#09FF4F"/>
<path d="M467.334 353.604L470.454 359.316L476.154 362.436L470.454 365.556L467.334 371.268L464.214 365.556L458.502 362.436L464.214 359.316L467.334 353.604Z" fill="#09FF4F"/>
</svg>
