<svg width="59" height="49" viewBox="0 0 59 49" fill="none" xmlns="http://www.w3.org/2000/svg">
<mask id="mask0_3_1153" style="mask-type:luminance" maskUnits="userSpaceOnUse" x="2" y="1" width="57" height="48">
<path d="M58.7871 1.02081H2.66687V48.7958H58.7871V1.02081Z" fill="white"/>
</mask>
<g mask="url(#mask0_3_1153)">
<path fill-rule="evenodd" clip-rule="evenodd" d="M55.0237 21.253V47.9941C55.0237 48.4324 54.7239 48.7958 54.3623 48.7958H48.6596C48.298 48.7958 47.9982 48.4351 47.9982 47.9941V28.1031C49.1622 26.7228 50.5931 25.0529 52.0529 23.3494L54.3564 20.6584C54.5663 20.8765 54.7894 21.0753 55.0237 21.253ZM24.2614 13.4474L28.6524 8.78995C31.9887 12.7529 35.2236 17.5433 38.5265 21.4997L50.5672 6.8321L46.6895 2.13023L58.7871 1.02081L58.1069 15.9676L54.3868 11.4563C51.7163 14.7365 45.4008 21.9655 42.7267 25.2079C39.3491 29.3036 37.7361 29.3777 34.3571 25.2807L28.6524 17.5825L27.5445 18.7735C27.3733 18.3243 27.1854 17.8846 26.9815 17.4559C26.5573 16.5649 26.0704 15.7379 25.5308 14.9877L25.5381 14.98C25.1551 14.4466 24.7279 13.9337 24.2614 13.4474ZM16.5104 13.6055C15.2539 13.5006 13.9927 13.6977 12.7993 14.1853L12.774 14.1967C11.5883 14.6857 10.493 15.451 9.54945 16.4494C8.59885 17.4557 7.82106 18.6792 7.26047 20.05C6.70115 21.4174 6.36991 22.9051 6.28571 24.428C6.22252 25.5514 6.29394 26.6799 6.49769 27.7784C6.67514 28.7333 6.95176 29.657 7.32099 30.5273L2.80999 35.7634C2.72165 35.8653 2.67024 36.0055 2.66703 36.153C2.66382 36.3008 2.70909 36.444 2.79289 36.5513L5.34668 39.7899C5.4306 39.8963 5.54591 39.9581 5.66733 39.9617C5.78876 39.9652 5.90637 39.9102 5.99436 39.8087L10.3354 34.7279C10.9947 35.2936 11.7106 35.7553 12.466 36.1018C13.3469 36.505 14.2718 36.7486 15.2113 36.8251C16.4671 36.9299 17.7276 36.7331 18.9206 36.2461C20.1166 35.7575 21.2216 34.9879 22.1722 33.9815C23.1225 32.9753 23.9002 31.7523 24.4608 30.3819C25.0064 29.0513 25.3485 27.5723 25.4364 26.0023C25.5242 24.4323 25.3498 22.9107 24.9583 21.5028L24.9489 21.4721C24.5449 20.0351 23.9133 18.7077 23.0896 17.5643C22.2611 16.4112 21.2529 15.4679 20.1229 14.7885C19.0256 14.127 17.8053 13.7119 16.5104 13.6055ZM14.9419 29.7514C14.4363 29.7084 13.7923 29.5573 13.2966 29.3964V27.511C13.9547 27.5755 15.5753 27.7432 16.1727 27.5794C16.621 27.4558 16.5714 26.5976 16.2761 26.4901C15.9206 26.356 15.1766 26.5169 14.5782 26.3068C14.2729 26.1994 14.0152 26.0375 13.8052 25.8213C13.5907 25.5994 13.4301 25.3054 13.3246 24.9402C13.2217 24.5848 13.1699 24.1616 13.1699 23.6708V23.0246C13.1699 21.6432 13.7982 20.8203 14.9419 20.5885V19.5982H16.5714V20.55C17.0768 20.5989 17.7057 20.7554 18.2073 20.9028V22.7913C17.5235 22.7183 16.2265 22.57 15.5778 22.7129C15.5247 22.7239 15.4729 22.7432 15.4239 22.7703C15.1575 22.9234 15.1682 23.8066 15.4945 23.9112C15.7079 23.9791 16.1456 23.9432 16.3789 23.9432C16.615 23.9432 16.834 23.9713 17.035 24.0264C17.2378 24.0824 17.4214 24.167 17.5841 24.2797C18.2665 24.7512 18.5675 25.5829 18.5675 26.5013V27.1482C18.5675 27.532 18.5391 27.8744 18.4832 28.1742C18.2604 29.3624 17.5002 29.6186 16.5714 29.7419V30.8101H14.9419V29.7514ZM10.8242 18.2202C11.5782 17.4229 12.4586 16.8028 13.4158 16.4122C14.3393 16.0348 15.341 15.8671 16.3789 15.9523C17.4167 16.0376 18.391 16.3681 19.2631 16.8926C20.1689 17.4371 20.9716 18.1953 21.6296 19.1091L21.6529 19.139C22.3042 20.0522 22.8031 21.11 23.1218 22.2538L23.1301 22.2816C23.4349 23.392 23.5704 24.5967 23.5007 25.8438C23.4304 27.1008 23.1582 28.2817 22.7261 29.3385C22.2772 30.4314 21.6556 31.4068 20.8967 32.2093C20.143 33.0069 19.2626 33.6273 18.3054 34.0182C17.3829 34.395 16.3807 34.5629 15.3427 34.4775C14.3062 34.3923 13.333 34.0623 12.4607 33.5375L12.4379 33.525C10.6317 32.4312 9.24518 30.4954 8.60022 28.1769L8.59191 28.1494C8.28707 27.0386 8.1516 25.8341 8.2213 24.5866C8.29168 23.3286 8.56418 22.1477 8.99693 21.0901C9.4446 19.9972 10.0655 19.022 10.8242 18.2202ZM20.6065 39.6747V47.9941C20.6065 48.4335 20.3077 48.7958 19.9451 48.7958H14.2422C13.8796 48.7958 13.5808 48.4351 13.5808 47.9941V40.539C14.0367 40.6373 14.5088 40.7081 14.9957 40.7481C15.8219 40.8156 16.6602 40.7797 17.4974 40.6487C18.3308 40.5203 19.1517 40.2924 19.9483 39.9685C20.1697 39.8781 20.389 39.7804 20.6065 39.6747ZM32.0789 31.5963V47.9941C32.0789 48.4332 31.7794 48.7958 31.4172 48.7958H25.7145C25.3523 48.7958 25.0529 48.4351 25.0529 47.9941V36.0757C25.9892 34.9114 26.7697 33.577 27.3662 32.1203C27.7409 31.2081 28.0404 30.2531 28.2602 29.2693C28.4023 28.6312 28.5099 27.9825 28.583 27.3276L30.1055 29.3809C30.1687 29.4661 30.2339 29.5494 30.3007 29.6303C30.9084 30.3669 31.4973 31.0222 32.0789 31.5963ZM43.551 32.8172V47.9941C43.551 48.4332 43.2518 48.7958 42.8896 48.7958H37.1866C36.8247 48.7958 36.5255 48.4351 36.5255 47.9941V34.4015C37.1911 34.5809 37.8808 34.6653 38.6079 34.6544C40.4257 34.6277 41.9965 34.0139 43.551 32.8172Z" fill="black"/>
</g>
</svg>
