<svg width="278" height="270" viewBox="0 0 278 270" fill="none" xmlns="http://www.w3.org/2000/svg">
<path opacity="0.7" d="M38.0408 83.5704C38.0408 83.5704 22.428 123.89 44.3688 164.49C66.3096 205.09 111.502 226.538 147.672 244.878C183.842 263.218 221.402 254.286 239.249 224.248C257.096 194.21 232.618 172.767 232.585 129.933C232.551 87.0984 238.997 75.7584 215.785 39.5712C192.573 3.38398 135.671 -4.62962 92.6408 22.2112C49.6104 49.052 38.0408 83.5704 38.0408 83.5704Z" fill="white"/>
<path d="M34.1208 227.815H152.398C152.88 227.054 153.362 226.292 153.854 225.547C166.578 206.177 186.945 192.373 209.199 185.894C219.167 182.993 229.964 181.262 237.972 174.66C246.215 167.867 250.001 157.026 251.636 146.47C253.624 133.685 252.549 119.36 243.874 109.767C233.688 98.5 216.619 97.24 203.347 89.8536C180.505 77.1472 171.646 48.1952 150.87 32.336C137.76 22.3232 120.014 18.4424 104.16 20.6376C81.6536 23.7568 60.48 38.8376 54.1184 60.9576C52.294 67.3988 51.6415 74.1153 52.192 80.7872C53.2112 93.9752 56.0504 107.337 53.3736 120.29C50.4224 134.564 41.132 146.61 35.5824 160.1C28.6776 176.9 27.7424 195.716 30.6768 213.625C31.4487 218.438 32.6003 223.183 34.1208 227.815Z" fill="#09FF4F"/>
<path opacity="0.7" d="M34.1208 227.815H152.398C152.88 227.054 153.362 226.292 153.854 225.547C166.578 206.177 186.945 192.373 209.199 185.894C219.167 182.993 229.964 181.262 237.972 174.66C246.215 167.867 250.001 157.026 251.636 146.47C253.624 133.685 252.549 119.36 243.874 109.767C233.688 98.5 216.619 97.24 203.347 89.8536C180.505 77.1472 171.646 48.1952 150.87 32.336C137.76 22.3232 120.014 18.4424 104.16 20.6376C81.6536 23.7568 60.48 38.8376 54.1184 60.9576C52.294 67.3988 51.6415 74.1153 52.192 80.7872C53.2112 93.9752 56.0504 107.337 53.3736 120.29C50.4224 134.564 41.132 146.61 35.5824 160.1C28.6776 176.9 27.7424 195.716 30.6768 213.625C31.4487 218.438 32.6003 223.183 34.1208 227.815Z" fill="white"/>
<path d="M142.498 144.577V56.2368H150.007" stroke="#263238" stroke-linecap="round" stroke-linejoin="round"/>
<path d="M142.498 159.025V155.799" stroke="#263238" stroke-linecap="round" stroke-linejoin="round"/>
<path d="M169.327 56.2368H246.842V170.331H142.498" stroke="#263238" stroke-linecap="round" stroke-linejoin="round"/>
<path d="M159.824 56.2368H166.634" stroke="#263238" stroke-linecap="round" stroke-linejoin="round"/>
<path d="M242.917 60.1512H146.417V166.417H242.917V60.1512Z" stroke="#263238" stroke-linecap="round" stroke-linejoin="round"/>
<path d="M238.431 67.6104V108.938H150.909V105.17" stroke="#263238" stroke-linecap="round" stroke-linejoin="round"/>
<path d="M150.909 96.3272V64.256H238.431" stroke="#263238" stroke-linecap="round" stroke-linejoin="round"/>
<path d="M150.909 102.269V98.6008" stroke="#263238" stroke-linecap="round" stroke-linejoin="round"/>
<path d="M223.653 113.284H242.917" stroke="#263238" stroke-linecap="round" stroke-linejoin="round"/>
<path d="M216.798 113.284H219.526" stroke="#263238" stroke-linecap="round" stroke-linejoin="round"/>
<path d="M146.417 113.284H213.545" stroke="#263238" stroke-linecap="round" stroke-linejoin="round"/>
<path d="M189.818 108.938V106.95H197.887V108.082H194.673V108.938" stroke="#263238" stroke-linecap="round" stroke-linejoin="round"/>
<path d="M146.585 148.894C146.585 148.894 147.924 149.908 148.865 156.04C148.865 156.04 150.483 146.251 152.449 146.1C154.414 145.949 154 152.467 154 152.467C154 152.467 154.33 149.253 155.87 149.404C157.41 149.555 155.87 156.04 155.87 156.04C155.87 156.04 157.713 151 159.465 151.067C161.218 151.134 158.312 160.24 158.312 160.24C158.312 160.24 162.792 156.992 164.617 158.56C166.443 160.128 163.609 164.16 163.609 164.16C163.609 164.16 170.044 162.766 171.041 166.54" stroke="#263238" stroke-linecap="round" stroke-linejoin="round"/>
<path d="M171.041 162.894C171.041 162.894 173.841 161.058 176.053 161.914C176.053 161.914 174.647 159.781 176.053 158.47C177.458 157.16 179.256 161.92 179.256 161.92C179.256 161.92 179.458 153.962 182.263 154.366C185.069 154.769 182.263 161.92 182.263 161.92C182.263 161.92 187.27 157.479 188.474 159.03C189.678 160.582 187.673 162.9 187.673 162.9C187.673 162.9 190.674 161.942 192.881 164.182C192.881 164.182 196.241 160.755 199.97 160.262C199.97 160.262 197.49 153.061 198.688 151.61C199.886 150.16 202.076 157.894 202.076 157.894C202.076 157.894 203.034 152.854 206.164 152.473C206.164 152.473 203.554 151.056 204.327 148.9C205.1 146.744 208.706 149.41 208.706 149.41C208.706 149.41 207.228 145.624 209.569 144.582C211.91 143.541 212.895 147.752 212.895 147.752C212.895 147.752 213.545 143.345 216.3 143.586C219.055 143.826 218.165 148.9 218.165 148.9C218.165 148.9 220.763 144.874 222.152 145.282C224.952 146.106 224.09 152.473 224.09 152.473C224.09 152.473 227.97 149.774 228.973 151.017C230.054 152.355 224.935 155.805 224.935 155.805C224.935 155.805 228.788 156.236 231.185 158.476" stroke="#263238" stroke-linecap="round" stroke-linejoin="round"/>
<path d="M242.917 150.35C242.917 150.35 242.474 146.307 238.437 146.1C234.399 145.893 239.557 154.959 239.557 154.959C239.557 154.959 236.197 152.204 235.021 153.05C233.845 153.895 238.442 158.577 238.442 158.577C238.442 158.577 236.202 156.527 233.889 157.166C231.577 157.804 235.2 164.306 235.2 164.306C231.734 163.606 228.136 164.025 224.924 165.504" stroke="#263238" stroke-linecap="round" stroke-linejoin="round"/>
<path d="M133.599 133.03L116.088 119.567V55.8784H36.7808V169.514H116.088V125.94L133.599 133.03Z" fill="white" stroke="#263238" stroke-linecap="round" stroke-linejoin="round"/>
<path d="M111.955 75.568H40.9192V146.604H111.955V75.568Z" fill="white"/>
<mask id="mask0_5_5331" style="mask-type:luminance" maskUnits="userSpaceOnUse" x="40" y="75" width="72" height="72">
<path d="M111.955 75.568H40.9192V146.604H111.955V75.568Z" fill="white"/>
</mask>
<g mask="url(#mask0_5_5331)">
<path opacity="0.4" d="M111.955 106.441V146.604H40.9192V105.92C48.7592 105.254 59.9256 104.402 71.1592 104.335C95.62 104.195 106.534 105.858 111.955 106.441Z" fill="#09FF4F"/>
<path d="M102.855 105.108C105.902 105.461 108.937 105.898 111.955 106.441" stroke="#263238" stroke-linecap="round" stroke-linejoin="round"/>
<path d="M77.2295 103.943C84.8932 103.823 92.5577 104.119 100.189 104.828" stroke="#263238" stroke-linecap="round" stroke-linejoin="round"/>
<path d="M55.3279 104.8C61.7287 104.425 68.1407 104.111 74.5527 103.988" stroke="#263238" stroke-linecap="round" stroke-linejoin="round"/>
<path d="M48.7593 105.226C49.6627 105.158 50.5643 105.097 51.4641 105.041" stroke="#263238" stroke-linecap="round" stroke-linejoin="round"/>
<path d="M40.9192 105.92C42.7896 105.707 44.66 105.545 46.5192 105.36" stroke="#263238" stroke-linecap="round" stroke-linejoin="round"/>
<path opacity="0.4" d="M49.3416 78.648V93.6672H78.0471V76.968H76.4064V91.9088H64.0304V76.968H62.4232V91.9088H50.8032V78.9392L49.3416 78.648Z" fill="#09FF4F"/>
</g>
<path d="M111.955 75.568H40.9192V146.604H111.955V75.568Z" stroke="#263238" stroke-linecap="round" stroke-linejoin="round"/>
<path d="M73.9647 62.548H57.2375C57.0147 62.548 56.801 62.6365 56.6435 62.7941C56.486 62.9516 56.3975 63.1653 56.3975 63.388C56.3975 63.6108 56.486 63.8245 56.6435 63.982C56.801 64.1395 57.0147 64.228 57.2375 64.228H73.9647C74.1874 64.228 74.4011 64.1395 74.5586 63.982C74.7162 63.8245 74.8047 63.6108 74.8047 63.388C74.8047 63.1653 74.7162 62.9516 74.5586 62.7941C74.4011 62.6365 74.1874 62.548 73.9647 62.548Z" fill="#263238"/>
<path d="M65.1839 66.02H56.8231C56.7132 66.02 56.6078 66.0637 56.5301 66.1414C56.4523 66.2191 56.4087 66.3245 56.4087 66.4344C56.4087 66.5443 56.4523 66.6497 56.5301 66.7274C56.6078 66.8052 56.7132 66.8488 56.8231 66.8488H65.1839C65.2938 66.8488 65.3992 66.8052 65.4769 66.7274C65.5546 66.6497 65.5983 66.5443 65.5983 66.4344C65.5983 66.3245 65.5546 66.2191 65.4769 66.1414C65.3992 66.0637 65.2938 66.02 65.1839 66.02Z" fill="#263238"/>
<path d="M69.8936 117.417C57.3664 117.417 46.48 120.217 40.9192 124.299V136.72C46.48 140.819 57.3664 143.602 69.8936 143.602C88.0712 143.602 102.805 137.739 102.805 130.504C102.805 123.269 88.0712 117.417 69.8936 117.417Z" fill="white" stroke="#263238" stroke-linecap="round" stroke-linejoin="round"/>
<path opacity="0.4" d="M50.4951 122.16C46.5751 124.366 43.7751 123.963 45.6063 124.478C47.4375 124.994 45.0855 127.687 43.2599 129.07C41.4343 130.454 44.6935 132.279 48.4735 132.279C52.2535 132.279 54.7455 133.209 54.1631 134.519C53.9772 134.892 53.8708 135.299 53.8507 135.714C53.8305 136.13 53.8971 136.546 54.0461 136.934C54.1952 137.323 54.4234 137.676 54.7164 137.972C55.0093 138.268 55.3606 138.499 55.7479 138.652C57.7191 139.43 54.5943 140.763 56.7447 141.138C58.8951 141.514 57.3047 139.302 59.9367 138.898C62.5687 138.495 62.6695 140.069 63.2967 137.924C63.9239 135.779 70.2855 135.253 71.3495 136.294C72.4135 137.336 69.0703 138.898 70.5487 139.162C72.0271 139.425 73.8414 140.248 73.847 139.027C73.8526 137.806 73.1975 135.499 76.5799 135.309C79.9623 135.118 84.5711 137.067 84.7447 135.309C84.9183 133.55 86.1055 131.994 88.1327 133.164C90.1599 134.334 92.7359 134.99 92.9991 133.164C93.1182 132.319 93.4942 131.531 94.0762 130.907C94.6582 130.283 95.418 129.853 96.2527 129.675C97.8151 129.384 94.9199 128.785 93.8279 126.22C92.7359 123.655 95.6031 123.37 91.0279 122.082C86.4527 120.794 82.5774 123.112 78.2038 122.014C73.8302 120.917 55.7703 119.231 50.4951 122.16Z" fill="#09FF4F"/>
<path d="M69.8936 137.969C83.8545 137.969 95.172 133.995 95.172 129.093C95.172 124.191 83.8545 120.217 69.8936 120.217C55.9328 120.217 44.6152 124.191 44.6152 129.093C44.6152 133.995 55.9328 137.969 69.8936 137.969Z" stroke="#263238" stroke-linecap="round" stroke-linejoin="round"/>
<path d="M47.2751 133.438C47.2751 133.438 47.8351 127.217 48.5911 125.363C49.4647 123.151 53.7711 117.842 53.7711 117.842C53.7711 117.842 71.3104 115.989 86.2511 117.842C86.2511 117.842 90.4175 122.804 91.3303 124.859C92.0863 126.539 93.0103 132.307 93.0103 132.307C93.0103 132.307 71.9711 137.213 47.2751 133.438Z" fill="white" stroke="#263238" stroke-linecap="round" stroke-linejoin="round"/>
<path opacity="0.4" d="M49.5825 125.57C50.0361 126.909 57.0081 127.542 61.9025 127.698C66.7969 127.855 71.0193 128.729 74.8609 128.415C78.7025 128.102 78.3833 127.62 82.2865 127.62C86.1897 127.62 90.3001 126.276 90.8209 125.57C91.3368 127.471 91.75 129.399 92.0585 131.344C92.0585 131.344 76.2329 136.014 48.4849 132.688C48.4849 132.688 48.8769 129.048 49.0057 127.62C49.0252 126.9 49.2234 126.195 49.5825 125.57Z" fill="#09FF4F"/>
<path opacity="0.4" d="M56.4536 119.002C56.6912 118.907 56.9343 118.826 57.1816 118.761C56.9604 118.61 56.6904 118.548 56.4256 118.587H59.4832C59.7903 118.562 60.0988 118.616 60.3792 118.744C60.5879 118.936 60.7162 119.2 60.738 119.482C60.7598 119.765 60.6736 120.046 60.4968 120.267C60.3599 120.37 60.2024 120.441 60.0351 120.477C59.8679 120.513 59.6948 120.512 59.528 120.474C57.9768 120.351 56.4256 120.166 54.8856 119.914C54.7736 119.914 54.6504 119.864 54.6056 119.763C54.4824 119.489 54.8856 119.002 55.1656 118.951C55.552 118.884 55.916 119.074 56.2856 119.046C56.3429 119.037 56.3992 119.022 56.4536 119.002Z" fill="#09FF4F"/>
<path opacity="0.4" d="M53.5416 122.25C53.4099 122.34 53.2975 122.457 53.2112 122.591C52.7737 123.139 52.419 123.749 52.1584 124.4C52.1337 124.463 52.1337 124.533 52.1584 124.596C52.1998 124.65 52.2595 124.688 52.3264 124.702C52.8237 124.803 53.333 124.832 53.8384 124.786C55.3811 124.788 56.9221 124.886 58.4528 125.078C58.6207 125.112 58.7954 125.08 58.94 124.988C59.1136 124.837 59.0744 124.562 59.0576 124.333C59.0427 124.031 59.1003 123.729 59.2256 123.454C59.3287 123.298 59.3815 123.114 59.3768 122.927C59.3208 122.602 58.9008 122.513 58.5704 122.496L55.7704 122.345C55.1712 122.306 54.068 121.947 53.5416 122.25Z" fill="#09FF4F"/>
<path opacity="0.4" d="M63.0896 119.298C63.5291 118.974 64.0512 118.78 64.596 118.738C65.9386 118.472 67.316 118.428 68.6728 118.61C68.5272 119.242 68.8744 120.015 68.4432 120.497C68.1712 120.735 67.8189 120.861 67.4576 120.85C66.2736 120.944 65.0829 120.906 63.9072 120.738C63.6328 120.698 62.9832 120.738 62.7872 120.486C62.5912 120.234 62.8376 119.528 63.0896 119.298Z" fill="#09FF4F"/>
<path opacity="0.4" d="M61.7119 123.896C62.0031 123.336 62.7423 123.269 63.3919 123.269C65.3015 123.269 67.2111 123.342 69.1207 123.426C69.2027 123.418 69.2854 123.429 69.3628 123.457C69.4402 123.485 69.5105 123.53 69.5687 123.588C69.6129 123.671 69.6378 123.763 69.6415 123.857C69.6415 124.148 69.6751 124.417 69.6415 124.73C69.6603 124.891 69.6395 125.055 69.581 125.206C69.5224 125.357 69.4279 125.492 69.3055 125.598C69.1953 125.654 69.0756 125.688 68.9527 125.699C67.3589 125.855 65.7507 125.772 64.1815 125.453C63.4927 125.346 62.7815 125.302 62.1039 125.201C61.5215 125.106 61.4599 124.361 61.7119 123.896Z" fill="#09FF4F"/>
<path opacity="0.4" d="M70.9856 119.567C71.036 119.17 71.1368 118.705 71.5008 118.548C71.6666 118.493 71.8422 118.474 72.016 118.492L75.376 118.643C75.9394 118.658 76.5009 118.714 77.056 118.811C77.3319 118.852 77.5924 118.964 77.812 119.136C77.9713 119.326 78.0914 119.545 78.1654 119.782C78.2394 120.018 78.2658 120.267 78.2432 120.514C78.2432 120.738 73.8752 120.749 73.4664 120.732C73.0576 120.715 72.6936 120.654 72.3464 120.665C72.1 120.665 71.8872 120.782 71.6576 120.805C70.9408 120.872 70.924 120.088 70.9856 119.567Z" fill="#09FF4F"/>
<path opacity="0.4" d="M80.1583 125.229C80.1583 125.027 80.0967 124.826 80.0687 124.618C80.0505 124.241 79.9154 123.879 79.6823 123.582C79.3571 123.313 78.9455 123.17 78.5231 123.179C76.8586 123.045 75.1834 123.191 73.5671 123.61C73.1895 123.75 72.7813 123.784 72.3855 123.711C72.2508 123.671 72.1291 123.595 72.0327 123.493C72.0887 124.21 72.1391 124.926 72.1895 125.643C72.6095 125.694 73.0351 125.71 73.4551 125.722L76.9159 125.845C77.2461 125.862 77.5769 125.862 77.9071 125.845C78.4223 125.817 78.9375 125.716 79.4527 125.727C79.7271 125.727 80.0911 125.727 80.1639 125.447C80.1736 125.375 80.1717 125.301 80.1583 125.229Z" fill="#09FF4F"/>
<path opacity="0.4" d="M83.8152 119.147C83.916 119.147 84.0505 119.147 84.0561 119.024C84.0672 118.993 84.0672 118.96 84.0561 118.929C83.8937 118.638 83.496 118.593 83.1656 118.576H82.3817C83.0396 118.442 83.7094 118.374 84.3808 118.374C84.4494 118.367 84.5185 118.382 84.5768 118.419C84.6258 118.459 84.6626 118.511 84.6833 118.57L85.3384 120.032C85.3506 120.061 85.3569 120.093 85.3569 120.124C85.3569 120.156 85.3506 120.188 85.3384 120.217C85.3384 120.29 85.2264 120.312 85.1536 120.329C83.8679 120.542 82.5636 120.62 81.2617 120.564C81.0458 120.598 80.8249 120.578 80.6187 120.506C80.4124 120.433 80.2274 120.311 80.08 120.15C80.0208 120.079 79.9777 119.996 79.9536 119.907C79.9294 119.818 79.9249 119.724 79.9404 119.633C79.9558 119.542 79.9908 119.456 80.043 119.38C80.0951 119.303 80.1632 119.239 80.2424 119.192C80.6792 118.99 81.4801 119.153 81.9561 119.158L83.8152 119.147Z" fill="#09FF4F"/>
<path opacity="0.4" d="M85.68 122.345L83.1264 122.754C83.108 122.81 83.1103 122.87 83.1329 122.925C83.1555 122.979 83.1969 123.024 83.2496 123.05C83.3592 123.104 83.4809 123.127 83.6024 123.118L87.0968 123.179C87.1613 123.177 87.2253 123.192 87.2816 123.224C87.3227 123.259 87.352 123.306 87.3656 123.358C87.528 123.75 87.668 124.154 87.7912 124.557C87.8364 124.672 87.8519 124.798 87.836 124.921C87.7688 125.201 87.4328 125.302 87.1472 125.346C85.8264 125.507 84.495 125.561 83.1656 125.509C82.9334 125.529 82.701 125.472 82.5048 125.346C82.3978 125.242 82.3172 125.113 82.2696 124.971C82.0512 124.445 81.3456 122.731 82.152 122.524C83.3179 122.335 84.501 122.275 85.68 122.345Z" fill="#09FF4F"/>
<path d="M59.3264 125.486C56.8064 125.33 54.2864 125.139 51.772 124.876C52.1573 123.606 52.7661 122.415 53.5696 121.359" stroke="#263238" stroke-linecap="round" stroke-linejoin="round"/>
<path d="M69.4904 125.923C66.8192 125.867 64.1536 125.75 61.488 125.61L62.048 122.541" stroke="#263238" stroke-linecap="round" stroke-linejoin="round"/>
<path d="M79.7328 125.761C77.2128 125.906 74.6928 125.962 72.1672 125.957L71.876 122.815" stroke="#263238" stroke-linecap="round" stroke-linejoin="round"/>
<path d="M87.1192 122.978L88.1608 124.876C86.2456 125.171 84.3248 125.402 82.3984 125.57L81.3848 122.16" stroke="#263238" stroke-linecap="round" stroke-linejoin="round"/>
<path d="M68.7512 119.595V120.81H62.6304L62.8432 119.226" stroke="#263238" stroke-linecap="round" stroke-linejoin="round"/>
<path d="M60.8888 119.226L60.5864 120.497L54.4656 120.021L55.16 118.912" stroke="#263238" stroke-linecap="round" stroke-linejoin="round"/>
<path d="M54.1631 122.182L59.3263 122.541L59.0239 123.874" stroke="#263238" stroke-linecap="round" stroke-linejoin="round"/>
<path d="M62.9775 123.42H69.4903L69.7087 124.663" stroke="#263238" stroke-linecap="round" stroke-linejoin="round"/>
<path d="M73.052 123.42L79.4752 123.028L80.1696 124.389" stroke="#263238" stroke-linecap="round" stroke-linejoin="round"/>
<path d="M71.1199 119.226V120.81L78.5455 120.497L78.0247 118.912C78.0247 118.912 76.0703 118.223 72.1223 118.593" stroke="#263238" stroke-linecap="round" stroke-linejoin="round"/>
<path d="M80.3433 120.497L85.5569 120.284L84.9913 119.226" stroke="#263238" stroke-linecap="round" stroke-linejoin="round"/>
<path d="M80.3433 119.226H83.6193" stroke="#263238" stroke-linecap="round" stroke-linejoin="round"/>
<path d="M64.1929 118.912C65.6988 118.65 67.223 118.508 68.7513 118.486" stroke="#263238" stroke-linecap="round" stroke-linejoin="round"/>
<path d="M69.4903 113.278C69.4903 113.278 70.0503 110.478 69.1879 109.358C69.1879 109.358 67.5079 112.158 67.4239 113.278C67.4239 113.278 66.9367 110.674 65.4863 110.221C65.4863 110.221 64.6239 110.568 64.6911 111.24C65.0968 112.049 65.4304 112.892 65.6879 113.76C65.2524 113.741 64.8178 113.813 64.4111 113.97C64.0045 114.127 63.6347 114.366 63.3247 114.673C63.5411 114.972 63.8246 115.215 64.1524 115.385C64.4801 115.554 64.843 115.644 65.2119 115.647C65.2119 115.647 63.7167 116.661 63.3247 117.585C63.3247 117.585 65.7327 118.576 67.8047 117.439C69.8767 116.302 69.4903 113.278 69.4903 113.278Z" fill="#263238"/>
<path d="M68.1857 113.239C68.4008 112.792 68.7081 112.396 69.0875 112.077C69.4668 111.757 69.9095 111.522 70.3865 111.386C73.3825 110.562 74.7601 113.385 75.3481 115.821C75.8185 117.781 76.3617 120.357 75.3145 122.222C73.5841 125.302 68.9025 123.403 66.6065 122.121C65.1001 121.281 63.9913 120.094 64.2825 118.201C64.3433 117.754 64.5089 117.328 64.7658 116.957C65.0228 116.586 65.3637 116.281 65.7609 116.067C66.2407 115.897 66.7022 115.68 67.1385 115.418C67.8049 114.88 67.8273 113.962 68.1857 113.239Z" fill="#09FF4F" stroke="#263238" stroke-linecap="round" stroke-linejoin="round"/>
<path opacity="0.6" d="M70.2576 113.021C71.484 113.105 72.0944 114.141 72.7888 116.319C73.4832 118.498 74.312 119.175 74.312 120.547C74.312 121.919 73.92 122.16 73.92 122.16C73.92 122.16 75.4824 122.014 74.8496 117.943C74.2168 113.872 73.4888 112.478 72.0496 112.214C71.6869 112.108 71.2996 112.123 70.946 112.256C70.5925 112.39 70.2919 112.634 70.0896 112.954" fill="white"/>
<path d="M65.7777 118.834C65.7777 118.834 66.6233 119.142 66.0577 119.45C65.4921 119.758 65.7777 118.834 65.7777 118.834Z" fill="#263238"/>
<path d="M67.76 116.862C67.76 116.862 68.4992 117.288 68.2808 117.562C68.0624 117.837 67.76 116.862 67.76 116.862Z" fill="#263238"/>
<path d="M69.7087 114.88C69.7087 114.88 70.7727 114.97 70.5095 115.317C70.2463 115.664 69.7087 114.88 69.7087 114.88Z" fill="#263238"/>
<path d="M71.3774 112.64C71.3774 112.64 72.0774 112.36 72.0326 112.769C71.9878 113.178 71.3774 112.64 71.3774 112.64Z" fill="#263238"/>
<path d="M72.5369 115.821C72.5369 115.821 73.4609 116.319 73.0521 116.582C72.6433 116.846 72.5369 115.821 72.5369 115.821Z" fill="#263238"/>
<path d="M70.728 118.352C70.728 118.352 71.4224 118.598 71.1368 118.912C70.8512 119.226 70.728 118.352 70.728 118.352Z" fill="#263238"/>
<path d="M68.3816 119.864C68.3816 119.864 69.1432 120.122 68.9416 120.379C68.74 120.637 68.3816 119.864 68.3816 119.864Z" fill="#263238"/>
<path d="M69.8936 121.902C69.8936 121.902 70.7224 121.729 70.5488 122.132C70.3752 122.535 69.8936 121.902 69.8936 121.902Z" fill="#263238"/>
<path d="M72.0327 120.883C72.0327 120.883 72.7047 121.141 72.4415 121.359C72.1783 121.578 72.0327 120.883 72.0327 120.883Z" fill="#263238"/>
<path d="M73.052 119.013C73.052 119.013 73.7688 119.321 73.5728 119.534C73.3768 119.746 73.052 119.013 73.052 119.013Z" fill="#263238"/>
<path d="M74.6086 117.551C74.6086 117.551 75.0678 117.848 74.8494 117.966C74.631 118.083 74.6086 117.551 74.6086 117.551Z" fill="#263238"/>
<path d="M73.8752 121.398C73.8752 121.398 74.4856 121.645 74.3288 121.863C74.172 122.082 73.8752 121.398 73.8752 121.398Z" fill="#263238"/>
<path d="M74.9111 120.021C74.9111 120.021 75.0735 120.446 75.0007 120.547C74.9279 120.648 74.9111 120.021 74.9111 120.021Z" fill="#263238"/>
<path d="M72.2681 122.541C72.2681 122.541 72.7665 122.462 72.7049 122.681C72.6433 122.899 72.2681 122.541 72.2681 122.541Z" fill="#263238"/>
<path d="M66.8865 121.141C66.8865 121.141 67.4913 121.398 67.2953 121.51C67.0993 121.622 66.8865 121.141 66.8865 121.141Z" fill="#263238"/>
<path d="M74.116 114.258C74.116 114.258 74.676 114.6 74.4856 114.886C74.2952 115.171 74.116 114.258 74.116 114.258Z" fill="#263238"/>
<path d="M111.955 115.938V111.307C108.965 110.12 103.779 109.336 97.8993 109.336C88.6481 109.336 81.1497 111.274 81.1497 113.67C81.1497 116.067 88.6481 117.999 97.8993 117.999C103.79 117.999 108.97 117.21 111.955 116.022V115.938Z" fill="white" stroke="#263238" stroke-linecap="round" stroke-linejoin="round"/>
<path opacity="0.4" d="M109.2 113.116C109.2 114.382 104.037 115.412 97.6639 115.412C91.2911 115.412 86.1279 114.382 86.1279 113.116C86.1279 111.85 91.2967 110.826 97.6639 110.826C104.031 110.826 109.2 111.85 109.2 113.116Z" fill="#09FF4F"/>
<path d="M97.8991 116.134C105.006 116.134 110.768 114.821 110.768 113.2C110.768 111.579 105.006 110.266 97.8991 110.266C90.7918 110.266 85.0303 111.579 85.0303 113.2C85.0303 114.821 90.7918 116.134 97.8991 116.134Z" stroke="#263238" stroke-linecap="round" stroke-linejoin="round"/>
<path d="M104.625 112.724C104.625 113.777 101.97 114.628 97.9048 114.628C93.8392 114.628 91.1848 113.777 91.1848 112.724C91.1848 111.671 93.8448 110.826 97.9048 110.826C101.965 110.826 104.625 111.677 104.625 112.724Z" stroke="#263238" stroke-linecap="round" stroke-linejoin="round"/>
<path d="M111.955 103.742V101.726C110.781 101.54 109.588 101.506 108.405 101.625L107.52 103.568C107.52 103.568 111.11 102.47 111.955 103.742Z" fill="white"/>
<mask id="mask1_5_5331" style="mask-type:luminance" maskUnits="userSpaceOnUse" x="107" y="101" width="5" height="3">
<path d="M111.955 103.742V101.726C110.781 101.54 109.588 101.506 108.405 101.625L107.52 103.568C107.52 103.568 111.11 102.47 111.955 103.742Z" fill="white"/>
</mask>
<g mask="url(#mask1_5_5331)">
<path opacity="0.4" d="M111.955 103.742V101.726C110.781 101.54 109.588 101.506 108.405 101.625L107.52 103.568C107.52 103.568 111.11 102.47 111.955 103.742Z" fill="#09FF4F"/>
</g>
<path d="M111.955 103.742V101.726C110.781 101.54 109.588 101.506 108.405 101.625L107.52 103.568C107.52 103.568 111.11 102.47 111.955 103.742Z" stroke="#263238" stroke-linecap="round" stroke-linejoin="round"/>
<path d="M111.955 105.276C110.331 110.473 104.916 109.694 104.916 109.694V111.19C106.209 111.351 107.521 111.203 108.745 110.757C109.969 110.311 111.07 109.58 111.955 108.625V105.276Z" fill="white"/>
<mask id="mask2_5_5331" style="mask-type:luminance" maskUnits="userSpaceOnUse" x="104" y="105" width="8" height="7">
<path d="M111.955 105.276C110.331 110.473 104.916 109.694 104.916 109.694V111.19C106.209 111.351 107.521 111.203 108.745 110.757C109.969 110.311 111.07 109.58 111.955 108.625V105.276Z" fill="white"/>
</mask>
<g mask="url(#mask2_5_5331)">
<path opacity="0.4" d="M111.955 105.276C110.331 110.473 104.916 109.694 104.916 109.694V111.19C106.209 111.351 107.521 111.203 108.745 110.757C109.969 110.311 111.07 109.58 111.955 108.625V105.276Z" fill="#09FF4F"/>
</g>
<path d="M111.955 105.276C110.331 110.473 104.916 109.694 104.916 109.694V111.19C106.209 111.351 107.521 111.203 108.745 110.757C109.969 110.311 111.07 109.58 111.955 108.625V105.276Z" stroke="#263238" stroke-linecap="round" stroke-linejoin="round"/>
<path d="M86.1504 100.32C86.1504 100.32 86.8 113.67 97.9104 113.67C109.021 113.67 109.67 100.32 109.67 100.32H86.1504Z" fill="white"/>
<mask id="mask3_5_5331" style="mask-type:luminance" maskUnits="userSpaceOnUse" x="86" y="100" width="24" height="14">
<path d="M86.1504 100.32C86.1504 100.32 86.8 113.67 97.9104 113.67C109.021 113.67 109.67 100.32 109.67 100.32H86.1504Z" fill="white"/>
</mask>
<g mask="url(#mask3_5_5331)">
<path opacity="0.4" d="M109.648 100.32C109.648 100.32 108.998 113.67 97.888 113.67C95.3748 113.744 92.9219 112.894 90.9944 111.279L91.1568 111.24C93.644 112.47 96.5084 112.699 99.1592 111.878C103.079 110.602 107.234 101.882 107.946 100.32H109.648Z" fill="#09FF4F"/>
</g>
<path d="M86.1504 100.32C86.1504 100.32 86.8 113.67 97.9104 113.67C109.021 113.67 109.67 100.32 109.67 100.32H86.1504Z" stroke="#263238" stroke-linecap="round" stroke-linejoin="round"/>
<path d="M109.648 100.32C109.648 100.88 109.088 101.412 108.052 101.86C106.12 102.694 102.53 103.254 97.8992 103.254C93.268 103.254 89.6784 102.694 87.7464 101.86C86.7104 101.412 86.1504 100.88 86.1504 100.32C86.1504 98.696 90.7928 97.3856 97.9104 97.3856C105.028 97.3856 109.648 98.696 109.648 100.32Z" fill="white" stroke="#263238" stroke-linecap="round" stroke-linejoin="round"/>
<path d="M108.08 101.709C108.085 101.759 108.085 101.81 108.08 101.86C106.148 102.694 102.558 103.254 97.9272 103.254C93.296 103.254 89.7064 102.694 87.7744 101.86C87.7689 101.81 87.7689 101.759 87.7744 101.709C87.7744 100.303 91.7896 99.1664 97.944 99.1664C104.098 99.1664 108.08 100.32 108.08 101.709Z" fill="#09FF4F" stroke="#263238" stroke-linecap="round" stroke-linejoin="round"/>
<path d="M97.8993 101.07C97.8993 101.07 99.6129 100.208 100.47 101.07C101.326 101.933 99.2545 102.672 97.5353 102.644C95.8161 102.616 94.2425 101.524 94.8529 100.818C95.4633 100.113 97.2889 100.622 97.8993 101.07Z" fill="white"/>
<path d="M98.0334 100.32C98.0334 100.32 100.335 99.5808 101.444 100.494C102.553 101.406 100.525 102.678 100.525 102.678C100.525 102.678 103.247 101.67 102.205 100.494C101.164 99.3176 98.2574 99.8216 98.0334 100.32Z" fill="white"/>
<path d="M102.48 100.124C102.48 100.124 105.011 100.83 102.48 102.207C102.48 102.207 104.793 101.759 104.49 100.79C104.188 99.8216 102.48 100.124 102.48 100.124Z" fill="white"/>
<path d="M94.9312 102.207C94.9312 102.207 93.576 101.647 93.66 100.93C93.744 100.214 95.8216 100.079 95.8216 100.079C95.8216 100.079 93.3016 99.3512 92.9376 100.678C92.5736 102.006 94.9312 102.207 94.9312 102.207Z" fill="white"/>
<path d="M93.0495 102.207C93.0495 102.207 91.2855 101.759 91.1679 101.317C91.0503 100.874 92.1087 100.32 92.1087 100.32C92.1087 100.32 90.3671 100.443 90.2551 101.199C90.1431 101.955 93.0495 102.207 93.0495 102.207Z" fill="white"/>
<path d="M97.5128 82.5176C93.492 85.9112 100.419 91.3768 97.5128 93.6672C97.5128 93.6672 100.358 92.5472 98.588 88.7952C96.8184 85.0432 97.5128 82.5176 97.5128 82.5176Z" fill="#09FF4F"/>
<path d="M51.6648 68.35C52.9526 65.2412 51.4763 61.6771 48.3674 60.3894C45.2586 59.1017 41.6945 60.578 40.4068 63.6868C39.1191 66.7956 40.5954 70.3597 43.7042 71.6474C46.813 72.9351 50.3771 71.4588 51.6648 68.35Z" fill="#09FF4F" stroke="#263238" stroke-linecap="round" stroke-linejoin="round"/>
<path d="M48.5295 69.8224C48.1599 69.8224 47.0847 69.0104 47.4543 68.344C47.8239 67.6776 48.5295 66.5744 48.5295 66.5744C48.8436 65.9551 49.0194 65.2748 49.0447 64.5808C49.1959 63.5448 48.6023 61.7808 46.0375 61.7808C43.4727 61.7808 42.8791 63.5504 43.0247 64.5808C43.0501 65.2755 43.2279 65.9561 43.5455 66.5744C43.5455 66.5744 44.2511 67.6944 44.6207 68.344C44.9903 68.9936 43.9095 69.8224 43.5455 69.8224C42.945 69.9536 42.3581 70.1411 41.7927 70.3824C41.7927 70.3824 44.2455 72.1072 46.0375 72.1072C47.8295 72.1072 50.2767 70.3824 50.2767 70.3824C49.7133 70.1409 49.1283 69.9534 48.5295 69.8224Z" fill="#263238"/>
<path d="M46.0878 150.412C45.5838 149.566 44.5926 149.852 44.0718 150.518C43.5734 149.858 42.5934 149.522 42.067 150.356C41.1766 151.756 42.9518 153.089 43.7918 153.61L44.027 153.761L44.2734 153.615C45.1246 153.117 46.9334 151.84 46.0878 150.412Z" fill="#09FF4F" stroke="#263238" stroke-linecap="round" stroke-linejoin="round"/>
<path d="M111.171 153.626L109.357 152.736L107.537 153.626V149.992H111.171V153.626Z" fill="#09FF4F" stroke="#263238" stroke-linecap="round" stroke-linejoin="round"/>
<path d="M50.1648 149.818H52.9648C53.0307 149.818 53.096 149.831 53.1568 149.857C53.2176 149.882 53.2728 149.919 53.3192 149.966C53.3655 150.013 53.4021 150.069 53.4268 150.13C53.4516 150.191 53.4639 150.256 53.4632 150.322V152.618C53.4632 152.684 53.4503 152.749 53.4252 152.809C53.4002 152.87 53.3635 152.925 53.3172 152.971C53.2709 153.017 53.216 153.054 53.1555 153.079C53.095 153.104 53.0302 153.117 52.9648 153.117H51.9008L51.576 153.8L51.2512 153.117H50.1872C50.1217 153.117 50.0569 153.104 49.9964 153.079C49.936 153.054 49.881 153.017 49.8347 152.971C49.7885 152.925 49.7517 152.87 49.7267 152.809C49.7016 152.749 49.6888 152.684 49.6888 152.618V150.322C49.6872 150.193 49.7359 150.068 49.8248 149.974C49.9136 149.88 50.0355 149.824 50.1648 149.818Z" fill="#09FF4F" stroke="#263238" stroke-linecap="round" stroke-linejoin="round"/>
<path d="M55.0928 156.18H41.9384C41.7758 156.195 41.6247 156.27 41.5147 156.391C41.4047 156.512 41.3437 156.669 41.3438 156.832C41.3437 156.996 41.4047 157.153 41.5147 157.274C41.6247 157.395 41.7758 157.47 41.9384 157.485H55.0928C55.1836 157.493 55.2751 157.483 55.3615 157.454C55.4479 157.425 55.5274 157.378 55.5947 157.317C55.6621 157.255 55.7159 157.18 55.7527 157.097C55.7895 157.014 55.8086 156.924 55.8086 156.832C55.8086 156.741 55.7895 156.651 55.7527 156.568C55.7159 156.484 55.6621 156.41 55.5947 156.348C55.5274 156.287 55.4479 156.24 55.3615 156.211C55.2751 156.182 55.1836 156.172 55.0928 156.18Z" fill="#263238"/>
<path d="M107.744 159.54H41.7032C41.5933 159.54 41.4879 159.584 41.4102 159.661C41.3325 159.739 41.2888 159.845 41.2888 159.954C41.2888 160.064 41.3325 160.17 41.4102 160.247C41.4879 160.325 41.5933 160.369 41.7032 160.369H107.744C107.854 160.369 107.959 160.325 108.037 160.247C108.115 160.17 108.158 160.064 108.158 159.954C108.158 159.845 108.115 159.739 108.037 159.661C107.959 159.584 107.854 159.54 107.744 159.54Z" fill="#263238"/>
<path d="M96.544 162.34H41.7032C41.5933 162.34 41.4879 162.384 41.4102 162.461C41.3325 162.539 41.2888 162.645 41.2888 162.754C41.2888 162.864 41.3325 162.97 41.4102 163.047C41.4879 163.125 41.5933 163.169 41.7032 163.169H96.544C96.6539 163.169 96.7593 163.125 96.837 163.047C96.9148 162.97 96.9584 162.864 96.9584 162.754C96.9584 162.645 96.9148 162.539 96.837 162.461C96.7593 162.384 96.6539 162.34 96.544 162.34Z" fill="#263238"/>
<path d="M169.943 179.801C166.714 184.025 163.234 188.051 159.522 191.858C152.438 199.087 143.203 206.496 136.713 204.334C124.751 200.347 125.636 191.706 125.636 181.374C125.636 171.042 128.884 168.976 128.884 168.976L129.405 166.008C135.274 164.692 139.457 166.702 139.457 166.702L139.815 169.57C142.475 170.538 144.026 179.818 144.026 179.818C144.026 179.818 145.438 177.146 147.588 173.512C151.973 166.092 159.421 154.629 164.158 153.531L168.336 172.51L169.943 179.801Z" fill="#09FF4F"/>
<mask id="mask4_5_5331" style="mask-type:luminance" maskUnits="userSpaceOnUse" x="125" y="153" width="45" height="52">
<path d="M169.943 179.801C166.714 184.025 163.234 188.051 159.522 191.858C152.438 199.087 143.203 206.496 136.713 204.334C124.751 200.347 125.636 191.706 125.636 181.374C125.636 171.042 128.884 168.976 128.884 168.976L129.405 166.008C135.274 164.692 139.457 166.702 139.457 166.702L139.815 169.57C142.475 170.538 144.026 179.818 144.026 179.818C144.026 179.818 145.438 177.146 147.588 173.512C151.973 166.092 159.421 154.629 164.158 153.531L168.336 172.51L169.943 179.801Z" fill="white"/>
</mask>
<g mask="url(#mask4_5_5331)">
<path opacity="0.2" d="M169.943 179.801C166.714 184.025 163.234 188.051 159.522 191.858C158.402 182.063 166.359 168.959 166.359 168.959L168.336 172.493L169.943 179.801Z" fill="black"/>
<path opacity="0.2" d="M147.14 186.907C147.14 186.907 145.65 181.346 144.026 179.801C144.026 179.801 145.438 177.13 147.588 173.495C148.697 177.768 149.453 183.407 147.14 186.907Z" fill="black"/>
</g>
<path d="M169.943 179.801C166.714 184.025 163.234 188.051 159.522 191.858C152.438 199.087 143.203 206.496 136.713 204.334C124.751 200.347 125.636 191.706 125.636 181.374C125.636 171.042 128.884 168.976 128.884 168.976L129.405 166.008C135.274 164.692 139.457 166.702 139.457 166.702L139.815 169.57C142.475 170.538 144.026 179.818 144.026 179.818C144.026 179.818 145.438 177.146 147.588 173.512C151.973 166.092 159.421 154.629 164.158 153.531L168.336 172.51L169.943 179.801Z" stroke="#263238" stroke-linecap="round" stroke-linejoin="round"/>
<path d="M137.698 145.316L135.699 147.59C128.626 155.62 130.956 162.239 130.956 162.239L130.586 166.596C133.066 167.756 135.887 167.956 138.505 167.156L138.662 161.769C138.662 161.769 147.235 158.028 137.698 145.316Z" fill="white" stroke="#263238" stroke-linecap="round" stroke-linejoin="round"/>
<path d="M141.803 158.23L148.305 160.391C148.994 160.565 150.354 159.417 150.293 158.711L148.361 135.981C148.323 135.533 148.147 135.108 147.857 134.765C147.567 134.422 147.177 134.178 146.742 134.066L139.541 132.503C138.852 132.324 137.122 133.147 137.178 133.853L140.185 156.32C140.224 156.767 140.401 157.19 140.69 157.532C140.98 157.874 141.369 158.118 141.803 158.23Z" fill="#09FF4F"/>
<mask id="mask5_5_5331" style="mask-type:luminance" maskUnits="userSpaceOnUse" x="137" y="132" width="14" height="29">
<path d="M141.803 158.23L148.305 160.391C148.994 160.565 150.354 159.417 150.293 158.711L148.361 135.981C148.323 135.533 148.147 135.108 147.857 134.765C147.567 134.422 147.177 134.178 146.742 134.066L139.541 132.503C138.852 132.324 137.122 133.147 137.178 133.853L140.185 156.32C140.224 156.767 140.401 157.19 140.69 157.532C140.98 157.874 141.369 158.118 141.803 158.23Z" fill="white"/>
</mask>
<g mask="url(#mask5_5_5331)">
<path opacity="0.3" d="M141.803 158.23L148.305 160.391C148.994 160.565 150.354 159.417 150.293 158.711L148.361 135.981C148.323 135.533 148.147 135.108 147.857 134.765C147.567 134.422 147.177 134.178 146.742 134.066L139.541 132.503C138.852 132.324 137.122 133.147 137.178 133.853L140.185 156.32C140.224 156.767 140.401 157.19 140.69 157.532C140.98 157.874 141.369 158.118 141.803 158.23Z" fill="black" fill-opacity="0.7"/>
</g>
<path d="M141.803 158.23L148.305 160.391C148.994 160.565 150.354 159.417 150.293 158.711L148.361 135.981C148.323 135.533 148.147 135.108 147.857 134.765C147.567 134.422 147.177 134.178 146.742 134.066L139.541 132.503C138.852 132.324 137.122 133.147 137.178 133.853L140.185 156.32C140.224 156.767 140.401 157.19 140.69 157.532C140.98 157.874 141.369 158.118 141.803 158.23Z" stroke="#263238" stroke-linecap="round" stroke-linejoin="round"/>
<path d="M140.734 158.79L147.935 160.358C148.095 160.398 148.262 160.4 148.423 160.363C148.583 160.326 148.733 160.252 148.859 160.145C148.984 160.039 149.083 159.905 149.147 159.752C149.21 159.6 149.236 159.435 149.223 159.271L147.28 136.541C147.242 136.093 147.066 135.668 146.776 135.325C146.486 134.982 146.097 134.738 145.662 134.626L138.455 133.063C138.297 133.027 138.134 133.027 137.977 133.066C137.82 133.104 137.675 133.179 137.553 133.285C137.43 133.39 137.335 133.523 137.273 133.672C137.212 133.821 137.187 133.983 137.2 134.144L139.115 156.88C139.154 157.327 139.331 157.75 139.621 158.092C139.911 158.434 140.3 158.678 140.734 158.79Z" fill="#09FF4F" stroke="#263238" stroke-linecap="round" stroke-linejoin="round"/>
<path opacity="0.3" d="M144.727 140.746L145.891 140.998C145.917 141.005 145.944 141.005 145.969 140.999C145.995 140.993 146.019 140.981 146.039 140.964C146.059 140.947 146.075 140.926 146.085 140.901C146.096 140.877 146.1 140.851 146.099 140.825L145.785 137.157C145.778 137.085 145.749 137.016 145.702 136.961C145.655 136.906 145.592 136.867 145.522 136.849L144.363 136.597C144.337 136.591 144.31 136.591 144.285 136.597C144.259 136.603 144.235 136.614 144.215 136.631C144.195 136.648 144.179 136.67 144.169 136.694C144.158 136.718 144.154 136.744 144.155 136.77L144.469 140.438C144.474 140.51 144.501 140.579 144.548 140.634C144.594 140.69 144.657 140.729 144.727 140.746Z" fill="black" fill-opacity="0.7"/>
<path d="M134.596 152.142C134.316 148.956 137.217 144.174 139.143 144.174C141.07 144.174 146.95 148.693 146.95 148.693C149.223 150.345 148.07 151.913 148.07 151.913C149.408 152.798 149.75 153.99 149.19 154.545C148.63 155.099 146.63 154.545 146.63 154.545C146.63 154.545 148.579 155.973 148.098 156.673C146.978 158.325 143.17 156.141 143.17 156.141C143.17 156.141 145.365 157.586 145.236 157.86C144.413 159.669 140.834 157.563 140.834 157.563L138.314 158.851C138.317 159.147 138.258 159.439 138.142 159.711C138.026 159.983 137.855 160.228 137.64 160.431C137.425 160.634 137.171 160.79 136.893 160.89C136.615 160.99 136.319 161.032 136.024 161.013" fill="white"/>
<path d="M134.596 152.142C134.316 148.956 137.217 144.174 139.143 144.174C141.07 144.174 146.95 148.693 146.95 148.693C149.223 150.345 148.07 151.913 148.07 151.913C149.408 152.798 149.75 153.99 149.19 154.545C148.63 155.099 146.63 154.545 146.63 154.545C146.63 154.545 148.579 155.973 148.098 156.673C146.978 158.325 143.17 156.141 143.17 156.141C143.17 156.141 145.365 157.586 145.236 157.86C144.413 159.669 140.834 157.563 140.834 157.563L138.314 158.851C138.317 159.147 138.258 159.439 138.142 159.711C138.026 159.983 137.855 160.228 137.64 160.431C137.425 160.634 137.171 160.79 136.893 160.89C136.615 160.99 136.319 161.032 136.024 161.013" stroke="#263238" stroke-linecap="round" stroke-linejoin="round"/>
<path d="M148.098 151.913C148.098 151.913 142.598 148.357 141.904 148.262C141.21 148.166 138.662 147.612 138.662 147.612" fill="white"/>
<path d="M148.098 151.913C148.098 151.913 142.598 148.357 141.904 148.262C141.21 148.166 138.662 147.612 138.662 147.612" stroke="#263238" stroke-linecap="round" stroke-linejoin="round"/>
<path d="M146.63 154.545C146.63 154.545 142.15 152.238 141.35 152.238C140.121 152.103 138.902 151.893 137.698 151.61" fill="white"/>
<path d="M146.63 154.545C146.63 154.545 142.15 152.238 141.35 152.238C140.121 152.103 138.902 151.893 137.698 151.61" stroke="#263238" stroke-linecap="round" stroke-linejoin="round"/>
<path d="M143.17 156.141C142.648 155.769 142.095 155.443 141.518 155.166C140.451 155.093 139.381 155.093 138.314 155.166" fill="white"/>
<path d="M143.17 156.141C142.648 155.769 142.095 155.443 141.518 155.166C140.451 155.093 139.381 155.093 138.314 155.166" stroke="#263238" stroke-linecap="round" stroke-linejoin="round"/>
<path d="M162.12 156.88C162.417 155.234 163.083 154.08 164.159 153.52C176.344 147.444 202.351 146.29 218.372 148.301C233.156 150.16 235.424 190.743 233.923 228.336H176.54C176.54 228.336 176.899 195.587 169.658 182.685C168.056 179.84 164.478 172.655 164.058 169.346" fill="#09FF4F"/>
<mask id="mask6_5_5331" style="mask-type:luminance" maskUnits="userSpaceOnUse" x="162" y="147" width="73" height="82">
<path d="M162.12 156.88C162.417 155.234 163.083 154.08 164.159 153.52C176.344 147.444 202.351 146.29 218.372 148.301C233.156 150.16 235.424 190.743 233.923 228.336H176.54C176.54 228.336 176.899 195.587 169.658 182.685C168.056 179.84 164.478 172.655 164.058 169.346" fill="white"/>
</mask>
<g mask="url(#mask6_5_5331)">
<path opacity="0.2" d="M233.923 228.33H176.54C176.54 228.33 176.618 221.392 175.98 212.65C175.98 212.65 174.39 206.418 179.827 203.158C184.75 200.207 197.154 198.751 200.312 196.086C203.946 193.017 204.887 184.712 210.549 170.729C214.021 162.155 230.322 165.129 230.322 165.129C234.338 180.781 234.847 205.124 233.923 228.33Z" fill="black"/>
</g>
<path d="M144.026 179.801C144.026 179.801 149.022 186.386 146.63 191.706" stroke="#263238" stroke-linecap="round" stroke-linejoin="round"/>
<path d="M161.93 172.65C161.93 172.65 163.822 178.222 168.213 179.98" stroke="#263238" stroke-linecap="round" stroke-linejoin="round"/>
<path d="M128.884 168.959C128.884 168.959 133.717 172.207 138.314 169.883" stroke="#263238" stroke-linecap="round" stroke-linejoin="round"/>
<path d="M145.65 182.506C145.65 182.506 148.932 183.805 149.761 186.907" stroke="#263238" stroke-linecap="round" stroke-linejoin="round"/>
<path d="M176.54 228.33C176.54 228.33 176.898 195.582 169.658 182.679C168.056 179.834 164.478 172.65 164.058 169.34" stroke="#263238" stroke-miterlimit="10"/>
<path d="M162.12 156.88C162.417 155.234 163.083 154.08 164.159 153.52C176.344 147.444 202.351 146.29 218.372 148.301C233.156 150.16 235.424 190.743 233.923 228.336" stroke="#263238" stroke-miterlimit="10"/>
<path d="M201.768 148.564C201.768 148.564 199.22 159.546 188.67 159.596C181.02 159.635 181.614 151.913 181.614 151.913C182.038 151.465 182.32 150.902 182.425 150.294C182.529 149.686 182.452 149.061 182.202 148.497C182.085 148.242 181.93 148.006 181.742 147.797C180.892 146.949 179.854 146.312 178.713 145.938C178.036 145.681 177.342 145.474 176.635 145.316C176.635 145.316 177.402 143.076 176.988 142.656C171.534 136.916 182.846 126.114 194.197 129.149C194.197 129.149 187.97 137.039 201.768 148.564Z" fill="white" stroke="#263238" stroke-linecap="round" stroke-linejoin="round"/>
<path d="M181.742 147.797C180.892 146.949 179.854 146.312 178.713 145.938C181.266 144.118 184.078 142.398 184.078 142.398C184.118 143.416 183.929 144.429 183.525 145.363C183.12 146.298 182.511 147.129 181.742 147.797Z" fill="#263238"/>
<path d="M196.392 123.185C197.658 106.29 188.675 100.454 183.182 99.1048C174.378 96.9656 164.466 104.022 163.43 113.458C162.394 122.894 164.92 124.613 165.379 128.337C165.704 130.952 164.304 132.481 167.059 138.725C168.896 142.846 171.909 149.449 179.077 147.069C181.266 146.317 183.339 145.263 185.237 143.938" fill="white"/>
<path d="M196.392 123.185C197.658 106.29 188.675 100.454 183.182 99.1048C174.378 96.9656 164.466 104.022 163.43 113.458C162.394 122.894 164.92 124.613 165.379 128.337C165.704 130.952 164.304 132.481 167.059 138.725C168.896 142.846 171.909 149.449 179.077 147.069C181.266 146.317 183.339 145.263 185.237 143.938" stroke="#263238" stroke-linecap="round" stroke-linejoin="round"/>
<path d="M174.098 121.23C174.098 121.23 176.982 119.618 179.172 122.95" stroke="#263238" stroke-linecap="round" stroke-linejoin="round"/>
<path d="M163.408 120.945C163.408 120.945 166.494 119.763 168.213 121.863" stroke="#263238" stroke-linecap="round" stroke-linejoin="round"/>
<path d="M169.747 126.36C169.747 126.36 170.464 129.16 169.462 129.882C168.459 130.605 166.578 129.709 167.446 131.904C168.314 134.099 170.94 133.83 170.94 133.83" stroke="#263238" stroke-linecap="round" stroke-linejoin="round"/>
<path d="M175.498 126.231C175.616 126.993 176.058 127.553 176.473 127.486C176.887 127.418 177.134 126.758 177.033 125.996C176.932 125.234 176.473 124.68 176.064 124.742C175.655 124.803 175.381 125.475 175.498 126.231Z" fill="#263238" stroke="#263238" stroke-linecap="round" stroke-linejoin="round"/>
<path d="M166.656 126.842C166.774 127.598 167.216 128.163 167.625 128.096C168.034 128.029 168.291 127.362 168.185 126.606C168.078 125.85 167.625 125.285 167.216 125.352C166.807 125.419 166.538 126.08 166.656 126.842Z" fill="#263238" stroke="#263238" stroke-linecap="round" stroke-linejoin="round"/>
<path d="M176.893 135.191C176.893 135.191 173.852 137.56 170.604 137.235" stroke="#263238" stroke-linecap="round" stroke-linejoin="round"/>
<path d="M176.4 135.908C176.4 135.908 176.4 138.4 174.16 138.96C171.92 139.52 171.466 137.308 171.466 137.308" stroke="#263238" stroke-linecap="round" stroke-linejoin="round"/>
<path d="M191.363 98.7352C191.363 98.7352 187.897 93.9976 176.893 96.372C165.889 98.7464 162.036 101.115 160.255 104.52C158.474 107.925 155.512 118.828 158.329 121.236C161.146 123.644 163.184 122.95 163.184 122.95C163.184 122.95 159.074 122.608 159.074 119.494C159.074 119.494 161.09 121.701 163.638 122.227C163.427 120.346 163.35 118.452 163.408 116.56C163.52 112.483 166.583 110.288 169.081 111.296C169.081 111.296 170.828 109.017 172.217 110.646C174.098 112.853 170.828 123.941 178.64 122.966C178.64 122.966 174.16 121.88 176.26 114.247C176.26 114.247 176.893 122.552 182.79 122.966C184.906 123.118 185.623 125.66 185.825 127.071L187.6 126.36C188.048 125.643 190.042 124.506 190.96 125.128C194.516 127.575 191.811 130.543 191.52 133.836L192.802 135.908C196.19 133.058 203.7 120.088 199.399 111.195C199.987 111.442 200.508 111.824 200.92 112.311C201.332 112.797 201.622 113.375 201.768 113.995C201.768 113.995 202.311 102.14 191.363 98.7352Z" fill="#263238"/>
<path d="M187.6 127.48C187.6 127.48 189.722 121.443 193.06 122.317C196.398 123.19 195.255 130.185 192.881 132.778C190.506 135.37 188.53 133.455 188.53 133.455" fill="white"/>
<path d="M187.6 127.48C187.6 127.48 189.722 121.443 193.06 122.317C196.398 123.19 195.255 130.185 192.881 132.778C190.506 135.37 188.53 133.455 188.53 133.455" stroke="#263238" stroke-linecap="round" stroke-linejoin="round"/>
<g opacity="0.2">
<path d="M171.483 105.276C175.549 103.187 177.879 108.726 179.984 114.706C182.09 120.687 186.183 121.236 186.183 121.236" stroke="white" stroke-linecap="round" stroke-linejoin="round"/>
<path d="M169.081 107.286C169.081 107.286 166.096 103.187 163.184 105.735C160.272 108.283 157.495 117.366 161.594 119.36" stroke="white" stroke-linecap="round" stroke-linejoin="round"/>
<path d="M175.106 102.269C179.648 100.639 183.193 100.186 185.853 107.942C188.513 115.698 190.725 120.015 195.709 121.236" stroke="white" stroke-linecap="round" stroke-linejoin="round"/>
<path d="M186.183 99.5304C190.4 100.751 194.32 111.464 197.887 113.2" stroke="white" stroke-linecap="round" stroke-linejoin="round"/>
<path d="M172.559 101.558C172.559 101.558 171.231 98.9536 167.799 100.41" stroke="white" stroke-linecap="round" stroke-linejoin="round"/>
</g>
<path d="M218.534 151.017C213.954 152.921 212.436 155.799 211.002 164.037C210.106 169.172 210.442 198.757 210.442 198.757C210.442 198.757 184.682 201.428 179.844 203.147C177.632 203.931 176.635 206.507 176.635 206.507L173.751 207.067C172.987 209.194 172.731 211.47 173.004 213.713C173.276 215.956 174.069 218.104 175.319 219.986L178.808 219.589C180.533 224.5 222.902 223.363 228.726 216.554C234.702 209.565 239.837 158.874 222.141 149.779" fill="#09FF4F"/>
<path d="M218.534 151.017C213.954 152.921 212.436 155.799 211.002 164.037C210.106 169.172 210.442 198.757 210.442 198.757C210.442 198.757 184.682 201.428 179.844 203.147C177.632 203.931 176.635 206.507 176.635 206.507L173.751 207.067C172.987 209.194 172.731 211.47 173.004 213.713C173.276 215.956 174.069 218.104 175.319 219.986L178.808 219.589C180.533 224.5 222.902 223.363 228.726 216.554C234.702 209.565 239.837 158.874 222.141 149.779" stroke="#263238" stroke-linecap="round" stroke-linejoin="round"/>
<path d="M179.844 152.59C179.844 152.59 179.138 159.03 185.92 161.92C192.702 164.81 202.423 157.569 203.84 149.774" stroke="#263238" stroke-linecap="round" stroke-linejoin="round"/>
<path d="M203.067 170.992C203.067 170.992 192.097 187.607 180.802 191.712" stroke="#263238" stroke-linecap="round" stroke-linejoin="round"/>
<path d="M210.442 198.762C210.442 198.762 214.144 198.348 216.042 200.566" stroke="#263238" stroke-linecap="round" stroke-linejoin="round"/>
<path d="M213.231 169.883C213.231 169.883 218.686 186.722 225.439 189.931" stroke="#263238" stroke-linecap="round" stroke-linejoin="round"/>
<path d="M216.026 194.473C216.026 194.473 212.33 194.915 210.426 197.687" stroke="#263238" stroke-linecap="round" stroke-linejoin="round"/>
<path d="M176.635 206.49C177.875 208.361 178.622 210.515 178.808 212.751" stroke="#263238" stroke-linecap="round" stroke-linejoin="round"/>
<path d="M173.992 208.473C173.992 208.473 166.152 209.033 165.536 209.033C164.92 209.033 158.15 204.81 156.19 205.051C154.028 205.314 148.882 212.242 148.618 212.998C148.469 213.411 148.488 213.867 148.671 214.267C148.855 214.667 149.188 214.98 149.598 215.137C149.503 216.934 151.838 217.64 151.838 217.64C151.805 219.208 154.476 219.561 154.476 219.561C155.988 222.439 161.196 218.654 161.196 218.654C163.261 218.664 165.315 218.343 167.278 217.702L175.566 217.942C175.84 212.141 173.992 208.473 173.992 208.473Z" fill="white" stroke="#263238" stroke-linecap="round" stroke-linejoin="round"/>
<path d="M156.75 205.998C156.75 205.998 156.324 207.325 156.71 207.823C157.097 208.322 158.06 208.198 158.043 209.117C158.026 210.035 157.931 210.59 159.354 211.25C160.776 211.911 159.096 214.05 160.205 214.493" stroke="#263238" stroke-linecap="round" stroke-linejoin="round"/>
<path d="M154.986 211.85C154.986 211.85 151.861 215.977 151.827 217.651" stroke="#263238" stroke-linecap="round" stroke-linejoin="round"/>
<path d="M157.052 214.431C157.052 214.431 154.252 218.228 154.465 219.572" stroke="#263238" stroke-linecap="round" stroke-linejoin="round"/>
<path d="M149.598 215.148C149.598 215.148 151.536 211.329 154.263 209.481" stroke="#263238" stroke-linecap="round" stroke-linejoin="round"/>
<path d="M159.678 216.761C159.144 217.691 158.312 218.413 157.315 218.81" stroke="#263238" stroke-linecap="round" stroke-linejoin="round"/>
<path d="M158.872 217.791C158.872 217.791 162.232 217.858 161.196 218.665" stroke="#263238" stroke-linecap="round" stroke-linejoin="round"/>
<path d="M248.007 231.69V219.242C248.007 218.524 247.722 217.836 247.215 217.329C246.708 216.822 246.02 216.537 245.302 216.537H39.5639C38.8466 216.537 38.1586 216.822 37.6513 217.329C37.1441 217.836 36.8591 218.524 36.8591 219.242V231.69" fill="white"/>
<mask id="mask7_5_5331" style="mask-type:luminance" maskUnits="userSpaceOnUse" x="36" y="216" width="213" height="16">
<path d="M248.007 231.69V219.242C248.007 218.524 247.722 217.836 247.215 217.329C246.708 216.822 246.02 216.537 245.302 216.537H39.5639C38.8466 216.537 38.1586 216.822 37.6513 217.329C37.1441 217.836 36.8591 218.524 36.8591 219.242V231.69" fill="white"/>
</mask>
<g mask="url(#mask7_5_5331)">
<path opacity="0.4" d="M248.007 219.242V224.31C246.499 223.999 244.95 223.933 243.421 224.114C238.834 224.746 234.338 229.467 220.5 229.467C206.662 229.467 200.441 224.814 188.082 224.814C175.722 224.814 174.3 229.91 169.21 229.91C164.119 229.91 159.69 227.815 150.45 227.815C141.21 227.815 135.313 230.8 117.04 230.8C98.7672 230.8 94.5672 223.486 85.8592 224.119C77.1512 224.752 66.4272 228.336 51.3632 228.336C46.4092 228.399 41.4897 227.504 36.876 225.698V219.242C36.876 218.524 37.1609 217.836 37.6682 217.329C38.1754 216.822 38.8634 216.537 39.5808 216.537H245.28C245.637 216.534 245.991 216.602 246.322 216.736C246.653 216.871 246.954 217.07 247.207 217.321C247.461 217.572 247.662 217.872 247.799 218.201C247.936 218.531 248.007 218.884 248.007 219.242Z" fill="#09FF4F"/>
</g>
<path d="M248.007 231.69V219.242C248.007 218.524 247.722 217.836 247.215 217.329C246.708 216.822 246.02 216.537 245.302 216.537H39.5639C38.8466 216.537 38.1586 216.822 37.6513 217.329C37.1441 217.836 36.8591 218.524 36.8591 219.242V231.69" stroke="#263238" stroke-linecap="round" stroke-linejoin="round"/>
<path d="M123.642 206.11C123.642 206.11 124.454 204.486 125.636 205.068C126.818 205.65 126.448 210.248 124.639 210.248C122.83 210.248 121.061 209.083 120.91 207.398C120.758 205.712 123.642 206.11 123.642 206.11Z" fill="#09FF4F" stroke="#263238" stroke-linecap="round" stroke-linejoin="round"/>
<path d="M124.191 205.376L124.527 204.256L123.273 205.376L121.945 204.256L122.388 205.376L120.904 206.11C120.904 206.11 123.849 206.513 124.191 205.376Z" fill="#263238"/>
<path d="M137.379 213.804H111.899L112.353 210.662C112.383 210.451 112.488 210.257 112.65 210.117C112.811 209.977 113.018 209.9 113.232 209.901H136.08C136.293 209.901 136.498 209.979 136.659 210.119C136.819 210.259 136.924 210.452 136.954 210.662L137.379 213.804Z" fill="white"/>
<mask id="mask8_5_5331" style="mask-type:luminance" maskUnits="userSpaceOnUse" x="111" y="209" width="27" height="5">
<path d="M137.379 213.804H111.899L112.353 210.662C112.383 210.451 112.488 210.257 112.65 210.117C112.811 209.977 113.018 209.9 113.232 209.901H136.08C136.293 209.901 136.498 209.979 136.659 210.119C136.819 210.259 136.924 210.452 136.954 210.662L137.379 213.804Z" fill="white"/>
</mask>
<g mask="url(#mask8_5_5331)">
<path opacity="0.4" d="M137.379 213.804H111.899L112.353 210.662C112.383 210.451 112.488 210.257 112.65 210.117C112.811 209.977 113.018 209.9 113.232 209.901H136.08C136.293 209.901 136.498 209.979 136.659 210.119C136.819 210.259 136.924 210.452 136.954 210.662L137.379 213.804Z" fill="#09FF4F"/>
</g>
<path d="M137.379 213.804H111.899L112.353 210.662C112.383 210.451 112.488 210.257 112.65 210.117C112.811 209.977 113.018 209.9 113.232 209.901H136.08C136.293 209.901 136.498 209.979 136.659 210.119C136.819 210.259 136.924 210.452 136.954 210.662L137.379 213.804Z" stroke="#263238" stroke-linecap="round" stroke-linejoin="round"/>
<path d="M136.074 216.537H113.383L107.783 214.431H141.674L136.074 216.537Z" fill="white"/>
<mask id="mask9_5_5331" style="mask-type:luminance" maskUnits="userSpaceOnUse" x="107" y="214" width="35" height="3">
<path d="M136.074 216.537H113.383L107.783 214.431H141.674L136.074 216.537Z" fill="white"/>
</mask>
<g mask="url(#mask9_5_5331)">
<path opacity="0.4" d="M136.074 216.537H113.383L107.783 214.431H141.674L136.074 216.537Z" fill="#09FF4F"/>
</g>
<path d="M136.074 216.537H113.383L107.783 214.431H141.674L136.074 216.537Z" stroke="#263238" stroke-linecap="round" stroke-linejoin="round"/>
<path d="M142.861 214.818H106.601C106.377 214.818 106.161 214.729 106.002 214.57C105.842 214.412 105.752 214.197 105.75 213.972C105.75 213.746 105.84 213.53 106 213.37C106.159 213.21 106.376 213.121 106.601 213.121H142.861C143.086 213.122 143.301 213.213 143.46 213.372C143.618 213.532 143.707 213.747 143.707 213.972C143.706 214.196 143.616 214.41 143.458 214.568C143.299 214.727 143.085 214.816 142.861 214.818Z" fill="white" stroke="#263238" stroke-linecap="round" stroke-linejoin="round"/>
<path d="M77.7393 204.239C77.7393 204.239 73.3824 203.595 73.164 206.182C72.9456 208.77 76.0088 214.633 80.444 213.804V212.32C80.444 212.32 76.1376 213.132 74.984 207.605C74.3176 204.536 78.4001 206.16 78.4001 206.16L77.7393 204.239Z" fill="white"/>
<mask id="mask10_5_5331" style="mask-type:luminance" maskUnits="userSpaceOnUse" x="73" y="204" width="8" height="10">
<path d="M77.7393 204.239C77.7393 204.239 73.3824 203.595 73.164 206.182C72.9456 208.77 76.0088 214.633 80.444 213.804V212.32C80.444 212.32 76.1376 213.132 74.984 207.605C74.3176 204.536 78.4001 206.16 78.4001 206.16L77.7393 204.239Z" fill="white"/>
</mask>
<g mask="url(#mask10_5_5331)">
<path opacity="0.4" d="M77.7393 204.239C77.7393 204.239 73.3824 203.595 73.164 206.182C72.9456 208.77 76.0088 214.633 80.444 213.804V212.32C80.444 212.32 76.1376 213.132 74.984 207.605C74.3176 204.536 78.4001 206.16 78.4001 206.16L77.7393 204.239Z" fill="#09FF4F"/>
</g>
<path d="M77.7393 204.239C77.7393 204.239 73.3824 203.595 73.164 206.182C72.9456 208.77 76.0088 214.633 80.444 213.804V212.32C80.444 212.32 76.1376 213.132 74.984 207.605C74.3176 204.536 78.4001 206.16 78.4001 206.16L77.7393 204.239Z" stroke="#263238" stroke-linecap="round" stroke-linejoin="round"/>
<path d="M90.7198 213.804C89.2568 214.959 87.4302 215.554 85.5678 215.484C75.8238 215.484 76.927 203.002 76.927 203.002H94.2086C94.2086 203.002 94.8638 210.399 90.7198 213.804Z" fill="white"/>
<mask id="mask11_5_5331" style="mask-type:luminance" maskUnits="userSpaceOnUse" x="76" y="203" width="19" height="13">
<path d="M90.7198 213.804C89.2568 214.959 87.4302 215.554 85.5678 215.484C75.8238 215.484 76.927 203.002 76.927 203.002H94.2086C94.2086 203.002 94.8638 210.399 90.7198 213.804Z" fill="white"/>
</mask>
<g mask="url(#mask11_5_5331)">
<path opacity="0.4" d="M90.7198 213.804C89.2568 214.959 87.4302 215.554 85.5678 215.484C75.8238 215.484 76.927 203.002 76.927 203.002H80.0798C80.0798 203.002 80.4494 208.49 82.443 211.15C84.4366 213.81 90.6694 213.804 90.7198 213.804Z" fill="#09FF4F"/>
</g>
<path d="M90.7198 213.804C89.2568 214.959 87.4302 215.554 85.5678 215.484C75.8238 215.484 76.927 203.002 76.927 203.002H94.2086C94.2086 203.002 94.8638 210.399 90.7198 213.804Z" stroke="#263238" stroke-linecap="round" stroke-linejoin="round"/>
<path d="M92.8143 216.537H77.3527L73.5391 215.103H96.6335L92.8143 216.537Z" fill="white"/>
<mask id="mask12_5_5331" style="mask-type:luminance" maskUnits="userSpaceOnUse" x="73" y="215" width="24" height="2">
<path d="M92.8143 216.537H77.3527L73.5391 215.103H96.6335L92.8143 216.537Z" fill="white"/>
</mask>
<g mask="url(#mask12_5_5331)">
<path opacity="0.4" d="M92.8143 216.537H77.3527L73.5391 215.103H96.6335L92.8143 216.537Z" fill="#09FF4F"/>
</g>
<path d="M92.8143 216.537H77.3527L73.5391 215.103H96.6335L92.8143 216.537Z" stroke="#263238" stroke-linecap="round" stroke-linejoin="round"/>
<path d="M97.44 215.366H72.7329C72.5843 215.366 72.4419 215.307 72.3369 215.202C72.2319 215.097 72.1729 214.955 72.1729 214.806C72.1729 214.658 72.2319 214.515 72.3369 214.41C72.4419 214.305 72.5843 214.246 72.7329 214.246H97.44C97.5886 214.246 97.731 214.305 97.836 214.41C97.941 214.515 98 214.658 98 214.806C98 214.955 97.941 215.097 97.836 215.202C97.731 215.307 97.5886 215.366 97.44 215.366Z" fill="white" stroke="#263238" stroke-linecap="round" stroke-linejoin="round"/>
<path d="M84.9015 188.901C80.8807 192.294 87.8135 197.76 84.9015 200.05C84.9015 200.05 87.7519 198.93 85.9767 195.173C84.2015 191.415 84.9015 188.901 84.9015 188.901Z" fill="white"/>
</svg>
