<svg width="314" height="311" viewBox="0 0 314 311" fill="none" xmlns="http://www.w3.org/2000/svg">
<path d="M32.2259 141H1.22589V181H32.2259V141Z" fill="#09FF4F"/>
<path d="M31.8581 181H1.59371C1.49616 181 1.4026 180.96 1.33362 180.889C1.26464 180.819 1.22589 180.723 1.22589 180.623V141.377C1.22589 141.277 1.26464 141.181 1.33362 141.111C1.4026 141.04 1.49616 141 1.59371 141H31.8581C31.9556 141 32.0492 141.04 32.1182 141.111C32.1871 141.181 32.2259 141.277 32.2259 141.377V180.623C32.2259 180.723 32.1871 180.819 32.1182 180.889C32.0492 180.96 31.9556 181 31.8581 181ZM1.96153 180.245H31.4902V141.755H1.96153V180.245Z" fill="#263238"/>
<path d="M3.62449 94.9549C2.207 94.8294 1.44443 94.8294 1.43546 94.8294V93.9922C1.43546 93.9922 2.25186 93.9923 3.71421 94.1262L3.62449 94.9549Z" fill="#263238"/>
<path d="M114.217 126.652C112.727 126.652 111.232 126.627 109.731 126.577V125.74C111.247 125.74 112.754 125.807 114.217 125.815V126.652ZM118.702 126.652V125.815C120.236 125.815 121.744 125.757 123.188 125.698V126.535C121.788 126.594 120.281 126.652 118.729 126.652H118.702ZM105.146 126.426C103.657 126.359 102.15 126.267 100.661 126.158L100.732 125.321C102.24 125.43 103.738 125.522 105.218 125.589L105.146 126.426ZM127.737 126.326L127.683 125.489C129.253 125.397 130.742 125.288 132.168 125.171L132.249 126.008C130.841 126.133 129.342 126.234 127.763 126.326H127.737ZM96.157 125.815C94.6409 125.664 93.1337 125.505 91.6713 125.33L91.7879 124.493C93.2503 124.668 94.7485 124.827 96.2737 124.97L96.157 125.815ZM87.1856 124.727C85.6873 124.501 84.1891 124.258 82.6999 123.999L82.8613 123.161C84.3147 123.421 85.804 123.664 87.2932 123.881L87.1856 124.727ZM78.3038 123.128C76.8146 122.81 75.3343 122.467 73.9078 122.107L74.1411 121.27C75.5586 121.621 77.0209 121.964 78.5012 122.283L78.3038 123.128ZM69.5656 120.918C68.1033 120.483 66.6589 120.014 65.2863 119.537L65.6003 118.75C66.9639 119.227 68.3904 119.687 69.8438 120.114L69.5656 120.918ZM61.0697 117.921C59.6701 117.343 58.2885 116.732 56.9787 116.096L57.3914 115.351C58.6833 115.979 60.0828 116.582 61.4375 117.151L61.0697 117.921ZM52.9954 114.012C52.2776 113.593 51.5599 113.175 50.8691 112.723L49.2184 111.693L49.7118 110.99L51.3715 112.028C52.0534 112.463 52.7531 112.865 53.4709 113.3L52.9954 114.012ZM45.4324 109.424C44.1585 108.688 42.8576 107.968 41.5747 107.273L42.0233 106.553C43.3152 107.248 44.625 107.976 45.9079 108.713L45.4324 109.424ZM37.6452 105.239C36.3174 104.577 34.9538 103.933 33.6439 103.33L34.0387 102.577C35.3754 103.188 36.7301 103.832 38.0669 104.502L37.6452 105.239ZM29.5709 101.564C28.1983 100.994 26.8077 100.45 25.4261 99.948L25.758 99.1695C27.1486 99.6802 28.5482 100.224 29.9387 100.802L29.5709 101.564ZM21.2185 98.4831C19.792 98.0227 18.3566 97.5874 16.9481 97.2023L17.2082 96.3652C18.6257 96.7586 20.0791 97.2023 21.5145 97.6627L21.2185 98.4831ZM12.6238 96.1224C11.1346 95.7792 9.65428 95.4945 8.24576 95.2853L8.39827 94.4481C9.83371 94.6909 11.323 94.9839 12.884 95.2853L12.6238 96.1224Z" fill="#263238"/>
<path d="M136.563 125.862L136.465 125.024C137.236 124.941 137.972 124.849 138.672 124.757L138.797 125.594C138.089 125.686 137.344 125.778 136.563 125.862Z" fill="#263238"/>
<path d="M138.205 129.428L145.059 124.062L136.653 121.207L138.205 129.428Z" fill="#263238"/>
<path d="M2.2249 1.99235L0.529297 0.627843L1.12141 0L2.80805 1.36451L2.2249 1.99235Z" fill="#263238"/>
<path d="M137.846 88.5761C136.546 88.1157 135.155 87.6051 133.567 87.0191L133.908 86.2405C135.451 86.8265 136.868 87.3372 138.16 87.7892L137.846 88.5761ZM129.332 85.3783C128.005 84.8593 126.602 84.3012 125.125 83.7041L125.484 82.9339C126.961 83.5422 128.361 84.1003 129.682 84.6082L129.332 85.3783ZM120.962 81.921L116.799 80.1212L117.185 79.3594C118.63 79.9956 120.011 80.59 121.339 81.1592L120.962 81.921ZM112.664 78.2795L108.824 76.5383L108.546 76.4127L108.94 75.6593L109.218 75.7849L113.058 77.5261L112.664 78.2795ZM104.464 74.412C103.208 73.7674 101.862 73.0475 100.471 72.2773L100.929 71.5574C102.31 72.3192 103.62 73.0307 104.903 73.6753L104.464 74.412ZM96.5508 70.0506C95.2858 69.3139 93.9849 68.5437 92.6751 67.7485L93.1596 67.0453C94.4694 67.8378 95.7583 68.6023 97.0263 69.339L96.5508 70.0506ZM88.8353 65.3878C87.5913 64.612 86.3263 63.8112 85.0404 62.9852L85.5518 62.2904C86.8257 63.1108 88.0877 63.9116 89.3377 64.693L88.8353 65.3878ZM81.2724 60.5408C80.0343 59.7316 78.7873 58.8945 77.5313 58.0295L78.0516 57.3514L81.7838 59.8628L81.2724 60.5408ZM73.8082 55.5181L70.1119 53.0067L70.6502 52.337L74.3375 54.8484L73.8082 55.5181ZM66.4336 50.42C65.2135 49.5829 63.9934 48.7458 62.7733 47.8417L63.3116 47.1803C64.5317 48.0175 65.7518 48.9048 66.9719 49.7503L66.4336 50.42ZM59.0591 45.2801L55.4705 42.6599L56.0178 41.9985C57.2289 42.8357 58.4401 43.7481 59.6512 44.6104L59.0591 45.2801ZM51.8819 40.0397L48.2933 37.3944L48.8496 36.733L52.4381 39.3783L51.8819 40.0397ZM44.7048 34.7323L41.1162 32.0702L41.6724 31.4173L45.261 34.0793L44.7048 34.7323ZM37.5276 29.3831L33.939 26.6959L34.5042 26.0429L38.0928 28.7301L37.5276 29.3831ZM30.3504 23.9669L26.7618 21.2462L27.327 20.6016L30.9156 23.3139L30.3504 23.9669ZM23.263 18.5256L19.7372 15.7882L20.3114 15.1436L23.8372 17.881L23.263 18.5256ZM16.2204 13.0843L12.7036 10.3301L13.2867 9.69391L16.7946 12.448L16.2204 13.0843ZM9.19573 7.56762C7.90384 6.54633 6.72859 5.61712 5.69687 4.78836L6.28001 4.15215L9.77888 6.9314L9.19573 7.56762Z" fill="#263238"/>
<path d="M144.153 90.602C143.507 90.4178 142.79 90.2002 142.009 89.9574L142.296 89.1203C143.068 89.3631 143.777 89.5723 144.422 89.7649L144.153 90.602Z" fill="#263238"/>
<path d="M141.973 93.8918L150.559 91.5563L144.099 85.7801L141.973 93.8918Z" fill="#263238"/>
<path d="M2.25184 239.191C0.78949 239.124 0 239.058 0 239.058L0.0807432 238.22C0.0807432 238.22 0.861261 238.287 2.29669 238.346L2.25184 239.191Z" fill="#263238"/>
<path d="M7.8321 239.309H6.80038V238.471H7.8321C8.89971 238.471 10.066 238.471 11.322 238.43V239.267C10.075 239.3 8.90868 239.309 7.8321 239.309ZM15.9064 239.099V238.262C17.4046 238.187 18.9208 238.086 20.3921 237.978L20.4729 238.815C18.9118 238.932 17.3867 239.032 15.8795 239.108L15.9064 239.099ZM24.9676 238.413L24.8689 237.576C26.3671 237.425 27.8743 237.249 29.3546 237.057L29.4712 237.894C27.964 238.086 26.4479 238.271 24.9676 238.413ZM33.939 237.266L33.7955 236.429C35.2847 236.203 36.783 235.952 38.2812 235.684L38.4517 236.521C36.9445 236.78 35.4373 237.032 33.939 237.266ZM42.8567 235.65L42.6593 234.813C44.1306 234.512 45.6019 234.185 47.0553 233.842L47.2706 234.679C45.8172 235.014 44.328 235.341 42.8567 235.65ZM51.6577 233.566L51.4154 232.729C52.8509 232.344 54.3042 231.934 55.7397 231.507L56.0088 232.344C54.5734 232.762 53.1021 233.181 51.6577 233.566ZM60.3151 230.988L60.0191 230.201C61.4365 229.732 62.863 229.238 64.2446 228.736L64.5766 229.514C63.177 230.025 61.7505 230.519 60.3151 230.988ZM68.7842 227.907L68.4253 227.137C69.8159 226.584 71.1975 226.007 72.5432 225.421L72.929 226.182C71.6191 226.768 70.1747 227.388 68.7842 227.907ZM77.011 224.316L76.5983 223.571C77.9351 222.934 79.2897 222.273 80.5816 221.587L81.0212 222.323C79.6935 223.01 78.3477 223.679 77.002 224.316H77.011ZM84.9507 220.197L84.4842 219.477C85.4531 218.941 86.4131 218.38 87.3641 217.803C87.678 217.619 87.9831 217.435 88.2612 217.234L88.7726 217.928L87.8216 218.514C86.8706 219.092 85.9196 219.653 84.9507 220.197ZM92.4329 215.342L91.8498 214.697C92.9533 213.86 94.0657 212.872 95.1513 211.859L95.7882 212.454C94.6758 213.483 93.5543 214.454 92.4329 215.342ZM98.8924 209.331L98.2105 208.787C99.1615 207.774 100.121 206.677 101.072 205.539L101.781 206.05C100.821 207.205 99.8523 208.31 98.8924 209.331ZM104.491 202.634L103.755 202.149C104.598 201.044 105.45 199.872 106.294 198.666L107.047 199.118C106.195 200.349 105.334 201.529 104.491 202.643V202.634ZM109.47 195.535L108.707 195.1C109.491 193.9 110.262 192.692 111.022 191.475L111.793 191.894C111.031 193.124 110.259 194.347 109.47 195.577V195.535ZM114.036 188.211L113.247 187.809C113.982 186.57 114.706 185.334 115.418 184.1L116.207 184.494C115.49 185.741 114.772 186.98 114.036 188.219V188.211ZM118.334 180.76L117.544 180.367L119.643 176.625L120.442 177.01L118.334 180.76ZM122.532 173.226L121.743 172.841C122.46 171.563 123.169 170.316 123.869 169.099L124.658 169.501C123.959 170.748 123.25 171.995 122.532 173.268V173.226ZM126.838 165.801L126.058 165.391C126.883 164.026 127.637 162.829 128.364 161.732L129.126 162.168C128.408 163.298 127.655 164.486 126.838 165.843V165.801Z" fill="#263238"/>
<path d="M131.566 158.744L130.84 158.267C131.288 157.664 131.737 157.103 132.185 156.592L132.885 157.111C132.455 157.597 132.015 158.141 131.566 158.744Z" fill="#263238"/>
<path d="M134.931 160.669L137.111 152.574L128.507 154.86L134.931 160.669Z" fill="#263238"/>
<path d="M5.44568 176.039C3.98334 175.913 3.20282 175.804 3.20282 175.804L3.33739 174.967C3.33739 174.967 4.10894 175.068 5.5354 175.202L5.44568 176.039Z" fill="#263238"/>
<path d="M18.6876 176.466V175.629C20.114 175.629 21.5943 175.57 23.0746 175.511V176.349C21.6123 176.407 20.132 176.449 18.6876 176.466ZM14.2736 176.466C12.7664 176.466 11.2771 176.399 9.85965 176.332L9.90451 175.495C11.313 175.562 12.7843 175.612 14.2915 175.629L14.2736 176.466ZM27.5155 176.106L27.4527 175.269C28.8971 175.177 30.3684 175.051 31.8218 174.917L31.9115 175.754C30.4491 175.888 28.9688 176.005 27.5155 176.106ZM36.2985 175.269L36.1819 174.431C37.6353 174.256 39.0976 174.063 40.533 173.854L40.6676 174.691C39.2232 174.917 37.7519 175.11 36.2985 175.285V175.269ZM45.0277 174.005L44.8663 173.167C46.2748 172.925 47.7102 172.665 49.1726 172.372L49.352 173.209C47.8896 173.511 46.4452 173.812 45.0277 174.021V174.005ZM53.6583 172.33L53.4519 171.493C54.8694 171.175 56.3049 170.832 57.7044 170.48L57.9377 171.317C56.5292 171.652 55.0937 171.995 53.6762 172.314L53.6583 172.33ZM62.1901 170.187L61.93 169.35C63.3205 168.965 64.7291 168.513 66.1196 168.12L66.3978 168.915C65.0072 169.359 63.5897 169.777 62.1901 170.171V170.187ZM70.5695 167.609L70.2734 166.822C71.6371 166.362 73.0187 165.876 74.3734 165.374L74.7053 166.152C73.3417 166.638 71.9511 167.115 70.5695 167.592V167.609ZM78.7963 164.604L78.4464 163.834C79.7832 163.306 81.1378 162.745 82.4656 162.159L82.8335 162.921C81.4877 163.482 80.133 164.043 78.7963 164.604ZM86.8706 161.163L86.4669 160.41C87.4059 159.974 88.3479 159.531 89.2929 159.079L90.3784 158.543L90.8001 159.288L89.7056 159.815C88.6649 160.251 87.7678 160.703 86.8168 161.138L86.8706 161.163ZM94.7027 157.388L94.281 156.643L98.1836 154.742L98.6053 155.487L94.7027 157.388ZM102.508 153.579L102.086 152.842L105.989 150.933L106.401 151.678L102.508 153.579ZM110.304 149.77L109.882 149.025L113.776 147.116L114.198 147.853L110.304 149.77Z" fill="#263238"/>
<path d="M119.606 144.195L117.622 145.172L118.041 145.912L120.025 144.935L119.606 144.195Z" fill="#263238"/>
<path d="M120.729 148.799L125.502 141.742L116.566 141.407L120.729 148.799Z" fill="#263238"/>
<path d="M50.7694 194.079H44.8393V213.458H50.7694V194.079Z" fill="#263238"/>
<path d="M51.2269 213.877H44.3907V193.66H51.2269V213.877ZM45.2878 213.04H50.3298V194.497H45.2878V213.04Z" fill="#263238"/>
<path d="M61.1583 183.64H55.2282V213.458H61.1583V183.64Z" fill="#09FF4F"/>
<path d="M61.1584 213.877H55.2282C55.1093 213.877 54.9952 213.833 54.911 213.754C54.8269 213.676 54.7797 213.569 54.7797 213.458V183.64C54.7797 183.529 54.8269 183.422 54.911 183.344C54.9952 183.265 55.1093 183.221 55.2282 183.221H61.1584C61.2773 183.221 61.3914 183.265 61.4756 183.344C61.5597 183.422 61.6069 183.529 61.6069 183.64V213.458C61.6069 213.569 61.5597 213.676 61.4756 213.754C61.3914 213.833 61.2773 213.877 61.1584 213.877ZM55.6768 213.04H60.7098V184.058H55.6768V213.04Z" fill="#263238"/>
<path d="M71.5383 199.913H65.6082V213.458H71.5383V199.913Z" fill="#263238"/>
<path d="M71.9869 213.877H65.1596V199.495H71.9869V213.877ZM66.0568 213.04H71.0897V200.332H66.0568V213.04Z" fill="#263238"/>
<path d="M81.9183 185.096H75.9882V213.458H81.9183V185.096Z" fill="#09FF4F"/>
<path d="M81.9183 213.877H75.9882C75.8699 213.875 75.7571 213.83 75.6735 213.752C75.5899 213.674 75.5419 213.568 75.5396 213.458V185.096C75.5396 184.985 75.5868 184.879 75.671 184.8C75.7551 184.722 75.8692 184.678 75.9882 184.678H81.9183C82.0373 184.678 82.1514 184.722 82.2355 184.8C82.3196 184.879 82.3669 184.985 82.3669 185.096V213.458C82.3669 213.569 82.3196 213.676 82.2355 213.754C82.1514 213.833 82.0373 213.877 81.9183 213.877ZM76.4367 213.04H81.4877V185.532H76.4547L76.4367 213.04Z" fill="#263238"/>
<path d="M42.0581 182.434H37.8954V183.271H42.0581V182.434Z" fill="#263238"/>
<path d="M42.0581 186.804H37.8954V187.641H42.0581V186.804Z" fill="#263238"/>
<path d="M42.0581 191.174H37.8954V192.011H42.0581V191.174Z" fill="#263238"/>
<path d="M42.0581 195.552H37.8954V196.389H42.0581V195.552Z" fill="#263238"/>
<path d="M42.0581 199.922H37.8954V200.759H42.0581V199.922Z" fill="#263238"/>
<path d="M42.0581 204.292H37.8954V205.129H42.0581V204.292Z" fill="#263238"/>
<path d="M42.0581 208.661H37.8954V209.499H42.0581V208.661Z" fill="#263238"/>
<path d="M42.0581 213.04H37.8954V213.877H42.0581V213.04Z" fill="#263238"/>
<path d="M46.5528 189.458L45.8979 188.88L59.2923 175.637L68.6405 188.001L77.8811 177.914L78.563 178.458L68.5777 189.357L59.1846 176.951L46.5528 189.458Z" fill="#263238"/>
<path d="M80.77 181.823L82.4028 173.619L73.9696 176.407L80.77 181.823Z" fill="#263238"/>
<path d="M21.0121 134C18.5708 133.998 16.1837 134.664 14.1529 135.913C12.1222 137.162 10.5389 138.939 9.60332 141.017C8.66778 143.096 8.42205 145.384 8.89721 147.592C9.37236 149.799 10.5471 151.827 12.2727 153.419C13.9983 155.011 16.1974 156.096 18.5917 156.535C20.986 156.975 23.4679 156.75 25.7236 155.889C27.9793 155.028 29.9073 153.57 31.2639 151.699C32.6204 149.828 33.3445 147.628 33.3445 145.377C33.3445 142.361 32.0455 139.469 29.733 137.335C27.4205 135.202 24.2837 134.002 21.0121 134ZM21.0121 154.315C19.0946 154.315 17.2202 153.79 15.6259 152.808C14.0315 151.826 12.7889 150.431 12.0551 148.797C11.3213 147.164 11.1293 145.367 11.5034 143.634C11.8775 141.9 12.8008 140.307 14.1567 139.058C15.5126 137.808 17.2401 136.956 19.1207 136.612C21.0014 136.267 22.9507 136.444 24.7222 137.12C26.4938 137.797 28.0079 138.942 29.0732 140.412C30.1385 141.882 30.7071 143.61 30.7071 145.377C30.7071 146.551 30.4563 147.713 29.9691 148.797C29.4819 149.882 28.7678 150.867 27.8675 151.697C26.9673 152.527 25.8985 153.185 24.7222 153.634C23.546 154.083 22.2853 154.315 21.0121 154.315Z" fill="#263238"/>
<path d="M20.6376 156.892C18.0796 156.894 15.5785 156.195 13.4509 154.883C11.3232 153.571 9.66459 151.705 8.68484 149.522C7.70509 147.338 7.44825 144.936 7.94683 142.618C8.44542 140.3 9.67701 138.17 11.4858 136.499C13.2945 134.828 15.5992 133.69 18.1081 133.229C20.617 132.768 23.2174 133.006 25.5803 133.911C27.9433 134.816 29.9624 136.349 31.3824 138.315C32.8024 140.28 33.5594 142.591 33.5575 144.955C33.5525 148.119 32.1897 151.153 29.7679 153.391C27.346 155.628 24.0626 156.888 20.6376 156.892ZM20.6376 133.875C18.2654 133.873 15.946 134.522 13.9728 135.738C11.9995 136.954 10.461 138.684 9.55195 140.709C8.64289 142.733 8.40407 144.961 8.86572 147.111C9.32736 149.261 10.4687 151.236 12.1454 152.786C13.8221 154.337 15.9588 155.393 18.2853 155.821C20.6117 156.249 23.0233 156.03 25.2151 155.192C27.4068 154.354 29.2802 152.934 30.5983 151.111C31.9164 149.289 32.6199 147.146 32.6199 144.955C32.615 142.019 31.3512 139.205 29.1055 137.128C26.8597 135.052 23.8148 133.882 20.6376 133.875ZM20.6376 154.432C18.6081 154.435 16.6231 153.882 14.9339 152.843C13.2446 151.804 11.927 150.325 11.1478 148.594C10.3686 146.862 10.1628 144.956 10.5564 143.116C10.9501 141.277 11.9255 139.587 13.3592 138.26C14.793 136.932 16.6206 136.028 18.6108 135.661C20.601 135.294 22.6644 135.481 24.5397 136.197C26.4151 136.914 28.0181 138.129 29.146 139.688C30.2739 141.247 30.876 143.08 30.876 144.955C30.8735 147.465 29.7946 149.871 27.8756 151.647C25.9566 153.424 23.3539 154.425 20.6376 154.432ZM20.6376 136.344C18.7935 136.34 16.9898 136.843 15.4548 137.787C13.9197 138.731 12.7223 140.074 12.014 141.647C11.3057 143.221 11.1185 144.953 11.476 146.624C11.8335 148.295 12.7196 149.831 14.0222 151.037C15.3248 152.243 16.9854 153.065 18.7937 153.399C20.6021 153.733 22.4769 153.563 24.1809 152.912C25.8849 152.261 27.3416 151.157 28.3665 149.741C29.3913 148.324 29.9384 146.659 29.9384 144.955C29.9261 142.681 28.9416 140.503 27.1995 138.897C25.4574 137.291 23.0988 136.385 20.6376 136.379V136.344Z" fill="#263238"/>
<path d="M49.0903 162.653C48.739 162.653 48.3922 162.575 48.0763 162.424L29.2107 153.346C28.6568 153.079 28.2334 152.606 28.0337 152.032C27.8339 151.457 27.8742 150.828 28.1455 150.282C28.4169 149.737 28.8972 149.32 29.4808 149.123C30.0644 148.927 30.7034 148.966 31.2572 149.234L50.1042 158.302C50.5788 158.528 50.9611 158.906 51.1886 159.375C51.4161 159.843 51.4752 160.374 51.3562 160.879C51.2373 161.385 50.9473 161.836 50.5339 162.158C50.1205 162.48 49.6082 162.655 49.081 162.653H49.0903Z" fill="#263238"/>
<path d="M78.572 86.1401H107.891C108.51 86.139 109.123 86.2518 109.696 86.4722C110.268 86.6926 110.789 87.0161 111.227 87.4244C111.665 87.8326 112.013 88.3174 112.25 88.8512C112.488 89.385 112.61 89.9571 112.61 90.535V107.093C112.61 107.671 112.488 108.243 112.25 108.777C112.013 109.311 111.665 109.796 111.227 110.204C110.789 110.612 110.268 110.936 109.696 111.156C109.123 111.376 108.51 111.489 107.891 111.488H105.307L99.7625 119.349L99.1166 111.488H78.572C77.9527 111.489 77.3392 111.376 76.7668 111.156C76.1943 110.936 75.674 110.612 75.2357 110.204C74.7974 109.796 74.4496 109.311 74.2124 108.777C73.9751 108.243 73.853 107.671 73.853 107.093V90.535C73.853 89.9571 73.9751 89.385 74.2124 88.8512C74.4496 88.3174 74.7974 87.8326 75.2357 87.4244C75.674 87.0161 76.1943 86.6926 76.7668 86.4722C77.3392 86.2518 77.9527 86.139 78.572 86.1401Z" fill="#263238"/>
<path d="M99.4306 120.604L98.7129 111.907H78.5719C77.2045 111.905 75.8938 111.397 74.9269 110.494C73.96 109.592 73.4157 108.369 73.4134 107.093V90.5349C73.4157 89.2576 73.9612 88.0333 74.9301 87.1308C75.8989 86.2283 77.212 85.7215 78.5809 85.7215H107.9C109.269 85.7215 110.582 86.2283 111.55 87.1308C112.519 88.0333 113.065 89.2576 113.067 90.5349V107.093C113.065 108.371 112.519 109.595 111.55 110.497C110.582 111.4 109.269 111.907 107.9 111.907H105.558L99.4306 120.604ZM78.5809 86.5586C77.4499 86.5586 76.3651 86.9773 75.5645 87.7227C74.7639 88.4682 74.3129 89.4796 74.3105 90.5349V107.093C74.3129 108.149 74.7639 109.16 75.5645 109.905C76.3651 110.651 77.4499 111.07 78.5809 111.07H99.5472L100.121 118.093L105.074 111.07H107.9C109.031 111.07 110.115 110.651 110.916 109.905C111.717 109.16 112.168 108.149 112.17 107.093V90.5349C112.168 89.4796 111.717 88.4682 110.916 87.7227C110.115 86.9773 109.031 86.5586 107.9 86.5586H78.5809Z" fill="#263238"/>
<path d="M87.2743 98.6216C87.2725 98.1964 87.1358 97.7813 86.8813 97.4286C86.6269 97.0759 86.2662 96.8015 85.8447 96.6399C85.4233 96.4784 84.96 96.4369 84.5133 96.5209C84.0667 96.6049 83.6567 96.8104 83.3351 97.1116C83.0136 97.4128 82.7949 97.7962 82.7066 98.2133C82.6184 98.6304 82.6646 99.0625 82.8393 99.4552C83.0141 99.8478 83.3096 100.183 83.6886 100.419C84.0676 100.655 84.513 100.781 84.9686 100.781C85.2722 100.781 85.5727 100.725 85.853 100.617C86.1334 100.508 86.3879 100.349 86.6021 100.148C86.8164 99.9476 86.986 99.7094 87.1014 99.4474C87.2167 99.1855 87.2755 98.9048 87.2743 98.6216Z" fill="white"/>
<path d="M94.4873 100.773C95.7607 100.773 96.793 99.8097 96.793 98.6215C96.793 97.4334 95.7607 96.4701 94.4873 96.4701C93.2139 96.4701 92.1816 97.4334 92.1816 98.6215C92.1816 99.8097 93.2139 100.773 94.4873 100.773Z" fill="white"/>
<path d="M106.312 98.6216C106.31 98.1964 106.173 97.7813 105.919 97.4286C105.664 97.0759 105.304 96.8015 104.882 96.6399C104.461 96.4784 103.997 96.4369 103.551 96.5209C103.104 96.6049 102.694 96.8104 102.373 97.1116C102.051 97.4128 101.832 97.7962 101.744 98.2133C101.656 98.6304 101.702 99.0625 101.877 99.4552C102.052 99.8478 102.347 100.183 102.726 100.419C103.105 100.655 103.55 100.781 104.006 100.781C104.31 100.781 104.61 100.725 104.89 100.617C105.171 100.508 105.425 100.349 105.64 100.148C105.854 99.9476 106.023 99.7094 106.139 99.4474C106.254 99.1855 106.313 98.9048 106.312 98.6216Z" fill="white"/>
<path d="M83.9997 75.3662H54.681C53.4294 75.3662 52.2291 75.8302 51.3442 76.6559C50.4592 77.4817 49.962 78.6017 49.962 79.7695V96.3278C49.962 96.9057 50.0841 97.4779 50.3214 98.0116C50.5587 98.5454 50.9064 99.0302 51.3447 99.4385C51.783 99.8467 52.3033 100.17 52.8758 100.391C53.4483 100.611 54.0617 100.724 54.681 100.723H57.2648L62.8091 108.583L63.4551 100.723H83.9997C84.619 100.724 85.2324 100.611 85.8049 100.391C86.3774 100.17 86.8977 99.8467 87.336 99.4385C87.7743 99.0302 88.122 98.5454 88.3593 98.0116C88.5966 97.4779 88.7187 96.9057 88.7187 96.3278V79.7695C88.7187 78.6017 88.2215 77.4817 87.3365 76.6559C86.4515 75.8302 85.2513 75.3662 83.9997 75.3662Z" fill="white"/>
<path d="M63.15 109.839L57.0225 101.141H54.681C53.312 101.141 51.999 100.634 51.0301 99.732C50.0613 98.8295 49.5158 97.6052 49.5134 96.3279V79.7696C49.5158 78.4914 50.061 77.2662 51.0296 76.3624C51.9982 75.4586 53.3112 74.9499 54.681 74.9477H83.9997C85.3695 74.9499 86.6825 75.4586 87.6511 76.3624C88.6197 77.2662 89.1649 78.4914 89.1672 79.7696V96.3279C89.1649 97.6052 88.6194 98.8295 87.6505 99.732C86.6817 100.634 85.3687 101.141 83.9997 101.141H63.8678L63.15 109.839ZM54.681 75.7848C53.5484 75.7848 52.4622 76.2047 51.6613 76.9519C50.8605 77.6992 50.4106 78.7127 50.4106 79.7696V96.3279C50.4129 97.3832 50.8639 98.3946 51.6645 99.1401C52.4651 99.8855 53.55 100.304 54.681 100.304H57.507L62.4592 107.328L63.0424 100.304H83.9997C85.1307 100.304 86.2156 99.8855 87.0162 99.1401C87.8168 98.3946 88.2677 97.3832 88.2701 96.3279V79.7696C88.2701 78.7127 87.8202 77.6992 87.0193 76.9519C86.2185 76.2047 85.1323 75.7848 83.9997 75.7848H54.681Z" fill="#263238"/>
<path d="M62.1273 88.6681C62.1273 88.2426 61.9921 87.8267 61.7387 87.4729C61.4854 87.1191 61.1253 86.8433 60.704 86.6805C60.2827 86.5177 59.8191 86.4751 59.3718 86.5581C58.9246 86.6411 58.5137 86.846 58.1913 87.1469C57.8688 87.4478 57.6492 87.8311 57.5603 88.2484C57.4713 88.6658 57.517 89.0983 57.6915 89.4915C57.866 89.8846 58.1615 90.2206 58.5407 90.457C58.9198 90.6934 59.3656 90.8196 59.8216 90.8196C60.4324 90.8174 61.0175 90.59 61.4494 90.187C61.8812 89.784 62.1249 89.2381 62.1273 88.6681Z" fill="#263238"/>
<path d="M59.8216 91.2381C59.2744 91.2398 58.7389 91.0898 58.2831 90.8071C57.8273 90.5244 57.4718 90.1218 57.2615 89.6504C57.0513 89.1789 56.9958 88.6598 57.1021 88.1588C57.2085 87.6579 57.4718 87.1977 57.8588 86.8366C58.2458 86.4756 58.739 86.2298 59.2758 86.1306C59.8126 86.0314 60.369 86.0832 60.8742 86.2793C61.3795 86.4755 61.811 86.8073 62.1139 87.2326C62.4169 87.6579 62.5776 88.1575 62.5759 88.6682C62.5735 89.3491 62.2826 90.0015 61.7666 90.483C61.2506 90.9645 60.5514 91.2359 59.8216 91.2381ZM59.8216 86.927C59.4522 86.9253 59.0905 87.026 58.7825 87.2163C58.4744 87.4066 58.2339 87.678 58.0912 87.996C57.9486 88.314 57.9104 88.6644 57.9814 89.0027C58.0524 89.341 58.2294 89.652 58.49 89.8964C58.7506 90.1407 59.0831 90.3074 59.4453 90.3753C59.8075 90.4432 60.1832 90.4092 60.5247 90.2776C60.8662 90.1461 61.1582 89.9229 61.3636 89.6364C61.569 89.3499 61.6787 89.0129 61.6787 88.6682C61.6787 88.2078 61.4834 87.7662 61.1353 87.4399C60.7873 87.1136 60.315 86.9292 59.8216 86.927Z" fill="#263238"/>
<path d="M71.6191 88.6681C71.6191 88.2426 71.4838 87.8267 71.2305 87.4729C70.9771 87.1191 70.617 86.8433 70.1957 86.6805C69.7744 86.5177 69.3108 86.4751 68.8636 86.5581C68.4163 86.6411 68.0055 86.846 67.683 87.1469C67.3606 87.4478 67.141 87.8311 67.052 88.2484C66.9631 88.6658 67.0087 89.0983 67.1832 89.4915C67.3577 89.8846 67.6533 90.2206 68.0324 90.457C68.4116 90.6934 68.8574 90.8196 69.3134 90.8196C69.9242 90.8174 70.5092 90.59 70.9411 90.187C71.373 89.784 71.6167 89.2381 71.6191 88.6681Z" fill="#263238"/>
<path d="M69.3403 91.2381C68.7931 91.2398 68.2576 91.0898 67.8018 90.8071C67.346 90.5244 66.9905 90.1218 66.7802 89.6504C66.57 89.1789 66.5145 88.6598 66.6208 88.1588C66.7272 87.6579 66.9905 87.1977 67.3775 86.8366C67.7645 86.4756 68.2577 86.2298 68.7945 86.1306C69.3313 86.0314 69.8877 86.0832 70.393 86.2793C70.8982 86.4755 71.3297 86.8073 71.6326 87.2326C71.9356 87.6579 72.0964 88.1575 72.0946 88.6682C72.0922 89.3491 71.8013 90.0015 71.2853 90.483C70.7693 90.9645 70.0701 91.2359 69.3403 91.2381ZM69.3403 86.927C68.9709 86.9253 68.6092 87.026 68.3012 87.2163C67.9931 87.4066 67.7526 87.678 67.6099 87.996C67.4673 88.314 67.4291 88.6644 67.5001 89.0027C67.5711 89.341 67.7481 89.652 68.0087 89.8964C68.2693 90.1407 68.6018 90.3074 68.964 90.3753C69.3262 90.4432 69.7019 90.4092 70.0434 90.2776C70.3849 90.1461 70.6769 89.9229 70.8823 89.6364C71.0878 89.3499 71.1974 89.0129 71.1974 88.6682C71.1974 88.2078 71.0021 87.7662 70.6541 87.4399C70.306 87.1136 69.8337 86.9292 69.3403 86.927Z" fill="#263238"/>
<path d="M81.1647 88.6681C81.1647 88.2426 81.0295 87.8267 80.7761 87.4729C80.5228 87.1191 80.1627 86.8433 79.7414 86.6805C79.3201 86.5177 78.8565 86.4751 78.4092 86.5581C77.962 86.6411 77.5511 86.846 77.2287 87.1469C76.9062 87.4478 76.6866 87.8311 76.5977 88.2484C76.5087 88.6658 76.5544 89.0983 76.7289 89.4915C76.9034 89.8846 77.1989 90.2206 77.5781 90.457C77.9572 90.6934 78.403 90.8196 78.859 90.8196C79.4698 90.8174 80.0549 90.59 80.4868 90.187C80.9187 89.784 81.1623 89.2381 81.1647 88.6681Z" fill="#263238"/>
<path d="M78.859 91.2381C78.3118 91.2398 77.7763 91.0898 77.3205 90.8071C76.8647 90.5244 76.5092 90.1218 76.2989 89.6504C76.0887 89.1789 76.0332 88.6598 76.1395 88.1588C76.2459 87.6579 76.5092 87.1977 76.8962 86.8366C77.2832 86.4756 77.7764 86.2298 78.3132 86.1306C78.8501 86.0314 79.4064 86.0832 79.9117 86.2793C80.4169 86.4755 80.8484 86.8073 81.1513 87.2326C81.4543 87.6579 81.6151 88.1575 81.6133 88.6682C81.6109 89.3491 81.32 90.0015 80.804 90.483C80.288 90.9645 79.5888 91.2359 78.859 91.2381ZM78.859 86.927C78.4896 86.9253 78.1279 87.026 77.8199 87.2163C77.5118 87.4066 77.2713 87.678 77.1286 87.996C76.986 88.314 76.9478 88.6644 77.0188 89.0027C77.0898 89.341 77.2668 89.652 77.5274 89.8964C77.788 90.1407 78.1205 90.3074 78.4827 90.3753C78.8449 90.4432 79.2206 90.4092 79.5621 90.2776C79.9036 90.1461 80.1956 89.9229 80.401 89.6364C80.6065 89.3499 80.7161 89.0129 80.7161 88.6682C80.7161 88.2078 80.5208 87.7662 80.1728 87.4399C79.8247 87.1136 79.3524 86.9292 78.859 86.927Z" fill="#263238"/>
<path d="M61.8671 24.4356H12.9368V58.2889H61.8671V24.4356Z" fill="white"/>
<path d="M62.3157 58.6991H12.4882V24.017H62.3157V58.6991ZM13.3853 57.862H61.4185V24.8542H13.3853V57.862Z" fill="#263238"/>
<path d="M61.8671 41.7055L53.8466 35.0587L40.7752 47.6574L30.2248 41.3539L12.9368 58.2805H61.8671V41.7055Z" fill="#263238"/>
<path d="M62.3157 58.699H11.8871L30.162 40.8181L40.7034 47.1216L53.8287 34.481L62.3157 41.5213V58.699ZM13.9775 57.8619H61.4185V41.898L53.8735 35.6363L40.838 48.1931L30.2965 41.898L13.9775 57.8619Z" fill="#263238"/>
<path d="M28.7535 33.7779C28.7535 34.8097 28.4254 35.8184 27.8109 36.6762C27.1963 37.5341 26.3229 38.2025 25.3011 38.597C24.2793 38.9915 23.155 39.0943 22.0706 38.8924C20.9861 38.6904 19.9902 38.1929 19.2089 37.4627C18.4276 36.7325 17.896 35.8024 17.6813 34.7902C17.4667 33.778 17.5787 32.7291 18.0031 31.7763C18.4275 30.8235 19.1453 30.0095 20.0656 29.4375C20.9859 28.8654 22.0674 28.561 23.1732 28.5626C24.654 28.5648 26.0734 29.1153 27.1196 30.0931C28.1658 31.0709 28.7535 32.3962 28.7535 33.7779Z" fill="#263238"/>
<path d="M23.1732 39.4117C21.9791 39.4117 20.8117 39.0813 19.8188 38.4623C18.8259 37.8432 18.052 36.9633 17.595 35.9339C17.1381 34.9044 17.0185 33.7716 17.2515 32.6788C17.4844 31.5859 18.0595 30.5821 18.9039 29.7942C19.7483 29.0063 20.8241 28.4697 21.9953 28.2523C23.1665 28.0349 24.3805 28.1465 25.4838 28.5729C26.5871 28.9993 27.53 29.7214 28.1935 30.6479C28.8569 31.5744 29.211 32.6636 29.211 33.7779C29.2086 35.2714 28.5718 36.7031 27.44 37.7592C26.3082 38.8152 24.7738 39.4095 23.1732 39.4117ZM23.1732 28.9895C22.1565 28.9895 21.1626 29.2709 20.3172 29.7979C19.4719 30.325 18.813 31.0741 18.4239 31.9506C18.0348 32.8271 17.933 33.7916 18.1314 34.7221C18.3297 35.6525 18.8193 36.5072 19.5382 37.1781C20.2572 37.8489 21.1732 38.3057 22.1703 38.4908C23.1675 38.6759 24.2011 38.5809 25.1405 38.2178C26.0798 37.8548 26.8827 37.24 27.4475 36.4512C28.0124 35.6624 28.3139 34.735 28.3139 33.7863C28.3115 32.5148 27.7691 31.296 26.8056 30.3969C25.842 29.4978 24.5359 28.9918 23.1732 28.9895Z" fill="#263238"/>
<path d="M91.0333 33.6607H42.103V67.514H91.0333V33.6607Z" fill="white"/>
<path d="M91.4819 67.9242H41.6544V33.2421H91.4819V67.9242ZM42.5515 67.0871H90.5847V34.0793H42.5515V67.0871Z" fill="#263238"/>
<path d="M91.0333 50.9306L83.0218 44.2838L69.9414 56.8825L59.4 50.5874L42.103 67.5056H91.0333V50.9306Z" fill="#09FF4F"/>
<path d="M91.0333 67.9242H42.103C42.0162 67.9232 41.9316 67.8987 41.8595 67.8536C41.7874 67.8086 41.7308 67.745 41.6966 67.6706C41.6624 67.5962 41.6521 67.5141 41.6669 67.4343C41.6817 67.3545 41.721 67.2804 41.78 67.2211L59.059 50.2944C59.1315 50.2252 59.2274 50.1815 59.3304 50.1709C59.4335 50.1602 59.5373 50.1831 59.6242 50.2358L69.8607 56.3468L82.6809 43.9992C82.7632 43.9231 82.8745 43.8803 82.9904 43.8803C83.1063 43.8803 83.2176 43.9231 83.2999 43.9992L91.3114 50.646C91.3587 50.6848 91.3967 50.7324 91.423 50.7857C91.4493 50.8391 91.4632 50.897 91.4639 50.9557V67.4973C91.4664 67.6069 91.4226 67.713 91.3421 67.7929C91.2616 67.8727 91.1507 67.9199 91.0333 67.9242ZM43.1526 67.0871H90.5847V51.1232L83.0397 44.895L70.2644 57.2091C70.1919 57.2783 70.0961 57.3219 69.993 57.3326C69.89 57.3433 69.7861 57.3203 69.6992 57.2677L59.4717 51.1566L43.1526 67.0871Z" fill="#263238"/>
<path d="M52.3394 48.2183C55.4262 48.2183 57.9286 45.8833 57.9286 43.003C57.9286 40.1227 55.4262 37.7877 52.3394 37.7877C49.2526 37.7877 46.7502 40.1227 46.7502 43.003C46.7502 45.8833 49.2526 48.2183 52.3394 48.2183Z" fill="#09FF4F"/>
<path d="M52.3394 48.6368C51.1453 48.6368 49.9779 48.3064 48.985 47.6874C47.9921 47.0683 47.2182 46.1884 46.7612 45.159C46.3042 44.1295 46.1847 42.9967 46.4177 41.9039C46.6506 40.811 47.2257 39.8072 48.0701 39.0193C48.9145 38.2314 49.9903 37.6948 51.1615 37.4774C52.3327 37.26 53.5467 37.3716 54.65 37.798C55.7532 38.2244 56.6962 38.9465 57.3597 39.873C58.0231 40.7995 58.3772 41.8887 58.3772 43.003C58.3748 44.4965 57.738 45.9282 56.6062 46.9843C55.4744 48.0403 53.94 48.6346 52.3394 48.6368ZM52.3394 38.2063C51.3227 38.2063 50.3288 38.4876 49.4834 39.0147C48.6381 39.5417 47.9792 40.2909 47.5901 41.1674C47.201 42.0439 47.0992 43.0083 47.2976 43.9388C47.4959 44.8693 47.9855 45.7239 48.7044 46.3948C49.4234 47.0656 50.3394 47.5225 51.3365 47.7075C52.3337 47.8926 53.3673 47.7976 54.3067 47.4346C55.246 47.0715 56.0489 46.4567 56.6137 45.6679C57.1786 44.8791 57.4801 43.9517 57.4801 43.003C57.4801 41.73 56.9388 40.5091 55.975 39.6082C55.0112 38.7073 53.7036 38.2001 52.3394 38.1979V38.2063Z" fill="#263238"/>
<path d="M159.225 184.695L147.562 178.399L153.008 177.085C154.68 176.779 156.231 176.052 157.494 174.984C158.106 174.3 158.641 173.56 159.091 172.774C159.889 171.493 160.589 170.388 161.477 170.263C161.65 170.234 161.827 170.241 161.997 170.285C162.166 170.328 162.323 170.406 162.455 170.514C163.518 171.376 164.286 172.512 164.663 173.778C165.039 175.045 165.008 176.387 164.572 177.638C163.568 180.861 159.566 184.335 159.396 184.51L159.225 184.695ZM149.949 178.692L159.1 183.657C159.997 182.819 162.984 179.948 163.792 177.378C164.18 176.289 164.217 175.117 163.898 174.008C163.579 172.9 162.918 171.903 161.998 171.142C161.854 171.041 161.773 171.05 161.737 171.058C161.253 171.142 160.535 172.288 159.943 173.201C159.459 174.038 158.885 174.826 158.229 175.553C156.832 176.763 155.097 177.578 153.223 177.906L149.949 178.692Z" fill="#263238"/>
<path d="M126.04 239.426L119.033 238.706L127.341 232.662L126.04 239.426Z" fill="white"/>
<path d="M126.408 239.886L117.885 239.049L127.987 231.691L126.408 239.886ZM120.182 238.405L125.672 238.965L126.686 233.666L120.182 238.405Z" fill="#263238"/>
<path d="M129.934 177.202L129.646 182.309C129.646 182.309 124.03 203.664 124.317 204.451C124.604 205.238 123.896 227.765 124.452 230.402C125.008 233.039 126.004 239.443 126.004 239.443C126.004 239.443 133.719 239.183 137.227 237.475C140.124 235.888 142.852 234.047 145.373 231.975L142.565 221.763C144.242 220.709 145.596 219.266 146.495 217.577C147.283 215.901 147.849 214.141 148.181 212.337L150.424 211.684C150.424 211.684 153.376 213.123 154.775 211.809C156.175 210.495 155.063 208.67 154.641 207.749C154.219 206.828 152.676 203.563 152.676 203.563C152.676 203.563 154.363 205.924 156.04 205.665C157.718 205.405 158.149 205.531 158.292 204.484C158.22 203.152 157.982 201.831 157.584 200.55C157.584 200.55 160.813 201.73 162.069 200.55C162.476 200.187 162.76 199.721 162.885 199.208C163.009 198.696 162.969 198.161 162.769 197.67C162.634 197.277 158.84 189.299 158.84 189.299C158.84 189.299 166.286 190.864 166.842 190.864C167.521 190.826 168.171 190.591 168.7 190.192C169.229 189.793 169.612 189.249 169.794 188.638C170.35 186.804 164.178 184.578 159.028 181.045C153.878 177.512 148.074 176.064 145.687 176.064C143.301 176.064 131.091 175.235 129.934 177.202Z" fill="white"/>
<path d="M125.645 239.861L125.591 239.484C125.591 239.426 124.605 233.047 124.048 230.469C123.716 228.886 123.815 220.741 123.905 213.559C123.959 209.373 124.012 204.995 123.905 204.56C123.627 203.798 127.126 190.228 129.234 182.208L129.557 177.01C130.454 175.453 135.9 175.336 143.812 175.562C144.638 175.562 145.284 175.603 145.67 175.603C148.056 175.603 153.86 176.976 159.27 180.626C161.109 181.882 163.083 182.979 164.824 183.975C168.242 185.858 170.709 187.223 170.251 188.713C170.035 189.406 169.594 190.021 168.988 190.47C168.382 190.92 167.642 191.184 166.869 191.224C166.376 191.224 161.782 190.27 159.638 189.818C160.625 191.894 163.101 197.143 163.227 197.477C163.458 198.048 163.505 198.67 163.362 199.265C163.218 199.86 162.891 200.403 162.419 200.826C161.37 201.805 159.369 201.471 158.247 201.169C158.575 202.259 158.744 203.386 158.75 204.518C158.588 205.723 157.96 205.807 156.821 205.958L156.139 206.058C155.409 206.128 154.678 205.93 154.103 205.505C154.488 206.343 154.883 207.18 155.072 207.573L155.215 207.875C155.7 208.862 156.597 210.712 155.116 212.102C153.636 213.492 151.106 212.429 150.406 212.102L148.612 212.629C148.274 214.382 147.713 216.09 146.943 217.719C146.065 219.393 144.747 220.833 143.113 221.905L145.912 232.084L145.705 232.26C143.158 234.355 140.4 236.216 137.47 237.818C133.881 239.543 126.372 239.819 126.049 239.828L125.645 239.861ZM130.409 177.336L130.131 182.359C127.933 190.73 124.748 203.455 124.793 204.401C124.901 204.702 124.883 207.163 124.793 213.609C124.712 220.398 124.605 228.845 124.919 230.351C125.403 232.578 126.192 237.618 126.417 239.032C128.032 238.949 134.123 238.555 137.048 237.132C139.837 235.608 142.465 233.843 144.898 231.858L142.09 221.528L142.359 221.361C143.963 220.348 145.261 218.967 146.127 217.351C146.892 215.707 147.446 213.984 147.778 212.219V211.96L150.469 211.181L150.631 211.257C151.375 211.617 153.502 212.362 154.462 211.466C155.421 210.57 154.946 209.348 154.381 208.176L154.228 207.866C153.807 206.945 152.264 203.681 152.264 203.681L153.044 203.279C153.475 203.865 154.838 205.363 155.969 205.187L156.677 205.087C157.772 204.945 157.772 204.945 157.844 204.375C157.782 203.098 157.549 201.833 157.153 200.608L156.92 199.771L157.754 200.073C158.57 200.374 160.903 200.968 161.764 200.165C162.115 199.858 162.359 199.461 162.465 199.023C162.571 198.586 162.533 198.129 162.356 197.712C162.249 197.411 159.952 192.555 158.445 189.341L158.077 188.579L158.974 188.763C161.8 189.357 166.438 190.312 166.887 190.328C167.466 190.286 168.018 190.078 168.467 189.734C168.916 189.389 169.241 188.925 169.399 188.403C169.659 187.566 167.093 186.109 164.375 184.611C162.581 183.631 160.625 182.535 158.75 181.262C153.798 177.914 148.128 176.365 145.678 176.365C145.284 176.365 144.629 176.365 143.794 176.315C140.699 176.323 131.477 175.997 130.409 177.336Z" fill="#263238"/>
<path d="M157.628 188.797C156.202 187.758 152.246 184.979 151.178 184.678C150.281 184.427 142.207 183.565 137.335 183.004C134.985 182.753 133.863 182.635 133.334 182.518C132.858 182.418 132.867 182.309 132.876 182.116V181.723H133.307V182.091L133.397 181.731C133.576 181.731 135.352 181.957 137.407 182.175C144.001 182.878 150.505 183.581 151.411 183.849C152.847 184.251 157.62 187.717 158.158 188.11L157.628 188.797Z" fill="#263238"/>
<path d="M157.243 200.734C155.368 197.846 152.03 193.133 151.016 192.79C149.823 192.388 138.142 190.488 132.176 189.533L132.32 188.696C133.038 188.805 149.787 191.459 151.357 191.986C152.927 192.513 157.207 199.001 158.041 200.29L157.243 200.734Z" fill="#263238"/>
<path d="M151.465 203.195C150.297 202.214 149.015 201.358 147.643 200.642C146.459 200.131 135.792 197.779 130.319 196.607L130.526 195.77C131.172 195.912 146.45 199.194 148.02 199.863C149.47 200.614 150.825 201.515 152.057 202.55L151.465 203.195Z" fill="#263238"/>
<path d="M149.321 210.913L144.53 206.828L135.586 206.577L133.468 208.059L132.93 207.389L135.298 205.732L144.889 205.999L149.922 210.294L149.321 210.913Z" fill="#263238"/>
<path d="M119.033 238.706L120.657 244.951C120.657 244.951 124.506 245.897 132.203 243.059C137.64 240.883 142.803 238.154 147.598 234.922L146.988 230.385C146.988 230.385 133.621 239.468 119.033 238.706Z" fill="white"/>
<path d="M122.505 245.52C121.845 245.537 121.186 245.481 120.54 245.353L120.28 245.286L118.486 238.262H119.096C133.352 238.999 146.629 230.109 146.764 230.017L147.374 229.606L148.11 235.09L147.894 235.232C147.823 235.282 140.062 240.589 132.401 243.411C129.273 244.686 125.916 245.401 122.505 245.52ZM121.025 244.582C121.985 244.725 125.69 245.009 132.033 242.665C137.356 240.542 142.416 237.884 147.123 234.738L146.638 231.122C143.866 232.846 132.176 239.56 119.607 239.15L121.025 244.582Z" fill="#263238"/>
<path d="M148.002 233.415C148.002 233.415 137.873 239.468 130.579 241.544C125.694 242.853 120.658 243.614 115.579 243.812C115.579 243.812 124.497 282.002 127.332 287.862C130.167 293.722 134.742 310.548 134.742 310.548H185.88C185.88 310.548 155.493 255.725 154.479 251.564C153.466 247.404 148.002 233.415 148.002 233.415Z" fill="black"/>
<path d="M185.889 310.967H134.419L134.33 310.648C134.33 310.481 129.736 293.789 126.946 288.046C124.156 282.303 115.534 245.478 115.167 243.921L115.05 243.427H115.597C120.63 243.225 125.62 242.469 130.463 241.175C137.64 239.141 147.679 233.156 147.778 233.097L148.253 232.813L148.442 233.307C148.666 233.876 153.932 247.37 154.937 251.506C155.942 255.641 185.996 309.836 186.337 310.389L186.678 311L185.889 310.967ZM135.101 310.129H185.153C181.645 303.801 155.018 255.633 154.049 251.656C153.152 248.006 148.747 236.588 147.769 234.077C145.678 235.291 137.084 240.154 130.723 241.971C125.974 243.238 121.086 243.999 116.153 244.239C117.203 248.701 125.125 282.312 127.754 287.711C130.382 293.111 134.419 307.752 135.101 310.129Z" fill="#263238"/>
<path d="M168.762 91.7739C168.762 91.7739 159.18 112.56 160.374 115.213C161.567 117.867 166.367 122.145 164.213 125.05C162.06 127.954 149.599 137.565 151.994 142.487C154.39 147.409 160.616 147.627 160.616 147.627C160.616 147.627 159.423 154.106 161.091 155.672L162.769 157.237C162.769 157.237 162.769 160.586 163.971 162.151C165.173 163.716 168.278 165.056 168.278 165.056C168.278 165.056 162.294 173.327 163.487 176.005C164.68 178.684 178.344 182.937 184.121 184.276C189.899 185.616 200.162 183.832 200.162 183.832L203.042 197.226L257.409 167.5L249.03 147.61C249.03 147.61 263.384 135.539 264.12 117.432C264.855 99.3248 258.844 82.3479 248.07 76.3122C237.295 70.2766 222.68 71.3983 222.68 71.3983C219.976 68.8025 216.52 66.9974 212.735 66.2036C208.95 65.4098 204.999 65.6615 201.364 66.9281C188.158 71.1807 168.762 91.7739 168.762 91.7739Z" fill="white"/>
<path d="M202.692 197.888L199.785 184.31C197.731 184.636 189.154 185.883 183.978 184.678C179.088 183.531 164.447 179.22 163.074 176.164C161.935 173.611 166.34 167.04 167.623 165.215C166.091 164.537 164.723 163.574 163.603 162.385C162.491 160.929 162.347 158.133 162.33 157.363L160.777 155.914C159.198 154.441 159.88 149.552 160.096 147.953C158.517 147.786 153.69 146.924 151.582 142.604C149.671 138.67 156.31 132.249 160.697 127.996C161.814 126.981 162.863 125.902 163.837 124.765C165.191 122.94 163.343 120.362 161.71 118.068C161.042 117.203 160.456 116.284 159.961 115.322C158.732 112.551 167.363 93.6658 168.349 91.5227L168.421 91.4139C169.22 90.5768 188.051 70.7202 201.185 66.4843C204.872 65.2256 208.867 64.9745 212.702 65.7604C216.536 66.5462 220.051 68.3365 222.833 70.9211C224.708 70.8123 238.219 70.2765 248.276 75.9438C258.755 81.8037 265.322 98.4876 264.541 117.44C263.868 134.25 251.389 146.045 249.532 147.71L257.938 167.668L257.606 167.852L202.692 197.888ZM200.494 183.338L203.329 196.573L256.826 167.324L248.473 147.501L248.698 147.3C248.841 147.183 262.935 135.137 263.644 117.432C264.38 98.7722 258.019 82.3981 247.81 76.6805C237.286 70.8206 222.833 71.8084 222.689 71.8168H222.465L222.34 71.6829C219.679 69.1713 216.301 67.4264 212.607 66.6561C208.914 65.8858 205.061 66.1226 201.508 67.3382C188.948 71.3983 170.242 90.853 169.211 91.9748C165.532 99.9526 160.033 113.229 160.858 115.054C161.332 115.967 161.887 116.841 162.518 117.666C164.312 120.177 166.34 122.999 164.644 125.292C163.637 126.468 162.556 127.586 161.405 128.641C157.44 132.475 150.801 138.896 152.434 142.319C154.695 146.949 160.607 147.208 160.67 147.217H161.181L161.091 147.685C160.777 149.427 160.194 154.207 161.45 155.362L163.245 157.036V157.212C163.245 157.212 163.245 160.443 164.366 161.883C165.487 163.323 168.466 164.637 168.493 164.654L168.977 164.855L168.681 165.265C167.049 167.517 163.029 173.795 163.935 175.821C164.994 178.199 177.895 182.367 184.229 183.849C189.818 185.147 199.983 183.414 200.081 183.397L200.494 183.338Z" fill="#263238"/>
<path d="M164.447 114.987C164.447 114.987 164.447 117.44 167.56 116.327C170.673 115.213 172.351 113.196 174.737 113.64C177.123 114.083 180.246 115.205 178.326 112.082C176.406 108.96 171.857 110.291 169.22 111.404C167.395 112.298 165.773 113.515 164.447 114.987Z" fill="#263238"/>
<path d="M166.133 117.038C165.7 117.051 165.274 116.937 164.913 116.712C164.636 116.505 164.411 116.243 164.256 115.944C164.1 115.646 164.019 115.319 164.016 114.987V114.837L164.124 114.719C165.496 113.195 167.179 111.94 169.076 111.028C173.759 109.035 177.15 109.354 178.747 111.865C179.438 112.995 179.582 113.707 179.196 114.184C178.631 114.895 177.276 114.594 175.697 114.259L174.674 114.041C173.346 113.799 172.225 114.426 170.807 115.222C169.835 115.804 168.808 116.303 167.739 116.712C167.23 116.91 166.685 117.021 166.133 117.038ZM164.922 115.121C164.935 115.297 164.988 115.468 165.076 115.624C165.164 115.779 165.286 115.916 165.434 116.025C165.748 116.152 166.09 116.21 166.432 116.194C166.774 116.178 167.108 116.089 167.407 115.933C168.429 115.546 169.411 115.072 170.341 114.519C171.857 113.681 173.176 112.92 174.827 113.229L175.876 113.447C176.702 113.631 178.236 113.966 178.451 113.69C178.451 113.69 178.64 113.43 177.94 112.283C176.199 109.446 171.857 110.76 169.417 111.79C167.704 112.622 166.178 113.753 164.922 115.121Z" fill="#263238"/>
<path d="M170.09 133.513C169.121 133.513 168.206 132.617 167.3 130.792C166.399 128.824 165.737 126.769 165.326 124.664C164.862 122.572 164.655 120.438 164.707 118.302C164.824 116.092 165.407 114.954 166.501 114.728C167.596 114.502 168.601 115.406 169.587 117.415C170.495 119.395 171.157 121.465 171.561 123.585C172.022 125.68 172.226 127.817 172.171 129.955C172.063 132.157 171.48 133.304 170.377 133.53L170.09 133.513ZM166.86 116.461C166.465 117.172 166.169 119.935 167.093 124.346C168.017 128.758 169.381 131.219 170.027 131.747C170.422 131.035 170.709 128.272 169.794 123.861C168.879 119.441 167.506 116.988 166.86 116.461Z" fill="#263238"/>
<path d="M216.119 118.181L170.371 121.084L170.493 122.754L216.24 119.851L216.119 118.181Z" fill="#263238"/>
<path d="M163.729 150.071C163.114 149.946 162.477 149.94 161.86 150.054C161.242 150.169 160.656 150.401 160.139 150.737C159.622 151.072 159.184 151.504 158.854 152.004C158.524 152.505 158.309 153.064 158.221 153.646C158.047 154.338 158.03 155.055 158.168 155.754C158.307 156.453 158.599 157.117 159.026 157.705C159.453 158.294 160.007 158.793 160.651 159.172C161.295 159.551 162.016 159.801 162.769 159.907C163.971 159.907 166.124 158.568 169.946 160.133C173.768 161.699 177.123 163.708 177.123 167.508C177.123 171.309 175.688 173.988 172.575 173.762C169.462 173.536 167.309 168.178 165.631 168.848C163.953 169.518 159.638 175.779 162.518 180.023C165.398 184.268 184.552 192.312 190.778 192.095C197.004 191.877 220.24 173.092 223.353 166.144C226.466 159.196 222.393 156.308 221.676 154.299C220.958 152.29 213.772 135.296 213.772 130.382C213.772 125.468 217.127 114.292 223.829 113.84C230.531 113.388 234.595 126.807 232.459 131.721C231.316 134.508 229.418 136.972 226.951 138.87C226.951 138.87 225.507 153.177 229.58 155.613C233.653 158.049 244.427 161.197 249.46 161.423C254.493 161.649 256.404 162.318 259.042 157.622C261.679 152.926 257.122 150.925 258.566 148.238C260.011 145.551 271.736 132.332 272.921 118.286C274.105 104.239 270.283 92.8119 263.815 83.8714C257.346 74.9309 243.458 66.6601 238.901 65.9904C235.563 65.4192 232.281 64.5961 229.086 63.5293C229.086 63.5293 234.11 61.5202 230.279 58.3893C226.449 55.2585 218.787 53.6931 206.326 57.4936C193.864 61.2942 189.145 65.823 189.145 65.823C189.145 65.823 189.863 59.7873 182.677 62.4745C175.491 65.1617 163.038 77.2246 164.734 85.0768C166.429 92.9291 170.242 92.6779 175.5 91.1125C180.757 89.5471 188.912 86.1986 192.545 86.6423C196.179 87.0859 198.529 87.312 192.07 92.4519C185.61 97.5918 176.738 102.958 181.528 105.419C186.319 107.88 199.732 114.803 201.409 119.943C203.087 125.083 195.658 161.071 193.021 165.315C190.383 169.559 185.359 170.899 182.255 167.768C179.151 164.637 176.504 156.601 171.238 153.018C165.972 149.435 163.729 150.071 163.729 150.071Z" fill="black"/>
<path d="M190.536 192.513C183.78 192.513 164.985 184.435 162.15 180.241C160.679 178.065 161.056 175.562 161.621 173.846C162.518 171.234 164.312 168.915 165.469 168.463C166.627 168.011 167.56 169.158 168.717 170.464C169.874 171.769 171.166 173.243 172.629 173.352C173.063 173.397 173.503 173.355 173.919 173.229C174.335 173.104 174.718 172.897 175.042 172.623C176.11 171.702 176.693 169.886 176.693 167.508C176.693 163.842 173.373 161.983 169.776 160.518C167.966 159.711 165.896 159.571 163.98 160.125C163.587 160.237 163.18 160.304 162.769 160.326C161.249 160.136 159.866 159.404 158.911 158.283C158.35 157.63 157.956 156.866 157.76 156.049C157.564 155.232 157.571 154.384 157.781 153.57C157.88 152.925 158.12 152.305 158.486 151.75C158.852 151.194 159.335 150.714 159.907 150.339C161.047 149.694 162.395 149.448 163.711 149.644C164.294 149.527 166.618 149.385 171.418 152.641C174.719 154.876 176.971 158.769 178.963 162.193C179.932 164.059 181.12 165.82 182.506 167.442C183.039 168.01 183.711 168.449 184.466 168.72C185.221 168.992 186.036 169.087 186.839 168.999C188.054 168.798 189.202 168.339 190.195 167.656C191.187 166.974 191.998 166.087 192.563 165.064C195.255 160.778 202.477 124.882 200.907 120.027C199.265 115.004 185.655 108.031 181.241 105.737C180.82 105.565 180.453 105.296 180.175 104.955C179.897 104.613 179.718 104.211 179.653 103.787C179.42 101.376 183.466 98.3285 188.158 94.8126C189.343 93.9169 190.572 92.9961 191.702 92.092C195.147 89.3546 195.712 88.2831 195.578 87.9064C195.443 87.5296 193.9 87.245 192.545 87.0692H192.411C189.881 86.7511 184.776 88.4756 180.281 89.9992C178.595 90.5684 177.007 91.1042 175.607 91.5227C172.476 92.4436 169.982 92.837 167.99 91.7404C166.196 90.7526 164.994 88.6598 164.249 85.169C162.455 76.94 175.23 64.8268 182.488 62.1229C184.982 61.1937 186.866 61.1686 188.113 62.0476C188.557 62.4086 188.915 62.8518 189.166 63.349C189.416 63.8462 189.552 64.3865 189.567 64.9357C191.361 63.5628 196.421 60.1892 206.227 57.2006C220.913 52.7137 227.812 55.8864 230.611 58.1717C231.822 59.1595 232.343 60.1641 232.172 61.1686C232.037 61.6685 231.794 62.1373 231.458 62.5462C231.122 62.955 230.699 63.2953 230.216 63.546C233.085 64.4616 236.024 65.1724 239.008 65.6723C243.548 66.342 257.633 74.6212 264.218 83.7375C271.395 93.6909 274.509 105.36 273.396 118.42C272.427 129.905 264.559 140.729 260.773 145.927C259.921 147.099 259.248 148.029 258.979 148.522C258.459 149.494 258.88 150.381 259.401 151.503C260.145 153.085 261.069 155.052 259.454 157.915C256.96 162.369 254.969 162.243 250.923 162.017L249.46 161.942C244.338 161.716 233.437 158.526 229.355 156.082C225.103 153.512 226.457 139.523 226.52 138.929V138.737L226.682 138.628C229.088 136.773 230.942 134.372 232.065 131.654C233.545 128.306 231.984 121.107 228.925 117.164C227.866 115.799 226.125 114.2 223.892 114.351C217.531 114.778 214.247 125.845 214.247 130.474C214.247 134.467 219.155 146.765 221.254 152.013C221.685 153.118 222.008 153.905 222.151 154.257C222.36 154.749 222.628 155.218 222.95 155.655C224.295 157.697 226.332 160.786 223.847 166.395C220.536 173.753 197.121 192.346 190.877 192.58L190.536 192.513ZM165.945 169.208C165.904 169.2 165.861 169.2 165.819 169.208C165.012 169.534 163.307 171.585 162.482 174.063C162.109 174.988 161.954 175.976 162.028 176.962C162.103 177.947 162.404 178.906 162.913 179.772C165.604 183.765 184.597 191.902 190.778 191.651C196.663 191.433 219.819 172.967 222.959 165.977C225.3 160.77 223.488 158.015 222.16 155.998C221.796 155.508 221.495 154.98 221.263 154.424C221.137 154.081 220.823 153.302 220.366 152.214C218.249 146.924 213.305 134.526 213.305 130.382C213.305 124.865 217.001 113.874 223.784 113.422C225.874 113.28 227.893 114.376 229.606 116.586C232.818 120.722 234.424 128.306 232.854 131.88C231.695 134.676 229.805 137.157 227.355 139.096C226.978 143.14 226.7 153.411 229.804 155.286C233.796 157.689 244.454 160.803 249.46 161.029L250.941 161.104C254.915 161.339 256.404 161.423 258.629 157.455C260.038 154.943 259.275 153.328 258.548 151.762C257.974 150.548 257.436 149.393 258.145 148.07C258.713 147.145 259.333 146.248 260.002 145.383C263.734 140.235 271.512 129.545 272.472 118.277C273.567 105.411 270.525 93.9169 263.447 84.1309C256.969 75.1821 243.243 67.0787 238.838 66.4258C235.482 65.8354 232.182 64.9956 228.969 63.9144L227.902 63.5544L228.942 63.1358C228.942 63.1358 231.06 62.2987 231.293 60.9258C231.41 60.231 230.979 59.4776 230.019 58.6991C227.328 56.5226 220.77 53.534 206.505 57.862C194.295 61.5872 189.459 65.9821 189.459 66.0239L188.562 66.8611L188.697 65.6807C188.697 65.6807 188.93 63.5209 187.593 62.575C186.624 61.8802 185.027 61.9471 182.847 62.7591C176.011 65.3124 163.505 77.1577 165.155 84.8592C165.837 88.057 166.95 90.0243 168.475 90.8781C170.179 91.8157 172.458 91.439 175.356 90.5768C176.747 90.1666 178.326 89.6308 180.003 89.07C184.821 87.4376 189.809 85.7215 192.563 86.0898H192.689C194.627 86.3326 196.152 86.5251 196.466 87.5213C196.78 88.5175 195.569 90.0326 192.312 92.6194C191.164 93.5318 189.935 94.461 188.723 95.3568C184.615 98.4457 180.371 101.635 180.55 103.602C180.606 103.89 180.739 104.16 180.937 104.387C181.135 104.614 181.39 104.79 181.681 104.9C186.22 107.227 200.028 114.309 201.777 119.667C203.571 125.2 195.82 161.389 193.353 165.374C192.717 166.509 191.809 167.491 190.7 168.245C189.59 168.999 188.309 169.503 186.956 169.718C186.012 169.819 185.055 169.707 184.167 169.39C183.278 169.074 182.484 168.564 181.851 167.902C180.416 166.23 179.185 164.413 178.182 162.486C176.244 159.137 174.037 155.337 170.897 153.21C165.972 149.862 163.891 150.364 163.873 150.364H163.765H163.648C162.533 150.186 161.386 150.382 160.41 150.917C159.922 151.244 159.513 151.662 159.209 152.145C158.905 152.628 158.712 153.165 158.642 153.721C158.457 154.415 158.447 155.14 158.612 155.838C158.777 156.537 159.113 157.19 159.593 157.748C160.383 158.667 161.506 159.284 162.751 159.48C163.089 159.454 163.422 159.395 163.747 159.305C165.854 158.7 168.127 158.855 170.117 159.74C173.804 161.247 177.572 163.34 177.572 167.5C177.572 170.154 176.899 172.138 175.634 173.234C175.22 173.588 174.729 173.854 174.195 174.016C173.662 174.178 173.097 174.231 172.539 174.172C170.691 174.038 169.264 172.422 168.053 170.991C167.282 170.154 166.447 169.208 165.945 169.208Z" fill="#263238"/>
<path d="M220.545 140.662V139.825C222.686 139.487 224.807 139.043 226.897 138.494L227.121 139.331C224.955 139.88 222.76 140.324 220.545 140.662Z" fill="#263238"/>
<path d="M195.506 204.158C195.506 204.158 184.812 212.27 183.305 215.693C181.798 219.117 182.138 225.672 182.138 226.3C182.138 226.928 173.947 232.687 171.104 240.489C168.26 248.291 168.098 257.951 168.098 257.951L186.642 226.45L197.219 206.46L195.506 204.158Z" fill="#09FF4F"/>
<path d="M167.614 259.626V257.951C167.614 257.851 167.811 248.124 170.646 240.372C172.79 234.512 177.922 229.749 180.38 227.472C180.825 227.083 181.247 226.672 181.645 226.241V226.007C181.519 221.193 181.923 217.677 182.856 215.551C184.381 212.069 194.743 204.183 195.183 203.831L195.569 203.547L197.65 206.468L187.046 226.635L167.614 259.626ZM195.425 204.786C193.514 206.259 185.027 212.931 183.762 215.861C183.161 217.25 182.47 220.122 182.623 225.982V226.308C182.623 226.626 182.354 226.886 181.089 228.058C178.667 230.293 173.643 234.939 171.57 240.615C169.498 246.29 168.879 253.029 168.663 256.168L186.292 226.241L196.69 206.518L195.425 204.786Z" fill="#263238"/>
<path d="M240.139 170.639C240.139 170.639 193.191 195 193.909 198.122C194.627 201.245 197.264 210.419 197.264 210.419C197.264 210.419 234.146 183.154 240.857 179.797C247.567 176.441 261.697 171.527 261.697 171.527C261.697 171.527 259.06 165.047 258.342 164.378C257.624 163.708 245.405 168.622 240.139 170.639Z" fill="white"/>
<path d="M197.004 211.139L196.834 210.528C196.834 210.436 194.187 201.32 193.469 198.214C193.317 197.536 192.958 195.962 216.526 182.845C228.045 176.441 239.798 170.288 239.924 170.288L242.857 169.158C255.543 164.235 258.01 163.557 258.611 164.135C259.365 164.83 261.626 170.338 262.074 171.435L262.227 171.828L261.805 171.97C261.661 172.021 247.63 176.918 241.027 180.216C234.424 183.514 197.865 210.52 197.498 210.796L197.004 211.139ZM240.336 171.016C218.069 182.568 194.393 195.971 194.349 198.047C194.95 200.65 196.923 207.59 197.524 209.691C202.261 206.2 234.307 182.577 240.641 179.429C246.652 176.424 258.71 172.138 261.114 171.284C260.255 169.039 259.239 166.85 258.073 164.729H258.019C256.548 164.729 247.935 168.078 243.252 169.886L240.336 171.016Z" fill="#263238"/>
<path d="M199.418 201.705L161.818 268.524L134.751 310.548H296.901C296.901 310.548 295.708 275.682 293.313 253.556C290.917 231.431 273.477 188.294 269.834 183.858C266.192 179.421 265.286 177.161 265.286 177.161C265.286 177.161 264.568 170.003 261.931 168.89C259.293 167.776 233.195 175.997 199.418 201.705Z" fill="black"/>
<path d="M297.368 310.966H133.953L161.432 268.315L199.068 201.437L199.139 201.387C232.145 176.273 258.853 167.065 262.119 168.471C264.81 169.626 265.618 176.005 265.708 177.018C266.951 179.347 268.454 181.547 270.193 183.581C273.899 188.185 291.384 231.615 293.761 253.523C296.139 275.43 297.35 310.188 297.35 310.539L297.368 310.966ZM135.541 310.129H296.444C296.291 306.044 295.089 274.133 292.855 253.598C290.496 231.833 273.118 188.637 269.467 184.075C265.815 179.513 264.9 177.378 264.864 177.269V177.152C264.676 175.235 263.743 170.062 261.778 169.224C259.383 168.212 233.608 176.265 199.803 201.973L162.231 268.725L135.541 310.129Z" fill="#263238"/>
<path d="M115.588 243.168L122.272 240.715L122.676 243.737L115.588 243.168Z" fill="white"/>
<path d="M123.196 244.197L113.641 243.436L122.613 240.087L123.196 244.197ZM117.535 242.908L122.164 243.277L121.904 241.301L117.535 242.908Z" fill="#263238"/>
<path d="M235.196 85.2694V82.6659H231.993C231.833 81.2181 231.42 79.8044 230.773 78.4803L233.563 76.9818L232.208 74.6965L229.418 76.1949C228.506 75.0081 227.391 73.9701 226.116 73.1227L227.731 70.5192L225.309 69.2133L223.694 71.8084C222.275 71.2061 220.76 70.8243 219.208 70.6783V67.6814H216.409V70.6783C214.858 70.8243 213.343 71.2061 211.924 71.8084L210.309 69.2133L207.895 70.5192L209.501 73.1227C208.227 73.9701 207.111 75.0081 206.2 76.1949L203.41 74.6965L202.019 76.9567L204.8 78.4552C204.152 79.7784 203.742 81.1927 203.589 82.6408H200.377V85.2443H203.499C203.653 86.6923 204.062 88.1067 204.711 89.4299L201.929 90.9283L203.32 93.1886L206.11 91.6901C207.024 92.8752 208.139 93.913 209.412 94.7624L207.806 97.3658L210.219 98.6717L211.834 96.0683C213.251 96.6771 214.767 97.0619 216.32 97.2068V100.204H219.119V97.2068C220.671 97.0619 222.187 96.6771 223.604 96.0683L225.219 98.6717L227.642 97.3658L226.027 94.7624C227.299 93.913 228.415 92.8752 229.328 91.6901L232.118 93.1886L233.518 90.9283L230.728 89.4299C231.376 88.1058 231.788 86.6921 231.948 85.2443L235.196 85.2694ZM217.746 73.7505C220.478 73.7574 223.108 74.7171 225.12 76.4411C227.132 78.1651 228.38 80.5287 228.62 83.0677H219.792C219.608 82.699 219.315 82.3867 218.948 82.1674C218.581 81.948 218.155 81.8305 217.719 81.8288C217.609 81.8201 217.498 81.8201 217.387 81.8288L212.794 74.8221C214.33 74.1027 216.028 73.7353 217.746 73.7505ZM206.801 83.9635C206.797 82.3213 207.218 80.7024 208.028 79.2448C208.839 77.7872 210.015 76.5341 211.457 75.5922L216.059 82.5655C215.697 82.9497 215.497 83.4434 215.494 83.9551C215.496 84.4206 215.66 84.8729 215.961 85.2443L211.475 92.3096C210.035 91.371 208.858 90.1225 208.045 88.6697C207.231 87.2169 206.804 85.6026 206.801 83.9635ZM217.746 94.1847C216.031 94.1816 214.341 93.8031 212.812 93.0797L217.298 86.0479C217.456 86.0821 217.619 86.0989 217.782 86.0981C218.278 86.0987 218.761 85.9476 219.156 85.6679C219.551 85.3882 219.838 84.9953 219.971 84.5494H228.7C228.544 87.1589 227.321 89.613 225.283 91.4057C223.245 93.1984 220.547 94.1931 217.746 94.1847Z" fill="#D1D1D1"/>
<path d="M242.615 119.441H245.405V116.444C246.958 116.298 248.473 115.913 249.891 115.305L251.497 117.909L253.919 116.595L252.304 113.999C253.577 113.147 254.692 112.106 255.606 110.919L258.396 112.417L259.786 110.157L257.005 108.659C257.65 107.334 258.059 105.92 258.216 104.473H261.419V101.819H258.225C258.065 100.371 257.653 98.9577 257.005 97.6337L259.786 96.1352L258.387 93.875L255.606 95.3818C254.689 94.1963 253.575 93.1561 252.304 92.3012L253.91 89.6977L251.488 88.4002L249.882 90.9953C248.464 90.3899 246.948 90.008 245.396 89.8651V86.8682H242.597V89.8568C241.045 90.0063 239.53 90.3909 238.111 90.9953L236.497 88.4002L234.083 89.7061L235.689 92.3012C234.417 93.1518 233.305 94.1927 232.397 95.3818L229.606 93.8833L228.207 96.1436L230.997 97.642C230.348 98.9652 229.939 100.38 229.786 101.828H226.574V104.439H229.786C229.942 105.888 230.355 107.302 231.006 108.625L228.189 110.191L229.588 112.451L232.379 110.952C233.295 112.135 234.41 113.173 235.68 114.025L234.074 116.628L236.497 117.934L238.102 115.33C239.521 115.936 241.036 116.318 242.588 116.461L242.615 119.441ZM254.951 103.15C254.95 105.702 253.926 108.161 252.08 110.044C250.233 111.926 247.699 113.095 244.975 113.321V105.084C245.369 104.913 245.703 104.64 245.937 104.297C246.171 103.954 246.294 103.556 246.293 103.15C246.293 103.05 246.293 102.949 246.293 102.849L253.74 98.5545C254.52 99.978 254.935 101.551 254.951 103.15ZM243.988 92.9374C245.747 92.9347 247.482 93.3282 249.044 94.0846C250.605 94.8409 251.949 95.9378 252.959 97.2821L245.495 101.551C245.085 101.211 244.555 101.023 244.006 101.024C243.509 101.026 243.028 101.179 242.633 101.459L235.061 97.2737C236.068 95.9368 237.405 94.8451 238.958 94.0905C240.511 93.3359 242.236 92.9404 243.988 92.9374ZM233.051 103.159C233.051 101.558 233.457 99.9804 234.236 98.5545L241.763 102.74C241.727 102.891 241.709 103.046 241.709 103.201C241.709 103.665 241.872 104.116 242.174 104.485C242.475 104.854 242.898 105.12 243.378 105.243V113.388C240.58 113.24 237.95 112.097 236.029 110.194C234.108 108.291 233.042 105.773 233.051 103.159Z" fill="#D1D1D1"/>
<path d="M284.74 70.2513C300.369 70.2513 313.039 58.1085 313.039 43.1295C313.039 28.1506 300.369 16.0078 284.74 16.0078C269.111 16.0078 256.441 28.1506 256.441 43.1295C256.441 58.1085 269.111 70.2513 284.74 70.2513Z" fill="#263238"/>
<path d="M284.74 70.4418C279.103 70.444 273.592 68.8441 268.904 65.8444C264.216 62.8447 260.561 58.5799 258.403 53.5894C256.244 48.5989 255.678 43.107 256.776 37.8082C257.874 32.5094 260.587 27.6417 264.573 23.8209C268.558 20.0001 273.635 17.3977 279.164 16.3429C284.692 15.2881 290.423 15.8283 295.631 17.8952C300.839 19.9621 305.29 23.4627 308.422 27.9545C311.554 32.4462 313.226 37.7272 313.226 43.1295C313.218 50.3687 310.214 57.3093 304.874 62.4293C299.534 67.5492 292.293 70.4307 284.74 70.4418ZM284.74 16.1983C279.182 16.196 273.747 17.7736 269.125 20.7314C264.502 23.6893 260.899 27.8946 258.77 32.8155C256.641 37.7363 256.083 43.1516 257.166 48.3766C258.249 53.6015 260.924 58.4012 264.854 62.1688C268.783 65.9363 273.79 68.5024 279.241 69.5425C284.693 70.5826 290.343 70.0499 295.479 68.0119C300.614 65.9739 305.004 62.522 308.092 58.0929C311.18 53.6639 312.828 48.4565 312.828 43.1295C312.82 35.9914 309.858 29.1477 304.593 24.0992C299.327 19.0507 292.188 16.2093 284.74 16.1983Z" fill="#263238"/>
<path d="M264.971 68.175C267.14 68.175 268.899 66.5477 268.899 64.5404C268.899 62.5332 267.14 60.9059 264.971 60.9059C262.802 60.9059 261.044 62.5332 261.044 64.5404C261.044 66.5477 262.802 68.175 264.971 68.175Z" fill="#263238"/>
<path d="M264.971 68.3654C264.192 68.3371 263.439 68.0897 262.805 67.6542C262.172 67.2187 261.686 66.6143 261.408 65.9161C261.13 65.2179 261.073 64.4569 261.243 63.7276C261.413 62.9984 261.803 62.3332 262.364 61.8148C262.926 61.2963 263.634 60.9476 264.401 60.812C265.167 60.6763 265.959 60.7597 266.676 61.0519C267.394 61.344 268.006 61.8319 268.437 62.4549C268.867 63.0779 269.097 63.8085 269.098 64.5557C269.073 65.584 268.626 66.5616 267.853 67.2753C267.08 67.9889 266.044 68.3808 264.971 68.3654ZM264.971 61.0964C264.271 61.1248 263.595 61.3497 263.026 61.7433C262.458 62.1369 262.023 62.6818 261.776 63.3103C261.528 63.9388 261.478 64.6232 261.633 65.2785C261.787 65.9338 262.14 66.5311 262.645 66.9963C263.151 67.4614 263.788 67.7739 264.478 67.8949C265.168 68.0159 265.879 67.94 266.524 67.6768C267.169 67.4136 267.719 66.9745 268.106 66.4142C268.493 65.8539 268.699 65.1971 268.7 64.5252C268.676 63.5979 268.271 62.7172 267.572 62.075C266.874 61.4328 265.939 61.081 264.971 61.0964Z" fill="#263238"/>
<path d="M261.97 69.1884C261.99 69.7293 261.841 70.2635 261.541 70.7226C261.242 71.1816 260.807 71.5446 260.291 71.7648C259.775 71.9851 259.202 72.0527 258.646 71.9589C258.09 71.8651 257.576 71.6142 257.169 71.2383C256.763 70.8625 256.483 70.3789 256.365 69.8496C256.248 69.3202 256.298 68.7692 256.509 68.2673C256.72 67.7654 257.083 67.3354 257.551 67.0325C258.019 66.7296 258.571 66.5676 259.136 66.5673C259.501 66.5607 259.865 66.6233 260.205 66.7515C260.546 66.8798 260.857 67.0711 261.12 67.3145C261.383 67.558 261.594 67.8488 261.74 68.1703C261.886 68.4919 261.964 68.8378 261.97 69.1884Z" fill="#263238"/>
<path d="M259.136 71.9962C258.56 71.9775 258.003 71.7967 257.533 71.4765C257.064 71.1562 256.704 70.7106 256.497 70.1953C256.29 69.6799 256.246 69.1177 256.371 68.5786C256.495 68.0395 256.783 67.5475 257.197 67.1639C257.611 66.7803 258.134 66.5222 258.701 66.4216C259.267 66.321 259.852 66.3825 260.382 66.5984C260.913 66.8143 261.365 67.1751 261.682 67.6357C262 68.0962 262.169 68.6363 262.169 69.1884C262.162 69.5636 262.078 69.9339 261.922 70.2781C261.766 70.6223 261.541 70.9337 261.259 71.1944C260.978 71.4552 260.645 71.6602 260.281 71.7978C259.916 71.9353 259.527 72.0027 259.136 71.9962ZM259.136 66.7577C258.639 66.7764 258.159 66.9347 257.755 67.2129C257.351 67.4911 257.041 67.8769 256.865 68.3223C256.688 68.7678 256.652 69.2532 256.76 69.7183C256.869 70.1833 257.118 70.6075 257.477 70.9379C257.835 71.2684 258.287 71.4906 258.776 71.5769C259.265 71.6633 259.77 71.6099 260.227 71.4235C260.685 71.237 261.075 70.9257 261.35 70.5283C261.624 70.131 261.771 69.665 261.771 69.1884C261.758 68.5312 261.473 67.9061 260.978 67.4504C260.484 66.9946 259.821 66.7455 259.136 66.7577Z" fill="#263238"/>
<path d="M283.655 68.434C299.284 68.434 311.954 56.2912 311.954 41.3123C311.954 26.3333 299.284 14.1905 283.655 14.1905C268.025 14.1905 255.355 26.3333 255.355 41.3123C255.355 56.2912 268.025 68.434 283.655 68.434Z" fill="white"/>
<path d="M283.655 68.6245C278.018 68.6245 272.508 67.0227 267.822 64.0216C263.135 61.0205 259.483 56.7549 257.326 51.7642C255.169 46.7736 254.605 41.282 255.704 35.9839C256.804 30.6859 259.518 25.8193 263.503 21.9996C267.489 18.1799 272.567 15.5787 278.095 14.5248C283.623 13.471 289.353 14.0118 294.56 16.079C299.768 18.1462 304.218 21.6469 307.35 26.1384C310.481 30.6299 312.153 35.9104 312.153 41.3123C312.144 48.5535 309.139 55.4957 303.796 60.616C298.454 65.7363 291.21 68.6165 283.655 68.6245ZM283.655 14.381C278.097 14.381 272.664 15.9605 268.043 18.9197C263.422 21.879 259.82 26.0851 257.693 31.0061C255.566 35.9272 255.01 41.3421 256.094 46.5663C257.178 51.7905 259.855 56.5892 263.785 60.3556C267.714 64.122 272.721 66.6869 278.172 67.7261C283.623 68.7652 289.274 68.2319 294.408 66.1935C299.543 64.1552 303.932 60.7033 307.019 56.2745C310.107 51.8457 311.755 46.6388 311.755 41.3123C311.741 34.1754 308.776 27.3349 303.508 22.2902C298.241 17.2455 291.101 14.4081 283.655 14.4V14.381Z" fill="black"/>
<path d="M263.886 66.3577C266.055 66.3577 267.814 64.7305 267.814 62.7232C267.814 60.7159 266.055 59.0887 263.886 59.0887C261.717 59.0887 259.959 60.7159 259.959 62.7232C259.959 64.7305 261.717 66.3577 263.886 66.3577Z" fill="white"/>
<path d="M263.886 66.5482C263.107 66.5198 262.354 66.2725 261.72 65.8369C261.087 65.4014 260.601 64.797 260.323 64.0988C260.045 63.4007 259.988 62.6396 260.158 61.9104C260.328 61.1811 260.718 60.5159 261.279 59.9975C261.841 59.4791 262.549 59.1303 263.315 58.9947C264.082 58.8591 264.874 58.9425 265.591 59.2346C266.309 59.5267 266.921 60.0146 267.351 60.6376C267.782 61.2606 268.012 61.9912 268.012 62.7384C267.989 63.7671 267.542 64.7453 266.769 65.4591C265.996 66.173 264.96 66.5645 263.886 66.5482ZM263.886 59.2791C263.186 59.3075 262.509 59.5325 261.941 59.9261C261.373 60.3196 260.938 60.8645 260.69 61.493C260.443 62.1215 260.393 62.8059 260.548 63.4612C260.702 64.1165 261.054 64.7139 261.56 65.179C262.066 65.6442 262.703 65.9566 263.393 66.0776C264.082 66.1986 264.794 66.1228 265.439 65.8595C266.084 65.5963 266.634 65.1573 267.021 64.597C267.408 64.0367 267.614 63.3798 267.615 62.7079C267.592 61.7803 267.187 60.899 266.488 60.2566C265.79 59.6142 264.854 59.2628 263.886 59.2791Z" fill="#263238"/>
<path d="M260.885 67.3559C260.905 67.8969 260.755 68.4313 260.456 68.8905C260.157 69.3496 259.721 69.7126 259.205 69.9327C258.689 70.1529 258.116 70.2202 257.56 70.1261C257.003 70.032 256.489 69.7807 256.083 69.4045C255.677 69.0283 255.397 68.5443 255.28 68.0147C255.162 67.4851 255.213 66.934 255.425 66.4322C255.637 65.9303 256 65.5006 256.469 65.1981C256.937 64.8957 257.49 64.7343 258.054 64.7347C258.42 64.7287 258.783 64.7917 259.123 64.9201C259.463 65.0486 259.773 65.24 260.036 65.4834C260.299 65.7268 260.509 66.0174 260.655 66.3387C260.8 66.66 260.879 67.0056 260.885 67.3559Z" fill="white"/>
<path d="M258.054 70.1827C257.479 70.1647 256.921 69.9847 256.451 69.665C255.982 69.3454 255.621 68.9002 255.413 68.3852C255.206 67.8701 255.161 67.3079 255.285 66.7686C255.408 66.2294 255.695 65.737 256.109 65.3529C256.523 64.9688 257.045 64.7099 257.612 64.6087C258.178 64.5074 258.763 64.5681 259.293 64.7834C259.824 64.9986 260.277 65.3588 260.595 65.8189C260.913 66.2791 261.083 66.8189 261.084 67.3711C261.07 68.1286 260.743 68.85 260.176 69.3771C259.608 69.9042 258.845 70.1939 258.054 70.1827ZM258.054 64.9404C257.557 64.9584 257.077 65.116 256.672 65.3938C256.268 65.6715 255.958 66.0571 255.78 66.5025C255.603 66.9479 255.566 67.4335 255.675 67.8988C255.783 68.3642 256.032 68.7887 256.39 69.1195C256.748 69.4503 257.2 69.6729 257.689 69.7595C258.178 69.8462 258.683 69.793 259.141 69.6066C259.599 69.4203 259.99 69.109 260.264 68.7115C260.539 68.314 260.686 67.8478 260.686 67.3711C260.672 66.7146 260.388 66.0901 259.894 65.6344C259.401 65.1788 258.739 64.9292 258.054 64.9404Z" fill="#263238"/>
<path d="M295.735 36.5292C295.736 34.6888 295.275 32.8752 294.39 31.2419C293.505 29.6086 292.223 28.2036 290.651 27.146C289.08 26.0883 287.266 25.4091 285.362 25.1658C283.459 24.9225 281.522 25.1222 279.716 25.7482C277.911 26.3741 276.289 27.4078 274.988 28.7617C273.687 30.1156 272.746 31.7499 272.244 33.5263C271.742 35.3027 271.694 37.1688 272.104 38.9668C272.514 40.7647 273.37 42.4416 274.599 43.8553C276.358 45.8806 277.321 48.4322 277.322 51.0672V52.6407H290.241V51.0711C290.239 48.4433 291.199 45.898 292.953 43.8782C294.756 41.8202 295.742 39.2168 295.735 36.5292Z" fill="#09FF4F"/>
<path d="M290.237 52.8274H277.318C277.265 52.8274 277.215 52.8073 277.178 52.7716C277.14 52.7359 277.119 52.6874 277.119 52.6369V51.0673C277.118 48.4778 276.17 45.9706 274.44 43.9811C272.962 42.2797 272.02 40.2099 271.725 38.0141C271.43 35.8183 271.794 33.5874 272.774 31.5827C273.755 29.578 275.311 27.8824 277.26 26.6946C279.209 25.5069 281.472 24.876 283.782 24.876C286.092 24.876 288.354 25.5069 290.304 26.6946C292.253 27.8824 293.809 29.578 294.789 31.5827C295.769 33.5874 296.133 35.8183 295.838 38.0141C295.543 40.2099 294.602 42.2797 293.123 43.9811C291.397 45.9702 290.452 48.476 290.452 51.0635V52.6407C290.452 52.6667 290.446 52.6924 290.434 52.7161C290.423 52.7398 290.407 52.7611 290.387 52.7786C290.367 52.7961 290.343 52.8094 290.317 52.8178C290.292 52.8262 290.265 52.8295 290.237 52.8274ZM277.517 52.4464H290.039V51.0673C290.042 48.3881 291.026 45.7951 292.821 43.7411C294.745 41.5303 295.713 38.6973 295.525 35.8242C295.337 32.951 294.008 30.2559 291.812 28.2924C290.635 27.2298 289.24 26.414 287.715 25.8971C286.191 25.3802 284.571 25.1736 282.959 25.2903C280.802 25.4368 278.728 26.1511 276.967 27.3545C275.206 28.5578 273.826 30.2037 272.978 32.1107C272.131 34.0177 271.849 36.1119 272.164 38.1626C272.478 40.2134 273.377 42.1411 274.762 43.7335C276.555 45.7914 277.54 48.3862 277.545 51.0673L277.517 52.4464Z" fill="#263238"/>
<path d="M290.241 52.6369H277.318V55.6999H290.241V52.6369Z" fill="white"/>
<path d="M290.237 55.8943H277.318C277.265 55.8943 277.215 55.8742 277.178 55.8385C277.14 55.8027 277.119 55.7543 277.119 55.7038V52.656C277.119 52.6054 277.14 52.557 277.178 52.5213C277.215 52.4855 277.265 52.4655 277.318 52.4655H290.237C290.29 52.4655 290.341 52.4855 290.378 52.5213C290.415 52.557 290.436 52.6054 290.436 52.656V55.7038C290.436 55.7543 290.415 55.8027 290.378 55.8385C290.341 55.8742 290.29 55.8943 290.237 55.8943ZM277.517 55.5133H290.039V52.8464H277.517V55.5133Z" fill="#263238"/>
<path d="M277.318 55.7113H290.241V56.9762C290.241 57.2128 290.193 57.4472 290.098 57.6658C290.004 57.8844 289.865 58.0831 289.691 58.2504C289.516 58.4177 289.309 58.5505 289.081 58.641C288.853 58.7316 288.608 58.7782 288.361 58.7782H279.194C278.696 58.7782 278.218 58.5883 277.865 58.2504C277.512 57.9125 277.314 57.4541 277.314 56.9762V55.7113H277.318Z" fill="white"/>
<path d="M288.361 58.9649H279.194C278.644 58.9639 278.116 58.7535 277.727 58.38C277.338 58.0064 277.119 57.5002 277.119 56.9724V55.7114C277.119 55.6609 277.14 55.6124 277.178 55.5767C277.215 55.541 277.265 55.5209 277.318 55.5209H290.237C290.29 55.5209 290.341 55.541 290.378 55.5767C290.415 55.6124 290.436 55.6609 290.436 55.7114V56.9724C290.436 57.5002 290.218 58.0064 289.829 58.38C289.44 58.7535 288.912 58.9639 288.361 58.9649ZM277.517 55.9171V56.9877C277.517 57.4144 277.694 57.8237 278.008 58.1258C278.322 58.4279 278.749 58.5982 279.194 58.5992H288.361C288.806 58.5982 289.233 58.4279 289.548 58.1258C289.862 57.8237 290.039 57.4144 290.039 56.9877V55.9171H277.517Z" fill="#263238"/>
<path d="M278.948 58.7706H288.608V59.3916C288.608 59.7123 288.542 60.0299 288.414 60.3261C288.286 60.6224 288.098 60.8916 287.861 61.1184C287.625 61.3452 287.344 61.5251 287.035 61.6478C286.726 61.7705 286.394 61.8337 286.06 61.8337H281.496C280.82 61.8337 280.172 61.5764 279.694 61.1184C279.216 60.6604 278.948 60.0393 278.948 59.3916V58.7706Z" fill="#263238"/>
<path d="M286.06 62.0241H281.496C280.768 62.0231 280.07 61.7454 279.555 61.252C279.04 60.7585 278.75 60.0895 278.749 59.3916V58.5801H288.806V59.3916C288.805 60.0895 288.516 60.7585 288.001 61.252C287.486 61.7454 286.788 62.0231 286.06 62.0241ZM279.147 58.9763V59.4068C279.148 60.0037 279.396 60.5758 279.836 60.9978C280.276 61.4198 280.873 61.6574 281.496 61.6584H286.06C286.682 61.6574 287.279 61.4198 287.72 60.9978C288.16 60.5758 288.408 60.0037 288.409 59.4068V58.9763H279.147Z" fill="#263238"/>
<path d="M302.891 36.7806H297.429C297.376 36.7806 297.325 36.7605 297.288 36.7248C297.251 36.6891 297.23 36.6406 297.23 36.5901C297.23 36.5396 297.251 36.4911 297.288 36.4554C297.325 36.4197 297.376 36.3996 297.429 36.3996H302.891C302.943 36.3996 302.994 36.4197 303.031 36.4554C303.068 36.4911 303.089 36.5396 303.089 36.5901C303.089 36.6406 303.068 36.6891 303.031 36.7248C302.994 36.7605 302.943 36.7806 302.891 36.7806Z" fill="#263238"/>
<path d="M269.686 36.7806H264.121C264.068 36.7806 264.017 36.7605 263.98 36.7248C263.943 36.6891 263.922 36.6406 263.922 36.5901C263.922 36.5396 263.943 36.4911 263.98 36.4554C264.017 36.4197 264.068 36.3996 264.121 36.3996H269.686C269.739 36.3996 269.789 36.4197 269.826 36.4554C269.864 36.4911 269.885 36.5396 269.885 36.5901C269.884 36.6403 269.862 36.6882 269.825 36.7237C269.788 36.7592 269.738 36.7796 269.686 36.7806Z" fill="#263238"/>
<path d="M283.519 23.4655C283.467 23.4655 283.416 23.4454 283.379 23.4097C283.342 23.3739 283.321 23.3255 283.321 23.275V18.0137C283.321 17.9631 283.342 17.9147 283.379 17.879C283.416 17.8433 283.467 17.8232 283.519 17.8232C283.572 17.8232 283.623 17.8433 283.66 17.879C283.697 17.9147 283.718 17.9631 283.718 18.0137V23.275C283.718 23.3255 283.697 23.3739 283.66 23.4097C283.623 23.4454 283.572 23.4655 283.519 23.4655Z" fill="#263238"/>
<path d="M293.445 27.2676C293.419 27.2675 293.394 27.2623 293.37 27.2525C293.346 27.2427 293.324 27.2284 293.306 27.2105C293.288 27.1928 293.273 27.1717 293.263 27.1485C293.253 27.1253 293.248 27.1004 293.248 27.0752C293.248 27.0501 293.253 27.0252 293.263 27.002C293.273 26.9788 293.288 26.9577 293.306 26.94L297.087 23.3055C297.124 23.2705 297.174 23.251 297.226 23.251C297.278 23.251 297.328 23.2705 297.365 23.3055C297.384 23.3232 297.398 23.3442 297.409 23.3674C297.419 23.3907 297.424 23.4156 297.424 23.4407C297.424 23.4658 297.419 23.4907 297.409 23.514C297.398 23.5372 297.384 23.5582 297.365 23.5759L293.589 27.199C293.571 27.2192 293.549 27.2356 293.524 27.2474C293.5 27.2592 293.473 27.2661 293.445 27.2676Z" fill="#263238"/>
<path d="M269.817 49.9129C269.764 49.9126 269.713 49.8936 269.674 49.8595C269.637 49.8233 269.617 49.7748 269.617 49.7243C269.617 49.6738 269.637 49.6253 269.674 49.589L273.51 45.9126C273.529 45.8948 273.551 45.8808 273.575 45.8711C273.599 45.8615 273.625 45.8566 273.651 45.8566C273.677 45.8566 273.703 45.8615 273.727 45.8711C273.752 45.8808 273.774 45.8948 273.792 45.9126C273.811 45.9304 273.825 45.9514 273.835 45.9747C273.846 45.9979 273.851 46.0227 273.851 46.0479C273.851 46.073 273.846 46.0978 273.835 46.1211C273.825 46.1443 273.811 46.1653 273.792 46.1831L269.956 49.8595C269.918 49.8927 269.869 49.9117 269.817 49.9129Z" fill="#263238"/>
<path d="M273.474 27.1609C273.422 27.1612 273.372 27.1421 273.335 27.1076L269.662 23.5874C269.625 23.5515 269.604 23.5028 269.604 23.4521C269.604 23.4014 269.625 23.3527 269.662 23.3169C269.699 23.281 269.75 23.2608 269.803 23.2608C269.856 23.2608 269.907 23.281 269.944 23.3169L273.613 26.8371C273.641 26.8637 273.659 26.8974 273.666 26.934C273.674 26.9706 273.67 27.0085 273.655 27.043C273.64 27.0775 273.615 27.107 273.583 27.128C273.551 27.149 273.513 27.1604 273.474 27.1609Z" fill="#263238"/>
<path d="M297.226 49.9129C297.174 49.9124 297.124 49.8934 297.087 49.8596L293.43 46.3546C293.411 46.3368 293.396 46.3157 293.386 46.2925C293.376 46.2693 293.371 46.2445 293.371 46.2193C293.371 46.1942 293.376 46.1693 293.386 46.1461C293.396 46.1229 293.411 46.1018 293.43 46.0841C293.448 46.0663 293.47 46.0522 293.494 46.0426C293.519 46.033 293.544 46.0281 293.571 46.0281C293.597 46.0281 293.623 46.033 293.647 46.0426C293.671 46.0522 293.693 46.0663 293.712 46.0841L297.365 49.5891C297.392 49.6157 297.411 49.6494 297.418 49.686C297.426 49.7226 297.422 49.7605 297.407 49.795C297.392 49.8294 297.367 49.859 297.335 49.88C297.303 49.9009 297.265 49.9124 297.226 49.9129Z" fill="#263238"/>
</svg>
