<svg width="360" height="440" viewBox="0 0 360 440" fill="none" xmlns="http://www.w3.org/2000/svg">
<path d="M41.4639 272.079H34.4504" stroke="#263238" stroke-width="1.1133" stroke-miterlimit="10"/>
<path d="M325.55 272.079H52.5572" stroke="#263238" stroke-width="1.1133" stroke-miterlimit="10"/>
<path d="M229.389 300.538C242.212 300.538 252.607 297.861 252.607 294.56C252.607 291.259 242.212 288.583 229.389 288.583C216.566 288.583 206.171 291.259 206.171 294.56C206.171 297.861 216.566 300.538 229.389 300.538Z" fill="#263238"/>
<path d="M109.387 308.138C85.2218 308.138 81.654 304.87 81.3025 302.232C81.2227 301.683 81.2806 301.123 81.4715 300.599C81.6624 300.074 81.9812 299.597 82.4027 299.208C88.912 292.816 126.424 295.518 178.331 299.258C185.573 299.78 193.06 300.316 200.739 300.852C253.187 304.499 274.304 304.027 278.667 299.093C279.553 298.085 279.736 296.827 279.247 295.125C277.169 288.011 249.39 287.975 238.87 288.533C238.629 288.545 238.393 288.467 238.213 288.317C238.033 288.167 237.923 287.957 237.907 287.732C237.9 287.621 237.917 287.509 237.956 287.403C237.995 287.298 238.056 287.201 238.136 287.118C238.215 287.035 238.312 286.967 238.419 286.919C238.527 286.871 238.644 286.844 238.763 286.838C242.789 286.617 278.162 284.951 280.997 294.703C281.646 296.948 281.348 298.743 280.065 300.202C275.168 305.764 255.12 306.358 200.609 302.568C192.923 302.032 185.436 301.496 178.193 300.974C128.716 297.399 89.6301 294.589 83.7168 300.402C83.483 300.609 83.3055 300.866 83.1992 301.151C83.0929 301.436 83.0608 301.74 83.1056 302.039C83.3271 303.727 87.6896 307.502 122.834 306.186C142.491 305.471 162.241 303.448 162.439 303.426C162.669 303.418 162.894 303.491 163.069 303.631C163.243 303.772 163.354 303.969 163.38 304.183C163.405 304.397 163.342 304.612 163.205 304.785C163.067 304.958 162.864 305.075 162.638 305.114C162.439 305.114 142.629 307.144 122.91 307.881C117.837 308.052 113.345 308.138 109.387 308.138Z" fill="white" stroke="#263238" stroke-width="1.1133" stroke-miterlimit="10"/>
<path d="M220.755 299.808C235.865 299.808 248.114 288.345 248.114 274.204C248.114 260.063 235.865 248.6 220.755 248.6C205.646 248.6 193.397 260.063 193.397 274.204C193.397 288.345 205.646 299.808 220.755 299.808Z" fill="white"/>
<mask id="mask0_74_2" style="mask-type:luminance" maskUnits="userSpaceOnUse" x="193" y="248" width="56" height="52">
<path d="M220.755 299.808C235.865 299.808 248.114 288.345 248.114 274.204C248.114 260.063 235.865 248.6 220.755 248.6C205.646 248.6 193.397 260.063 193.397 274.204C193.397 288.345 205.646 299.808 220.755 299.808Z" fill="white"/>
</mask>
<g mask="url(#mask0_74_2)">
<path d="M220.755 299.808C225.734 299.811 230.62 298.542 234.885 296.139C239.15 293.735 242.632 290.287 244.958 286.167C247.283 282.047 248.363 277.411 248.08 272.759C247.798 268.107 246.164 263.615 243.355 259.768C243.057 270.922 236.479 287.389 202.267 293.052C207.303 297.399 213.904 299.811 220.755 299.808Z" fill="#09FF4F"/>
<path opacity="0.3" d="M220.755 299.808C225.734 299.811 230.62 298.542 234.885 296.139C239.15 293.735 242.632 290.287 244.958 286.167C247.283 282.047 248.363 277.411 248.08 272.759C247.798 268.107 246.164 263.615 243.355 259.768C243.057 270.922 236.479 287.389 202.267 293.052C207.303 297.399 213.904 299.811 220.755 299.808Z" fill="white"/>
<path d="M234.217 284.243C229.338 279.801 223.414 276.492 216.92 274.583M234.217 284.243H235.669C238.889 281.255 241.662 277.874 243.912 274.19C231.1 261.52 218.639 262.814 218.639 262.814C218.639 262.814 231.138 261.52 243.95 274.204C244.653 273.024 245.242 271.916 245.723 270.894C240.39 263.901 231.207 259.132 226.279 258.417L225.133 258.16M234.217 284.243C222.963 284.093 214.407 282.462 208.012 280.282C208.424 264.108 214.59 253.333 217.814 248.772C218.841 248.66 219.874 248.603 220.908 248.6C221.848 248.6 222.765 248.65 223.682 248.729M225.133 258.16C223.367 257.859 221.56 257.835 219.785 258.088M225.133 258.16L228.395 249.58C226.854 249.167 225.276 248.882 223.682 248.729M223.682 248.729C221.565 251.925 216.118 262.135 216.118 282.391M240.398 279.03C229.503 269.092 217.478 268.57 217.478 268.57" stroke="#263238" stroke-width="1.1133" stroke-linecap="round" stroke-linejoin="round"/>
<path d="M207.981 280.325C208.394 264.151 214.559 253.376 217.784 248.814C215.261 249.079 212.79 249.671 210.441 250.573C204.651 258.523 201.38 267.843 201.006 277.457C203.25 278.578 205.581 279.537 207.981 280.325Z" stroke="#263238" stroke-width="1.1133" stroke-linecap="round" stroke-linejoin="round"/>
<path d="M210.441 250.552C205.717 252.375 201.631 255.398 198.645 259.279C195.658 263.16 193.891 267.745 193.542 272.517C195.791 274.453 198.301 276.106 201.006 277.436C201.38 267.821 204.651 258.502 210.441 250.552Z" stroke="#263238" stroke-width="1.1133" stroke-linecap="round" stroke-linejoin="round"/>
<path d="M245.685 270.894C246.28 269.662 246.791 268.397 247.213 267.104C246.071 263.458 244.08 260.093 241.383 257.251L239.267 263.858L241.345 257.251C239.658 255.48 237.717 253.935 235.577 252.661L233.247 260.819L235.592 252.697C233.355 251.358 230.92 250.334 228.365 249.658L225.103 258.238C230.099 258.91 237.823 261.663 245.685 270.894Z" stroke="#263238" stroke-width="1.1133" stroke-linecap="round" stroke-linejoin="round"/>
<path d="M222.268 293.974C225.451 292.172 228.487 290.153 231.352 287.932C232.918 286.702 235.791 284.264 235.883 284.264C235.791 284.264 241.277 278.473 243.095 275.448C243.095 275.491 243.905 274.247 243.859 274.204C243.813 274.161 244.516 273.125 244.47 273.082C244.915 272.381 245.304 271.649 245.631 270.894C246.227 269.662 246.737 268.397 247.159 267.104C247.889 269.441 248.259 271.863 248.259 274.297C248.259 274.697 248.259 275.041 248.259 275.412C236.708 290.592 227.807 297.098 222.207 299.951C221.756 299.951 221.298 299.951 220.832 299.951C218.03 299.952 215.245 299.551 212.573 298.764C215.901 297.344 219.138 295.744 222.268 293.974ZM222.268 293.974H222.467" stroke="#263238" stroke-width="1.1133" stroke-linecap="round" stroke-linejoin="round"/>
<path d="M248.259 275.412C236.708 290.592 227.807 297.098 222.253 299.887C229.064 299.566 235.503 296.881 240.312 292.355C245.121 287.829 247.954 281.789 248.259 275.412Z" stroke="#263238" stroke-width="1.1133" stroke-linecap="round" stroke-linejoin="round"/>
<path d="M199.455 290.285C202.845 294.273 207.428 297.225 212.619 298.764C215.947 297.344 219.184 295.744 222.314 293.974C215.789 295.104 205.582 292.301 199.455 290.285Z" stroke="#263238" stroke-width="1.1133" stroke-linecap="round" stroke-linejoin="round"/>
<path d="M222.314 293.974C225.497 292.172 228.533 290.153 231.398 287.932C211.694 289.82 199.539 284.107 194.375 280.861C195.349 284.299 197.08 287.508 199.455 290.285C205.582 292.301 215.789 295.104 222.314 293.974Z" stroke="#263238" stroke-width="1.1133" stroke-linecap="round" stroke-linejoin="round"/>
<path d="M234.217 284.257H235.669C234.378 285.473 232.964 286.702 231.398 287.932C211.695 289.82 199.539 284.107 194.375 280.875C193.772 278.733 193.466 276.527 193.466 274.311C193.466 273.718 193.496 273.139 193.542 272.552C195.207 274.018 198.592 277.293 207.982 280.339C214.407 282.477 222.964 284.107 234.217 284.257ZM234.217 284.257C234.324 284.35 234.431 284.443 234.531 284.543" stroke="#263238" stroke-width="1.1133" stroke-linecap="round" stroke-linejoin="round"/>
</g>
<path d="M220.755 299.808C235.865 299.808 248.114 288.345 248.114 274.204C248.114 260.063 235.865 248.6 220.755 248.6C205.646 248.6 193.397 260.063 193.397 274.204C193.397 288.345 205.646 299.808 220.755 299.808Z" stroke="#263238" stroke-width="1.1133" stroke-linecap="round" stroke-linejoin="round"/>
<path d="M264.598 229.429C264.598 229.429 262.726 223.745 257.271 221.7C253.451 220.27 249.119 220.656 245.184 221.293C237.865 222.487 231.478 225.211 224.556 227.534C224.556 227.534 227.521 226.512 239.676 232.06C244.153 234.098 249.272 235.685 254.391 235.578C258.493 235.492 264.804 234.391 264.598 229.429Z" fill="#09FF4F"/>
<path d="M265.255 212.72C265.255 212.72 265.255 206.764 260.671 203.339C257.477 200.951 253.184 200.128 249.211 199.678C241.831 198.841 234.878 199.721 227.513 200.071C227.513 200.071 230.668 199.9 240.593 208.494C244.252 211.654 248.668 214.557 253.581 215.837C257.538 216.867 263.91 217.524 265.255 212.72Z" fill="#09FF4F"/>
<path d="M277.792 234.82C277.792 234.82 272.834 231.095 272.818 225.597C272.818 221.772 274.782 218.118 276.868 214.936C280.749 209.002 285.806 204.454 290.681 199.271C290.681 199.271 288.572 201.473 289.596 214.092C289.978 218.74 289.657 223.781 287.663 228.192C286.097 231.739 282.682 236.822 277.792 234.82Z" fill="#09FF4F"/>
<path d="M295.364 243.958C295.364 243.958 294.661 238.045 298.802 234.141C301.675 231.431 305.838 230.144 309.712 229.272C316.939 227.642 323.953 227.763 331.31 227.313C331.31 227.313 328.163 227.477 319.361 237.087C316.122 240.662 312.096 243.987 307.351 245.796C303.569 247.247 297.32 248.584 295.364 243.958Z" fill="#09FF4F"/>
<path d="M294.241 222.873C294.241 222.873 287.938 222.065 284.912 217.353C282.804 214.078 282.491 209.988 282.529 206.256C282.605 199.306 284.454 192.964 285.791 186.179C285.791 186.179 285.187 189.082 292.996 199.413C295.868 203.224 298.344 207.7 299.108 212.448C299.65 216.259 299.505 222.258 294.241 222.873Z" fill="#09FF4F"/>
<path d="M312.378 212.283C312.378 212.283 316.909 216.459 322.746 215.858C326.803 215.422 330.455 213.156 333.587 210.853C339.424 206.563 343.664 201.315 348.592 196.189C348.592 196.189 346.506 198.398 332.991 198.92C328.017 199.113 322.708 199.993 318.253 202.366C314.678 204.24 309.689 208.008 312.378 212.283Z" fill="#09FF4F"/>
<path d="M307.13 208.158C307.13 208.158 313.456 208.751 317.581 204.84C320.454 202.116 321.783 198.212 322.677 194.573C324.343 187.802 324.144 181.231 324.541 174.346C324.541 174.346 324.404 177.291 314.22 185.628C310.476 188.696 306.923 192.499 305.052 196.954C303.531 200.536 302.164 206.399 307.13 208.158Z" fill="#09FF4F"/>
<path d="M284.538 265.794L273.613 240.633L261.015 211.54" stroke="#263238" stroke-width="1.1133" stroke-linecap="round" stroke-linejoin="round"/>
<path d="M287.059 261.468L297.977 226.483L309.742 204.862" stroke="#263238" stroke-width="1.1133" stroke-linecap="round" stroke-linejoin="round"/>
<path d="M291.254 247.712L302.179 241.813" stroke="#263238" stroke-width="1.1133" stroke-linecap="round" stroke-linejoin="round"/>
<path d="M297.977 226.483L292.514 215.079" stroke="#263238" stroke-width="1.1133" stroke-linecap="round" stroke-linejoin="round"/>
<path d="M304.815 215.136L318.139 209.574" stroke="#263238" stroke-width="1.1133" stroke-linecap="round" stroke-linejoin="round"/>
<path d="M275.714 245.352L280.336 228.056" stroke="#263238" stroke-width="1.1133" stroke-linecap="round" stroke-linejoin="round"/>
<path d="M269.587 232.203L258.914 226.877" stroke="#263238" stroke-width="1.1133" stroke-linecap="round" stroke-linejoin="round"/>
<path d="M290.138 278.371H281.031C279.543 278.37 278.101 277.884 276.954 276.995C275.808 276.106 275.029 274.871 274.751 273.502L271.512 257.536H299.658L296.426 273.502C296.147 274.871 295.366 276.107 294.219 276.996C293.071 277.884 291.628 278.371 290.138 278.371Z" fill="#263238" stroke="#263238" stroke-width="1.1133" stroke-linecap="round" stroke-linejoin="round"/>
<path d="M165.599 244.73C148.592 244.73 138.37 230.609 134.741 218.189L134.618 217.753C134.425 217.151 134.363 216.519 134.437 215.894C134.511 215.269 134.719 214.664 135.048 214.116C135.378 213.568 135.822 213.087 136.354 212.704C136.886 212.32 137.496 212.04 138.146 211.882C138.796 211.724 139.474 211.69 140.139 211.782C140.803 211.875 141.441 212.092 142.014 212.42C142.587 212.749 143.083 213.182 143.473 213.694C143.863 214.206 144.138 214.787 144.283 215.401L144.375 215.723C147.133 225.175 154.643 235.979 166.691 235.357C168.957 235.283 171.18 234.764 173.218 233.834C175.255 232.904 177.061 231.584 178.518 229.958C185.126 222.865 188.083 207.443 187.426 199.664C187.364 199.165 187.41 198.659 187.561 198.177C187.713 197.694 187.966 197.246 188.307 196.857C188.648 196.469 189.069 196.149 189.545 195.916C190.021 195.683 190.542 195.543 191.078 195.503C191.613 195.463 192.151 195.525 192.661 195.684C193.17 195.843 193.64 196.097 194.042 196.43C194.444 196.763 194.771 197.168 195.002 197.622C195.233 198.076 195.364 198.568 195.387 199.07C196.151 207.729 195.143 226.34 186.043 236.1C183.714 238.666 180.843 240.754 177.609 242.23C174.376 243.707 170.851 244.541 167.257 244.68C166.699 244.716 166.141 244.73 165.599 244.73Z" fill="white"/>
<mask id="mask1_74_2" style="mask-type:luminance" maskUnits="userSpaceOnUse" x="134" y="195" width="62" height="50">
<path d="M165.599 244.73C148.592 244.73 138.37 230.609 134.741 218.189L134.618 217.753C134.425 217.151 134.363 216.519 134.437 215.894C134.511 215.269 134.719 214.664 135.048 214.116C135.378 213.568 135.822 213.087 136.354 212.704C136.886 212.32 137.496 212.04 138.146 211.882C138.796 211.724 139.474 211.69 140.139 211.782C140.803 211.875 141.441 212.092 142.014 212.42C142.587 212.749 143.083 213.182 143.473 213.694C143.863 214.206 144.138 214.787 144.283 215.401L144.375 215.723C147.133 225.175 154.643 235.979 166.691 235.357C168.957 235.283 171.18 234.764 173.218 233.834C175.255 232.904 177.061 231.584 178.518 229.958C185.126 222.865 188.083 207.443 187.426 199.664C187.364 199.165 187.41 198.659 187.561 198.177C187.713 197.694 187.966 197.246 188.307 196.857C188.648 196.469 189.069 196.149 189.545 195.916C190.021 195.683 190.542 195.543 191.078 195.503C191.613 195.463 192.151 195.525 192.661 195.684C193.17 195.843 193.64 196.097 194.042 196.43C194.444 196.763 194.771 197.168 195.002 197.622C195.233 198.076 195.364 198.568 195.387 199.07C196.151 207.729 195.143 226.34 186.043 236.1C183.714 238.666 180.843 240.754 177.609 242.23C174.376 243.707 170.851 244.541 167.257 244.68C166.699 244.716 166.141 244.73 165.599 244.73Z" fill="white"/>
</mask>
<g mask="url(#mask1_74_2)">
<path d="M191.086 195.638C190.03 195.719 189.052 196.188 188.366 196.942C187.68 197.697 187.342 198.676 187.426 199.664C187.747 203.46 187.205 209.073 185.799 214.679C187.807 214.599 189.814 214.841 191.735 215.394C191.281 220.773 189.262 225.933 185.898 230.316C178.48 239.961 167.356 243.043 158.7 241.884C154.826 241.37 150.387 239.468 146.651 237.516C151.721 242.142 158.518 244.736 165.599 244.744C166.141 244.744 166.699 244.744 167.257 244.702C170.851 244.563 174.376 243.728 177.609 242.252C180.843 240.775 183.714 238.688 186.043 236.122C195.143 226.362 196.12 207.75 195.387 199.092C195.349 198.6 195.208 198.12 194.971 197.679C194.734 197.239 194.406 196.847 194.006 196.526C193.606 196.204 193.142 195.961 192.641 195.808C192.139 195.656 191.611 195.598 191.086 195.638Z" fill="#09FF4F"/>
<path opacity="0.5" d="M191.086 195.638C190.03 195.719 189.052 196.188 188.366 196.942C187.68 197.697 187.342 198.676 187.426 199.664C187.747 203.46 187.205 209.073 185.799 214.679C187.807 214.599 189.814 214.841 191.735 215.394C191.281 220.773 189.262 225.933 185.898 230.316C178.48 239.961 167.356 243.043 158.7 241.884C154.826 241.37 150.387 239.468 146.651 237.516C151.721 242.142 158.518 244.736 165.599 244.744C166.141 244.744 166.699 244.744 167.257 244.702C170.851 244.563 174.376 243.728 177.609 242.252C180.843 240.775 183.714 238.688 186.043 236.122C195.143 226.362 196.12 207.75 195.387 199.092C195.349 198.6 195.208 198.12 194.971 197.679C194.734 197.239 194.406 196.847 194.006 196.526C193.606 196.204 193.142 195.961 192.641 195.808C192.139 195.656 191.611 195.598 191.086 195.638Z" fill="white"/>
</g>
<path d="M165.599 244.73C148.592 244.73 138.37 230.609 134.741 218.189L134.618 217.753C134.425 217.151 134.363 216.519 134.437 215.894C134.511 215.269 134.719 214.664 135.048 214.116C135.378 213.568 135.822 213.087 136.354 212.704C136.886 212.32 137.496 212.04 138.146 211.882C138.796 211.724 139.474 211.69 140.139 211.782C140.803 211.875 141.441 212.092 142.014 212.42C142.587 212.749 143.083 213.182 143.473 213.694C143.863 214.206 144.138 214.787 144.283 215.401L144.375 215.723C147.133 225.175 154.643 235.979 166.691 235.357C168.957 235.283 171.18 234.764 173.218 233.834C175.255 232.904 177.061 231.584 178.518 229.958C185.126 222.865 188.083 207.443 187.426 199.664C187.364 199.165 187.41 198.659 187.561 198.177C187.713 197.694 187.966 197.246 188.307 196.857C188.648 196.469 189.069 196.149 189.545 195.916C190.021 195.683 190.542 195.543 191.078 195.503C191.613 195.463 192.151 195.525 192.661 195.684C193.17 195.843 193.64 196.097 194.042 196.43C194.444 196.763 194.771 197.168 195.002 197.622C195.233 198.076 195.364 198.568 195.387 199.07C196.151 207.729 195.143 226.34 186.043 236.1C183.714 238.666 180.843 240.754 177.609 242.23C174.376 243.707 170.851 244.541 167.257 244.68C166.699 244.716 166.141 244.73 165.599 244.73Z" stroke="#263238" stroke-width="1.1133" stroke-linecap="round" stroke-linejoin="round"/>
<path d="M155.789 235.056C156.194 233.304 151.717 236.043 147.966 238.596C149.353 239.693 150.847 240.667 152.427 241.506C153.764 239.468 155.399 236.744 155.789 235.056Z" fill="#09FF4F" stroke="#263238" stroke-width="1.1133" stroke-linecap="round" stroke-linejoin="round"/>
<path d="M165.599 244.73C166.141 244.73 166.699 244.73 167.256 244.687C168.88 244.602 170.492 244.389 172.077 244.051C169.969 241.477 167.065 238.074 166.233 237.816C165.278 237.516 163.436 241.899 162.413 244.559C163.47 244.674 164.534 244.731 165.599 244.73Z" fill="#09FF4F" stroke="#263238" stroke-width="1.1133" stroke-linecap="round" stroke-linejoin="round"/>
<path d="M144.375 215.723L144.283 215.401C144.138 214.787 143.863 214.206 143.473 213.694C143.083 213.182 142.587 212.749 142.014 212.42C141.441 212.092 140.803 211.875 140.139 211.782C139.474 211.69 138.796 211.724 138.146 211.882C137.496 212.04 136.886 212.32 136.354 212.704C135.822 213.087 135.378 213.568 135.048 214.116C134.719 214.664 134.511 215.268 134.437 215.893C134.363 216.518 134.425 217.151 134.618 217.753L134.741 218.189C136.015 222.551 137.971 226.712 140.547 230.537L149.646 226.483C147.26 223.197 145.478 219.56 144.375 215.723Z" fill="#09FF4F" stroke="#263238" stroke-width="1.1133" stroke-linecap="round" stroke-linejoin="round"/>
<path d="M186.043 236.1C186.742 235.343 187.391 234.545 187.984 233.712C185.096 232.79 180.772 231.517 179.167 231.653C177.265 231.817 179.847 237.537 181.177 240.233C182.966 239.038 184.599 237.651 186.043 236.1Z" fill="#09FF4F" stroke="#263238" stroke-width="1.1133" stroke-linecap="round" stroke-linejoin="round"/>
<path d="M186.204 220.821C185.898 221.393 189.634 223.938 192.155 225.575C192.955 223.348 193.598 221.074 194.081 218.769C191.025 219.341 186.502 220.263 186.204 220.821Z" fill="#09FF4F" stroke="#263238" stroke-width="1.1133" stroke-linecap="round" stroke-linejoin="round"/>
<path d="M195.318 210.246C195.486 208.208 195.57 206.263 195.578 204.476C192.95 205.827 189.833 207.7 189.833 208.93C189.833 210.16 192.751 210.31 195.318 210.246Z" fill="#09FF4F" stroke="#263238" stroke-width="1.1133" stroke-linecap="round" stroke-linejoin="round"/>
<path d="M154.184 154.926C154.184 154.926 146.766 175.032 150.762 190.676C151.945 195.254 154.243 199.514 157.475 203.125C160.707 206.735 164.787 209.598 169.396 211.49C169.396 211.49 158.555 215.065 160.992 220.563C163.429 226.062 172.773 222.522 175.821 220.742C178.869 218.962 182.697 213.628 183.232 210.067C183.572 208.248 183.7 206.399 183.614 204.554C183.614 204.554 195.968 203.31 204.333 196.904C204.333 196.904 211.752 202.416 217.077 201.351C222.402 200.286 230.004 191.384 229.24 183.383C228.476 175.382 223.548 175.389 220.538 176.605C218.975 177.158 217.55 178.005 216.351 179.093C216.351 179.093 220.721 174.088 216.351 167.174C215.061 165.146 213.295 163.419 211.187 162.125C209.078 160.83 206.682 160.002 204.181 159.702C204.181 159.702 201.889 148.312 195.058 144.044C188.228 139.775 163.88 135.357 154.184 154.926Z" fill="white"/>
<mask id="mask2_74_2" style="mask-type:luminance" maskUnits="userSpaceOnUse" x="149" y="140" width="81" height="84">
<path d="M154.184 154.926C154.184 154.926 146.766 175.032 150.762 190.676C151.945 195.254 154.243 199.514 157.475 203.125C160.707 206.735 164.787 209.598 169.396 211.49C169.396 211.49 158.555 215.065 160.992 220.563C163.429 226.062 172.773 222.522 175.821 220.742C178.869 218.962 182.697 213.628 183.232 210.067C183.572 208.248 183.7 206.399 183.614 204.554C183.614 204.554 195.968 203.31 204.333 196.904C204.333 196.904 211.752 202.416 217.077 201.351C222.402 200.286 230.004 191.384 229.24 183.383C228.476 175.382 223.548 175.389 220.538 176.605C218.975 177.158 217.55 178.005 216.351 179.093C216.351 179.093 220.721 174.088 216.351 167.174C215.061 165.146 213.295 163.419 211.187 162.125C209.078 160.83 206.682 160.002 204.181 159.702C204.181 159.702 201.889 148.312 195.058 144.044C188.228 139.775 163.88 135.357 154.184 154.926Z" fill="white"/>
</mask>
<g mask="url(#mask2_74_2)">
<path d="M210.667 161.84C207.14 167.346 202.26 171.985 196.431 175.37C190.603 178.755 183.996 180.789 177.158 181.303C162.031 182.547 153.55 179.758 149.654 177.82C150.127 170.041 151.668 162.352 154.238 154.94C163.933 135.371 188.267 139.818 195.112 144.087C201.958 148.355 204.234 159.745 204.234 159.745C206.512 160.013 208.704 160.727 210.667 161.84ZM220.538 176.605C218.975 177.158 217.551 178.005 216.351 179.093C217.277 177.899 217.887 176.517 218.131 175.061C207.856 179.851 208.658 190.076 207.382 190.076C205.808 190.076 205.029 184.935 205.029 184.935C205.029 184.935 203.065 192.278 191.277 197.426C179.488 202.574 166.156 198.527 166.156 198.527C166.156 198.527 168.907 204.404 161.84 203.668C159.857 203.49 157.955 202.84 156.316 201.78C159.705 206.008 164.206 209.344 169.381 211.461C169.381 211.461 158.539 215.036 160.977 220.535C163.414 226.033 172.765 222.494 175.806 220.713C178.847 218.933 182.682 213.599 183.217 210.038C183.556 208.219 183.685 206.371 183.599 204.526C183.599 204.526 195.952 203.282 204.318 196.875C204.318 196.875 211.737 202.388 217.062 201.323C222.387 200.257 229.989 191.355 229.225 183.355C228.461 175.354 223.548 175.389 220.538 176.605Z" fill="#09FF4F"/>
<path opacity="0.5" d="M210.667 161.84C207.14 167.346 202.26 171.985 196.431 175.37C190.603 178.755 183.996 180.789 177.158 181.303C162.031 182.547 153.55 179.758 149.654 177.82C150.127 170.041 151.668 162.352 154.238 154.94C163.933 135.371 188.267 139.818 195.112 144.087C201.958 148.355 204.234 159.745 204.234 159.745C206.512 160.013 208.704 160.727 210.667 161.84ZM220.538 176.605C218.975 177.158 217.551 178.005 216.351 179.093C217.277 177.899 217.887 176.517 218.131 175.061C207.856 179.851 208.658 190.076 207.382 190.076C205.808 190.076 205.029 184.935 205.029 184.935C205.029 184.935 203.065 192.278 191.277 197.426C179.488 202.574 166.156 198.527 166.156 198.527C166.156 198.527 168.907 204.404 161.84 203.668C159.857 203.49 157.955 202.84 156.316 201.78C159.705 206.008 164.206 209.344 169.381 211.461C169.381 211.461 158.539 215.036 160.977 220.535C163.414 226.033 172.765 222.494 175.806 220.713C178.847 218.933 182.682 213.599 183.217 210.038C183.556 208.219 183.685 206.371 183.599 204.526C183.599 204.526 195.952 203.282 204.318 196.875C204.318 196.875 211.737 202.388 217.062 201.323C222.387 200.257 229.989 191.355 229.225 183.355C228.461 175.354 223.548 175.389 220.538 176.605Z" fill="white"/>
<path d="M183.652 204.569C179.552 204.671 175.481 203.892 171.753 202.292C168.024 200.691 164.738 198.313 162.145 195.338" stroke="#263238" stroke-width="1.1133" stroke-linecap="round" stroke-linejoin="round"/>
</g>
<path d="M154.184 154.926C154.184 154.926 146.766 175.032 150.762 190.676C151.945 195.254 154.243 199.514 157.475 203.125C160.707 206.735 164.787 209.598 169.396 211.49C169.396 211.49 158.555 215.065 160.992 220.563C163.429 226.062 172.773 222.522 175.821 220.742C178.869 218.962 182.697 213.628 183.232 210.067C183.572 208.248 183.7 206.399 183.614 204.554C183.614 204.554 195.968 203.31 204.333 196.904C204.333 196.904 211.752 202.416 217.077 201.351C222.402 200.286 230.004 191.384 229.24 183.383C228.476 175.382 223.548 175.389 220.538 176.605C218.975 177.158 217.55 178.005 216.351 179.093C216.351 179.093 220.721 174.088 216.351 167.174C215.061 165.146 213.295 163.419 211.187 162.125C209.078 160.83 206.682 160.002 204.181 159.702C204.181 159.702 201.889 148.312 195.058 144.044C188.228 139.775 163.88 135.357 154.184 154.926Z" stroke="#263238" stroke-width="1.1133" stroke-linecap="round" stroke-linejoin="round"/>
<path d="M216.351 179.122C216.351 179.122 212.363 181.617 210.461 189.268" stroke="#263238" stroke-width="1.1133" stroke-linecap="round" stroke-linejoin="round"/>
<path d="M223.678 182.396C223.212 183.698 221.936 184.477 220.836 184.127C219.736 183.776 219.231 182.439 219.697 181.138C220.163 179.837 221.439 179.057 222.54 179.408C223.64 179.758 224.152 181.095 223.678 182.396Z" fill="white" stroke="#263238" stroke-width="1.1133" stroke-linecap="round" stroke-linejoin="round"/>
<path d="M227.613 184.713C227.146 186.014 225.871 186.794 224.77 186.443C223.67 186.093 223.158 184.756 223.632 183.455C224.106 182.153 225.374 181.374 226.474 181.724C227.574 182.075 228.086 183.412 227.613 184.713Z" fill="white" stroke="#263238" stroke-width="1.1133" stroke-linecap="round" stroke-linejoin="round"/>
<path d="M228.453 188.181C228.3 188.42 228.078 188.614 227.813 188.74C227.547 188.866 227.249 188.919 226.952 188.893C226.656 188.866 226.374 188.762 226.138 188.591C225.903 188.421 225.724 188.191 225.622 187.929C225.52 187.667 225.5 187.384 225.564 187.112C225.627 186.839 225.772 186.59 225.981 186.391C226.191 186.193 226.456 186.054 226.746 185.992C227.036 185.929 227.339 185.944 227.62 186.036C228.026 186.226 228.338 186.554 228.493 186.953C228.648 187.352 228.634 187.791 228.453 188.181Z" fill="white" stroke="#263238" stroke-width="1.1133" stroke-linecap="round" stroke-linejoin="round"/>
<path d="M223.433 192.943C222.058 195.266 219.308 196.296 217.283 195.245C215.259 194.194 214.739 191.47 216.114 189.146C217.489 186.822 220.24 185.793 222.265 186.844C224.289 187.895 224.809 190.619 223.433 192.943Z" fill="white" stroke="#263238" stroke-width="1.1133" stroke-linecap="round" stroke-linejoin="round"/>
<path d="M169.396 211.504C171.957 212.62 174.868 212.811 177.571 212.04" stroke="#263238" stroke-width="1.1133" stroke-linecap="round" stroke-linejoin="round"/>
<path d="M161.03 220.577C161.03 220.577 161.794 217.553 166.538 215.422" stroke="#263238" stroke-width="1.1133" stroke-linecap="round" stroke-linejoin="round"/>
<path d="M165.782 223.252C165.782 223.252 167.684 218.962 170.916 217.024" stroke="#263238" stroke-width="1.1133" stroke-linecap="round" stroke-linejoin="round"/>
<path d="M90.8106 174.031C90.0024 173.427 89.3583 172.654 88.9307 171.773C88.5032 170.892 88.3044 169.928 88.3506 168.962V152.009H41.6243C40.4829 152.049 39.3458 151.858 38.2908 151.448C37.2359 151.038 36.2881 150.42 35.5123 149.635C33.984 148.122 33.1455 146.112 33.1745 144.03C33.1683 142.338 33.7002 140.683 34.7025 139.275L79.4576 73.452C82.8192 68.5947 87.2861 66.1661 92.8582 66.1661C95.8539 66.0709 98.7789 67.0301 101.056 68.8545C103.241 70.642 104.333 73.2994 104.333 76.8268V140.812H116.221C117.042 140.766 117.864 140.889 118.629 141.173C119.393 141.458 120.082 141.896 120.645 142.457C121.65 143.559 122.202 144.961 122.202 146.411C122.202 147.86 121.65 149.262 120.645 150.365C120.082 150.925 119.393 151.364 118.629 151.648C117.864 151.932 117.042 152.055 116.221 152.009H104.249V168.962C104.299 169.921 104.11 170.878 103.698 171.758C103.286 172.637 102.661 173.415 101.873 174.031C100.335 175.238 98.387 175.89 96.3802 175.869C94.3514 175.884 92.3809 175.233 90.8106 174.031ZM88.32 140.812V81.8961L49.1345 140.812H88.32Z" fill="#263238"/>
<path d="M155.651 174.374C151.072 172.504 147.016 169.668 143.802 166.087C140.573 162.305 138.052 158.038 136.345 153.468C134.41 148.53 133.05 143.412 132.288 138.202C131.493 132.53 131.11 126.813 131.142 121.092C131.142 83.4024 144.894 64.5573 172.398 64.5573C199.902 64.5573 213.621 83.4024 213.555 121.092C213.582 126.786 213.212 132.475 212.447 138.124C211.71 143.335 210.362 148.454 208.428 153.389C206.722 157.959 204.2 162.226 200.972 166.009C197.753 169.594 193.7 172.441 189.122 174.331C183.859 176.509 178.151 177.583 172.398 177.477C166.642 177.585 160.929 176.527 155.651 174.374ZM180.527 163.556C182.829 162.638 184.917 161.309 186.677 159.645C188.46 157.869 189.925 155.837 191.017 153.625C192.222 151.282 193.196 148.841 193.928 146.332C194.698 143.598 195.26 140.817 195.609 138.009C196.021 134.911 196.296 132.072 196.434 129.494C196.571 126.915 196.637 124.114 196.632 121.092C196.632 117.923 196.566 114.996 196.434 112.312C196.301 109.629 196.013 106.749 195.57 103.675C195.19 100.869 194.616 98.0889 193.851 95.3524C193.128 92.8688 192.154 90.4555 190.941 88.1452C189.84 85.9685 188.372 83.9719 186.593 82.2321C184.844 80.6016 182.766 79.3112 180.481 78.4355C175.258 76.548 169.47 76.548 164.246 78.4355C161.978 79.3007 159.916 80.5791 158.18 82.1964C156.414 83.9286 154.95 85.9094 153.841 88.0665C152.617 90.356 151.654 92.7598 150.968 95.238C150.222 97.991 149.661 100.785 149.287 103.603C148.844 106.721 148.556 109.624 148.424 112.312C148.291 115.001 148.223 117.927 148.218 121.092C148.218 124.11 148.286 126.922 148.424 129.529C148.561 132.137 148.834 134.997 149.241 138.109C149.594 140.917 150.155 143.698 150.922 146.432C151.643 148.94 152.608 151.381 153.802 153.725C154.883 155.923 156.336 157.944 158.104 159.71C159.851 161.363 161.927 162.679 164.216 163.585C169.445 165.577 175.298 165.577 180.527 163.585V163.556Z" fill="#263238"/>
<path d="M284.347 174.031C283.539 173.427 282.895 172.654 282.467 171.773C282.04 170.892 281.841 169.928 281.887 168.962V152.009H235.161C234.019 152.049 232.882 151.858 231.827 151.448C230.772 151.038 229.825 150.42 229.049 149.635C227.521 148.122 226.682 146.112 226.711 144.03C226.705 142.338 227.237 140.683 228.239 139.275L272.994 73.4519C276.325 68.5947 280.779 66.1661 286.356 66.1661C289.368 66.06 292.311 67.0199 294.6 68.8545C296.785 70.642 297.878 73.2994 297.878 76.8267V140.812H309.765C310.587 140.766 311.408 140.889 312.173 141.173C312.937 141.458 313.626 141.896 314.189 142.457C315.194 143.559 315.746 144.961 315.746 146.411C315.746 147.86 315.194 149.262 314.189 150.364C313.626 150.925 312.937 151.364 312.173 151.648C311.408 151.932 310.587 152.055 309.765 152.009H297.786V168.962C297.835 169.921 297.647 170.878 297.234 171.758C296.822 172.637 296.198 173.415 295.41 174.031C293.872 175.238 291.923 175.89 289.917 175.869C287.888 175.884 285.917 175.233 284.347 174.031ZM281.887 140.812V81.8961L242.702 140.812H281.887Z" fill="#263238"/>
<path d="M138.782 144.787C138.782 144.787 130.798 155.284 129.66 165.959C128.522 176.634 129.851 183.748 133.274 186.422C136.697 189.096 140.112 188.024 142.014 185.528C143.916 183.033 140.876 174.317 140.876 174.317C140.876 174.317 144.107 165.959 149.05 160.088C153.993 154.218 154.941 153.325 154.941 153.325C154.941 153.325 146.384 144.251 138.782 144.787Z" fill="white"/>
<mask id="mask3_74_2" style="mask-type:luminance" maskUnits="userSpaceOnUse" x="129" y="144" width="26" height="44">
<path d="M138.782 144.787C138.782 144.787 130.798 155.284 129.66 165.959C128.522 176.634 129.851 183.748 133.274 186.422C136.697 189.096 140.112 188.024 142.014 185.528C143.916 183.033 140.876 174.317 140.876 174.317C140.876 174.317 144.107 165.959 149.05 160.088C153.993 154.218 154.941 153.325 154.941 153.325C154.941 153.325 146.384 144.251 138.782 144.787Z" fill="white"/>
</mask>
<g mask="url(#mask3_74_2)">
<path d="M138.782 144.787C137.04 147.196 135.495 149.725 134.16 152.352C137.98 153.782 143.901 156.714 147.66 161.905C148.118 161.283 148.592 160.668 149.081 160.088C154.024 154.218 154.971 153.325 154.971 153.325C154.971 153.325 146.384 144.251 138.782 144.787Z" fill="#09FF4F"/>
<path opacity="0.5" d="M138.782 144.787C137.04 147.196 135.495 149.725 134.16 152.352C137.98 153.782 143.901 156.714 147.66 161.905C148.118 161.283 148.592 160.668 149.081 160.088C154.024 154.218 154.971 153.325 154.971 153.325C154.971 153.325 146.384 144.251 138.782 144.787Z" fill="white"/>
</g>
<path d="M138.782 144.787C138.782 144.787 130.798 155.284 129.66 165.959C128.522 176.634 129.851 183.748 133.274 186.422C136.697 189.096 140.112 188.024 142.014 185.528C143.916 183.033 140.876 174.317 140.876 174.317C140.876 174.317 144.107 165.959 149.05 160.088C153.993 154.218 154.941 153.325 154.941 153.325C154.941 153.325 146.384 144.251 138.782 144.787Z" stroke="#263238" stroke-width="1.1133" stroke-linecap="round" stroke-linejoin="round"/>
<path d="M133.274 186.422C132.34 184.089 131.887 181.612 131.937 179.122" stroke="#263238" stroke-width="1.1133" stroke-linecap="round" stroke-linejoin="round"/>
<path d="M138.4 187.487C138.4 187.487 136.506 184.463 136.315 179.301" stroke="#263238" stroke-width="1.1133" stroke-linecap="round" stroke-linejoin="round"/>
<path d="M141.258 163.821C141.258 161.947 137.438 158.287 132.128 156.671C131.414 158.413 130.824 160.197 130.363 162.012C132.426 162.342 134.429 162.942 136.314 163.792C139.164 165.244 141.258 165.959 141.258 163.821Z" fill="#09FF4F" stroke="#263238" stroke-width="1.1133" stroke-linecap="round" stroke-linejoin="round"/>
<path d="M138.316 145.424C137.085 147.181 135.952 148.997 134.924 150.865C136.532 151.263 138.074 151.864 139.508 152.652C145.398 155.849 146.537 156.227 144.642 151.58C143.496 148.663 140.761 146.682 138.316 145.424Z" fill="#09FF4F" stroke="#263238" stroke-width="1.1133" stroke-linecap="round" stroke-linejoin="round"/>
<path d="M201.316 139.604C201.316 139.604 210.361 149.313 212.615 159.838C214.869 170.363 214.296 177.563 211.164 180.53C208.031 183.498 204.524 182.754 202.37 180.445C200.215 178.135 202.37 169.19 202.37 169.19C202.37 169.19 198.275 161.161 192.744 155.77C187.212 150.379 186.166 149.585 186.166 149.585C186.166 149.585 193.691 139.768 201.316 139.604Z" fill="white"/>
<mask id="mask4_74_2" style="mask-type:luminance" maskUnits="userSpaceOnUse" x="186" y="139" width="28" height="44">
<path d="M201.316 139.604C201.316 139.604 210.361 149.313 212.615 159.838C214.869 170.363 214.296 177.563 211.164 180.53C208.031 183.498 204.524 182.754 202.37 180.445C200.215 178.135 202.37 169.19 202.37 169.19C202.37 169.19 198.275 161.161 192.744 155.77C187.212 150.379 186.166 149.585 186.166 149.585C186.166 149.585 193.691 139.768 201.316 139.604Z" fill="white"/>
</mask>
<g mask="url(#mask4_74_2)">
<path d="M201.316 139.604C193.676 139.768 186.127 149.614 186.127 149.614C186.127 149.614 187.166 150.415 192.705 155.798C193.741 156.819 194.715 157.894 195.624 159.016C198.515 154.446 202.645 150.672 207.596 148.076C205.774 145.084 203.672 142.249 201.316 139.604Z" fill="#09FF4F"/>
<path opacity="0.5" d="M201.316 139.604C193.676 139.768 186.127 149.614 186.127 149.614C186.127 149.614 187.166 150.415 192.705 155.798C193.741 156.819 194.715 157.894 195.624 159.016C198.515 154.446 202.645 150.672 207.596 148.076C205.774 145.084 203.672 142.249 201.316 139.604Z" fill="white"/>
</g>
<path d="M201.316 139.604C201.316 139.604 210.361 149.313 212.615 159.838C214.869 170.363 214.296 177.563 211.164 180.53C208.031 183.498 204.524 182.754 202.37 180.445C200.215 178.135 202.37 169.19 202.37 169.19C202.37 169.19 198.275 161.161 192.744 155.77C187.212 150.379 186.166 149.585 186.166 149.585C186.166 149.585 193.691 139.768 201.316 139.604Z" stroke="#263238" stroke-width="1.1133" stroke-linecap="round" stroke-linejoin="round"/>
<path d="M211.164 180.53C211.848 178.126 212.04 175.622 211.729 173.152" stroke="#263238" stroke-width="1.1133" stroke-linecap="round" stroke-linejoin="round"/>
<path d="M206.167 182.06C206.167 182.06 207.748 178.879 207.397 173.724" stroke="#263238" stroke-width="1.1133" stroke-linecap="round" stroke-linejoin="round"/>
<path d="M200.85 158.773C200.659 156.907 204.074 152.917 209.192 150.851C210.078 152.517 210.844 154.237 211.484 155.999C209.47 156.524 207.542 157.306 205.754 158.322C203.08 160.003 201.079 160.875 200.85 158.773Z" fill="#09FF4F" stroke="#263238" stroke-width="1.1133" stroke-linecap="round" stroke-linejoin="round"/>
<path d="M201.843 140.197C203.248 141.82 204.559 143.512 205.77 145.267C204.206 145.808 202.728 146.547 201.377 147.462C195.853 151.194 194.753 151.652 196.159 146.875C197.037 143.894 199.543 141.67 201.843 140.197Z" fill="#09FF4F" stroke="#263238" stroke-width="1.1133" stroke-linecap="round" stroke-linejoin="round"/>
<path d="M138.034 135.707C138.034 135.707 135.68 143.136 136.567 146.16C137.453 149.185 141.563 146.439 145.681 149.735C149.799 153.031 153.611 158.98 169.205 160.081C184.798 161.182 194.21 153.31 197.473 148.906C200.735 144.501 200.414 139.275 205.999 139.003C211.584 138.731 206.885 128.543 205.12 126.891C205.12 126.891 216 111.754 216 107.901C216 104.047 205.709 104.869 193.08 108.451C193.08 108.451 183.667 103.768 166.607 106.521C149.547 109.273 144.55 113.957 144.55 113.957C144.55 113.957 123.372 116.431 121.905 118.904C120.439 121.378 124.801 131.853 138.034 135.707Z" fill="white"/>
<mask id="mask5_74_2" style="mask-type:luminance" maskUnits="userSpaceOnUse" x="121" y="105" width="95" height="56">
<path d="M138.034 135.707C138.034 135.707 135.68 143.136 136.567 146.16C137.453 149.185 141.563 146.439 145.681 149.735C149.799 153.031 153.611 158.98 169.205 160.081C184.798 161.182 194.21 153.31 197.473 148.906C200.735 144.501 200.414 139.275 205.999 139.003C211.584 138.731 206.885 128.543 205.12 126.891C205.12 126.891 216 111.754 216 107.901C216 104.047 205.709 104.869 193.08 108.451C193.08 108.451 183.667 103.768 166.607 106.521C149.547 109.273 144.55 113.957 144.55 113.957C144.55 113.957 123.372 116.431 121.905 118.904C120.439 121.378 124.801 131.853 138.034 135.707Z" fill="white"/>
</mask>
<g mask="url(#mask5_74_2)">
<path d="M205.976 139.01C211.568 138.731 206.862 128.55 205.097 126.898C205.097 126.898 207.168 124.038 209.498 120.463C203.18 117.374 196.976 115.658 195.326 117.396C191.773 121.128 193.706 128.278 195.326 135.271C196.945 142.264 190.474 145.245 185.951 151.294C181.429 157.343 174.973 150.686 174.973 150.686C172.681 159.459 163.016 153.711 163.016 153.711C155.59 151.566 142.992 144.644 145.574 139.804C148.156 134.963 148.806 130.43 144.283 126.505C139.76 122.58 121.722 119.312 121.722 119.312C120.775 122.294 125.351 132.06 138.041 135.757C138.041 135.757 135.688 143.186 136.574 146.21C137.46 149.235 141.571 146.489 145.689 149.785C149.807 153.081 153.619 159.03 169.212 160.131C184.806 161.232 194.218 153.36 197.48 148.956C200.743 144.552 200.383 139.282 205.976 139.01Z" fill="#09FF4F"/>
<path opacity="0.5" d="M205.976 139.01C211.568 138.731 206.862 128.55 205.097 126.898C205.097 126.898 207.168 124.038 209.498 120.463C203.18 117.374 196.976 115.658 195.326 117.396C191.773 121.128 193.706 128.278 195.326 135.271C196.945 142.264 190.474 145.245 185.951 151.294C181.429 157.343 174.973 150.686 174.973 150.686C172.681 159.459 163.016 153.711 163.016 153.711C155.59 151.566 142.992 144.644 145.574 139.804C148.156 134.963 148.806 130.43 144.283 126.505C139.76 122.58 121.722 119.312 121.722 119.312C120.775 122.294 125.351 132.06 138.041 135.757C138.041 135.757 135.688 143.186 136.574 146.21C137.46 149.235 141.571 146.489 145.689 149.785C149.807 153.081 153.619 159.03 169.212 160.131C184.806 161.232 194.218 153.36 197.48 148.956C200.743 144.552 200.383 139.282 205.976 139.01Z" fill="white"/>
<path d="M182.972 140.669C183.194 142.414 179.053 144.294 173.743 144.873C168.433 145.452 163.941 144.509 163.719 142.728C163.498 140.948 167.638 139.11 172.956 138.531C178.273 137.952 182.758 138.932 182.972 140.669Z" fill="#09FF4F"/>
<path opacity="0.5" d="M182.972 140.669C183.194 142.414 179.053 144.294 173.743 144.873C168.433 145.452 163.941 144.509 163.719 142.728C163.498 140.948 167.638 139.11 172.956 138.531C178.273 137.952 182.758 138.932 182.972 140.669Z" fill="white"/>
</g>
<path d="M138.034 135.707C138.034 135.707 135.68 143.136 136.567 146.16C137.453 149.185 141.563 146.439 145.681 149.735C149.799 153.031 153.611 158.98 169.205 160.081C184.798 161.182 194.21 153.31 197.473 148.906C200.735 144.501 200.414 139.275 205.999 139.003C211.584 138.731 206.885 128.543 205.12 126.891C205.12 126.891 216 111.754 216 107.901C216 104.047 205.709 104.869 193.08 108.451C193.08 108.451 183.667 103.768 166.607 106.521C149.547 109.273 144.55 113.957 144.55 113.957C144.55 113.957 123.372 116.431 121.905 118.904C120.439 121.378 124.801 131.853 138.034 135.707Z" stroke="#263238" stroke-width="1.1133" stroke-miterlimit="10"/>
<path d="M198.863 113.685C191.223 118.49 193.92 123.295 197.335 125.962C199.421 127.592 202.782 127.392 205.082 126.934C205.082 126.934 215.962 111.797 215.962 107.944C215.969 107.908 206.465 108.844 198.863 113.685Z" fill="#09FF4F" stroke="#263238" stroke-width="1.1133" stroke-miterlimit="10"/>
<path d="M121.714 119.262C120.767 122.244 125.343 132.01 138.033 135.707C138.033 135.707 147.721 134.82 144.489 127.527C141.471 120.721 126.214 119.026 121.714 119.262Z" fill="#09FF4F" stroke="#263238" stroke-width="1.1133" stroke-miterlimit="10"/>
<path d="M166.561 106.535C165.56 106.699 164.598 106.871 163.673 107.043C165.201 114.264 167.715 126.29 169.961 126.29C172.207 126.29 173.926 113.106 174.66 105.72C171.944 105.827 169.239 106.099 166.561 106.535Z" fill="#09FF4F" stroke="#263238" stroke-width="1.1133" stroke-miterlimit="10"/>
<path d="M157.798 124.145C160.136 122.858 159.785 113.185 159.41 107.936C156.997 108.497 154.622 109.192 152.297 110.017C153.145 114.929 155.3 125.518 157.798 124.145Z" fill="#09FF4F" stroke="#263238" stroke-width="1.1133" stroke-miterlimit="10"/>
<path d="M180.42 119.698C182.812 120.485 184.156 112.441 184.913 106.249C182.497 105.881 180.056 105.687 177.609 105.67C177.532 110.753 177.83 118.847 180.42 119.698Z" fill="#09FF4F" stroke="#263238" stroke-width="1.1133" stroke-miterlimit="10"/>
<path d="M177.219 147.54C174.988 146.991 172.617 147.265 170.595 148.305C170.507 148.353 170.431 148.42 170.375 148.5C170.319 148.58 170.283 148.671 170.271 148.766C170.259 148.861 170.272 148.958 170.307 149.048C170.342 149.138 170.399 149.219 170.473 149.285L174.53 152.86C174.606 152.927 174.698 152.975 174.798 153.002C174.898 153.029 175.004 153.033 175.106 153.014C175.208 152.995 175.304 152.954 175.386 152.894C175.468 152.833 175.533 152.755 175.576 152.667L177.655 148.377C177.692 148.296 177.71 148.208 177.707 148.12C177.705 148.031 177.683 147.945 177.641 147.865C177.6 147.786 177.541 147.716 177.468 147.66C177.395 147.604 177.31 147.563 177.219 147.54Z" fill="#09FF4F" stroke="#263238" stroke-width="1.1133" stroke-linecap="round" stroke-linejoin="round"/>
<path d="M167.577 141.57C168.135 142.95 167.914 144.308 167.081 144.602C166.248 144.895 165.117 144.022 164.552 142.65C163.987 141.277 164.216 139.911 165.049 139.618C165.881 139.325 167.012 140.197 167.577 141.57Z" fill="#263238"/>
<path d="M178.64 140.59C178.35 142.02 178.823 143.343 179.702 143.493C180.581 143.643 181.528 142.6 181.818 141.148C182.109 139.697 181.635 138.403 180.756 138.245C179.878 138.088 178.93 139.146 178.64 140.59Z" fill="#263238"/>
<path d="M175.576 152.66C175.576 152.66 170.152 159.552 165.209 152.617" stroke="#263238" stroke-width="1.1133" stroke-linecap="round" stroke-linejoin="round"/>
<path d="M174.53 152.853C174.53 152.853 178.136 156.349 181.941 154.39C185.745 152.431 183.469 149.385 183.469 149.385" stroke="#263238" stroke-width="1.1133" stroke-linecap="round" stroke-linejoin="round"/>
<path d="M157.989 136.064C157.989 136.064 159.319 131.617 165.591 132.683" stroke="#263238" stroke-width="3.33991" stroke-linecap="round" stroke-linejoin="round"/>
<path d="M176.997 131.975C176.997 131.975 181.75 129.308 186.12 133.576" stroke="#263238" stroke-width="3.33991" stroke-linecap="round" stroke-linejoin="round"/>
<path d="M154.375 147.991L158.937 149.056" stroke="#263238" stroke-width="1.1133" stroke-miterlimit="10" stroke-linecap="round"/>
<path d="M158.364 150.658L154.375 151.365" stroke="#263238" stroke-width="1.1133" stroke-miterlimit="10" stroke-linecap="round"/>
<path d="M159.128 152.617L156.278 154.04" stroke="#263238" stroke-width="1.1133" stroke-miterlimit="10" stroke-linecap="round"/>
<path d="M188.022 146.032L192.018 145.138" stroke="#263238" stroke-width="1.1133" stroke-miterlimit="10" stroke-linecap="round"/>
<path d="M188.786 147.812H191.445" stroke="#263238" stroke-width="1.1133" stroke-miterlimit="10" stroke-linecap="round"/>
<path d="M189.351 149.592L192.965 150.479" stroke="#263238" stroke-width="1.1133" stroke-miterlimit="10" stroke-linecap="round"/>
<path d="M47.0641 366.038C47.0641 361.182 49.6922 357.606 55.6054 357.606C61.5186 357.606 64.2494 361.112 64.2494 366.038V383.078C64.2494 387.934 61.6213 391.51 55.6054 391.51C49.5895 391.51 47.0641 388.004 47.0641 383.078V366.038ZM49.6306 383.218C49.6306 386.847 51.3142 389.512 55.6054 389.512C59.8966 389.512 61.765 386.847 61.765 383.218V365.898C61.765 362.269 60.0403 359.604 55.6054 359.604C51.1705 359.604 49.6306 362.269 49.6306 365.898V383.218Z" fill="#263238"/>
<path d="M68.294 366.038C68.294 361.182 70.9221 357.606 76.8353 357.606C82.7485 357.606 85.4793 361.112 85.4793 366.038V383.078C85.4793 387.934 82.8512 391.51 76.8353 391.51C70.8194 391.51 68.294 388.004 68.294 383.078V366.038ZM70.8605 383.218C70.8605 386.847 72.5441 389.512 76.8353 389.512C81.1265 389.512 82.9949 386.847 82.9949 383.218V365.898C82.9949 362.269 81.2702 359.604 76.8353 359.604C72.4004 359.604 70.8605 362.269 70.8605 365.898V383.218Z" fill="#263238"/>
<path d="M97.819 357.886C103.855 357.886 106.196 361.129 106.196 365.985V369.614C106.196 374.873 103.342 377.503 97.162 377.503H92.2959V391.23H89.7294V357.921L97.819 357.886ZM97.162 375.505C101.679 375.505 103.63 373.752 103.63 369.755V365.845C103.63 362.234 102.172 359.885 97.819 359.885H92.2959V375.505H97.162Z" fill="#263238"/>
<path d="M126.502 365.933V366.652H124.039V365.793C124.039 362.286 122.478 359.604 118.249 359.604C114.019 359.604 112.438 362.181 112.438 365.687C112.438 373.769 126.544 373.909 126.544 383.113C126.544 387.916 124.1 391.44 118.125 391.44C112.151 391.44 109.707 387.934 109.707 383.113V381.36H112.171V383.218C112.171 386.724 113.773 389.354 118.064 389.354C122.355 389.354 123.977 386.777 123.977 383.218C123.977 375.207 109.872 375.066 109.872 365.793C109.872 360.779 112.438 357.553 118.084 357.501C123.731 357.448 126.502 361.129 126.502 365.933Z" fill="#263238"/>
<path d="M132.908 387.04V391.23H130.404V387.04H132.908Z" fill="#263238"/>
<path d="M139.889 387.04V391.23H137.364V387.04H139.889Z" fill="#263238"/>
<path d="M146.849 387.04V391.23H144.262V387.04H146.849Z" fill="#263238"/>
<path d="M55.3179 406.394C61.3543 406.394 63.6949 409.619 63.6949 414.475V418.104C63.6949 423.363 60.841 426.01 54.6608 426.01H49.8153V439.719H47.2283V406.411L55.3179 406.394ZM54.6608 423.924C59.1779 423.924 61.1284 422.171 61.1284 418.157V414.247C61.1284 410.636 59.6707 408.304 55.3179 408.304H49.8153V423.924H54.6608Z" fill="#263238"/>
<path d="M70.5528 432.304L68.6023 439.684H66.2411L74.7619 406.376H78.5603L87.2658 439.684H84.7199L82.6667 432.304H70.5528ZM70.9429 430.393H82.3176L76.5071 408.865L70.9429 430.393Z" fill="#263238"/>
<path d="M107.757 414.528V417H105.252V414.388C105.252 410.881 103.65 408.094 99.3386 408.094C95.0269 408.094 93.4459 410.811 93.4459 414.388V431.726C93.4459 435.232 95.0474 437.949 99.3386 437.949C103.63 437.949 105.252 435.284 105.252 431.726V424.52H100.119V422.522H107.757V431.568C107.757 436.389 105.293 440 99.3386 440C93.3843 440 90.9205 436.389 90.9205 431.568V414.528C90.9205 409.724 93.3638 406.096 99.3386 406.096C105.313 406.096 107.757 409.724 107.757 414.528Z" fill="#263238"/>
<path d="M125.27 421.786V423.784H114.614V437.686H127.447V439.684H112.048V406.376H127.447V408.375H114.614V421.786H125.27Z" fill="#263238"/>
<path d="M142.62 439.72H140.279V406.411H143.626L155.329 434.46V406.411H157.67V439.72H154.837L142.517 409.917L142.62 439.72Z" fill="#263238"/>
<path d="M161.92 414.528C161.92 409.672 164.528 406.096 170.441 406.096C176.354 406.096 179.085 409.602 179.085 414.528V431.568C179.085 436.424 176.477 440 170.441 440C164.404 440 161.92 436.494 161.92 431.568V414.528ZM164.486 431.726C164.486 435.337 166.15 438.001 170.441 438.001C174.732 438.001 176.6 435.337 176.6 431.726V414.388C176.6 410.759 174.876 408.094 170.441 408.094C166.006 408.094 164.486 410.759 164.486 414.388V431.726Z" fill="#263238"/>
<path d="M189.905 439.719V408.392H182V406.394H200.479V408.392H192.492V439.719H189.905Z" fill="#263238"/>
<path d="M224.933 422.627V424.626H214.852V439.72H212.285V406.411H227.109V408.41H214.79V422.645L224.933 422.627Z" fill="#263238"/>
<path d="M230.846 414.528C230.846 409.672 233.474 406.096 239.387 406.096C245.3 406.096 248.031 409.602 248.031 414.528V431.568C248.031 436.424 245.403 440 239.387 440C233.371 440 230.846 436.494 230.846 431.568V414.528ZM233.412 431.726C233.412 435.337 235.096 438.001 239.387 438.001C243.678 438.001 245.547 435.337 245.547 431.726V414.388C245.547 410.759 243.822 408.094 239.387 408.094C234.952 408.094 233.412 410.759 233.412 414.388V431.726Z" fill="#263238"/>
<path d="M254.724 431.673C254.724 435.179 256.285 438.001 260.576 438.001C264.867 438.001 266.428 435.249 266.428 431.673V406.394H268.83V431.568C268.83 436.336 266.489 440 260.617 440C254.745 440 252.24 436.336 252.24 431.568V406.394H254.807L254.724 431.673Z" fill="#263238"/>
<path d="M275.667 439.72H273.327V406.411H276.673L288.377 434.46V406.411H290.717V439.72H287.884L275.667 409.917V439.72Z" fill="#263238"/>
<path d="M303.632 406.394C309.668 406.394 312.276 409.76 312.276 414.668V431.427C312.276 436.336 309.668 439.719 303.632 439.719H295.049V406.411L303.632 406.394ZM303.632 437.721C307.985 437.721 309.791 435.197 309.791 431.533V414.58C309.791 410.917 307.964 408.392 303.632 408.392H297.657V437.721H303.632Z" fill="#263238"/>
</svg>
