<svg width="22" height="14" viewBox="0 0 22 14" fill="none" xmlns="http://www.w3.org/2000/svg">
<g clip-path="url(#clip0_102_1251)">
<path d="M1.57145 -0.00012086C1.19291 -0.00558974 0.84303 0.171234 0.652735 0.4629C0.4604 0.752743 0.4604 1.11368 0.652735 1.40352C0.84303 1.69519 1.19291 1.87201 1.57145 1.86655H20.4286C20.8071 1.87201 21.157 1.69519 21.3473 1.40352C21.5396 1.11368 21.5396 0.752743 21.3473 0.4629C21.157 0.171234 20.8071 -0.00558974 20.4286 -0.00012086H1.57145ZM1.57145 6.06654C1.19291 6.06108 0.84303 6.2379 0.652735 6.52956C0.4604 6.81941 0.4604 7.18033 0.652735 7.47018C0.84303 7.76184 1.19291 7.93866 1.57145 7.9332H20.4286C20.8071 7.93866 21.157 7.76184 21.3473 7.47018C21.5396 7.18033 21.5396 6.81941 21.3473 6.52956C21.157 6.2379 20.8071 6.06108 20.4286 6.06654H1.57145ZM1.57145 12.1332C1.19291 12.1277 0.84303 12.3046 0.652735 12.5962C0.4604 12.8861 0.4604 13.247 0.652735 13.5368C0.84303 13.8285 1.19291 14.0053 1.57145 13.9999H20.4286C20.8071 14.0053 21.157 13.8285 21.3473 13.5368C21.5396 13.247 21.5396 12.8861 21.3473 12.5962C21.157 12.3046 20.8071 12.1277 20.4286 12.1332H1.57145Z" fill="#263238"/>
</g>
<defs>
<clipPath id="clip0_102_1251">
<rect width="22" height="14" fill="white"/>
</clipPath>
</defs>
</svg>
