<svg width="879" height="493" viewBox="0 0 879 493" fill="none" xmlns="http://www.w3.org/2000/svg">
<path d="M68.67 375.203H59.49" stroke="#263238" stroke-width="1.1133" stroke-miterlimit="10"/>
<path d="M440.51 375.203H83.1899" stroke="#263238" stroke-width="1.1133" stroke-miterlimit="10"/>
<path d="M314.645 414.448C331.429 414.448 345.035 410.757 345.035 406.205C345.035 401.652 331.429 397.962 314.645 397.962C297.861 397.962 284.255 401.652 284.255 406.205C284.255 410.757 297.861 414.448 314.645 414.448Z" fill="#263238"/>
<path d="M157.575 424.929C125.945 424.929 121.275 420.423 120.815 416.784C120.71 416.027 120.786 415.256 121.036 414.532C121.286 413.808 121.703 413.151 122.255 412.614C130.775 403.799 179.875 407.526 247.815 412.683C257.295 413.402 267.095 414.142 277.145 414.882C345.795 419.91 373.435 419.259 379.145 412.456C380.305 411.066 380.545 409.33 379.905 406.984C377.185 397.173 340.825 397.124 327.055 397.893C326.74 397.909 326.431 397.802 326.195 397.595C325.959 397.389 325.815 397.099 325.795 396.788C325.785 396.635 325.807 396.481 325.858 396.335C325.91 396.19 325.99 396.056 326.094 395.942C326.198 395.827 326.324 395.734 326.465 395.668C326.606 395.601 326.759 395.563 326.915 395.556C332.185 395.25 378.485 392.953 382.195 406.402C383.045 409.498 382.655 411.973 380.975 413.984C374.565 421.655 348.325 422.474 276.975 417.248C266.915 416.508 257.115 415.769 247.635 415.049C182.875 410.119 131.715 406.244 123.975 414.26C123.669 414.547 123.437 414.901 123.297 415.294C123.158 415.686 123.116 416.106 123.175 416.518C123.465 418.845 129.175 424.051 175.175 422.237C200.905 421.251 226.755 418.461 227.015 418.431C227.316 418.419 227.61 418.52 227.839 418.714C228.067 418.908 228.213 419.18 228.246 419.475C228.279 419.77 228.197 420.067 228.017 420.305C227.836 420.543 227.571 420.705 227.275 420.758C227.015 420.758 201.085 423.558 175.275 424.574C168.635 424.811 162.755 424.929 157.575 424.929Z" fill="white" stroke="#263238" stroke-width="1.1133" stroke-miterlimit="10"/>
<path d="M303.345 413.442C323.122 413.442 339.155 397.634 339.155 378.133C339.155 358.633 323.122 342.825 303.345 342.825C283.568 342.825 267.535 358.633 267.535 378.133C267.535 397.634 283.568 413.442 303.345 413.442Z" fill="white"/>
<mask id="mask0_74_31" style="mask-type:luminance" maskUnits="userSpaceOnUse" x="267" y="342" width="73" height="72">
<path d="M303.345 413.442C323.122 413.442 339.155 397.634 339.155 378.133C339.155 358.633 323.122 342.825 303.345 342.825C283.568 342.825 267.535 358.633 267.535 378.133C267.535 397.634 283.568 413.442 303.345 413.442Z" fill="white"/>
</mask>
<g mask="url(#mask0_74_31)">
<path d="M303.345 413.442C309.862 413.446 316.256 411.696 321.838 408.381C327.421 405.066 331.98 400.311 335.023 394.63C338.067 388.948 339.48 382.555 339.11 376.14C338.741 369.725 336.602 363.531 332.925 358.226C332.535 373.608 323.925 396.315 279.145 404.124C285.737 410.119 294.377 413.446 303.345 413.442Z" fill="#09FF4F"/>
<path opacity="0.3" d="M303.345 413.442C309.862 413.446 316.256 411.696 321.838 408.381C327.421 405.066 331.98 400.311 335.023 394.63C338.067 388.948 339.48 382.555 339.11 376.14C338.741 369.725 336.602 363.531 332.925 358.226C332.535 373.608 323.925 396.315 279.145 404.124C285.737 410.119 294.377 413.446 303.345 413.442Z" fill="white"/>
<path d="M320.965 391.977C314.579 385.851 306.824 381.289 298.325 378.656M320.965 391.977H322.865C327.079 387.857 330.709 383.194 333.655 378.114C316.885 360.642 300.575 362.426 300.575 362.426C300.575 362.426 316.935 360.642 333.705 378.133C334.625 376.506 335.395 374.978 336.025 373.568C329.045 363.925 317.025 357.348 310.575 356.362L309.075 356.007M320.965 391.977C306.235 391.77 295.035 389.522 286.665 386.514C287.205 364.211 295.275 349.352 299.495 343.061C300.839 342.908 302.191 342.829 303.545 342.825C304.775 342.825 305.975 342.894 307.175 343.002M309.075 356.007C306.763 355.593 304.398 355.56 302.075 355.909M309.075 356.007L313.345 344.175C311.327 343.607 309.262 343.214 307.175 343.002M307.175 343.002C304.405 347.41 297.275 361.49 297.275 389.423M329.055 384.789C314.795 371.083 299.055 370.364 299.055 370.364" stroke="#263238" stroke-width="1.1133" stroke-linecap="round" stroke-linejoin="round"/>
<path d="M286.625 386.573C287.165 364.27 295.235 349.411 299.455 343.12C296.153 343.486 292.919 344.302 289.845 345.546C282.266 356.509 277.985 369.361 277.495 382.62C280.431 384.165 283.484 385.487 286.625 386.573Z" stroke="#263238" stroke-width="1.1133" stroke-linecap="round" stroke-linejoin="round"/>
<path d="M289.845 345.516C283.661 348.03 278.313 352.199 274.404 357.551C270.495 362.903 268.182 369.226 267.725 375.806C270.669 378.476 273.954 380.756 277.495 382.59C277.985 369.331 282.266 356.479 289.845 345.516Z" stroke="#263238" stroke-width="1.1133" stroke-linecap="round" stroke-linejoin="round"/>
<path d="M335.975 373.568C336.754 371.87 337.422 370.125 337.975 368.342C336.48 363.313 333.874 358.673 330.345 354.755L327.575 363.866L330.295 354.755C328.086 352.312 325.546 350.182 322.745 348.425L319.695 359.675L322.765 348.474C319.837 346.628 316.65 345.216 313.305 344.284L309.035 356.116C315.575 357.043 325.685 360.839 335.975 373.568Z" stroke="#263238" stroke-width="1.1133" stroke-linecap="round" stroke-linejoin="round"/>
<path d="M305.325 405.396C309.491 402.912 313.465 400.127 317.215 397.064C319.265 395.369 323.025 392.006 323.145 392.006C323.025 392.006 330.205 384.02 332.585 379.849C332.585 379.908 333.645 378.192 333.585 378.133C333.525 378.074 334.445 376.644 334.385 376.585C334.968 375.619 335.476 374.61 335.905 373.568C336.684 371.87 337.352 370.125 337.905 368.342C338.86 371.565 339.345 374.904 339.345 378.261C339.345 378.814 339.345 379.287 339.345 379.8C324.225 400.732 312.575 409.705 305.245 413.639C304.655 413.639 304.055 413.639 303.445 413.639C299.778 413.64 296.133 413.088 292.635 412.002C296.99 410.044 301.228 407.838 305.325 405.396ZM305.325 405.396H305.585" stroke="#263238" stroke-width="1.1133" stroke-linecap="round" stroke-linejoin="round"/>
<path d="M339.345 379.8C324.225 400.732 312.575 409.705 305.305 413.55C314.22 413.108 322.648 409.404 328.942 403.164C335.237 396.923 338.946 388.592 339.345 379.8Z" stroke="#263238" stroke-width="1.1133" stroke-linecap="round" stroke-linejoin="round"/>
<path d="M275.465 400.308C279.902 405.808 285.9 409.879 292.695 412.002C297.051 410.044 301.288 407.838 305.385 405.396C296.845 406.954 283.485 403.089 275.465 400.308Z" stroke="#263238" stroke-width="1.1133" stroke-linecap="round" stroke-linejoin="round"/>
<path d="M305.385 405.396C309.551 402.912 313.525 400.127 317.275 397.064C291.485 399.668 275.575 391.789 268.815 387.313C270.091 392.054 272.356 396.48 275.465 400.308C283.485 403.089 296.845 406.954 305.385 405.396Z" stroke="#263238" stroke-width="1.1133" stroke-linecap="round" stroke-linejoin="round"/>
<path d="M320.965 391.996H322.865C321.175 393.673 319.325 395.369 317.275 397.064C291.485 399.668 275.575 391.789 268.815 387.333C268.026 384.378 267.626 381.336 267.625 378.281C267.625 377.463 267.665 376.664 267.725 375.856C269.905 377.877 274.335 382.393 286.625 386.593C295.035 389.541 306.235 391.789 320.965 391.996ZM320.965 391.996C321.105 392.125 321.245 392.253 321.375 392.391" stroke="#263238" stroke-width="1.1133" stroke-linecap="round" stroke-linejoin="round"/>
</g>
<path d="M303.345 413.442C323.122 413.442 339.155 397.634 339.155 378.133C339.155 358.633 323.122 342.825 303.345 342.825C283.568 342.825 267.535 358.633 267.535 378.133C267.535 397.634 283.568 413.442 303.345 413.442Z" stroke="#263238" stroke-width="1.1133" stroke-linecap="round" stroke-linejoin="round"/>
<path d="M360.73 316.388C360.73 316.388 358.28 308.549 351.14 305.729C346.14 303.757 340.47 304.289 335.32 305.167C325.74 306.814 317.38 310.57 308.32 313.775C308.32 313.775 312.2 312.365 328.11 320.016C333.97 322.826 340.67 325.015 347.37 324.867C352.74 324.749 361 323.231 360.73 316.388Z" fill="#09FF4F"/>
<path d="M361.59 293.345C361.59 293.345 361.59 285.131 355.59 280.409C351.41 277.115 345.79 275.981 340.59 275.36C330.93 274.207 321.83 275.419 312.19 275.903C312.19 275.903 316.32 275.666 329.31 287.518C334.1 291.876 339.88 295.879 346.31 297.644C351.49 299.064 359.83 299.971 361.59 293.345Z" fill="#09FF4F"/>
<path d="M378 323.822C378 323.822 371.51 318.685 371.49 311.103C371.49 305.828 374.06 300.789 376.79 296.401C381.87 288.218 388.49 281.947 394.87 274.798C394.87 274.798 392.11 277.835 393.45 295.238C393.95 301.647 393.53 308.598 390.92 314.682C388.87 319.572 384.4 326.583 378 323.822Z" fill="#09FF4F"/>
<path d="M401 336.423C401 336.423 400.08 328.269 405.5 322.885C409.26 319.148 414.71 317.374 419.78 316.171C429.24 313.923 438.42 314.09 448.05 313.469C448.05 313.469 443.93 313.696 432.41 326.948C428.17 331.878 422.9 336.463 416.69 338.957C411.74 340.959 403.56 342.803 401 336.423Z" fill="#09FF4F"/>
<path d="M399.53 307.346C399.53 307.346 391.28 306.232 387.32 299.734C384.56 295.218 384.15 289.578 384.2 284.431C384.3 274.848 386.72 266.102 388.47 256.745C388.47 256.745 387.68 260.748 397.9 274.995C401.66 280.251 404.9 286.423 405.9 292.97C406.61 298.226 406.42 306.498 399.53 307.346Z" fill="#09FF4F"/>
<path d="M423.27 292.743C423.27 292.743 429.2 298.502 436.84 297.673C442.15 297.072 446.93 293.946 451.03 290.771C458.67 284.855 464.22 277.618 470.67 270.549C470.67 270.549 467.94 273.595 450.25 274.315C443.74 274.581 436.79 275.794 430.96 279.068C426.28 281.651 419.75 286.847 423.27 292.743Z" fill="#09FF4F"/>
<path d="M416.4 287.054C416.4 287.054 424.68 287.873 430.08 282.479C433.84 278.722 435.58 273.339 436.75 268.32C438.93 258.983 438.67 249.921 439.19 240.426C439.19 240.426 439.01 244.489 425.68 255.985C420.78 260.215 416.13 265.461 413.68 271.604C411.69 276.543 409.9 284.629 416.4 287.054Z" fill="#09FF4F"/>
<path d="M386.83 366.536L372.53 331.838L356.04 291.718" stroke="#263238" stroke-width="1.1133" stroke-linecap="round" stroke-linejoin="round"/>
<path d="M390.13 360.57L404.42 312.325L419.82 282.509" stroke="#263238" stroke-width="1.1133" stroke-linecap="round" stroke-linejoin="round"/>
<path d="M395.62 341.6L409.92 333.465" stroke="#263238" stroke-width="1.1133" stroke-linecap="round" stroke-linejoin="round"/>
<path d="M404.42 312.325L397.27 296.599" stroke="#263238" stroke-width="1.1133" stroke-linecap="round" stroke-linejoin="round"/>
<path d="M413.37 296.678L430.81 289.006" stroke="#263238" stroke-width="1.1133" stroke-linecap="round" stroke-linejoin="round"/>
<path d="M375.28 338.346L381.33 314.495" stroke="#263238" stroke-width="1.1133" stroke-linecap="round" stroke-linejoin="round"/>
<path d="M367.26 320.213L353.29 312.868" stroke="#263238" stroke-width="1.1133" stroke-linecap="round" stroke-linejoin="round"/>
<path d="M394.16 383.879H382.24C380.291 383.879 378.404 383.208 376.904 381.982C375.403 380.756 374.383 379.052 374.02 377.165L369.78 355.147H406.62L402.39 377.165C402.025 379.053 401.003 380.757 399.501 381.983C397.999 383.208 396.11 383.879 394.16 383.879Z" fill="#263238" stroke="#263238" stroke-width="1.1133" stroke-linecap="round" stroke-linejoin="round"/>
<path d="M231.15 337.488C208.89 337.488 195.51 318.015 190.76 300.888L190.6 300.286C190.347 299.456 190.266 298.584 190.363 297.722C190.46 296.86 190.732 296.026 191.163 295.27C191.594 294.514 192.175 293.852 192.872 293.323C193.568 292.793 194.366 292.408 195.217 292.19C196.068 291.972 196.956 291.925 197.825 292.052C198.695 292.18 199.53 292.479 200.28 292.932C201.03 293.385 201.68 293.983 202.19 294.689C202.7 295.395 203.061 296.196 203.25 297.042L203.37 297.486C206.98 310.521 216.81 325.419 232.58 324.562C235.546 324.46 238.456 323.745 241.123 322.463C243.79 321.18 246.153 319.359 248.06 317.117C256.71 307.336 260.58 286.068 259.72 275.341C259.639 274.652 259.699 273.955 259.897 273.29C260.095 272.625 260.427 272.006 260.873 271.47C261.32 270.935 261.871 270.493 262.494 270.172C263.117 269.852 263.799 269.658 264.5 269.603C265.2 269.548 265.905 269.633 266.572 269.852C267.239 270.072 267.853 270.422 268.38 270.881C268.906 271.34 269.334 271.899 269.636 272.525C269.939 273.15 270.11 273.83 270.14 274.522C271.14 286.463 269.82 312.128 257.91 325.587C254.862 329.126 251.103 332.004 246.871 334.041C242.639 336.077 238.025 337.227 233.32 337.419C232.59 337.468 231.86 337.488 231.15 337.488Z" fill="white"/>
<mask id="mask1_74_31" style="mask-type:luminance" maskUnits="userSpaceOnUse" x="190" y="269" width="81" height="69">
<path d="M231.15 337.488C208.89 337.488 195.51 318.015 190.76 300.888L190.6 300.286C190.347 299.456 190.266 298.584 190.363 297.722C190.46 296.86 190.732 296.026 191.163 295.27C191.594 294.514 192.175 293.852 192.872 293.323C193.568 292.793 194.366 292.408 195.217 292.19C196.068 291.972 196.956 291.925 197.825 292.052C198.695 292.18 199.53 292.479 200.28 292.932C201.03 293.385 201.68 293.983 202.19 294.689C202.7 295.395 203.061 296.196 203.25 297.042L203.37 297.486C206.98 310.521 216.81 325.419 232.58 324.562C235.546 324.46 238.456 323.745 241.123 322.463C243.79 321.18 246.153 319.359 248.06 317.117C256.71 307.336 260.58 286.068 259.72 275.341C259.639 274.652 259.699 273.955 259.897 273.29C260.095 272.625 260.427 272.006 260.873 271.47C261.32 270.935 261.871 270.493 262.494 270.172C263.117 269.852 263.799 269.658 264.5 269.603C265.2 269.548 265.905 269.633 266.572 269.852C267.239 270.072 267.853 270.422 268.38 270.881C268.906 271.34 269.334 271.899 269.636 272.525C269.939 273.15 270.11 273.83 270.14 274.522C271.14 286.463 269.82 312.128 257.91 325.587C254.862 329.126 251.103 332.004 246.871 334.041C242.639 336.077 238.025 337.227 233.32 337.419C232.59 337.468 231.86 337.488 231.15 337.488Z" fill="white"/>
</mask>
<g mask="url(#mask1_74_31)">
<path d="M264.51 269.789C263.129 269.9 261.848 270.547 260.95 271.588C260.052 272.628 259.61 273.978 259.72 275.341C260.14 280.576 259.43 288.316 257.59 296.047C260.218 295.937 262.846 296.27 265.36 297.033C264.765 304.451 262.123 311.567 257.72 317.61C248.01 330.911 233.45 335.161 222.12 333.564C217.05 332.854 211.24 330.231 206.35 327.539C212.985 333.919 221.882 337.495 231.15 337.508C231.86 337.508 232.59 337.508 233.32 337.449C238.025 337.257 242.639 336.107 246.871 334.07C251.103 332.034 254.862 329.156 257.91 325.617C269.82 312.158 271.1 286.492 270.14 274.552C270.091 273.873 269.906 273.211 269.595 272.604C269.285 271.997 268.856 271.456 268.332 271.013C267.809 270.57 267.201 270.234 266.545 270.024C265.889 269.814 265.198 269.734 264.51 269.789Z" fill="#09FF4F"/>
<path opacity="0.5" d="M264.51 269.789C263.129 269.9 261.848 270.547 260.95 271.588C260.052 272.628 259.61 273.978 259.72 275.341C260.14 280.576 259.43 288.316 257.59 296.047C260.218 295.937 262.846 296.27 265.36 297.033C264.765 304.451 262.123 311.567 257.72 317.61C248.01 330.911 233.45 335.161 222.12 333.564C217.05 332.854 211.24 330.231 206.35 327.539C212.985 333.919 221.882 337.495 231.15 337.508C231.86 337.508 232.59 337.508 233.32 337.449C238.025 337.257 242.639 336.107 246.871 334.07C251.103 332.034 254.862 329.156 257.91 325.617C269.82 312.158 271.1 286.492 270.14 274.552C270.091 273.873 269.906 273.211 269.595 272.604C269.285 271.997 268.856 271.456 268.332 271.013C267.809 270.57 267.201 270.234 266.545 270.024C265.889 269.814 265.198 269.734 264.51 269.789Z" fill="white"/>
</g>
<path d="M231.15 337.488C208.89 337.488 195.51 318.015 190.76 300.888L190.6 300.286C190.347 299.456 190.266 298.584 190.363 297.722C190.46 296.86 190.732 296.026 191.163 295.27C191.594 294.514 192.175 293.852 192.872 293.323C193.568 292.793 194.366 292.408 195.217 292.19C196.068 291.972 196.956 291.925 197.825 292.052C198.695 292.18 199.53 292.479 200.28 292.932C201.03 293.385 201.68 293.983 202.19 294.689C202.7 295.395 203.061 296.196 203.25 297.042L203.37 297.486C206.98 310.521 216.81 325.419 232.58 324.562C235.546 324.46 238.456 323.745 241.123 322.463C243.79 321.18 246.153 319.359 248.06 317.117C256.71 307.336 260.58 286.068 259.72 275.341C259.639 274.652 259.699 273.955 259.897 273.29C260.095 272.625 260.427 272.006 260.873 271.47C261.32 270.935 261.871 270.493 262.494 270.172C263.117 269.852 263.799 269.658 264.5 269.603C265.2 269.548 265.905 269.633 266.572 269.852C267.239 270.072 267.853 270.422 268.38 270.881C268.906 271.34 269.334 271.899 269.636 272.525C269.939 273.15 270.11 273.83 270.14 274.522C271.14 286.463 269.82 312.128 257.91 325.587C254.862 329.126 251.103 332.004 246.871 334.041C242.639 336.077 238.025 337.227 233.32 337.419C232.59 337.468 231.86 337.488 231.15 337.488Z" stroke="#263238" stroke-width="1.1133" stroke-linecap="round" stroke-linejoin="round"/>
<path d="M218.31 324.147C218.84 321.732 212.98 325.508 208.07 329.028C209.886 330.542 211.841 331.885 213.91 333.041C215.66 330.231 217.8 326.474 218.31 324.147Z" fill="#09FF4F" stroke="#263238" stroke-width="1.1133" stroke-linecap="round" stroke-linejoin="round"/>
<path d="M231.15 337.488C231.86 337.488 232.59 337.488 233.32 337.429C235.445 337.312 237.555 337.018 239.63 336.551C236.87 333.002 233.07 328.308 231.98 327.953C230.73 327.539 228.32 333.584 226.98 337.251C228.364 337.411 229.756 337.49 231.15 337.488Z" fill="#09FF4F" stroke="#263238" stroke-width="1.1133" stroke-linecap="round" stroke-linejoin="round"/>
<path d="M203.37 297.486L203.25 297.042C203.061 296.196 202.7 295.395 202.19 294.689C201.68 293.983 201.03 293.385 200.28 292.932C199.53 292.479 198.695 292.18 197.825 292.052C196.956 291.925 196.068 291.972 195.217 292.19C194.366 292.408 193.568 292.793 192.872 293.323C192.175 293.852 191.594 294.514 191.163 295.27C190.732 296.026 190.46 296.86 190.363 297.722C190.266 298.584 190.347 299.456 190.6 300.286L190.76 300.888C192.428 306.902 194.989 312.641 198.36 317.916L210.27 312.325C207.147 307.793 204.815 302.777 203.37 297.486Z" fill="#09FF4F" stroke="#263238" stroke-width="1.1133" stroke-linecap="round" stroke-linejoin="round"/>
<path d="M257.91 325.587C258.825 324.542 259.673 323.442 260.45 322.294C256.67 321.022 251.01 319.267 248.91 319.454C246.42 319.681 249.8 327.569 251.54 331.286C253.882 329.639 256.02 327.726 257.91 325.587Z" fill="#09FF4F" stroke="#263238" stroke-width="1.1133" stroke-linecap="round" stroke-linejoin="round"/>
<path d="M258.12 304.516C257.72 305.305 262.61 308.815 265.91 311.073C266.957 308.002 267.799 304.866 268.43 301.686C264.43 302.475 258.51 303.747 258.12 304.516Z" fill="#09FF4F" stroke="#263238" stroke-width="1.1133" stroke-linecap="round" stroke-linejoin="round"/>
<path d="M270.05 289.933C270.27 287.123 270.38 284.441 270.39 281.976C266.95 283.84 262.87 286.423 262.87 288.119C262.87 289.815 266.69 290.022 270.05 289.933Z" fill="#09FF4F" stroke="#263238" stroke-width="1.1133" stroke-linecap="round" stroke-linejoin="round"/>
<path d="M216.21 213.646C216.21 213.646 206.5 241.373 211.73 262.946C213.279 269.26 216.286 275.135 220.517 280.113C224.748 285.092 230.087 289.04 236.12 291.649C236.12 291.649 221.93 296.579 225.12 304.161C228.31 311.744 240.54 306.863 244.53 304.408C248.52 301.953 253.53 294.597 254.23 289.687C254.675 287.178 254.843 284.629 254.73 282.085C254.73 282.085 270.9 280.369 281.85 271.535C281.85 271.535 291.56 279.137 298.53 277.667C305.5 276.198 315.45 263.923 314.45 252.889C313.45 241.856 307 241.866 303.06 243.542C301.015 244.305 299.15 245.472 297.58 246.973C297.58 246.973 303.3 240.071 297.58 230.537C295.892 227.74 293.58 225.359 290.82 223.574C288.06 221.788 284.924 220.646 281.65 220.233C281.65 220.233 278.65 204.526 269.71 198.64C260.77 192.753 228.9 186.66 216.21 213.646Z" fill="white"/>
<mask id="mask2_74_31" style="mask-type:luminance" maskUnits="userSpaceOnUse" x="210" y="193" width="105" height="116">
<path d="M216.21 213.646C216.21 213.646 206.5 241.373 211.73 262.946C213.279 269.26 216.286 275.135 220.517 280.113C224.748 285.092 230.087 289.04 236.12 291.649C236.12 291.649 221.93 296.579 225.12 304.161C228.31 311.744 240.54 306.863 244.53 304.408C248.52 301.953 253.53 294.597 254.23 289.687C254.675 287.178 254.843 284.629 254.73 282.085C254.73 282.085 270.9 280.369 281.85 271.535C281.85 271.535 291.56 279.137 298.53 277.667C305.5 276.198 315.45 263.923 314.45 252.889C313.45 241.856 307 241.866 303.06 243.542C301.015 244.305 299.15 245.472 297.58 246.973C297.58 246.973 303.3 240.071 297.58 230.537C295.892 227.74 293.58 225.359 290.82 223.574C288.06 221.788 284.924 220.646 281.65 220.233C281.65 220.233 278.65 204.526 269.71 198.64C260.77 192.753 228.9 186.66 216.21 213.646Z" fill="white"/>
</mask>
<g mask="url(#mask2_74_31)">
<path d="M290.14 223.181C285.524 230.774 279.136 237.17 271.507 241.838C263.879 246.507 255.23 249.312 246.28 250.02C226.48 251.736 215.38 247.89 210.28 245.218C210.899 234.491 212.916 223.886 216.28 213.666C228.97 186.679 260.82 192.812 269.78 198.699C278.74 204.585 281.72 220.292 281.72 220.292C284.702 220.661 287.571 221.645 290.14 223.181ZM303.06 243.542C301.015 244.305 299.15 245.472 297.58 246.973C298.791 245.327 299.59 243.421 299.91 241.412C286.46 248.018 287.51 262.118 285.84 262.118C283.78 262.118 282.76 255.029 282.76 255.029C282.76 255.029 280.19 265.155 264.76 272.254C249.33 279.354 231.88 273.773 231.88 273.773C231.88 273.773 235.48 281.878 226.23 280.862C223.634 280.617 221.145 279.721 219 278.259C223.436 284.09 229.327 288.689 236.1 291.609C236.1 291.609 221.91 296.539 225.1 304.122C228.29 311.704 240.53 306.823 244.51 304.368C248.49 301.913 253.51 294.558 254.21 289.647C254.655 287.139 254.823 284.59 254.71 282.045C254.71 282.045 270.88 280.33 281.83 271.495C281.83 271.495 291.54 279.097 298.51 277.628C305.48 276.159 315.43 263.883 314.43 252.85C313.43 241.817 307 241.866 303.06 243.542Z" fill="#09FF4F"/>
<path opacity="0.5" d="M290.14 223.181C285.524 230.774 279.136 237.17 271.507 241.838C263.879 246.507 255.23 249.312 246.28 250.02C226.48 251.736 215.38 247.89 210.28 245.218C210.899 234.491 212.916 223.886 216.28 213.666C228.97 186.679 260.82 192.812 269.78 198.699C278.74 204.585 281.72 220.292 281.72 220.292C284.702 220.661 287.571 221.645 290.14 223.181ZM303.06 243.542C301.015 244.305 299.15 245.472 297.58 246.973C298.791 245.327 299.59 243.421 299.91 241.412C286.46 248.018 287.51 262.118 285.84 262.118C283.78 262.118 282.76 255.029 282.76 255.029C282.76 255.029 280.19 265.155 264.76 272.254C249.33 279.354 231.88 273.773 231.88 273.773C231.88 273.773 235.48 281.878 226.23 280.862C223.634 280.617 221.145 279.721 219 278.259C223.436 284.09 229.327 288.689 236.1 291.609C236.1 291.609 221.91 296.539 225.1 304.122C228.29 311.704 240.53 306.823 244.51 304.368C248.49 301.913 253.51 294.558 254.21 289.647C254.655 287.139 254.823 284.59 254.71 282.045C254.71 282.045 270.88 280.33 281.83 271.495C281.83 271.495 291.54 279.097 298.51 277.628C305.48 276.159 315.43 263.883 314.43 252.85C313.43 241.817 307 241.866 303.06 243.542Z" fill="white"/>
<path d="M254.78 282.104C249.413 282.245 244.085 281.171 239.205 278.964C234.325 276.758 230.023 273.477 226.63 269.375" stroke="#263238" stroke-width="1.1133" stroke-linecap="round" stroke-linejoin="round"/>
</g>
<path d="M216.21 213.646C216.21 213.646 206.5 241.373 211.73 262.946C213.279 269.26 216.286 275.135 220.517 280.113C224.748 285.092 230.087 289.04 236.12 291.649C236.12 291.649 221.93 296.579 225.12 304.161C228.31 311.744 240.54 306.863 244.53 304.408C248.52 301.953 253.53 294.597 254.23 289.687C254.675 287.178 254.843 284.629 254.73 282.085C254.73 282.085 270.9 280.369 281.85 271.535C281.85 271.535 291.56 279.137 298.53 277.667C305.5 276.198 315.45 263.923 314.45 252.889C313.45 241.856 307 241.866 303.06 243.542C301.015 244.305 299.15 245.472 297.58 246.973C297.58 246.973 303.3 240.071 297.58 230.537C295.892 227.74 293.58 225.359 290.82 223.574C288.06 221.788 284.924 220.646 281.65 220.233C281.65 220.233 278.65 204.526 269.71 198.64C260.77 192.753 228.9 186.66 216.21 213.646Z" stroke="#263238" stroke-width="1.1133" stroke-linecap="round" stroke-linejoin="round"/>
<path d="M297.58 247.013C297.58 247.013 292.36 250.454 289.87 261.004" stroke="#263238" stroke-width="1.1133" stroke-linecap="round" stroke-linejoin="round"/>
<path d="M307.17 251.529C306.56 253.323 304.89 254.398 303.45 253.915C302.01 253.432 301.35 251.588 301.96 249.793C302.57 247.999 304.24 246.924 305.68 247.407C307.12 247.89 307.79 249.734 307.17 251.529Z" fill="white" stroke="#263238" stroke-width="1.1133" stroke-linecap="round" stroke-linejoin="round"/>
<path d="M312.32 254.723C311.71 256.518 310.04 257.593 308.6 257.109C307.16 256.626 306.49 254.782 307.11 252.988C307.73 251.193 309.39 250.119 310.83 250.602C312.27 251.085 312.94 252.929 312.32 254.723Z" fill="white" stroke="#263238" stroke-width="1.1133" stroke-linecap="round" stroke-linejoin="round"/>
<path d="M313.42 259.505C313.22 259.835 312.93 260.103 312.582 260.277C312.235 260.45 311.844 260.523 311.456 260.487C311.068 260.451 310.699 260.307 310.39 260.071C310.082 259.836 309.848 259.52 309.715 259.159C309.582 258.797 309.555 258.406 309.638 258.031C309.722 257.655 309.911 257.311 310.185 257.038C310.459 256.764 310.806 256.573 311.186 256.486C311.565 256.399 311.962 256.421 312.33 256.547C312.861 256.809 313.27 257.262 313.473 257.812C313.676 258.362 313.657 258.968 313.42 259.505Z" fill="white" stroke="#263238" stroke-width="1.1133" stroke-linecap="round" stroke-linejoin="round"/>
<path d="M306.85 266.072C305.05 269.277 301.45 270.696 298.8 269.247C296.15 267.798 295.47 264.041 297.27 260.836C299.07 257.632 302.67 256.212 305.32 257.662C307.97 259.111 308.65 262.868 306.85 266.072Z" fill="white" stroke="#263238" stroke-width="1.1133" stroke-linecap="round" stroke-linejoin="round"/>
<path d="M236.12 291.669C239.472 293.207 243.283 293.47 246.82 292.408" stroke="#263238" stroke-width="1.1133" stroke-linecap="round" stroke-linejoin="round"/>
<path d="M225.17 304.181C225.17 304.181 226.17 300.01 232.38 297.072" stroke="#263238" stroke-width="1.1133" stroke-linecap="round" stroke-linejoin="round"/>
<path d="M231.39 307.869C231.39 307.869 233.88 301.953 238.11 299.281" stroke="#263238" stroke-width="1.1133" stroke-linecap="round" stroke-linejoin="round"/>
<path d="M133.26 239.992C132.202 239.16 131.359 238.093 130.799 236.878C130.24 235.663 129.98 234.335 130.04 233.002V209.624H68.88C67.3861 209.679 65.8977 209.415 64.5168 208.85C63.136 208.285 61.8954 207.432 60.88 206.35C58.8796 204.264 57.7821 201.491 57.82 198.62C57.8119 196.287 58.5082 194.004 59.82 192.063L118.4 101.292C122.8 94.5936 128.647 91.2444 135.94 91.2444C139.861 91.1131 143.69 92.4359 146.67 94.9518C149.53 97.4168 150.96 101.081 150.96 105.946V194.183H166.52C167.595 194.119 168.671 194.289 169.671 194.681C170.672 195.073 171.573 195.677 172.31 196.451C173.626 197.971 174.349 199.904 174.349 201.903C174.349 203.902 173.626 205.835 172.31 207.356C171.573 208.129 170.672 208.734 169.671 209.125C168.671 209.517 167.595 209.687 166.52 209.624H150.85V233.002C150.915 234.325 150.668 235.644 150.128 236.857C149.589 238.07 148.771 239.143 147.74 239.992C145.727 241.656 143.177 242.555 140.55 242.526C137.894 242.547 135.315 241.651 133.26 239.992ZM130 194.183V112.936L78.71 194.183H130Z" fill="#263238"/>
<path d="M218.13 240.466C212.136 237.886 206.827 233.975 202.62 229.038C198.394 223.822 195.094 217.937 192.86 211.635C190.328 204.827 188.548 197.769 187.55 190.584C186.509 182.761 186.008 174.878 186.05 166.989C186.05 115.014 204.05 89.0259 240.05 89.0259C276.05 89.0259 294.007 115.014 293.92 166.989C293.956 174.841 293.471 182.686 292.47 190.475C291.505 197.661 289.741 204.721 287.21 211.527C284.976 217.829 281.676 223.713 277.45 228.929C273.237 233.873 267.931 237.799 261.94 240.407C255.052 243.409 247.58 244.89 240.05 244.745C232.516 244.894 225.038 243.434 218.13 240.466ZM250.69 225.547C253.702 224.281 256.436 222.449 258.74 220.154C261.073 217.705 262.991 214.902 264.42 211.852C265.997 208.621 267.273 205.254 268.23 201.795C269.238 198.025 269.974 194.19 270.43 190.318C270.97 186.045 271.33 182.131 271.51 178.574C271.69 175.018 271.777 171.156 271.77 166.989C271.77 162.618 271.683 158.582 271.51 154.881C271.337 151.18 270.96 147.21 270.38 142.97C269.882 139.1 269.131 135.267 268.13 131.493C267.184 128.068 265.908 124.74 264.32 121.554C262.88 118.552 260.958 115.799 258.63 113.4C256.34 111.151 253.621 109.372 250.63 108.164C243.793 105.561 236.217 105.561 229.38 108.164C226.411 109.357 223.712 111.12 221.44 113.351C219.129 115.739 217.212 118.471 215.76 121.446C214.158 124.603 212.898 127.918 212 131.335C211.024 135.132 210.289 138.985 209.8 142.871C209.22 147.17 208.843 151.174 208.67 154.881C208.497 158.588 208.407 162.624 208.4 166.989C208.4 171.15 208.49 175.028 208.67 178.624C208.85 182.219 209.207 186.163 209.74 190.456C210.201 194.327 210.936 198.162 211.94 201.933C212.884 205.391 214.146 208.758 215.71 211.99C217.125 215.021 219.026 217.808 221.34 220.243C223.627 222.523 226.345 224.338 229.34 225.587C236.184 228.334 243.846 228.334 250.69 225.587V225.547Z" fill="#263238"/>
<path d="M386.58 239.992C385.522 239.16 384.679 238.093 384.119 236.878C383.56 235.663 383.3 234.335 383.36 233.002V209.624H322.2C320.706 209.679 319.218 209.415 317.837 208.85C316.456 208.285 315.215 207.432 314.2 206.35C312.2 204.264 311.102 201.491 311.14 198.62C311.132 196.287 311.828 194.004 313.14 192.063L371.72 101.292C376.08 94.5935 381.91 91.2444 389.21 91.2444C393.152 91.0981 397.004 92.4219 400 94.9518C402.86 97.4168 404.29 101.081 404.29 105.946V194.183H419.85C420.925 194.119 422.001 194.289 423.001 194.681C424.002 195.073 424.903 195.677 425.64 196.451C426.956 197.971 427.679 199.904 427.679 201.903C427.679 203.902 426.956 205.835 425.64 207.356C424.903 208.129 424.002 208.734 423.001 209.125C422.001 209.517 420.925 209.687 419.85 209.624H404.17V233.002C404.235 234.325 403.988 235.644 403.448 236.857C402.909 238.07 402.091 239.143 401.06 239.992C399.047 241.656 396.497 242.555 393.87 242.526C391.215 242.547 388.635 241.651 386.58 239.992ZM383.36 194.183V112.936L332.07 194.183H383.36Z" fill="#263238"/>
<path d="M196.05 199.665C196.05 199.665 185.6 214.139 184.11 228.86C182.62 243.581 184.36 253.392 188.84 257.08C193.32 260.767 197.79 259.288 200.28 255.847C202.77 252.406 198.79 240.387 198.79 240.387C198.79 240.387 203.02 228.86 209.49 220.765C215.96 212.67 217.2 211.438 217.2 211.438C217.2 211.438 206 198.925 196.05 199.665Z" fill="white"/>
<mask id="mask3_74_31" style="mask-type:luminance" maskUnits="userSpaceOnUse" x="183" y="199" width="35" height="61">
<path d="M196.05 199.665C196.05 199.665 185.6 214.139 184.11 228.86C182.62 243.581 184.36 253.392 188.84 257.08C193.32 260.767 197.79 259.288 200.28 255.847C202.77 252.406 198.79 240.387 198.79 240.387C198.79 240.387 203.02 228.86 209.49 220.765C215.96 212.67 217.2 211.438 217.2 211.438C217.2 211.438 206 198.925 196.05 199.665Z" fill="white"/>
</mask>
<g mask="url(#mask3_74_31)">
<path d="M196.05 199.665C193.77 202.987 191.747 206.474 190 210.097C195 212.069 202.75 216.111 207.67 223.27C208.27 222.412 208.89 221.564 209.53 220.765C216 212.67 217.24 211.438 217.24 211.438C217.24 211.438 206 198.925 196.05 199.665Z" fill="#09FF4F"/>
<path opacity="0.5" d="M196.05 199.665C193.77 202.987 191.747 206.474 190 210.097C195 212.069 202.75 216.111 207.67 223.27C208.27 222.412 208.89 221.564 209.53 220.765C216 212.67 217.24 211.438 217.24 211.438C217.24 211.438 206 198.925 196.05 199.665Z" fill="white"/>
</g>
<path d="M196.05 199.665C196.05 199.665 185.6 214.139 184.11 228.86C182.62 243.581 184.36 253.392 188.84 257.08C193.32 260.767 197.79 259.288 200.28 255.847C202.77 252.406 198.79 240.387 198.79 240.387C198.79 240.387 203.02 228.86 209.49 220.765C215.96 212.67 217.2 211.438 217.2 211.438C217.2 211.438 206 198.925 196.05 199.665Z" stroke="#263238" stroke-width="1.1133" stroke-linecap="round" stroke-linejoin="round"/>
<path d="M188.84 257.08C187.618 253.863 187.025 250.447 187.09 247.013" stroke="#263238" stroke-width="1.1133" stroke-linecap="round" stroke-linejoin="round"/>
<path d="M195.55 258.549C195.55 258.549 193.07 254.378 192.82 247.259" stroke="#263238" stroke-width="1.1133" stroke-linecap="round" stroke-linejoin="round"/>
<path d="M199.29 225.912C199.29 223.329 194.29 218.281 187.34 216.052C186.406 218.454 185.634 220.915 185.03 223.418C187.73 223.873 190.352 224.7 192.82 225.873C196.55 227.874 199.29 228.86 199.29 225.912Z" fill="#09FF4F" stroke="#263238" stroke-width="1.1133" stroke-linecap="round" stroke-linejoin="round"/>
<path d="M195.44 200.543C193.828 202.965 192.346 205.47 191 208.046C193.104 208.595 195.123 209.424 197 210.511C204.71 214.918 206.2 215.441 203.72 209.032C202.22 205.009 198.64 202.278 195.44 200.543Z" fill="#09FF4F" stroke="#263238" stroke-width="1.1133" stroke-linecap="round" stroke-linejoin="round"/>
<path d="M277.9 192.516C277.9 192.516 289.74 205.906 292.69 220.42C295.64 234.934 294.89 244.863 290.79 248.955C286.69 253.047 282.1 252.022 279.28 248.837C276.46 245.652 279.28 233.317 279.28 233.317C279.28 233.317 273.92 222.244 266.68 214.81C259.44 207.376 258.07 206.281 258.07 206.281C258.07 206.281 267.92 192.743 277.9 192.516Z" fill="white"/>
<mask id="mask4_74_31" style="mask-type:luminance" maskUnits="userSpaceOnUse" x="258" y="192" width="37" height="60">
<path d="M277.9 192.516C277.9 192.516 289.74 205.906 292.69 220.42C295.64 234.934 294.89 244.863 290.79 248.955C286.69 253.047 282.1 252.022 279.28 248.837C276.46 245.652 279.28 233.317 279.28 233.317C279.28 233.317 273.92 222.244 266.68 214.81C259.44 207.376 258.07 206.281 258.07 206.281C258.07 206.281 267.92 192.743 277.9 192.516Z" fill="white"/>
</mask>
<g mask="url(#mask4_74_31)">
<path d="M277.9 192.516C267.9 192.743 258.02 206.32 258.02 206.32C258.02 206.32 259.38 207.425 266.63 214.849C267.986 216.257 269.261 217.739 270.45 219.286C274.234 212.984 279.64 207.78 286.12 204.201C283.735 200.074 280.985 196.164 277.9 192.516Z" fill="#09FF4F"/>
<path opacity="0.5" d="M277.9 192.516C267.9 192.743 258.02 206.32 258.02 206.32C258.02 206.32 259.38 207.425 266.63 214.849C267.986 216.257 269.261 217.739 270.45 219.286C274.234 212.984 279.64 207.78 286.12 204.201C283.735 200.074 280.985 196.164 277.9 192.516Z" fill="white"/>
</g>
<path d="M277.9 192.516C277.9 192.516 289.74 205.906 292.69 220.42C295.64 234.934 294.89 244.863 290.79 248.955C286.69 253.047 282.1 252.022 279.28 248.837C276.46 245.652 279.28 233.317 279.28 233.317C279.28 233.317 273.92 222.244 266.68 214.81C259.44 207.376 258.07 206.281 258.07 206.281C258.07 206.281 267.92 192.743 277.9 192.516Z" stroke="#263238" stroke-width="1.1133" stroke-linecap="round" stroke-linejoin="round"/>
<path d="M290.79 248.955C291.686 245.64 291.938 242.187 291.53 238.78" stroke="#263238" stroke-width="1.1133" stroke-linecap="round" stroke-linejoin="round"/>
<path d="M284.25 251.065C284.25 251.065 286.32 246.677 285.86 239.568" stroke="#263238" stroke-width="1.1133" stroke-linecap="round" stroke-linejoin="round"/>
<path d="M277.29 218.951C277.04 216.378 281.51 210.876 288.21 208.026C289.369 210.324 290.371 212.696 291.21 215.125C288.573 215.85 286.05 216.929 283.71 218.33C280.21 220.647 277.59 221.85 277.29 218.951Z" fill="#09FF4F" stroke="#263238" stroke-width="1.1133" stroke-linecap="round" stroke-linejoin="round"/>
<path d="M278.59 193.335C280.429 195.573 282.145 197.906 283.73 200.326C281.683 201.073 279.749 202.091 277.98 203.353C270.75 208.5 269.31 209.131 271.15 202.544C272.3 198.433 275.58 195.366 278.59 193.335Z" fill="#09FF4F" stroke="#263238" stroke-width="1.1133" stroke-linecap="round" stroke-linejoin="round"/>
<path d="M195.07 187.143C195.07 187.143 191.99 197.387 193.15 201.558C194.31 205.729 199.69 201.943 205.08 206.488C210.47 211.034 215.46 219.237 235.87 220.756C256.28 222.274 268.6 211.418 272.87 205.344C277.14 199.271 276.72 192.063 284.03 191.688C291.34 191.314 285.19 177.263 282.88 174.985C282.88 174.985 297.12 154.112 297.12 148.797C297.12 143.483 283.65 144.617 267.12 149.556C267.12 149.556 254.8 143.098 232.47 146.894C210.14 150.69 203.6 157.149 203.6 157.149C203.6 157.149 175.88 160.56 173.96 163.972C172.04 167.383 177.75 181.828 195.07 187.143Z" fill="white"/>
<mask id="mask5_74_31" style="mask-type:luminance" maskUnits="userSpaceOnUse" x="173" y="145" width="125" height="76">
<path d="M195.07 187.143C195.07 187.143 191.99 197.387 193.15 201.558C194.31 205.729 199.69 201.943 205.08 206.488C210.47 211.034 215.46 219.237 235.87 220.756C256.28 222.274 268.6 211.418 272.87 205.344C277.14 199.271 276.72 192.063 284.03 191.688C291.34 191.314 285.19 177.263 282.88 174.985C282.88 174.985 297.12 154.112 297.12 148.797C297.12 143.483 283.65 144.617 267.12 149.556C267.12 149.556 254.8 143.098 232.47 146.894C210.14 150.69 203.6 157.149 203.6 157.149C203.6 157.149 175.88 160.56 173.96 163.972C172.04 167.383 177.75 181.828 195.07 187.143Z" fill="white"/>
</mask>
<g mask="url(#mask5_74_31)">
<path d="M284 191.698C291.32 191.314 285.16 177.273 282.85 174.995C282.85 174.995 285.56 171.051 288.61 166.121C280.34 161.862 272.22 159.495 270.06 161.891C265.41 167.038 267.94 176.898 270.06 186.541C272.18 196.184 263.71 200.296 257.79 208.638C251.87 216.979 243.42 207.8 243.42 207.8C240.42 219.898 227.77 211.97 227.77 211.97C218.05 209.012 201.56 199.468 204.94 192.793C208.32 186.117 209.17 179.866 203.25 174.453C197.33 169.04 173.72 164.534 173.72 164.534C172.48 168.645 178.47 182.114 195.08 187.212C195.08 187.212 192 197.456 193.16 201.627C194.32 205.798 199.7 202.012 205.09 206.557C210.48 211.103 215.47 219.306 235.88 220.825C256.29 222.343 268.61 211.487 272.88 205.413C277.15 199.34 276.68 192.073 284 191.698Z" fill="#09FF4F"/>
<path opacity="0.5" d="M284 191.698C291.32 191.314 285.16 177.273 282.85 174.995C282.85 174.995 285.56 171.051 288.61 166.121C280.34 161.862 272.22 159.495 270.06 161.891C265.41 167.038 267.94 176.898 270.06 186.541C272.18 196.184 263.71 200.296 257.79 208.638C251.87 216.979 243.42 207.8 243.42 207.8C240.42 219.898 227.77 211.97 227.77 211.97C218.05 209.012 201.56 199.468 204.94 192.793C208.32 186.117 209.17 179.866 203.25 174.453C197.33 169.04 173.72 164.534 173.72 164.534C172.48 168.645 178.47 182.114 195.08 187.212C195.08 187.212 192 197.456 193.16 201.627C194.32 205.798 199.7 202.012 205.09 206.557C210.48 211.103 215.47 219.306 235.88 220.825C256.29 222.343 268.61 211.487 272.88 205.413C277.15 199.34 276.68 192.073 284 191.698Z" fill="white"/>
<path d="M253.89 193.986C254.18 196.391 248.76 198.985 241.81 199.783C234.86 200.582 228.98 199.28 228.69 196.825C228.4 194.37 233.82 191.836 240.78 191.038C247.74 190.239 253.61 191.59 253.89 193.986Z" fill="#09FF4F"/>
<path opacity="0.5" d="M253.89 193.986C254.18 196.391 248.76 198.985 241.81 199.783C234.86 200.582 228.98 199.28 228.69 196.825C228.4 194.37 233.82 191.836 240.78 191.038C247.74 190.239 253.61 191.59 253.89 193.986Z" fill="white"/>
</g>
<path d="M195.07 187.143C195.07 187.143 191.99 197.387 193.15 201.558C194.31 205.729 199.69 201.943 205.08 206.488C210.47 211.034 215.46 219.237 235.87 220.756C256.28 222.274 268.6 211.418 272.87 205.344C277.14 199.271 276.72 192.063 284.03 191.688C291.34 191.314 285.19 177.263 282.88 174.985C282.88 174.985 297.12 154.112 297.12 148.797C297.12 143.483 283.65 144.617 267.12 149.556C267.12 149.556 254.8 143.098 232.47 146.894C210.14 150.69 203.6 157.149 203.6 157.149C203.6 157.149 175.88 160.56 173.96 163.972C172.04 167.383 177.75 181.828 195.07 187.143Z" stroke="#263238" stroke-width="1.1133" stroke-miterlimit="10"/>
<path d="M274.69 156.774C264.69 163.4 268.22 170.026 272.69 173.704C275.42 175.952 279.82 175.676 282.83 175.045C282.83 175.045 297.07 154.171 297.07 148.856C297.08 148.807 284.64 150.099 274.69 156.774Z" fill="#09FF4F" stroke="#263238" stroke-width="1.1133" stroke-miterlimit="10"/>
<path d="M173.71 164.465C172.47 168.576 178.46 182.045 195.07 187.143C195.07 187.143 207.75 185.92 203.52 175.863C199.57 166.476 179.6 164.139 173.71 164.465Z" fill="#09FF4F" stroke="#263238" stroke-width="1.1133" stroke-miterlimit="10"/>
<path d="M232.41 146.914C231.1 147.141 229.84 147.377 228.63 147.614C230.63 157.573 233.92 174.157 236.86 174.157C239.8 174.157 242.05 155.975 243.01 145.79C239.456 145.938 235.915 146.313 232.41 146.914Z" fill="#09FF4F" stroke="#263238" stroke-width="1.1133" stroke-miterlimit="10"/>
<path d="M220.94 171.199C224 169.424 223.54 156.084 223.05 148.847C219.892 149.62 216.783 150.578 213.74 151.716C214.85 158.49 217.67 173.092 220.94 171.199Z" fill="#09FF4F" stroke="#263238" stroke-width="1.1133" stroke-miterlimit="10"/>
<path d="M250.55 165.066C253.68 166.151 255.44 155.058 256.43 146.52C253.269 146.012 250.073 145.745 246.87 145.721C246.77 152.731 247.16 163.893 250.55 165.066Z" fill="#09FF4F" stroke="#263238" stroke-width="1.1133" stroke-miterlimit="10"/>
<path d="M246.36 203.461C243.44 202.704 240.336 203.082 237.69 204.516C237.574 204.582 237.475 204.674 237.402 204.785C237.328 204.895 237.282 205.021 237.266 205.152C237.251 205.283 237.266 205.416 237.312 205.54C237.358 205.664 237.433 205.776 237.53 205.867L242.84 210.797C242.939 210.889 243.06 210.956 243.191 210.993C243.322 211.03 243.46 211.036 243.594 211.01C243.728 210.984 243.854 210.927 243.961 210.844C244.068 210.76 244.153 210.653 244.21 210.531L246.93 204.615C246.979 204.503 247.002 204.382 246.999 204.26C246.996 204.138 246.967 204.019 246.913 203.909C246.859 203.8 246.781 203.703 246.686 203.626C246.59 203.548 246.479 203.492 246.36 203.461Z" fill="#09FF4F" stroke="#263238" stroke-width="1.1133" stroke-linecap="round" stroke-linejoin="round"/>
<path d="M233.74 195.228C234.47 197.131 234.18 199.004 233.09 199.409C232 199.813 230.52 198.61 229.78 196.717C229.04 194.824 229.34 192.94 230.43 192.536C231.52 192.132 233 193.335 233.74 195.228Z" fill="#263238"/>
<path d="M248.22 193.877C247.84 195.849 248.46 197.673 249.61 197.88C250.76 198.087 252 196.648 252.38 194.646C252.76 192.645 252.14 190.86 250.99 190.643C249.84 190.426 248.6 191.885 248.22 193.877Z" fill="#263238"/>
<path d="M244.21 210.521C244.21 210.521 237.11 220.026 230.64 210.462" stroke="#263238" stroke-width="1.1133" stroke-linecap="round" stroke-linejoin="round"/>
<path d="M242.84 210.787C242.84 210.787 247.56 215.609 252.54 212.907C257.52 210.205 254.54 206.005 254.54 206.005" stroke="#263238" stroke-width="1.1133" stroke-linecap="round" stroke-linejoin="round"/>
<path d="M221.19 187.636C221.19 187.636 222.93 181.503 231.14 182.972" stroke="#263238" stroke-width="3.33991" stroke-linecap="round" stroke-linejoin="round"/>
<path d="M246.07 181.996C246.07 181.996 252.29 178.318 258.01 184.205" stroke="#263238" stroke-width="3.33991" stroke-linecap="round" stroke-linejoin="round"/>
<path d="M216.46 204.082L222.43 205.551" stroke="#263238" stroke-width="1.1133" stroke-miterlimit="10" stroke-linecap="round"/>
<path d="M221.68 207.76L216.46 208.736" stroke="#263238" stroke-width="1.1133" stroke-miterlimit="10" stroke-linecap="round"/>
<path d="M222.68 210.462L218.95 212.424" stroke="#263238" stroke-width="1.1133" stroke-miterlimit="10" stroke-linecap="round"/>
<path d="M260.5 201.381L265.73 200.148" stroke="#263238" stroke-width="1.1133" stroke-miterlimit="10" stroke-linecap="round"/>
<path d="M261.5 203.836H264.98" stroke="#263238" stroke-width="1.1133" stroke-miterlimit="10" stroke-linecap="round"/>
<path d="M262.24 206.291L266.97 207.514" stroke="#263238" stroke-width="1.1133" stroke-miterlimit="10" stroke-linecap="round"/>
<path d="M531.864 117.959C531.864 111.262 535.304 106.33 543.044 106.33C550.784 106.33 554.358 111.165 554.358 117.959V141.457C554.358 148.154 550.918 153.085 543.044 153.085C535.17 153.085 531.864 148.25 531.864 141.457V117.959ZM535.224 141.65C535.224 146.655 537.427 150.329 543.044 150.329C548.661 150.329 551.106 146.655 551.106 141.65V117.765C551.106 112.761 548.849 109.086 543.044 109.086C537.239 109.086 535.224 112.761 535.224 117.765V141.65Z" fill="#263238"/>
<path d="M559.652 117.959C559.652 111.262 563.092 106.33 570.832 106.33C578.572 106.33 582.146 111.165 582.146 117.959V141.457C582.146 148.154 578.706 153.085 570.832 153.085C562.958 153.085 559.652 148.25 559.652 141.457V117.959ZM563.011 141.65C563.011 146.655 565.215 150.329 570.832 150.329C576.449 150.329 578.894 146.655 578.894 141.65V117.765C578.894 112.761 576.637 109.086 570.832 109.086C565.027 109.086 563.011 112.761 563.011 117.765V141.65Z" fill="#263238"/>
<path d="M598.297 106.717C606.199 106.717 609.262 111.19 609.262 117.886V122.89C609.262 130.143 605.527 133.769 597.437 133.769H591.068V152.698H587.709V106.766L598.297 106.717ZM597.437 131.013C603.35 131.013 605.903 128.596 605.903 123.084V117.693C605.903 112.713 603.995 109.473 598.297 109.473H591.068V131.013H597.437Z" fill="#263238"/>
<path d="M635.841 117.814V118.805H632.616V117.62C632.616 112.785 630.574 109.086 625.038 109.086C619.502 109.086 617.432 112.64 617.432 117.475C617.432 128.62 635.895 128.813 635.895 141.505C635.895 148.129 632.697 152.989 624.876 152.989C617.056 152.989 613.858 148.153 613.858 141.505V139.088H617.083V141.65C617.083 146.485 619.179 150.112 624.796 150.112C630.412 150.112 632.536 146.558 632.536 141.65C632.536 130.602 614.073 130.409 614.073 117.62C614.073 110.706 617.432 106.258 624.823 106.185C632.213 106.113 635.841 111.19 635.841 117.814Z" fill="#263238"/>
<path d="M644.226 146.921V152.698H640.947V146.921H644.226Z" fill="#263238"/>
<path d="M653.363 146.921V152.698H650.058V146.921H653.363Z" fill="#263238"/>
<path d="M662.473 146.921V152.698H659.087V146.921H662.473Z" fill="#263238"/>
<path d="M542.668 173.61C550.569 173.61 553.633 178.058 553.633 184.755V189.759C553.633 197.012 549.897 200.662 541.808 200.662H535.466V219.567H532.079V173.634L542.668 173.61ZM541.808 197.785C547.72 197.785 550.273 195.368 550.273 189.831V184.44C550.273 179.46 548.365 176.245 542.668 176.245H535.466V197.785H541.808Z" fill="#263238"/>
<path d="M562.609 209.341L560.056 219.519H556.965L568.118 173.586H573.09L584.484 219.519H581.152L578.465 209.341H562.609ZM563.119 206.706H578.008L570.402 177.019L563.119 206.706Z" fill="#263238"/>
<path d="M611.305 184.827V188.236H608.026V184.634C608.026 179.799 605.93 175.955 600.287 175.955C594.643 175.955 592.574 179.702 592.574 184.634V208.543C592.574 213.378 594.67 217.125 600.287 217.125C605.903 217.125 608.026 213.451 608.026 208.543V198.607H601.308V195.851H611.305V208.326C611.305 214.974 608.08 219.954 600.287 219.954C592.493 219.954 589.268 214.974 589.268 208.326V184.827C589.268 178.203 592.466 173.199 600.287 173.199C608.107 173.199 611.305 178.203 611.305 184.827Z" fill="#263238"/>
<path d="M634.229 194.836V197.592H620.281V216.763H637.077V219.519H616.922V173.586H637.077V176.342H620.281V194.836H634.229Z" fill="#263238"/>
<path d="M656.937 219.567H653.874V173.634H658.254L673.573 212.314V173.634H676.636V219.567H672.928L656.803 178.469L656.937 219.567Z" fill="#263238"/>
<path d="M682.199 184.827C682.199 178.131 685.612 173.199 693.352 173.199C701.092 173.199 704.666 178.034 704.666 184.827V208.326C704.666 215.022 701.253 219.954 693.352 219.954C685.451 219.954 682.199 215.119 682.199 208.326V184.827ZM685.559 208.543C685.559 213.523 687.735 217.198 693.352 217.198C698.969 217.198 701.414 213.523 701.414 208.543V184.634C701.414 179.63 699.157 175.955 693.352 175.955C687.547 175.955 685.559 179.63 685.559 184.634V208.543Z" fill="#263238"/>
<path d="M718.829 219.567V176.366H708.482V173.61H732.669V176.366H722.215V219.567H718.829Z" fill="#263238"/>
<path d="M764.677 195.996V198.752H751.482V219.567H748.122V173.634H767.526V176.39H751.401V196.02L764.677 195.996Z" fill="#263238"/>
<path d="M772.417 184.827C772.417 178.131 775.856 173.199 783.596 173.199C791.336 173.199 794.91 178.034 794.91 184.827V208.326C794.91 215.022 791.47 219.954 783.596 219.954C775.722 219.954 772.417 215.119 772.417 208.326V184.827ZM775.776 208.543C775.776 213.523 777.98 217.198 783.596 217.198C789.213 217.198 791.659 213.523 791.659 208.543V184.634C791.659 179.63 789.401 175.955 783.596 175.955C777.791 175.955 775.776 179.63 775.776 184.634V208.543Z" fill="#263238"/>
<path d="M803.671 208.471C803.671 213.306 805.714 217.198 811.33 217.198C816.947 217.198 818.99 213.402 818.99 208.471V173.61H822.134V208.325C822.134 214.901 819.07 219.954 811.384 219.954C803.698 219.954 800.419 214.901 800.419 208.325V173.61H803.779L803.671 208.471Z" fill="#263238"/>
<path d="M831.083 219.567H828.02V173.634H832.4L847.718 212.314V173.634H850.782V219.567H847.073L831.083 178.469V219.567Z" fill="#263238"/>
<path d="M867.686 173.61C875.587 173.61 879 178.252 879 185.021V208.132C879 214.901 875.587 219.567 867.686 219.567H856.452V173.634L867.686 173.61ZM867.686 216.811C873.383 216.811 875.748 213.33 875.748 208.277V184.9C875.748 179.847 873.356 176.366 867.686 176.366H859.865V216.811H867.686Z" fill="#263238"/>
</svg>
