<svg width="28" height="28" viewBox="0 0 28 28" fill="none" xmlns="http://www.w3.org/2000/svg">
<path d="M4.95831 3.5C4.47524 3.5 4.08331 3.89193 4.08331 4.375V23.625C4.08331 24.1081 4.47524 24.5 4.95831 24.5H13.7083C14.1914 24.5 14.5833 24.1081 14.5833 23.625V20.5443C15.2282 22.8024 17.2265 24.5 19.6875 24.5C22.6565 24.5 25.0833 22.0732 25.0833 19.1042C25.0833 16.6432 23.3857 14.6449 21.1276 14C23.3857 13.3551 25.0833 11.3568 25.0833 8.89583C25.0833 5.92678 22.6565 3.5 19.6875 3.5C17.2265 3.5 15.2282 5.19759 14.5833 7.4557V4.375C14.5833 3.89193 14.1914 3.5 13.7083 3.5H4.95831ZM5.83331 5.25H12.8333V22.75H5.83331V5.25ZM19.6875 5.25C21.7109 5.25 23.3333 6.87237 23.3333 8.89583C23.3333 10.9193 21.7109 12.5417 19.6875 12.5417C17.664 12.5417 16.0416 10.9193 16.0416 8.89583C16.0416 6.87237 17.664 5.25 19.6875 5.25ZM14.5833 10.336C15.0937 12.127 16.4563 13.4896 18.2473 14C16.4563 14.5104 15.0937 15.873 14.5833 17.664V10.336ZM19.6875 15.4583C21.7109 15.4583 23.3333 17.0807 23.3333 19.1042C23.3333 21.1276 21.7109 22.75 19.6875 22.75C17.664 22.75 16.0416 21.1276 16.0416 19.1042C16.0416 17.0807 17.664 15.4583 19.6875 15.4583Z" fill="#00CD3A"/>
</svg>
