<svg width="28" height="26" viewBox="0 0 28 26" fill="none" xmlns="http://www.w3.org/2000/svg">
<g clip-path="url(#clip0_42_59)">
<path fill-rule="evenodd" clip-rule="evenodd" d="M8.806 26C19.3718 26 25.151 15.9957 25.151 7.32099C25.151 7.0362 25.151 6.75356 25.1342 6.47198C26.2584 5.54403 27.2286 4.39187 28 3.07356C26.9528 3.60473 25.8398 3.95307 24.7016 4.10665C25.9 3.2859 26.7974 1.99646 27.2272 0.474954C26.0988 1.2397 24.8654 1.77943 23.5788 2.06903C21.4032 -0.574018 17.7646 -0.702074 15.4504 1.78417C13.9594 3.38727 13.3252 5.77747 13.7886 8.05733C9.17 7.79175 4.8664 5.29914 1.9488 1.1986C0.4242 4.1984 1.204 8.03457 3.7282 9.96085C2.814 9.93045 1.9194 9.64917 1.12 9.14041V9.22372C1.1214 12.3483 3.0492 15.0388 5.7288 15.6579C4.8832 15.9219 3.9956 15.9602 3.136 15.7698C3.8878 18.4449 6.0452 20.2771 8.5022 20.3299C6.468 22.157 3.955 23.1491 1.3678 23.1459C0.9114 23.1443 0.455 23.1139 0 23.0515C2.6278 24.9778 5.684 26 8.806 25.9952" fill="#484848"/>
</g>
<defs>
<clipPath id="clip0_42_59">
<rect width="28" height="26" fill="white"/>
</clipPath>
</defs>
</svg>
