<svg width="16" height="18" viewBox="0 0 16 18" fill="none" xmlns="http://www.w3.org/2000/svg">
<g clip-path="url(#clip0_81_20)">
<path fill-rule="evenodd" clip-rule="evenodd" d="M2.07332 2.43962L6.55181 0.327774C7.4786 -0.109257 8.53652 -0.109258 9.46329 0.327773L13.9241 2.43125C15.2285 3.04637 16.0847 4.42886 15.9933 5.94029C15.6428 11.7377 14.0805 14.3585 9.85769 17.399C8.74322 18.2014 7.27313 18.1994 6.15786 17.3983C1.94791 14.3743 0.327743 11.7901 0.00548011 5.91996C-0.076951 4.41845 0.77791 3.05048 2.07332 2.43962ZM11.1684 7.6445C11.4108 7.36394 11.3828 6.93751 11.1056 6.69202C10.8285 6.44654 10.4074 6.47496 10.1649 6.75552L7.61389 9.7074C7.53558 9.79803 7.40069 9.81018 7.30783 9.73494L5.74977 8.47292C5.46226 8.24004 5.04273 8.28724 4.81272 8.57834C4.58272 8.86945 4.62933 9.29421 4.91684 9.52713L6.47491 10.7891C7.12493 11.3156 8.06916 11.2307 8.61732 10.5964L11.1684 7.6445Z" fill="#45BE1A"/>
</g>
<defs>
<clipPath id="clip0_81_20">
<rect width="16" height="18" fill="white"/>
</clipPath>
</defs>
</svg>
